<svg id="Layer_1" data-name="Layer 1" xmlns="http://www.w3.org/2000/svg" xmlns:xlink="http://www.w3.org/1999/xlink" viewBox="0 0 6402.2 1846.2"><defs><style>.cls-1{fill:url(#linear-gradient);}</style><linearGradient id="linear-gradient" x1="8950.55" y1="11651.94" x2="-3909.02" y2="9955.37" gradientTransform="translate(0 -9909.03)" gradientUnits="userSpaceOnUse"><stop offset="0" stop-color="#f5be17"/><stop offset="0.5" stop-color="#ef598a"/><stop offset="1" stop-color="#953b95"/></linearGradient></defs><title>FullStory Logo Color</title><path class="cls-1" d="M5659.2,520.7l266,732.7L6187,520.7h215.2L5895.5,1846.2H5690.7l130.9-353.5L5435.3,520.6ZM5141.3,729.6v737.7h-209V597.1c101.4-56.7,232.2-92.5,365.2-92.5,10.5,0,23.5.5,23.5.5l75.9,204.7a944.41,944.41,0,0,0-99.4-9.6,411.25,411.25,0,0,0-156.2,29.4ZM4591.6,986.1c0-189.2-111.9-309.1-272.3-309.1-156.2,0-269.9,119.9-269.9,309.1,0,187.2,114,307,269.9,307,160.4,0,272.3-119.9,272.3-307Zm-272.3,485.7c-278.7,0-481.3-197.6-481.3-485.7,0-290.2,202.6-487.8,481.3-487.8,280.8,0,483.4,197.6,483.4,487.8.1,288.1-202.6,485.7-483.4,485.7ZM3170.4,694.1V521h126.4l.8-236.8h206.9l-.8,236.8h266V694.1H3503.6v443.5c0,111.4,48.5,149.3,128.5,149.3,61.2,0,114-18.9,171-52.6v187.2c-61.2,31.6-137.2,50.4-225.9,50.4-152,0-280.8-75.7-280.8-288.1V693.9Zm-668.3,702.3V1198.8c86.6,65.2,190,105.1,285,105.1,92.9,0,154.2-31.6,154.2-105.1,0-75.7-54.9-102.8-175.2-134.6-194.2-44.2-276.4-122.1-276.4-283.9,0-189.2,143.6-281.8,333.6-281.8,105.6,0,190,23.1,268.1,71.5V761.3c-82.3-58.9-162.5-94.6-261.8-94.6-90.7,0-139.3,44.2-139.3,105.1s40.1,92.5,147.8,122.1c213.2,46.3,306.1,126.2,306.1,294.4,0,195.6-149.9,283.9-352.6,283.9-109.9-.4-220-29.8-289.4-76.1ZM2319.5.3V1467.4H2130.2V0ZM1940.9.3V1467.4H1751.6V0ZM1553.3,520.8v910.4c-109.8,27.3-253.3,42-363.1,42-268.1,0-432.8-86.2-432.8-347.1V520.7H964.3v590.8c0,138.8,84.4,189.2,221.7,189.2a1108.91,1108.91,0,0,0,160.7-12.9V520.7ZM352.6,694v773.3H145.7V693.9H0V520.7H145.7V344.8C145.7,113.4,272.4,0,468.7,0c73.9,0,130.9,14.7,183.7,46.3V237.6C601.8,204,555.3,185,491.7,185c-88.7,0-139.3,44.2-139.3,157.7v178H662.9V693.8Z"/></svg>