<svg width="256" height="256" viewBox="0 0 256 256" fill="none" xmlns="http://www.w3.org/2000/svg">
<g id="2019-progress-pride" clip-path="url(#clip0)">
<g id="Group 1">
<rect id="Rectangle 9" x="-106.495" y="43.6434" width="432.436" height="25.9459" transform="rotate(-10 -106.495 43.6434)" fill="#C4C4C4"/>
<rect id="Rectangle 10" x="-101.989" y="69.1951" width="432.436" height="25.9459" transform="rotate(-10 -101.989 69.1951)" fill="#85D2F8"/>
<rect id="Rectangle 11" x="-97.4835" y="94.7467" width="432.436" height="25.9459" transform="rotate(-10 -97.4835 94.7467)" fill="black"/>
<rect id="Rectangle 12" x="-92.9782" y="120.298" width="432.436" height="25.9459" transform="rotate(-10 -92.9782 120.298)" fill="#654321"/>
<rect id="Rectangle 13" x="-88.4727" y="145.85" width="432.436" height="25.9459" transform="rotate(-10 -88.4727 145.85)" fill="#EC3750"/>
<rect id="Rectangle 14" x="-83.9673" y="171.402" width="432.436" height="25.9459" transform="rotate(-10 -83.9673 171.402)" fill="#FF8C37"/>
<rect id="Rectangle 15" x="-79.4616" y="196.953" width="432.436" height="25.9459" transform="rotate(-10 -79.4616 196.953)" fill="#F1C40F"/>
<rect id="Rectangle 16" x="-74.9562" y="222.505" width="432.436" height="25.9459" transform="rotate(-10 -74.9562 222.505)" fill="#33D6A6"/>
<rect id="Rectangle 17" x="-70.4507" y="248.057" width="432.436" height="25.9459" transform="rotate(-10 -70.4507 248.057)" fill="#338EDA"/>
<rect id="Rectangle 18" x="-65.9454" y="273.608" width="432.436" height="37.7827" transform="rotate(-10 -65.9454 273.608)" fill="#A633D6"/>
<rect id="Rectangle 19" x="-111" y="18.0917" width="432.436" height="25.9459" transform="rotate(-10 -111 18.0917)" fill="white"/>
<rect id="Rectangle 10_2" x="-106.494" y="43.6433" width="432.436" height="25.9459" transform="rotate(-10 -106.494 43.6433)" fill="#FFADBD"/>
</g>
<path id="path3866" d="M112.84 41.5L71 48.8543L71 224H112.84V160.049C112.84 139.465 123.755 126.714 132.851 126.714C141.037 126.714 143.402 134.911 143.402 147.298V224H185.424V141.287C185.424 113.233 174.873 95.1992 147.404 95.1992C134.488 95.1992 121.936 98.8425 112.84 107.04V41.5Z" fill="white"/>
</g>
<defs>
<clipPath id="clip0">
<rect width="256" height="256" fill="white" transform="translate(256) rotate(90)"/>
</clipPath>
</defs>
</svg>
