<svg xmlns="http://www.w3.org/2000/svg" width="157" height="126" viewBox="0 0 157 126"><path fill="#FFF" fill-rule="nonzero" d="M42 0L30 2v22H12c.298-3.375.298-7.217 0-11V0L0 2v53h12V33h18v22h12V0zm93 1l-12 2v52h12V39c-.076-.005-.076-.005 0 0 10.008 16.202.196.331 10 16h12l-12-19 11-18h-11l-10 15V1zm-28 16c-10.262 0-18 7.097-18 21 0 10.565 5.046 18 17 18 6.886 0 11.26-2.433 11-3l-2-7c-.028-.409-3.728 1.01-6 1-3.313.01-7.485-1.341-7-11-.485-9.267 3.418-10.213 6-10 1.926-.213 3.002.868 4 2l6-6c-2.355-2.837-6.056-5-11-5zm-40 0c-11.332 0-19 8.576-19 20 0 11.377 4.614 18.864 15 19 4.95-.136 8.207-2.859 10-7 .718 4.482 3.432 7 3 7l10-3c0 .005-4.14-3.806-4-16V19c-.343.246-8.893-2-15-2zm0 9c.913 0 2.348.335 3 1v8c0 6.431-2.348 12-5 12-3.804 0-4-5.166-4-11 .065-5.572 1.37-10 6-10zm-5 45v43c0 2.118.828 2.936 3 3 1.138-.064 2.655-.269 4 0l1 7c-1.518.705-5.518 2-10 2-6.897 0-10-4.226-10-10V73l12-2zm66 0v20c1.831-2.414 4.42-3.772 8-4 9.366.228 14 7.698 14 19 0 11.512-7.7 20-19 20-6.21 0-14.183-1.901-15-2V73l12-2zm-98 3c8.431 0 12.185 3.05 15 6l-7 7c-2.451-3.237-4.998-4.186-8-4-5.98-.186-8.795 6.322-9 17 .205 10.136 2.618 17.254 10 17a19.498 19.498 0 0 0 10-2l3 9c-3.222.847-7.982 2-14 2-15.23 0-22-9.153-22-25 0-15.814 7.306-27 22-27zm44 14h12v23c.105 3.903.79 6.19 3 6 2.919.19 5.86-3.913 6-10V88h12v19c-.172 12.274 4 16.04 4 16l-10 3c.357 0-2.105-2.421-3-7-2.799 4.78-7.722 6.865-13 7-7.99-.135-11-5.246-11-13V88zm59 8c-2.832 0-5 5.952-5 13v7c.525.599 2.036 1 3 1 4.686 0 6-4.347 6-10 0-5.85-.197-11-4-11z"/></svg>