<svg xmlns="http://www.w3.org/2000/svg" viewBox="0 0 477.4 82.6"><path d="M62.366-.025l-18.2 3.2v32.8h-26c.1-5.4.1-11.1.1-16.3V.075l-18.3 3.2V81.575h18.3v-32.1h26v32.1h18.2v-75l-.1-6.6zm136.8 1.3l-17.5 3v77.3h17.5v-23.8h.1c14.7 24.1.3.5 14.6 23.8h17.7l-18.1-27.7 16.9-28h-17.1l-14.1 23.1v-47.7zm148.1 0l-17.5 3v63.6c0 7.9 4.5 14.1 14.6 14.1 6.4 0 12.2-1.9 14.4-2.9l-1.7-11c-1.7.3-3.9.6-5.4.6-3.3 0-4.5-1.2-4.5-4.8v-62.6zm97.8 0l-17.5 3v74.8c1.2.4 12.9 3.2 22.1 3.2 16.5 0 27.8-12.5 27.8-29.4 0-16.7-6.8-27.7-20.8-27.7-5 0-8.8 2-11.5 5.6v-29.5zm-144.1 4.3c-22.6 0-33.5 16.5-33.5 39.5 0 23.7 10.1 37.2 32.8 37.2 9 0 16.1-1.7 20.6-3.6l-4-12.4c-4.1 1.7-9.1 3.1-14.4 3.1-11.7 0-15.3-10.5-15.3-25.5 0-15.7 4.2-25.3 13.7-25.3 3.9 0 7.7 1.4 11.8 6.3l10-10.1c-4.2-4.7-9.8-9.2-21.7-9.2zm-142.2 19.3c-15.4 0-26.9 10.5-26.9 30.4 0 16.3 7.5 27.3 25.6 27.3 9.9 0 16.4-3.6 16.5-3.8l-3.2-11.7c-.3.1-5.8 2.2-9.3 2.2-4.8 0-11-2-11-15.9 0-14.1 5.8-15.5 9.5-15.5 3 0 4.6 1.6 6.4 3.8l8.6-8.9c-3.5-4.7-9-7.9-16.2-7.9zm-59.5.3c-16.5 0-27.8 12.6-27.8 29.5 0 16.6 6.8 27.6 21.4 27.6 8 0 12.8-4 15.2-10.8 1.3 7.3 5.3 11 5.3 11l14.1-4.4s-6.1-5.6-6.1-23.2v-26.5c-.3.1-12.9-3.2-22.1-3.2zm266 .8v37c0 11.7 4.4 19.3 16 19.3 7.8 0 15-3.1 18.8-10 1.6 6.6 5.2 10.2 5.2 10.2l14.1-4.4s-6.1-5.6-6.1-23.2v-28.9h-17.5v27.7c0 9.6-4.3 15.7-8.4 15.7-3.4 0-4.4-3.4-4.4-8.7v-34.7h-17.7zm-266 12c1.3 0 3.5.5 4.5.9v12.8c0 9.3-3.6 17.6-8.2 17.6-5.3 0-5.6-7.7-5.6-15.9.1-8.8 2.1-15.4 9.3-15.4zm353.9 0c5.3 0 5.6 7.7 5.6 16 0 8.9-2 15.4-9.2 15.4-1.4 0-3.7-.6-4.5-.8v-11.8c0-9.9 3.3-18.8 8.1-18.8z" fill="#e42d40"/></svg>