<svg width="768" height="450" preserveAspectRatio="xMidYMid" xmlns="http://www.w3.org/2000/svg" style="width:100vw;height:100vh;object-fit:cover"><g class="rsm-zoomable-group"><style>.rsm-geographies path{fill:#384046;stroke-width:0;outline:0}.rsm-markers circle{fill:#298fce;stroke-width:0;opacity:.667}</style><path fill="transparent" stroke-width="0" d="M96-48h575v545H96z"/><g class="rsm-geographies"><path d="M507.6 137.2l2.2 1 1.5-.4.3-1.2 1.5-.4 1.1-.8.2-2 1.7-.6.2-1 1 .8H519l1.6.6.7.3 1.3-.8.8.5.5-1.2h1.2l.3-.3v-1.1l.9-1 1.1.7-.1.8.6.1v2.2l1 .9.6-.6.8-.2 1.2-1.2 1.4.2h2l.5.8-1.2.3-1 .4-2.2.3-2.1.6-1 1.2.5 1 .4 1.4-1 1 .2 1-.4 1h-2l1 1.7-1.3.6-.7 1.6.3 1.5-.8.8-.7-.3-1.6.4-.1.7H520l-1 1.4.1 2.2-2.5 1-1.5-.2-.4.6-1.2-.3-2 .3-3.5-1.2 1.7-2.4-.3-1.6-1.6-.5-.3-1.6-.8-2 .8-1.5-1-.4.5-1.9zM433.6 251.1l.2.8-.2 1.1.3 1.2-.3.9.2.8h-4.3l-.2 7.7 1.3 2 1.4 1.5-3.8 1-5-.4-1.5-1.1h-8.3L413 267l-1.2-1.2h-1.3l-1.3.4-1 .5-.1-1.6.3-2.1.7-2.2.1-1 .7-2.3.5-1 1.2-1.5.7-1.1.2-1.8-.1-1.3-.6-1-.6-1.4-.5-1.4.1-.5.7-1-.6-2.3-.5-1.6-1-1.5.2-.4.9-.4h.6l.7-.2h6.1l.5 1.8.6 1.4.5.8.8 1.3 1.4-.2.6-.4 1.2.4.3-.6.5-1.4 1.3-.1.1-.4h1.1l-.2.8h2.5v1.5l.5 1-.3 1.4.1 1.5.7.8-.1 2.9.5-.2h.9l1.3-.3zm-24.3-12.3l-.5-1.8.8-1 .6-.4.8.8-.7.5-.4.6v1zM425 120.5l-.1 1 .3 1.1.8.7v.7l-.6.4-.1.9-.9 1.3-.4-.2v-.6l-1.1-.9-.3-1.3.2-1.8.2-.9-.4-.4-.1-.9.8-1.3.2.5.5-.3.4.8.5.3zM489.9 166.3h.3l.1.6 1.6-.4h1.7l1.3.1 1.3-1.6 1.4-1.7 1.3-1.5.4.9.4 2h-1l-.2 1.6.4.3-.9.5v1l-.5 1v1l-.4.6-6.2-1.3-1-2.5zM255 366.9l-1.3-.1h-2l-1-6.7 1 1.4 1.3 2.2 2.7 1.8 2.8.8-.7 1.5-1.8.1zm0-88.2l4 4 1.7.4 2.7 1.9 2.1 1 .4 1-1.8 3.9 2 .7 2.4.4 1.6-.4 1.8-2 .2-2.2 1-.5 1 1.5.1 2-1.6 1.4-1.3 1-2.2 2.5-2.5 3.4-.4 2-.3 2.7.2 2.6-.4.6v3l2.7 2.3-.2 1.8 1.4 1.1v1.3l-1.7 3.4-2.9 1.5-4 .5-2.2-.2.6 1.6-.2 2 .5 1.3-1.1 1-2 .4-2-1-.8.7.6 2.7 1.4.8 1-.8.8 1.4-1.8.8-1.4 1.8v2.7l-.3 1.5h-1.9l-1.4 1.5-.3 2 2.2 2.2 2 .5-.4 2.6-2.1 1.6-.9 3.4-1.6 1.1-.7 1.4 1 3 1.6 1.8-.9-.2-1.8-.5-4.8-.4-1-1.7-.3-2.2-1.2.2-.9-1-.6-3.1 1.4-1.3.3-1.8-.4-1.4.8-2.5.2-3.7-.4-1.6.8-.6-.3-1-1-.6.5-1.1-1-1-.8-3.3.7-.5-.7-3.3.2-2.8.2-2.4 1.1-1-.8-2.6-.3-2.4 1.4-1.7-.3-2.2 1-2.6-.3-2.4-.5-.5-1.3-4.4 1-2.7-.4-2.4.6-2.3 1.1-2.4 1.4-1.6-.7-1 .3-.8-.3-4.2 2.2-1.2.5-2.6-.3-.6 1.6-2.2 2.7.6 1.3 1.8.7-2h2.4zM471.1 122.6l2.8-.4.4.7.8.5-.3.7 1 .9-.4.9.9.7 1 .4v1.9h-.6l-1-1.5V127h-.9l-.6-.7h-.4l-.9-.7-1.5-.7.1-1.3zM281.7 454.4l-.2 2-.2 1.9-3.6-.6-3.8.3-2.4-1.4v-.2l-1.2-1.2 3.9.2 3.8.4 1-1.7.6-1.4zm-172-2.2l-3.1.5-2.9-1.4-1.6-1.4-.2-.3-1.6-1 .4-1.5 3.5.6 2.3 1.2 1.9 1.4zm195.8-5.8l2.3 1.7 1 2.4.5 1.7.3 2-2.5 1.4-2.7 1-3 1-3.5.8-4.1-.3-2.5-1.3V455l3.6-1.1 1.3-1.4.8-1.7.6-1.5.9-1.4.9-1.6h.9l2.5-.9zM167.7 429l2.5.5 2-.6-.6 1.3-1.4 1-2.6-.3-2.2-1.4v-1.2zm-7.7-.1l3.2 1.4-1.1-.1-2.5-.4-2.7-1 1-.8zm46-5.7l2 .5 2-.4 1.5 2-1.5-.2-2.1.1-2.3-.1-2.4.2-2-.7-1.3-1.5 1-.7 2.4.5zm54.3-3.5l.5 1.6-.1 1.4-.3 1.4-2 .5-1.9.7h-2.3l.6-1.5-2 .5-2 .5-1.5-1-.4-1.6 1.7-1.4 1.2-.4 2 .1.3-1.8-.2-1.3-.5-2.9.7-1.7 1.6-.5 1.2 1.3.7 1.3 1 1.6.9 1.6zM84.5 474h.1l.3-2.5 3.6 1.4.2-.2 1-1.3h.5l3.3 1.8 1.2-1.8.3-.2 4.6-.8 2 1 1 .6 3.2 1.4 5.3 1.1 4.3 1.4 6.9 1 4.2-1.2 7.4.9 4.6 1.4 3.8-1.3 4.2-1.2-.5-2.1-6.6-.2-5.8-1-2.1-1.7-4.9-1-.5-1.8-.1-1.8v-1.6l-1.1-1.7-3.3-1.1-2-1.5-3.1-1.3 4.2.2 3.7-.6 3 1.4 2.6-1.2 2.2-1.6.8-1.3-1.2-1.7-2.7-1.1-3-1.2-3.6-.2-3.4-.6-3.5-.4-1.7-1.5-2.8-1.2-2-1.4-2.3-4.5 1 .4 2 1.2 2.8-.3 2.5-.6 2.1 1.7 2.7-.4 2-.8 1.7-1 1.5-1.4 2.5-.4-.6-1.4-1.2-1.4V436l2-.6 1.6 1.2 2.4-.7 1.7-1h2.5l2.2-.4 2.1-1 1.6-.7 1.9-.8 1.5.2 1.3.3 2.5-.5 2.6.6h2.4l2.1-.6 2.5.4 2.8.4 2.4-.2 2.6.1h5.1l1.4-1.2 2-.6 2.5.8 2-.6 1.4-1.3 1.5 1.1 1 1.3 1.6 1.3 1.5-1.1 2.5 1.4 2.5.4 2.4 1 2.4-.1 2-.7 2.8.1 2.5.6 2.6.6.5-1.6-1.5-1.3-1.2-1.3-2.4-.3-1.3-1.4-.8-1.4-1.3-2.7 1.5.5 2.4.2 2.2-.2 2.3.6 2 1 1.2 1.4 2.4.2 2.2-.5 2.3-.7 2-.5 2.1.9 2.3-.3 1-2.8 1.7 1.6 2.2.7 2.2-.4 1.8 1.5 2.4.1 2.2.5 2.3.8 1.1-1.4.5-1.3 2 1.4 2.4-.3 2 .8 1.5 1.2 2.3-.4 1.6-.8 1.7-1 2-.4 2.5-.4 2.2-.6 1.6-.7.9-1.2.1-1.6-.4-1.5-.9-1.4-.8-1.4-.8-1.4-.7-1.3-.4-1.3v-1.4l.6-1.3.5-1.5v-1.3l-.5-1.5-.5-1.4.7-1.5.8-1 1-1.3 1.1-1 1.4-1 .5-1.5.8-1 1-.8 1.8-.2 1-1 1.3-.7 1.5-.4 1.2-.8 1-1 1.3-.4 1.2.8-.5 1.1-1.8 1-.7.7-1.4-.5-1.5.3-1.2.8-1.2.8-.8 1v1.3l.3 1.3 1 1.1-1.2.8-1.6.3-.9 1.1-1 1.1-.8 1.5-.1 1.3.9 1.4 1.1 1.1 1.6.8 1.6 1.1 1 1.4.6 1.3.7 1.4 1 1.2.8 1.3.7 3.4.8 1.3.3 1.5.8 1.4v2l-.6 1.5-.9 1.3-2.3.5-.5 1.3-1 1.3-2.3 1.4-2.3.6-2 .8-2.3.9-1 1.5-2.9.2-3-.2-2.8.3h-3l.9 1.6 2.8.7 2.2 1 1.3 1.4-1.7 1.3-3-.4-2.3 1 .2 1.6.3 1.6 2.3 1.3.7 1.5 2.5 1.5 3.7.7 3.3 1.1 2.7 1.3 3.4 1.3 4.3.6 4.4 1.2 3 1.2 3.5 1.4 2 2 1 1.6 1.8-1.5 2.6-1.3 2.7-1.3 3.4-1 2.9-1.2h4.2l4.2.5 3.6 1 .8-1.8 2.3-1.2 4.3-.1 3.3-1 3-.8 3.6-.6 3.7-.7 2.6-1-1.4-1.5-.8-1.4-.1-1.5-3.4.2-3.5.6h-3.3l-.7-1.5v-3l.7-.8 2.4-1 2.9-.9 2-1.1 2-1.2 1.5-1.5 2.3-.7 2.4-.5 1.1-.3 2.8-.2 2.5-.5 2.1-.8 2.1-.9 2-.8 2.3-1.2 1.5-1.3 1.6-1.1.5-1.5-2-.9.6-1.5 1.2-1.1 1.8-.8 2-.8 1.7-1.2 1.4-1.4.8-1.7 1.3-1 2.2.2.9 1.2 2.1.1V421l1-1.4 2 .3.4 1.4 2.2.2 2.3-.6 2.3-.5 2 .2.8 1.5 2-1.2 1.8-.6 2-.5 2-.5 2-.8 2-.6 1.5-.8 1.2-1.2 1.3.9 1.9-.5 1.3 1.7 1 1.2 2-.7.9-1.4 1.9-1 2.4.3.6 1.3 1.6-1.3 2-.5h4l2 .4 2 .2.7 1.2 1.2 1 2-.6 2.1-.1h2l2-.1 2-.5 1.9-.4 1.7-1 1.7-.6 1.9-.4 1.5-1 1.1-1.9 1.2-1.1 1.8.5.6 1.3 1.5.8 2-.3 1.1 1.3 1.3.9 1.9-.9.8-1.5 1.7-.6 2-1.2 1.9-.5 2.2-.6 1.5-.8 1.6-.8 1.5-.7 1.7.4 1.8-1.3 1.3-.9h1.7l1.6-.7.5-1.2 1.7-1 1.6-.6 2-.6 1.7-.2 1.6.2 1.7.3 1.3 1v1.4l1.5 1.1 1 1 2 .4 1.2 1 1.3.9 1.8.2 1.5-.7 1.8-1.4 1.7.7 1.7.4 1.7.4 1.7.3h1.8l1 3.6-.3 1-.5 1.5-1.9 1-1.6 1.2v1.4h2l-.5 1.4-1.1 1.3-1.1 1.5 1.1 1.2 2 .3 2.2-.6 1.3-1.5.8-1.3 1.2-1.1 1.4-1 .6-1.4 1.3-1.7 1.2-.3 2.1-.2 2-.4 1.9-.6 1.1-1.3.8-1.3 1.5-1.3 2-1 1.7-.6 1.2-1.1 1.2-.7 1.4-.5 1.8.3 1.7-.3 1.9-.4 2 .2 1.5-1 1.4-2.2.5 1 .5 1.5 1.4.7 1.7.3 1.9-.4 1.8.2 1.7.1 1.2-.3 1.6.2 1.2.7 1.7-.5h2l1.8-.4 1.8.4 1.5-1.1 1.2-1.1 1.5-1 3-2.5 1 .5 1.2.9 1 1.2 1.8 2 1.8.1h1.7l2-.4 2.2-.4 1.7-1 1.6-1 2-.1 1.6-.7 1.3.6.7 1 1 1.2 2-.2 1 .9 2 .9 2.2.3 2-.3 1.8-1 1.5-1.1 1.7-.3 1.6.5 1.8.3 1.9-.5h1.6l1.6.3 1.6.4 1.8-.6 2.2-.6 1.9-.1h2l1.9-.3 1.7-.3 1-1.7.6-1.4.9 1-.2 1.5.2 1.4.3 1.1 1.4.6 2.2-.2h2.4l1.7-.2h2.4l1.8-.1 2.4.1 2 .3.9 1-.9 1.4.9 1 1.7.8 1.7.9 2.1.6 2.3.5 1.7.6h2l1.6-1.1 1.3 1 1 1 1.2.9 2.1.3 2 .4.3 1.4 1.7.9.9 1.2 1.8.6h2.1l1.9.1h2.2l2 .2 1.8.5 1.5.9 1.6.7.8 1-.8 1.5-1.5 1.3-1.5 1.6-1.2 1.3-1.5 1.5-2.6.6-1.6 1.3-2.7.8-1.4 1.5-1.8 1.4-1.8 1.2-1.4 1.6-1 1.4-1 1.8-.6 1.4.4 1.6-.3 1.4.2 1.4 3 .5v1.8l-3.5.6-3 .9-3.4.1-2.4 2.3-1.1 2-1.4 1.4-1.6 1.6 1.7 1.3.1 1.7.8 1.6 1.4 1.4 1.8 1.3 2 1.3 3.1 1.4v2l4.3 1 .2.3.6 1.3 5.2-1 3.1 1.3 2.4 1-12 24.1h-575zM519.3 348.4l1.2.9 1.8.4v.5l-.7 1.3-3 .2.1-1.5.4-1.2zM674.8 326.6l1.7.9 1.2-.4 1.7-.5 1.1.2-.6 3.2-.9 1-.7 2.2-.5-.8-1.9 2-.4-.2h-1.2l-.6-2.4.1-1.9-.6-2.3.3-1.3zm6.6-68.6l.6 1.9 1.4-1 .6 1 .9 1-.3 1.1.2 2 .2 1.3.5.3.4 2-.3 1.3.5 1.7 2 1.3 1.4 1.2 1.2 1-.3.6 1 1.6.5 2.6.9-.5.7 1 .5-.3v2.6l1.3 1.5.8 1 1.3 2 .3 2-.2 1.5-.4 1.5.7 2.2-.5 2.2-.6 1.2-1 2.3-.2 1.5-.7 1.8-1.3 2.3-1.8 1.3-1 2-1 1.3-1 2.3-1.1 1.3-1 2-.6 1.8v.8l-1.4 1h-2.3l-2 1.1-1.2 1-1.4 1.2-1.5-1.2-1-.4.5-1.4-1.2.5-2.1 2-1.6-.8-1-.4-1.2-.2-1.8-.8-1-1.6v-2l-.2-1.4-.7-1-2-.4 1-1.2-.2-2-1.3 1.8-1.9.5 1.4-1.4.5-1.6 1-1.2.2-2-2 2.3-1.5.9-1 2-1.5-1 .3-1.4-1-2-.8-.9.4-.6-2.3-1.6h-1.4L651 302l-3.7.3-2.7.9-2.5.8-1.9-.1-2.3 1.3-1.9.6-.6 1.4-1 1h-1.6l-1.3.3-1.8-.5-1.5.3-1.4.1-1.4 1.4h-.6l-1 .7-1.2.8-1.5-.1h-1.3l-1.9-1.7-1-.5.3-1.5 1-.3.4-.6.1-1 .5-1.7v-1.6l-.7-2.6-.2-1.4.3-1.5-.6-1.6v-.8l-.7-1v-2l-1-2-.2-1 .8 1-.4-2.3 1 .7.4 1 .1-1.3-.8-2v-.7l-.5-.8.4-1.4.5-.6.4-1.3v-1.4l1-1.8-.1 1.9 1-1.7 1.8-.9 1-1 1.7-1 1-.1.5.3 1.8-1 1.2-.2.4-.5.6-.3 1 .1 2.3-.7 1.2-1.1.7-1.3 1.3-1.3.2-1 .1-1.3 1.6-2 .7 2 1-.4-.7-1.2.8-1.1.8.5.4-1.9 1.2-1.2.6-1 1-.3.2-.7.8.3.1-.6 1-.4 1-.3 1.4 1.1 1 1.4h1.4l1.3.3-.4-1.3 1.2-2 1-.6-.4-.6 1-1.4 1.3-.8 1 .2 1.9-.4v-1.2l-1.5-.8 1.1-.4 1.4.6 1 1 1.7.6.6-.2 1.3.7 1.2-.7.8.2.5-.4.9 1.2-.6 1.2-.9 1-.7.1.2 1-.7 1.2-.9 1.2.1.7 1.6 1.3 1.5.8 1 .8 1.4 1.5h.6l1 .6.2.7 2 .9 1.4-.9.5-1.3.5-1 .4-1.4.8-2-.2-1.1.2-.7-.2-1.4.4-1.8.5-.5-.3-.8.6-1.3.5-1.3v-.7l.9-.9.5 1.2v1.5l.5.3v1l.7 1.2v1.4zM417.4 103l-.1 1.2h-1.1l.4.6-.6 1.9-.4.4-1.7.1-1 .6-1.6-.2-2.9-.7-.4-1-2 .5-.2.5-1.2-.4h-1l-1-.6.4-.7-.1-.5.6-.1 1 .8.3-.8 1.7.1 1.4-.5 1 .1.6.6.1-.5-.3-1.8.7-.4.7-1.3 1.5.9 1-1.2.7-.2 1.6.9.9-.2.9.6-.1.3z" class="rsm-geography" tabindex="0"/><path d="M476.7 129l-1.4-.4-1.1-1.2-.4-1 .4-.1.6.7h1v.4zm4.3-8.3l1.1 1.4 1.2 2h1l.6.8-1.6.2-.2 2.1-.3 1-.7.6.1 1.3-.4.1-1.4-1.4.6-1.3-.7-.8-.7.2-2.2 2-.2-1.9-1-.4-.8-.7.5-1-1.1-.8.3-.7-.8-.5-.4-.7.4-.4 1.6.7 1 .2.3-.3-1-1.5.4-.4.6.1 1.5 1.7.8.2.3-.7zM445 235.7l-.1-2.8-.5-1.1 1.2.2.7-1.4 1 .2.2.9.4.5v.8l-.5.5-.8 1.3-.7.8zM390.5 93.7l1.4.2 1.8-.6 1.2 1.3 1.1.7-.2 2h-.5l-.2 1.7-1.7-1.3-1 .2-1.4-1.4-.9-1.1h-1l-.2-1.1zM389.6 210l-1.7.3-.5-1.6v-5.5l-.4-.5v-1.2l-.8-.8-.6-.7.3-1.3.7-.3.4-1 1-.2.5-.8.7-.7h.7l1.6 1.4v.8l.4 1.4-.4 1 .2.7-1 1.4-.7.8-.3 1.5v1.5z" class="rsm-geography" tabindex="0"/><path d="M378.1 202l-1.4-.7-1 .1-.7.6-1-.5-.3-.8-1-.5v-1.4l.5-1V197l1.6-2 .3-1.7.6-.6 1 .4.9-.5.3-.6 1.6-1.1.4-.8 1.9-1 1.1-.3.6.4h1.3l-.2 1.2.3 1 1.2 1.7v1.1l2.4.6v1.6l-.5.8-1 .2-.4 1-.7.3H384l-1-.2-.6.4-.9-.2h-3.6v1.5zM574.7 171.8v1.8l-.7-.4.3 2-.7-1.3-.2-1.3-.5-1.1-1-1.5h-1.8l.2 1-.5 1.3-1-.5-.2.5-.6-.3-.8-.2-.5-2-.9-2 .3-1.4-1.3-.7.3-1 1.2-.8-1.5-1.4.5-1.7 1.7 1.1 1 .1.4 1.8 2 .3h1.8l1.3.4-.8 2.1-1 .2-.4 1.4 1.2 1.3.2-1.6h.6zM429 114l.6 1.1.7-.2 1.6.5 3 .1.9-.7 2.3-.6 1.5 1 1.1.3-1 1.1-.6 2 .7 1.5-1.7-.3-2 .8v1.4l-1.8.2-1.4-1-1.6.8h-1.5l-.2-1.8-1-1 .3-.3-.2-.3.3-1 .7-.8-1-1.2-.2-1zM224.8 167.5l-.6.2-.4-1.5-.7-.7.6-1.6.6.1.6 2.1zm-.1-7l-2.3.4v-1l1-.1h1.3zm1.7 0l-.5 1.7-.4-.3.2-1.3-.9-1v-.3zM421.7 112.3h.7l-.5 1.2 1 1-.2 1.3-.5.2-.4.2-.6.7-.2 1.5-1.8-1-.8-1.2-.8-.6-1-1-.4-1-1-1.2.4-1.2.7.7.4-.6h1l1.7.4h1.4zM429.4 86l1.9.1 2-1.1.4-1.7 1.5-1-.2-1.4 1.1-.5 2-1.1 2 .7.4.8 1-.4 1.9.7.3 1.5-.4.8 1.3 2 .9.5-.1.5 1.3.6.6.8-.7.6h-1.5l-.4.2.5 1 .6 1.9-1.7.2-.5.6v1.5l-.8-.3-1.8.1-.5-.6-.7.5L439 93h-1.5l-2.2-.7-2-.3-1.5.1-1 .8-1 .1v-1.3l-.7-1.4 1-.6v-1.1l-.5-1.2zM199.9 182.2v-.4h.2l.4.2.8-1.5h.4v.4h.4v.7l-.5 1 .2.4-.3.9.1.2-.3 1.2-.4.7h-.4l-.4.9h-.7l.4-2.8zM246 280l-1.4.3-1-3.5-1.3-2.7.5-2.4-1.1-1-.4-1.8-1-1.7 1.1-2.6-1-2 .5-.9-.4-.9.7-1.2V256l.5-.8-2-4 1.6.3h1l.5-.8 1.8-1 1-.9 2.8-.4-.2 1.8.3 1-.1 1.6 2.3 2.1 2.3.4.9 1 1.4.4.9.7h1.3l1.2.7.1 1.4.4.7.1 1h-.6l.9 3h4l-.3 1.4.3 1 1.1.7.6 1.5-.3 2-.5 1 .2 1.4-.6.5v-.8l-2-1.2h-2l-3.5.7-.9 2.1v1.3l-.6 3-.4-.5-2.4-.1-.7 2-1.3-1.8-2.7-.6z" class="rsm-geography" tabindex="0"/><path d="M266.6 298.7l2.5-3.4 2.2-2.5 1.3-1 1.6-1.4v-2l-1.1-1.5-1 .5.3-1.4.2-1.5V283l-.8-.4-.8.4-.8-.1-.2-1-.3-2.3-.5-.7-1.4-.7-.8.5-2.2-.5V275l-.7-1.4.6-.5-.2-1.4.5-1 .3-2-.6-1.5-1.1-.7-.3-1 .3-1.4h-4l-.9-3h.6v-1l-.5-.7-.1-1.4-1.2-.7h-1.3l-1-.7-1.3-.5-.9-.9-2.3-.4-2.3-2.1V251l-.2-1 .2-1.8-2.7.4-1 1-1.9 1-.4.6h-1l-1.6-.1-1.2.4-1-.3v-3.6L236 249h-1.8l-.8-1.4H232l.4-1.1-1.2-1.5-.9-2.1.5-.5v-1l1.3-.7-.3-1.3.5-.8.2-1.1 2.3-1.6 1.7-.5.3-.4 1.9.2.9-6.6v-1l-.3-1.4-1-.9v-1.7l1.2-.4.5.3v-1l-1.2-.2v-1.5h4l.7-.8.6.8.4 1.4.4-.3 1.1 1.3 1.7-.2.4-.7 1.5-.6.9-.4.2-1 1.5-.6-.1-.5-1.8-.3-.2-1.5V216l-.9-.6.4-.2 1.6.3 1.6.6.6-.6 1.5-.3 2.3-1 .8-.8-.2-.7 1-.1.5.5-.3 1 .7.5.5 1-.6.9-.3 2 .5 1.2.1 1.1 1.3 1.2h1l.3-.4h.6l1-.5.7-.6 1.1.2.5-.1 1.1.2.2-.5-.3-.5.2-.7.8.2 1-.2 1.2.5 1 .5.6-.7.4.1.3.7 1-.2.8-.9.7-1.7 1.2-2.2.7-.1.5 1.3 1.2 4.2 1 .4.1 1.6-1.5 2 .6.7 3.7.4v2.4l1.6-1.6 2.6.8 3.5 1.5 1 1.4-.3 1.3 2.4-.7 4 1.2h3.2l3 2 2.7 2.6 1.6.7h1.8l.8.8.7 3 .3 1.5-.7 4-1 1.6-3 3.3-1.2 2.7-1.5 2.1h-.5l-.6 1.8.3 4.6-.5 3.7-.2 1.6-.6 1-.3 3.3-2 3.2-.3 2.5-1.6 1.1-.4 1.5h-2.2l-3.2 1-1.4 1-2.3.8-2.3 2-1.7 2.4-.2 2 .4 1.3-.2 2.6-.4 1.2-1.4 1.4-2 4.5-1.6 2-1.3 1.3-.8 2.4-1.2 1.5-.7-1.5.8-1.2-1.3-1.8-1.7-1.4-2.2-1.6h-.7l-2.2-2zM621.4 214.2l.8-.9 1.8-1.3-.1 1.2v1.5h-1l-.5.7zM571.4 157.5l1 .8v1.5l-1.7.1-1.8-.2-1.2.4-2-1v-.4l1.1-2 1-.6 1.6.6h1zM444.6 278.3l-3 1.8-1.9 1.9-.7 1.7-.7.9-1 .2-.5 1.2-.2.8-1.3.6-1.7-.2-1-.7-.8-.3-1 .6-.5 1.2-1 .8-1 1-1.6.3-.4-.8.2-1.6-1.1-2.4-.6-.3.1-7.3h2l.3-8.8 1.5-.1 3.2-.9.8 1 1.3-1h.6l1.2-.5.4.2.7 2 .5.4.6 1.4 2.3 2.7.8.3v.9l.6 1.5 1.6.4zM415.7 207.3l1.8-.2.3-.6h.4l.5.6 2.6-1 .9-.9 1-.8-.1-.9.5-.2 2 .2 2-1.1 1.5-2.7 1-1 1.3-.3.3 1 1.2 1.5v1l-.3 1 .1.7.7.7 1.6 1 1.2 1v.8l1.4 1.2.9 1 .5 1.5 1.6 1 .3.7-.7.3H439l-1.6-.3-.8.2-.3.5-.6.1-.9-.5-2.3 1.2-1-.2-.2.2-.6 1.4-1.6-.5-1.5-.2-1.3-.9-1.7-.8-1.1.8-.8 1.2-.2 1.6H421l-1.4-.5-1.2 1.3-1.1 2.2-.2-.7-.1-1-1-.9-.7-1.2-.2-.8-1-1.3.2-.7-.2-1 .1-1.9.5-.4zM258.3 107.5l1.4.4h1.9l-1.1 1-.8.2-2.4-1.1-.3-1 .8-.9zm4.5-7.3h-1l-2.4-.8-1.6-1.4.7-.2 2.4.7 2 1.2zM141.4 102l-1 .4-3-1.3-.3-1-1.5-1-.2-.8-1.9-.6-.4-1.5.4-.7 1.9.6 1 .5 1.8.3.4 1 .7 1.4 1.7 1.1zm133-6.3l-1.6 2.6 1.4-1 1.3.6-.8 1 1.6.8 1-.7 1.9 1-.8 2 1.4-.5.1 1.5.4 1.8-1 2.5-1 .1-1.2-.5.7-2.3-.5-.4-2.6 2.5-1.1-.1 1.5-1.4-1.8-.7-2.2.2h-3.8l-.2-1 1.3-1-.7-.7 1.8-1.7 2.5-4.7 1.4-1.6 1.8-1 1 .1-.6.8zM126.7 85.3l.8.4 1.9-.2-1.5 3.4 1 2.3h-.7l-.8-1.3-.4-1.4-.7-1v-1.2zm108.3-25l-1 1.8-.8-.3-.3-1 .1-.2 1-1 .7.1zm-4.6-1.7l-2.5 1.8-1.3-.1-.3-.9L228 58h2.6zm-4.2-9.8v1.5l1.1-.6 1 1 1.8 1 1.9 1.1-.1 1.6 1.4-.3 1.1 1.1-1.8 1-2.8-.7L229 54l-2.2 1.7-3 1.8-.2-2-2.6.3 2-1.6.7-2.6 1.3-3.1zm18.2-5.1l-2.1.2-.2-1.7 1.2-2 1.7-.4 1.3 1-.2 1.4-.3.5zm-34.8-6.8l-1.5 1.2-2.2-1-1.6.4-2-1.6 1.8-1.1 1.7-1.6 1.6 1 1 .7.4.7zm41.4 74.6l-1-1.6.4-3.8-.8-.9-1.4.5-.6-.7-1.7 2.1-.9 2.2-.8 1.3-1 .4-.6.2-.3.6h-6.6l-1 .6-2.3 2-.3.2-.8 1h-3.8l-1 .5.3.6.1.8v.3L224 119l-2.2.5-2.5 1.4H219l-.6-.4-.2-.4.1-.3.6-1 1.1-1.4.8-1.7v-2.4l-.1-2.5-1.9-1.3.3-.5-.2-.4h-.6l-.3-.4v-.7l-.4.3H217l.1-.4-.4-.2v-.8l-1.5-.9-1.4-1-1.8-1-1.7-1-1.8.7h-.7l-2.3-.7-1.7.4-1.7-.9-2-.5-1.3-.1-.5-.5v-1.6h-.7l-.2 1.1H142.8l-3.1-2.8-1.1-1.3-3.3-1.2-.5-2.6.8-1.8-2.2-1.3.3-2.4-1.8-2.1.4-1.6 1.4-1.4.5-2-2.8-2-1-3.4-.5-2.3-1.3-1.4-1-1.3-.5-1.6-2.2 1-2.3 1.8-1.1-2.1-1-1.4-1.5-.9h-1.8l6-18.8 4.4-12.8 3.1.8 2.3 1.7 1.8.3 2-1.4 2.6-1.1 2.6.4 3.2-1.6 3.3-.8.8 1.4 1.6-.8 1-1.7 1 .4 2.1 3.2 3.2-2.4-.6 2.7 2.4-.6 1-1 2.2.2 2.3 1.4 4 1.3 2.3.6 1.8-.2 2 1.8-3 1.7 3 .7 5.1-.4 1.7-.6 1.4 2.1 2.5-1.7-1.5-1.5 1.5-1.2 2.3-.2L190 38l1.3.8 1.3 1.9 2.1-.3 3 1.6 2.9-.6 2.6.1.3-2.1 1.8-.6 2.6 1.1-.8 3.3 1.8-2.7h1.5L212 37l-1.4-2.1-1.8-1.5 1-4 2.8-2.6 2.3.6 1.4 1.6 1.5 4-2 1.8 3.3.7-.8 3.6 3-2.7 1.7 2.2-1.1 2.6 1.3 2.3 2.4-2.5 2-3 .9-3.8 2.5.2 2.6.6 2 1.7-.1 1.7-1.8 2 1 1.8-.6 1.6-4 2.4-2.8.5-1.7-1-.9 1.7-2.3 2.9-.9 1.4L219 54l-2.7.2-1.8 1.4-.5 2.2-2.3.4-2.8 2.6-2.8 3.6-1.3 2.6-.9 3.6 2.7.6.3 2.9.4 2.3 2.8-.6 3.3 1.4 1.7 1.1 1.1 1.5 2.3.8 1.8 1.3 3.2.2 2 .3-.7 2.6v3l1 3.3 2.4 2.8 1.7-1 1.5-3-.3-4.7-1.1-1.6 3.3-1.4 2.5-2.1 1.4-2.2.2-2-.9-2.7-1.9-2.3 2.8-3.3-.3-3 .2-5 1.5-.7 3 .9 1.9.3 1.7-.9 1.6 1.1 2 2 .4 1.2 3.3.2-.5 2.7v4l1.7.5 1.1 1.8 3-1.7 2.3-3.5 1.5-1.5 1 2.9 2 4 1.6 3.7-1 2 2.4 1.7 1.5 1.7 3 .8 1 1 .5 2.5 1.5.4.7 1.1-.3 3.3-1.5 1.2-1.5 1-3.3 1-2.7 2.4-3.4.5-4.1-.6h-3l-2 .2-1.9 2-2.7 1.3-3.3 3.8-2.6 2.6 1.8-.4 3.6-3.8 4.4-2.4 3-.2 1.5 1.4-2 1.9.2 3 .4 2.2 2.5 1.4 3.3-.4 2.3-3.2-.1 2 1.2 1-2.7 2-4.5 1.6-2.1 1.1-2.4 2-1.5-.2.1-2.3 3.7-2.4-3.1.1zm-71-89l-1.5 1.7 4.3-1.1 2 1.8 2.5-1.9 1.3 1.2.5 3.6 1.3-1.5-.2-3.7 1.7-.6 1.6.6 1.6 1.5.2 3.5v2.6l2.5 1.8 2.8 1.7-.6 1.5-3 .3.8 1.4-1 1.2-3.1-.5-2.9-1-2.2.3L185 38l-4.8.5-3.3.3-.6-1.6-2.2-1-1.7.4-1.4-2.8 1.3-.4 3-.6 2.5.2 2.5-.7-3.3-.8-4 .3h-2.5l-.5-1.4 4.6-1.4h-2.8l-2.9-1 2.3-2.7 1.7-1.4 5.5-2.3zm17.5-1.2l-2.2 2.5-2.1-2.6.7-.5 2.4-.2zm50 1.2v1h-2l-1.8-.2-2 .5-.6-.2-1.5-2 .3-1.3 1-.2 4 .4zm-18.2-.2l.9 2.3 2.3-3 4.8-1.5 2.3 3.8-.8 2.4 3.8-1 2-1.5 3.6 1.9 2.2 1.7V29l3.4-.8 1.5 2.3 4 1.4 1.4 1.4 1.2 3.3-3.6 1.7 4 2.2 2.7.8 2.2 3.2 2.8.2-.9 2.4-3.8 3.9-2.1-1.4-2.4-3.3-2.5.4-.5 2 1.6 2 2.3 1.5.6.9.8 3.2-1 2.4-2.3-.9-4.2-2.6 2.2 2.8 1.6 2 .2 1.1-5-1.3L251 58l-2-1.6.8-1-2.5-1.6-2.4-1.6-.1 1-5.5.5-1.4-1.2 1.7-2.4 3.5-.1 3.9-.4-.4-1.2.9-1.7 3-3.4-.3-1.5-.5-1.2-2.5-1.7-3.4-1.2 1.3-.8-1.5-2.2-1.6-.2-1.2-1.2-1.2 1-3.3.5-6.5-.8-3.6-1-2.8-.6L222 31l2.3-1.6h-2.6l.3-3.7 2.1-3.3 2.2-1.5 4.8-1zm-24-2.5l2 .7 3.2-.4.2 1-2.1 1.8 2.3 1.6-1.1 3.3-3.3 1.4-1.7-.3-.9-1.4-3.7-2.8.3-1.2 3.6.5-1.4-2.4zm11.8 4l-2.6 2.7-2-.2-.3-3.2.4-1.8 1.4-1.6 2-1 3.6.1 3.2 1-3.4 3.2zm-50.4 5l-5.3 1.7L161 29l-3.6-1.9 1.3-1.5 2-2.7 2.4-2.4-1-2.3 6.2-.6 2.3.8 4.4.2 1.4 1 1.5 1.6-2.5 1-5.2 2.6-3 2.5zm51.6-13.3L217 17l-2.5-.3-1.9-1L214 14l2.8-1 1.2 1.3zm-7-6.7l1 1.8-.5 2-1.5 2.8-3 .4-1.8-.6.7-2.2-3 .3.7-3 1.8.1 3-1.3 2.4.2zm-17.5 2l.3 1.4 1.8-.6 1.8.1-.3 1.9-1.5 1.8-6.2.6-5 1.6-2.7.1.2-1.2 4.1-1.7-8 .4-2.3-.6 3.5-3.8 2-1L186 11l2.5 2.2 3 .3L190 10l2-1.4 1.7.5zm24.6-3.4l1.7 1.2h3.4l1.2 1.3-.7 1.4 1.8.9 1 .9 2.3.2 2.5.3 3-.8 3.6-.4 2.8.3 1.6 1.4v1.6l-1.2 1-2.9.8-2.1-.4-5.3.5-3.6.1-2.8-.5-4.4-1.2-.1-2 .2-2-1.3-1.6-3.5-.5-1.8-1.2 1.1-1.6zm-37-2.2l-1 3-1.8 1.4-1.7.2-3.8 1.6-3 .6-2.1-.8 3.9-3 4.4-2.5h2.6zm39 .5l-.9.1-3.2-.2-.2-1.1h3.5l1 .8zM192 5l-3.6 1.1-2.2-1.2 1.8-1.3 2.7-.4 2.2.6zm2-3.6l-2.4.8h-2.8l.2-.6 2-1.2 1 .2zm23.4 2.2l-2.8.8-1.2-1-.3-1.4.3-1.6 2.2.1 1 .3 1.6 1.4zm-7-1l.2 1.6-2.8-.5-2.5-1.2-3.8-.2 2-1.2-1.8-1 .3-1.5 3.2.6 4.3 1.4zm23.8-5.4l1.8 1.3-2.7 1.2-3.9 3-3.1.3-3.5-.5-1.5-1.7.4-1.4 1.7-1h-3.2L218.7-3 218-4.8l1.7-1.8 1.5-1.3 1.8-.3-.5-1 4-.1 1.7 2.2 2.6.8 2.7.8zm34.5-14.3l4.5.3 3.5.6 2.9 1.1-.3 1.1L275-12l-4.3.8-1.7 1h3.7L268.1-8l-3 1.2-3.5 3.3-3.7.7-1.3.8-5.3.4 2.3.6-1.3.7 1 2-2 1.3-2.8 1.1-1.2 1.6-2.7 1.1v.9l3.1-.1-.1.9-5.2 2.3-4.4-1-5.3.5-2.5-.4-3.2-.2.2-1.9 3.4-.9-.2-2.8 1.1-.3 4.3 1.7-1.8-2.5-2.6-.8 1.7-1.5 3.3-1 .8-1.3-2-1.6-.3-2.1 4.7.2 1.2.4 3-1.5-3.7-.5-6 .3-2.8-1.4-1-1.7-1.7-1.2V-12l2.7-.8 2-.1 3.5-.7 2.9-1.6 2 .2 1.6 1.2L245-16l2.4-.6 3-.5 5.2-.2.9.5 5-.7 3.5.2zM402.9 104.7v.5l-.2.7.9.6h1l-.1 1.2-.9.5-1.5-.4-.4 1.2h-1l-.3-.4-1 1h-1l-.9-.5-.7-1.2-1 .4.1-1.3 1.4-1.6v-.7l.9.3.5-.5h1.7l.4-.6zM250.8 360.1l.9 6.7h3.2l-.5 1.3-1.5 1-1-.2-1.1-.2-1.5-1-2.1-.4-2.7-1.6-2.2-1.7-3.2-3.3 1.7.6 3 2 2.8 1.1.8-1.4.3-2 1.6-1.3zm-4.8-80.2l.3.6-.5 2.6-2.2 1.2.3 4.2-.3.8.7 1-1.4 1.6-1.1 2.4-.6 2.3.4 2.4-1 2.7 1.3 4.4.5.5.2 2.4-.9 2.6.3 2.2-1.4 1.7.3 2.4.8 2.6-1 1-.3 2.4-.2 2.8.7 3.3-.7.5.8 3.2 1 1-.5 1.2 1 .6.3 1-.8.6.4 1.6-.2 3.7-.8 2.5.4 1.4-.3 1.8-1.4 1.3.6 3 .9 1.1 1.2-.2.3 2.2 1 1.7 4.8.4 1.8.5H249l-.8.7-1.6 1v2.9h-.8l-2.3-1-2.5-2-2.7-1.7-.8-1.9.3-1.7-1.3-2-1-4.9.5-2.7 1.8-2.2-3-.8 1.5-2.5v-4.7l2.4 1 .4-5.7-1.5-.7-.2 3.4-1.3-.4.2-4 .1-5 .7-1.8-.8-2.6-.5-3h.8l.8-4.3 1-4.2.6-3.9-.8-3.9.4-2-.5-3.2 1-3.1v-4.9l.3-5.2.3-5.5-.4-4-.6-3.5 1-.6.5-1.3 1.1 1.7.4 1.8 1.1 1-.5 2.4 1.3 2.7 1 3.5z" class="rsm-geography" tabindex="0"/><path d="M611.7 180l-1.7 1.3-1.7-.8-.2-2.1.9-1.1 2.2-.7h1.2l.5 1-.8 1zm32.7-61l-1.6-1.5-.5 1.5-2.9 1.2.6 1.4h-1.7l-1.1-1-1 2-2 1.4-1.2 1.8-2.7.8-1.2 1.2-2 .8.8-1.3-.6-1 1.2-1.9-1.3-1.4-1.6 1-1.9 1.9-1 1.7-1.9.1-.8 1.3 1.4 1.8 1.7.4.3 1.2 1.7.8 2-1.9 1.9 1 1.3.1.6 1.4-2.8.7-.7 1.5-1.7 1.3-.7 1.8 2.4 1.5 1.1 2.5 1.6 2.4 1.7 2 .2 1.9-1.1.7.6 1.3 1.4.8v2.1l-.3 2-1.1.3-1.2 2.7-1.3 3.3-1.5 3-2.6 2.3-2.6 2-2.3.4-1.2 1-.8-.8-1 1.3-2.8 1.2-2.1.4-.5 2.6-1.1.1-.7-1.7.4-1-2.8-.8-1 .4-2.1-.6-1-1 .1-1.5-1.9-.4-1-1-1.7 1.4-2 .3h-1.6l-1 .6-1.1.3.5 2.8h-1l-.3-.6-.1-1-1.5.7-1-.5-1.5-.9.4-2-1.3-.5-.7-2.3-2.2.4v-3l1.8-2-.2-2.1-.2-2-1-.6-.8-1.5-1.2.2-2.2-.3.5-1.1-1-1.6-1.4 1-1.8-.5-2.2 1.6-1.7 1.9-1.6.3-1-.7h-1l-1.5-.7-1 .7-1.3 1.9-.3-2-1.2.5-2.4-.2-2.4-.6-1.7-1.1-1.7-.5-.8-1.3-1.2-.3-2.2-1.7-1.7-.8-.8.6-3-1.7-2.1-1.7-.8-2.8 1.4.3v-1.3l-1-1.3v-2.1l-2.5-3.1-3.4-1-.8-2.1-1.6-1.2-.5-.8-.4-1.5v-1l-1.3-.7-.7.3-.7-2.5.5-.6-.4-.6 1.8-1.3 1.3-.5 2.2.3.5-1.7 2.5-.3.6-1.1 3-1.5.2-.6-.4-1.6 1.3-.7-2.4-4.8 3.7-1.1 1-.6.7-5.1 4 1 1-1.4-.4-2.8 1.6-.3 1.1-1.9.8-.2.8 2 2 1.5 2.9 1 1.7 2.4-.2 3.2.9 1.3 2.4.4 2.7.4 2.7 1.8 1.3.3 1.3 2.5 1.4 1.7 2.2-.1 4.2.6 2.6-.4 2 .4 3.2 1.7h2.4l1 .9 2.1-1.5 3.1-1h3l2.1-1 1.2-1.5 1.2-1-.5-.9-.8-1 .7-1.8 1.2.2 2.1.6 1.7-1.5 2.8-1 1-2 1.3-.7 2.8-.4 1.6.3v-1l-2.2-2-1.8-.9-1.3 1-2-.4-1 .4-.8-1.2.8-2.9.5-2.1 2.6 1 2.3-1.8L617 96l1.1-3 .9-1-.4-1.6-1.3-.8 1.3-1.4 2.3-.6h2.5l3.1.8 2 1.1 2 3 1 1.3 1 1.8 1.5 2.8 3.6 1 2.8 2 1.4 2.7h3l1.5-1.1 3-.9-.4 2.6-.5 1v3.1l-.7 2.8-2.5-.5-1.5 1 1 2.3.5 3.3h-1zM378 213l-.9.1-1.4-.5h-1.4l-2.4.5-1.5.7-2 .9-.4-.1.1-2 .2-.3v-1l-1-1h-.6l-.6-.7.5-1-.2-1.3v-.6h.4l.1-1-.1-.6.2-.3.7-.3-.5-1.9-.4-1 .1-.8.4-.2.3-.2.6.3h1.6l.4-.6h.3l.6-.3.3 1 .5-.2.9-.4 1 .5.3.8 1 .5.6-.6h1l1.4.6.6 3.4-.9 2-.5 2.7.9 2zM411.2 219.6l-.3-.1-1.2.3-1.3-.3-1 .1h-3.3l.3-2-.8-1.5-1-.4-.4-1-.6-.4v-.7l.6-1.7 1-2.3h.6l1.2-1.4h.8l1.2 1 1.4-.9.2-1 .5-1 .3-1.1 1-1 .5-1.7.4-.5.3-1.3.6-1.5 1.7-1.9.1-.8.2-.4-.8-1v-.7l.6-.2.9 1.6.1 1.6v1.6l1.1 2.1h-1.2l-.5.2-1-.2-.4 1 1.2 1.5 1 .4.2 1 .7 1.6-.4.7-1 2.4-.5.4-.1 1.9.2 1-.2.7 1 1.3.2.8.7 1.2 1 .8v1.1l.3.7-.1 1.3-1.7-.6-1.7-.6zM448.1 216.6l-.1 2.8.8.3-.6.9-.8.6-.8 1.3-.5 1v2l-.6.9v1.8l-.6.7v1.4l-.3.2-.2 1.3.5 1 .1 3 .4 2.1-.3 1.3.4 1.4 1.2 1.3 1.1 3-.8-.2-2.8.4-.5.3-.6 1.5.4 1-.4 2.9-.3 2.4.6.4 1.4 1 .6-.5.1 2.6H444l-.9-1.3-.7-1-1.6-.4-.5-1.2-1.2.7-1.7-.3-.7-1.1-1.3-.2h-1v-.7h-.8l-1-.2-1.2.3h-1l-.4.2.1-2.9-.7-.8-.1-1.5.3-1.5-.4-.9v-1.5h-2.6l.2-.8h-1l-.2.4h-1.3l-.5 1.5-.3.6-1.2-.4-.6.4-1.4.2-.8-1.3-.5-.8-.6-1.4-.5-1.8h-6.1l-.7.3h-.6l-.9.3-.3-.8.5-.2.1-1 .4-.7.7-.5.6.2.7-.9h1.1l.1.7.8.5 1.2-1.5 1.3-1.2.5-.8v-2l.8-2.2 1-1.3 1.3-1.1.3-.8v-.9l.4-.8-.1-1.3.2-2.2.4-1.4.7-1.3v-1.5l.3-1.6.8-1.2 1-.8 1.8.8 1.3.9 1.5.2 1.6.5.6-1.4.3-.2 1 .2 2.2-1.2.9.5h.6l.3-.6.8-.2 1.6.2h1.3l.7-.2 1.3 2 .9.3.6-.4 1 .1 1-.5.6 1z" class="rsm-geography" tabindex="0"/><path d="M411 236.4l-.8-.8-.6.4-.8 1-1.7-2.5 1.6-1.3-.8-1.6.7-.6 1.4-.3.2-1 1 1 1.9.2.6-1.1.3-1.6-.2-1.9-1-1.4.9-2.8-.5-.4-1.6.2-.6-1.3.2-1h2.6l1.7.7 1.7.6.1-1.3 1-2.2 1.3-1.3 1.4.4 1.4.1-.1 1.5-.7 1.3-.4 1.4-.2 2.2v1.3l-.3.8v1l-.3.7-1.3 1.1-1 1.3-.9 2.3v2l-.4.7-1.3 1.2-1.2 1.5-.8-.5v-.6h-1.2l-.7.8zM227.2 225.4l-.9-.6-1-.8-.6.4-1.7-.3-.5-1H222l-2.1-1.4-.3-.7.8-.2v-1.2l.4-.9 1-.1 1-1.5.7-1.3-.7-.5.4-1.4-.5-2.2.5-.6-.3-2-.8-1.3.3-1.2.7.2.4-.7-.5-1.5.3-.3h1l1.7-1.6.8-.3v-.8l.5-2 1.2-1.1h1.3l.2-.5 1.6.2 1.7-1.3.8-.5 1-1.2.8.2.5.6-.4.8-1.4.4-.5 1.2-.8.7-.7 1-.3 1.6-.6 1.4 1 .2.3 1.1.5.5.1 1-.3.9.1.5.5.2.5.8 2.7-.2 1.2.3 1.4 2 .8-.2 1.5.1 1.2-.3.8.5-.4 1.2-.5.8-.2 1.8.4 1.5.6.8v.5l-1 1.2.7.5.6.8.6 2.4-.4.3-.4-1.4-.6-.8-.7.9h-4v1.4l1.2.3v.9l-.5-.3-1.1.4v1.7l.9 1 .3 1.3v1l-1 6.6-1-1.3H237l1.3-2.5-1.6-1.1-1.2.2-.8-.4-1.1.6-1.6-.3-1.2-2.5-1-.6-.6-1.1-1.4-1.2zM211.7 205.4l-1.1-.6-.4-.5.2-.4v-.5l-.6-.6-.8-.5-.7-.3-.1-.7-.6-.4.2.7-.5.6-.4-.7-.7-.2-.3-.5V200l.4-.7-.6-.3.5-.5.3-.3 1.4.6.5-.3.6.2.3.5.6.2.6-.6.4 1.4.8 1 1 1-.9.2v1l.4.3-.3.3.1.4-.2.5zM215 169l1.7.1h1.6l1.9 1 .7.8 2-.3.7.6 1.6 1.6 1.2 1h.7l1.2.5-.2.7 1.5.1 1.5 1-.3.6-1.3.3-1.4.1-1.4-.1-3 .2 1.4-1.4-.8-.6-1.3-.2-.6-.7-.4-1.4-1.2.1-1.9-.7-.6-.5-2.6-.4-.7-.4.8-.7-2-.1-1.6 1.3h-.8l-.4.6-1 .3-.9-.2 1.2-.8.5-.9 1-.5 1-.5 1.6-.3zM450.2 138.5h.1l.3-.6h1.4l1.8-.8-1.3 1.1.2.5h-.2l-.4.1h-.4v-.2l-.2-.1H451l-.5.2z" class="rsm-geography" tabindex="0"/><path d="M452.7 138.7v.2l-2 1.1-1-.3-.5-1 1-.2.4.2.5-.3h.4l.1.2v.3l.2-.1h.3l.4-.2zM417.3 101.7l-1-.6-.8.2-1.6-.9-.7.2-1 1.2-1.5-1-1.2-1.2-1-.7-.2-1.2-.4-.8 1.4-.7.7-.7 1.4-.6.5-.5.5.3.9-.3 1 1 1.4.2v.8l1 .6.3-.7 1.3.3.2.9 1.5.2 1 1.4h-.7l-.2.5-.5.1v.7l-.5.1v.3l-.7.3h-.8z" class="rsm-geography" tabindex="0"/><path d="M403.1 82.9V84l2 .7v1.1l2-.6 1-.8 2.3 1.2 1 1 .4 1.5-.5.8.7 1 .6 1.6-.2 1 .9 2-.9.2-.5-.3-.5.5-1.4.6-.7.7L408 97l.4.8.2 1.2 1 .7 1.2 1.3-.7 1.3-.7.4.3 1.8-.1.5-.7-.6h-1l-1.3.4h-1.7l-.3.7-1-.8-.6.1-2.1-.8-.4.6h-1.7l.2-2 1-2-2.8-.6-1-.7.1-1.3-.4-.6.2-2-.3-3h1.1l.5-1.2.4-2.7-.3-1 .3-.7 1.7-.1.3.6 1.3-1.4-.4-1.2-.2-1.7 1.5.4zM473.3 194.6l.5.8v1l-1.2.5.9.7-.8 1.3-.4-.5-.5.2h-1.2v-.8l-.2-.6.7-1.2.7-1 .9.2z" class="rsm-geography" tabindex="0"/><path d="M408.4 81l-1 2.4-2.1-1.7-.3-1.3 2.8-1zm-5.3 1.9l-1.2.4-1.5-.4-.8-1.7v-3l.2-1 .6-.8 1.6-.2.7-.9 1.5-.9V76l-.6 1L404 78l1 .5-.4 1.1-.6-.3-1.3 2.2zM236.1 177.5l.3-.4h1.6l1.2.7.5-.1.4.9h1.1l-.1.7h1l.9 1-.8 1-1-.6-1 .1-.6-.1-.4.4-.8.2-.3-.6-.7.3-.9 1.7-.5-.4V181l-.5-.8.5-.4.2-1zM408.7 168.3l-7 4.7-6 4.8-2.9 1.1-2.3.3v-1.6l-1-.4-1.3-.7-.4-1.2-7-5.4-6.9-5.4-7.7-6v-.7l.1-3 3.3-2 2-.3 1.7-.7.8-1.3 2.4-1v-1.9l1.3-.2.9-1 2.6-.4.4-1-.5-.6-.7-2.7-.1-1.6-.8-1.7 2-1.4 2.1-.5 1.3-1 2-.8 3.4-.5 3.3-.2 1 .4 2-1 2-.1.9.6 1.4-.1-.4 1.3.3 2.5-.4 2.2-1.3 1.4.2 2 1.7 1.5v.7l1.3 1 1 4.6.6 2.3.1 1.2-.3 2 .1 1.2-.2 1.4.2 1.6-.8 1 1.2 1.8.1 1.1.8 1.4 1-.5 1.5 1.2zM217 233.1l1.1-1.8-.5-1-.7 1.1-1.3-1 .4-.7-.3-2.2.7-.3.4-1.5.8-1.6-.2-1 1.2-.4 1.4-1 2 1.4h.5l.5 1 1.7.3.6-.4 1 .8 1 .6.2 1.8-.6 1.5-2.3 2.5-2.5 1-1.2 2-.4 1.6-1.2 1-.8-1.2-.9-.2-.8.2-.1-1 .6-.5zM455.2 153l-.5 1.1-.4 2-.5 1.2-.5.5-.7-.8-1-1.2-1.5-3.6-.2.2 1 2.7 1.3 2.6 1.7 3.9.8 1.3.7 1.5 1.9 2.7-.4.5.1 1.6 2.5 2.2.4.5h-24.5l-.2-9.2-.2-9-.7-2 .5-1.6-.3-1 .7-1.3h2.7l2 .6 2 .8 1 .4 1.5-.8.8-.8 1.8-.2 1.4.3.6 1.3.5-.8 1.6.6 1.6.1 1-.6zM471.8 195l-.7-.8-1-1.4-.9-.8-.5-.8-1.8-1h-1.5l-.5-.5-1.2.5-1.2-1-.7 1.7-2.4-.5-.2-1 .8-3.5.2-1.6.6-.8 1.5-.4 1-1.4 1.3 2.9.6 2.2 1.2 1.2 2.9 2.3 1.1 1.4 1.2 1.3.7.9 1 .7-.6.6zM366 120.5l.1-2-.8-1.2 2.8-2 2.5.5h2.6l2.2.5 1.6-.1h3.2l.8 1.1 3.7 1.3.7-.6 2.2 1.2 2.4-.3v1.5l-1.8 1.9-2.6.5-.2 1-1.2 1.5-.8 2.1.8 1.6-1.1 1.2-.5 1.7-1.5.5-1.4 2-2.6.1h-2l-1.2.9-.8 1-1-.2-.7-1-.5-1.4-2-.5v-.8l.7-1 .3-.8-.7-.7.6-1.8-.8-1.6.8-.2.1-1.3.4-.4v-2.1l1-.8-.6-1.3-1.2-.1-.3.3H368l-.5-1.3-.8.4zM430.4 74.2l.1-1.8-.6.4-1.3-1.1-.2-1.8 2.3-.9 2.4-.5 2 .6 2-.1.3.5-1.2 1.8.7 3-.7 1h-1.6l-1.7-1.2-.9-.4z" class="rsm-geography" tabindex="0"/><path d="M471.8 195l-.7 1-.7 1.2.2.6v.8h1.2l.5-.2.4.5-.4.8.8 1.4.8 1.1.8.9 6.8 2.8h1.8l-5.8 7.2h-2.7l-1.9 1.8h-1.3l-.6.8h-1.4l-.8-.9-2 1-.5 1-1.4-.1-.5-.3h-1.1l-2.7-2h-1.4l-.7-.8v-1.3l-1.1-.4-1.3-2.6-1-.6-.3-1-1-1.1-1.4-.2.7-1.4h1.1l.3-.7V202l.6-2.5 1-.7.1-1 .9-1.8 1.2-1.2.8-2.4.3-2 2.4.4.7-1.8 1.2 1.1 1.2-.5.5.5h1.5l1.8 1 .5.8 1 .8.9 1.4zM436.2 37l-.1 2.5 3 2.3-1.6 2.6 2.4 3.9-1 2.9 1.8 2.4-.6 2.2 3 2.3-.6 1.6-1.6 1.9-3.8 4.1-3.4.3-3.3 1.1-3 .7-1.2-1.7-2-1 .4-3.3-1.1-2.9.8-1.9 1.6-2 4-3.7 1.3-.7-.3-1.4-2.7-1.6-.7-1.3-.3-5.3-3-2.4-2.5-1.7 1-1 2.1 2 2.4-.2 2 .8L431 37l.7-2.6 2.7-1.2 2.5 1.4zM752.5 266.6l.7.8-.5 1.2-1.3.4-1.1-.3-.1-1.1.9-.9.9.4zm3.6-1.9l-1.4.6-1.3.5-.2-.9 1-.5h.8l1.3-.9-.2 1.2zm-744.4-1.2h.5l-.2 1.1-.1.1-.2-1.2zM265 357.8l2-1.8 1.8.7 1-1.1 1.7 1.3-.4 1-2.6 1-1-1.1-1.5 1.3zM270.6 219.5l.5-1 .2-1.1.4-1-.8-1.4-.2-1.7 1.2-2 .7.2 1.5.6 2.2 2 .3 1-1.2 2.2-.7 1.7-.8 1-1 .1-.3-.7h-.4l-.7.6zm132.5-99.8l-.7 2.1-.9-.5-.5-1.9.4-1 1.3-1zM395 99l.5.2h.5l1 .7 2.8.6-1 2-.2 2-.5.5-1-.3.1.7-1.4 1.6v1.3l1-.4.6 1.2v.8l.6 1-.7.9.5 2.1 1 .4-.1 1.2-1.8 1.6-4-.8-2.8.9-.2 1.7-2.4.3-2.2-1.2-.7.6-3.7-1.3-.8-1 1-1.7.4-5.6-2-3-1.4-1.4-3-1-.2-2.2 2.5-.6 3.3.7-.6-3.2 1.9 1.2 4.5-2.2.6-2.4 1.7-.6.3 1h.9l1 1.2 1.3 1.4 1-.2zM407 234.5l-2-2.4-1.4-2-1.3-2.5V227l.5-.8.5-1.7.4-1.8.7-.1h3v-2.9l1-.1 1.3.3 1.2-.3.3.1-.2 1 .6 1.3 1.6-.2.5.4-1 2.8 1 1.4.3 1.9-.3 1.6-.6 1h-1.8l-1.1-1.2-.2 1.1-1.4.3-.7.6.8 1.6zM372 86.2l-1.4-.6h-1.2l.4-1.6-.4-1.6 1.6-.1 2 1.9zm6.3-14.6l-2 3.4 1.9-.4h2l-.5 2.5-1.7 2.8 2 .1.1.4 1.8 3.5 1.3.5 1.2 3.5.5 1.1 2.4.6-.3 1.9-1 .9.8 1.5-1.7 1.5h-2.6l-3.4.8-.9-.6L377 97l-1.8-.4-1.4 1.2-1-.6 2.9-3.1 1.7-.6-3-.5-.5-1.2 2-1-1-1.5.3-2 3 .3.2-1.7L377 84l-2.3-.6-.5-.8.7-1.3-.6-.9-1 1.5-.1-3-1-1.5.8-3.2 1.5-2.6L376 72zM467 121.4l.2-1.1-.6-2-1.2-1-1.2-.2-.8-.9.3-.3 1.7.5 3 .4 2.7 1.3.4.5 1.2-.4 1.9.6.7 1.1 1.3.6-.5.4 1 1.5-.2.3-1-.2-1.6-.7-.4.4-2.8.4-2-1.3zM386.2 210.9l-3.3 1.4-1.1.8-1.9.7-1.8-.7v-1l-.8-2 .5-2.7.9-2-.6-3.4-.3-1.8.1-1.4 3.6-.1 1 .2.6-.4 1 .2-.2.7.9 1.2v1.8l.2 1.9.5.9-.5 2.1.2 1.2.5 1.5zM366.5 206.7l-.6-.1-.4 1h-.6l-.4-.6.1-1-.9-1.4-.5.3h-.4l-.6.2v-1l-.3-.5v-.7l-.4-1-.6-1h-1.6l-.5.5-.6.1-.4.5-.2.7-1.1 1-1-1.4-.7-1-.5-.2-.6-.5-.2-1-.3-.6-.6-.4 1-1.2h.6l.5-.3h.5l.3-.4-.2-.8.3-.2v-.8h1l1.5.6h.4l.2-.3 1.1.2.3-.2.1 1 .4-.1.5-.3h.4l.5.7 1 .2.5-.6.7-.3.5-.3h.4l.4.6.3.6.8 1-.4.7v.8l.4-.3.2.3-.1.7.6.7-.4.2-.1.8.4 1 .5 2-.7.2-.2.3.1.5-.1 1zM349.1 193.5l.3-1 2.2-.1.5-.6h.7l.8.6h.6l.7-.4.4.7-.9.5h-.9l-.9-.5-.7.5h-.4l-.5.4z" class="rsm-geography" tabindex="0"/><path d="M352.6 198.6l-1-1-1-.2-.4-.6v-.4l-.6-.5-.2-.5 1.1-.4h.7l.6-.2h3.8v.9l-.3.2.2.8-.3.4h-.5l-.5.4h-.7zM403.7 222.6l-.3-.4.7-2.6h3.4v2.9h-3zM431.9 137l1.1 1 1.6-.2 1.5.1v.5l1-.3-.2.8-3 .2.1-.4-2.5-.6zm4.2-13.6l-1.2-.1-1-.3-2.5.7 1.5 1.6-1 .4h-1.1l-1.1-1.4-.4.6.5 1.6 1 1.3-.7.6 1.2 1.2 1 .8v1.5l-1.8-.7.6 1.3-1.2.3.8 2.3h-1.3l-1.7-1-.8-2.2-.5-1.8-.8-1.2-1-1.5-.2-.8.9-1.3v-.9l.7-.4v-.7l1.3-.2.8-.6h1l.4-.4.3-.1h1.5l1.6-.7 1.4 1 1.8-.3v-1.4l1 .8-.5 1.6zM305-15l6-2.6 5.9.2 2.3-1.6 6-.4 13.3.5 5.5 1.7 4.8 1.7-3.2 1.6-6.5.2-9.1.4.8.8 6-.5 5 1.5 3.4-1.3 1.3 1.5-2 2.4 4.4-1.6 8.3-1.6 5.1.8.9 1.8-7 3-1 .9-5.6.7 4 .2-2.2 3-1.5 2.5-.2 4.4 2 2.6-2.8.2-3 1.2 3.2 2 .3 3.3-2 .3 2.2 3.3-4 .2 2 1.6-.7 1.3-2.5.5H342l2.1 2.6v1.6l-3.5-1.5-1 1 2.4.9 2.2 2.2.5 2.9-3.2.7-1.4-1.4-2-2 .4 2.4-2.2 1.8 4.7.2 2.5.2-5 3-5.2 2.8-5.4 1.2h-2l-2 1.4-2.9 3.6-4.1 2.4-1.3.1-2.6.9-2.7.8-1.8 2-.2 2.4L307 56l-3.3 2.7.5 2.5-1 2.7-1.4 3-2.6.3-2.6-2.6H293l-1.7-1.8-.9-3.2-2.8-4-.7-2.2.2-3-2.2-3.1 1-2.5-1.1-1.2 2.3-4 3-1.4.9-1.4.7-2.8-2.3 1.3-1 .5-1.7.5-2.1-1.2.2-2.4 1-1.9h1.7l3.5 1-2.8-2.4-1.4-1.2-1.9.5-1.4-.9 2.5-3.4L285 23l-1-2.5-1.6-4-2-1.5.2-1.6-4.3-2.2-3.7-.3-4.8.2-4.3.3-1.8-1.3-2.6-2.4 4.8-1.2 3.6-.2-7.3-1-3.6-1.7.5-1.5 7-2 6.6-1.8 1-1.5-4.5-1.5 1.8-1.6 6.5-2.9 2.5-.4-.4-1.9 4.2-1 5.3-.7h5.2L294-12l4.8-2.3 3.8 1.6 2.4.3 3.3 1.4-3.7-2.3zM197.4 192.1l-1-.4H195l-.9-.5-1-1v-.7l.3-.6-.2-.5 1-2h2.7l.1-.8-.3-.1-.2-.6-.8-.5-.7-.8h1v-1.4h3.9l-.1 2-.4 2.7h.7l.6.4.2-.3.6.3-1 .9-1 .7-.2.4.2.5-.5.6-.5.2.1.3-.4.2-.7.7zM259.9 205l1.3.9 1.3 1.6v1.2h.8l1.1 1.2.8.8-.3 2.2-1.3.6.1.6-.4 1.2 1 1.7h.6l.3 1.4 1.2 2-.5.2-1.1-.2-.7.6-1 .4-.6.1-.3.5-1-.1-1.3-1.2-.1-1-.5-1.3.3-2 .6-.8-.5-1.1-.7-.4.3-1-.5-.6-1 .1-1.4-1.8.5-.7v-1l1.3-.5.5-.4-.7-.9.2-.9z" class="rsm-geography" tabindex="0"/><path d="M203 194l-.3-.8-.6-.2.2-1-.3-.3-.4-.2-1 .3v-.3l-.6-.4-.4-.5-.6-.2.5-.6-.2-.5.2-.4 1-.7 1-1 .2.2.5-.5h.6l.2.2.3-.1 1 .2h.9l.7-.3.2-.3.7.1.5.2h.5l.4-.3 1 .4h.3l.6.5.6.5.7.4.5.6h-.7l-.3.3-.7.3h-.6l-.4.4-.4-.2-.4-.3h-.2l-.3.6h-.2v.5l-.8.7-.4.3-.2.3-.6-.5-.5.6h-.9v1.2H204l-.3.6zM421.2 109.3l.5 1.1.7.8-.7 1-1-.6h-1.3l-1.7-.4h-1l-.4.7-.7-.7-.4 1.2 1 1.3.5.8 1 1 .7.7.8 1.1 1.8 1-.2.5-2-1-1.1-1-1.9-.8-1.7-2 .4-.2-1-1.2v-1l-1.3-.4-.5 1.2-.7-1v-.9h1.5l.4-.4.7.4.7.1v-.8l.7-.3.2-1.1 1.5-.8.6.4 1.6 1.2 1.6.5zM236.1 177.5l.1 1.4-.2 1-.5.3.5.8v.6l-1.4-.4-1 .2-1.3-.2-1 .5-1-.8.2-.8 1.9.4 1.5.1.8-.5-.9-1v-1l-1.2-.4.5-.7 1.3.2z" class="rsm-geography" tabindex="0"/><path d="M416 106.7l.6-1.9-.4-.6h1l.2-1.2 1 .8.7.3 1.7-.4.1-.5.8-.1 1-.5.2.2.9-.3.4-.7.6-.2 2.2.9.4-.3 1.1.8.2.7-1.2.6-.9 2-1 1.9-1.6.5-1.3-.1-1.5.7-.7.4-1.6-.5-1.6-1.2-.6-.4-.4-1zM634.5 249.5h-.9l-2.6-1.7 2-.4 1 .7.7.7zm9-3.3l.2.5v.7l-1.5 1.8-1.8.6-.2-.3.2-.8 1-1.5zm-14.6-1.9l.7.7 1.3-.2.5 1-2.5.5-1.4.3h-1.1l.7-1.4h1.2zm10.4 0l-.4 1.4-3.1.6-2.8-.3v-.8l1.7-.5 1.3.7 1.4-.2zm-29.6-3.1l4 .2.5-1 3.8 1.2.7 1.5 3 .5 2.6 1.4-2.4.9-2.3-1-1.8.1-2.2-.2-2-.4-2.3-1-1.5-.2-.9.3-3.7-1-.4-1-1.9-.2 1.5-2.2 2.5.1 1.7 1 .8.1zm54.3-1.4l-1.1 1.7-.2-1.8.4-.9.5-.8.4.7zm-15.4-6.6l-.8.8-1.4-.4-.4-1 2.1-.1zm6.7-.8l.7 1.8-1.7-1-1.7-.2-1.2.2-1.4-.1.5-1.3 2.5-.1zm22-1.2L677 239l-.3 7.8-1.7-2-2.1-.5-.6.7h-2.6l1-1.9 1.3-.6-.5-2.6-1-2-3.9-2-1.7-.3-3-2.2-.7 1.2-.8.2-.5-.9v-1l-1.5-1.2 2.2-.8h1.5l-.2-.6h-3l-.8-1.4-1.9-.5-.8-1.2 2.8-.5 1-.8 3.4 1 .3.8.5 3.9 2.2 1.4 1.7-2.5 2.4-1.4h1.9l1.8.8 1.5.8zm-32.8-9.6l-1.7 2.4-1.5.4-2-.4h-3.5l-1.8.4-.3 1.8 1.8 2.2 1.2-1.1 3.8-.8-.1 1-1-.3-.9 1.4-1.8 1 2 3-.4.8 1.8 2.8v1.5l-1.2.7-.8-.8 1-2-2 1-.5-.7.3-1-1.5-1.3.2-2.3-1.4.7.1 2.8v3.4l-1.3.3-.9-.7.7-2.2-.3-2.3h-.9l-.6-1.6.9-1.6.3-1.9 1-3.6.5-1 1.7-1.7 1.7.7 2.6.3h2.4l2-1.8zm7.2.7l-.1 2-1.1-.1-.3 1.4.8 1.3-.6.2-.8-1.5-.6-3 .4-2 .7-.8.1 1.3 1.3.2zm-39.6-2l.3 1.5 1.5 1.4 1.3-.5 1.3.1 1.2-1.2 1-.2 2 .7 1.7-.5 1-3.3.8-.9.7-2.7h2.4l1.8.4-1.2 2.2 1.6 2.2-.3 1.1 2.3 2.2-2.5.3-.7 1.7.1 2.1-2 1.6v2.4l-.9 3.7-.3-.9-2.4 1-.8-1.4-1.5-.1-1-.8-2.5.9-.7-1.2-1.4.2-1.7-.3-.3-3.2-1-.7-1-2-.3-2 .2-2.3zm-8.2 18.7h-2.3l-1.7-2-2.6-2-.9-1.4-1.5-2-1-1.7-1.6-3.3-1.8-2-.7-2-.7-2-2-1.4-1-2-1.6-1.4-2.2-2.7-.2-1.2 1.3.1 3.2.5 2 2.3 1.6 1.6 1.1 1 2 2.6h2.1l1.8 1.7 1.2 2 1.6 1-.9 2 1.2.8h.8l.3 1.7.7 1.4 1.6.2 1 1.5-.6 3zM541.2 137.6l2.5 3v2.2l1 1.3v1.3l-1.4-.3.8 2.8 2.1 1.7 3 1.7-1.1 1.2-.6 2.4 2 1 2 1.2 2.9 1.4 2.8.3 1.3 1.3 1.6.3 2.5.5h1.7l.1-1-.4-1.6v-1l1.3-.6.3 2 .1.5 2 1 1.2-.5 1.8.2h1.6v-1.6l-.9-.8 1.6-.3 1.7-2 2.2-1.5 1.8.6 1.3-1 1.1 1.5-.5 1 2.2.4.3 1-.7.5.3 1.5-1.5-.4-2.5 1.7.2 1.4-1 2.1.1 1.3-.7 2-1.7-.6.1 2.6-.4.9.3 1-1 .6-1.3-4h-.6l-.2 1.7-1.2-1.3.5-1.4.9-.2.8-2-1.3-.5h-1.9l-2-.3-.3-1.8-1-.1-1.7-1-.5 1.6 1.5 1.4-1.2.9-.3.9 1.3.7-.3 1.5 1 1.8.4 2-.2 1h-1.4l-2.6.5.3 1.8-1 1.5-2.9 1.6-2.1 2.9-1.5 1.5-2 1.6.1 1.2-1 .6-1.8.8-1 .2-.5 1.8.6 3.2.2 2-.8 2.3.1 4-1 .2-1 1.8.7.8-1.9.7-.6 1.6-.8.7-2-2.3-1.1-3.3-.9-2.4-.8-1.2-1.1-2.3-.7-3-.4-1.5-2-3.4-1.1-4.7-.8-3.1-.1-3-.6-2.3-2.9 1.5-1.4-.3-2.9-3 1-1-.7-.9-2.6-2 1.3-1.8h4.5l-.5-2-1.3-1.4-.3-1.9-1.5-1.1 2.1-2.7 2.4.2 2-2.6 1-2.6 1.7-2.6-.2-1.8 1.6-1.5-1.7-1.3-.9-1.8-1-2.2 1-1.2 3.1.7 2.2-.4zM372 86.2l.3 2.2-1.5 2.6-3.5 1.8-2.7-.5 1.6-3-1-3.1 2.7-2.4 1.5-1.4.4 1.6-.4 1.7h1.2zM492.6 133l1.7-.4 1.3-1.6 1.4.1.8-.5 1.5.3 2.3 1.3 1.6.3 2.6 2.4h1.5l.3 2.3-.5 3.2-.4 2 .9.3-.8 1.4.8 2.1.3 1.6 1.6.5.3 1.6-1.7 2.4 1 1.3 1 1.5 2 1.1.2 2.3 1 .4.3 1.1-2.9 1.3-.6 3-3.9-.8-2.3-.6-2.3-.3-1-3-1-.5-1.6.4-2 1.2-2.5-.8-2.2-2-2-.7-1.5-2.4-1.7-3.4-1 .4-1.4-.8-.7 1-1.2-1.3-.1-1.4H481l.3-1.9-1.2-2-2.6-1.4-1.5-2.4.3-2 1-1-.3-1.5-1.3-.8-1.5-3.1-1.3-2.2.4-.8-.8-3 1.3-.8.4 1 1 1.2 1.5.4.7-.1 2.2-2 .7-.2.7.8-.6 1.3 1.4 1.4.4-.1.8 2 2 .5 1.5 1.3 2.9.5 3-.7z" class="rsm-geography" tabindex="0"/><path d="M483 152l-1.2-.1-1.4-.2-1.4 2.4-3.8-.2-6-5.1-3.1-1.8-2.5-.7-1-3.2 4.4-2.7.6-3.2-.3-1.9 1-.6 1-1.7.8-.4 2.4.3.7.7 1-.4 1.5 3.1 1.3.8.3 1.5-1 1-.3 2 1.5 2.4 2.6 1.5 1.2 2-.3 1.8h.7v1.4zM357.2 46l-.5 2.3 2 2.3-2.5 2.5-5.4 2.3L349 56l-2.4-.5-5.2-1 2-1.5-4-1.6 3.3-.7v-1l-3.9-.8 1.4-2.2 2.8-.5 2.8 2.3 2.9-1.8 2.3 1 3-1.9zM456.5 144.8l-.3.9-.8-.4-.3 1.7.5.3-.5.4v.6l.9-.3v1l-.8 4-1.5-4.3.6-.9-.2-.1.5-1.2.3-2 .3-.6h.7l.2-.5h.5l.1 1-.2.4zM415.2 130.3l-.7 2.1.3.9-.4 1.3-1.5-1-1-.3-2.9-1.3.3-1.4 2.3.3 2-.3zm-12.8-8l1.2 2-.2 3.5-1-.2-.7 1-.8-.8-.1-3.2-.5-1.6 1.1.2zm8.9-14.7L411 109l.5 1.2-1.6-.4-1.6 1 .1 1.4-.2.8.7 1.4 1.9 1.4 1 2.3 2.3 2.2h1.6l.5.6-.6.5 1.8 1 1.5.8 1.8 1.4.2.5-.3 1-1.2-1.3-1.7-.4-.8 1.7 1.4 1-.2 1.4-.8.2-1 2.3-.9.2v-.8l.4-1.5.4-.5-.8-1.6-.6-1.3-.9-.4-.6-1.2-1.3-.4-.9-1.1-1.5-.2-1.5-1.2-1.9-1.8-1.4-1.6-.6-2.7-1-.4-1.7-.9-.9.4-1.1 1.3-.8.2.2-1.2-1-.4-.6-2.1.7-.9-.6-1V109l.9.6 1-.1 1-1 .4.4h1l.3-1.2 1.5.4.9-.5v-1.2l1.3.4.2-.5 2-.5.4 1zM223.9 180.5l1.4.3 1 .5.3.7h-1.4l-.7.5-1.1-.4-1.1-1 .2-.5 1-.1z" class="rsm-geography" tabindex="0"/><path d="M456.2 145.7l.3-.9 2.3 1 3.8-2.7 1 3.2-.4.4-4 1.2 2.2 2.6-.7.4-.3.9-1.5.4-.5.9-.8.8-2.3-.4V153l.8-4.1-.1-1 .2-.8zM656.6 141.1l.4.9-.8 1.6-1-.9-1 .6-.2 1.6-1.5-.8-.2-1.2.9-1.6 1.2.3.6-1zm11.4-7.9l-.4 2.1.6 1.4-.7 1.8-2.3 1.3-3.6.1-2.3 3-1.6-1-.4-2-3.4.6-2.2 1.2h-2.4l2.4 2-.6 4.4-1.2 1-1.1-1 .1-2.2-1.4-.8-1.1-1.8 1.8-.8.8-1.6 1.8-1.4 1.1-1.8 4-.7 2.2.5 1.2-4.7 1.6 1.3 2.4-2.7 1-1 .6-3.3-1-3 .5-1.8 2-.5 1.9 3.8.4 2.2-1.3 2.7zm1.7-19l1.5.6 1.1-1.2 1.2 3-2.8.8-1 2.8-3.6-2-.5 3-2.2.1-.8-2.7.5-2.1 2-.2-.3-3.8.1-2.2 3 3zM525.5 119.4l-1.1.5-2.4 2-.7 1.9h-.8l-.6-1.3h-2.6l-.6-2.3h-1l-.1-2.8-2.6-2-3.4.2-2.3.4-2.2-2.5-1.7-1-3.3-2-.4-.3-4.9 1.7 1 10.1-1 .2-1.6-2.2-1.4-.7-2.2.5-.8 1-.2-.7.4-1.2-.5-1-2.3-.9-1.1-2.4-1.2-.7-.1-1 2 .3-.2-2 1.7-.5 1.7.4.1-2.7-.5-1.7h-2l-1.7-.6-2.2 1.2-1.7.6-1-.4V106l-1.4-1.9-1.5.1-1.8-2 1-2.1-.7-.6 1.3-3.2 2.2 1.7v-2.1l3.7-3.2h3l4.6 2 2.4 1.1 2-1.2h3l2.7 1.4.5-.8 2.7.1.3-1.4-3.3-2 1.7-1.4-.5-.9 1.8-.7-1.7-2 .8-1 7-1.1 1-.8 4.6-1 1.5-1.4 3.6.7 1 3.1 2-.7 2.6 1v1.7l2-.2 4.3-2.8-.5.9 2.8 2.3 5.5 7.5.8-1.5 3 1.7 2.6-.8 1.2.5 1.2 1.7 1.4.6 1 1.2 2.5-.4 1.3 1.8-1.1 2-1.6.2.3 2.8-.9 1.3-4-.9-.7 5-1 .7-3.7 1 2.4 5-1.3.6.4 1.6-1.3-.4-1.1-1-3-.3h-3.3l-.7.2-3-1.1-1 .6-.2 1.6-3.4-1-1.2.4zM470.5 229l-1.5 1-.5 1-.8.1-.3 1.7-.6 1-.5 1.6-.8.8-3-2.4-.1-1.4-7.5-4.9-.4-.2v-2.6l.6-1 1-1.5.8-1.7-1-2.8-.2-1.2-1-1.6 1.3-1.5 1.4-1.5 1 .4v1.3l.8.8h1.4l2.7 2h1.1l.5.3 1.4.1.6-1 1.9-1 .8.9h1.4l-1.8 2.7v8.6z" class="rsm-geography" tabindex="0"/><path d="M525.5 119.4l.3-1.2 1.2-.4 3.4 1 .2-1.6 1-.6 3 1.1.7-.3 3.3.1 3 .3 1.1 1 1.3.4-.2.6-3 1.5-.6 1-2.5.4-.5 1.7-2.2-.3-1.3.5-1.8 1.3.4.6-.5.6-3.8.4-2.6-.8-2.1.2v-1.6l2.2.5.7-.9 1.5.3 2.4-2-2.6-1.4-1.3.7-1.6-1 1.5-1.8zM596.7 195.8L596 193l1.3-2 2.6-.4 2 .3 1.7 1 .9-1.7 1.9.9.5 1.6v2.9l-3.5 1.8 1 1.5-2.2.2-1.7 1-1.8-.4-.9-1.3zM641.8 129.3l2.3 3.2.8 1.7.6 3-.5 1.5-1.8.5-1.4 1-1.8.3-.5-1.4v-2l-1.3-2.8 1.4-.4-1.7-2.3v-.2h1l.5-1.1 1.4-.2.8-.1zM425 120.5v-1l-.6-.2-.4-.8.3-.6.5-.2.2-.9.4-.1.3.3.4.2.3.5h.3l.4.6h.3l-.2.6-.3.4.1.2h-.4l-1.2.5v.6zM481.8 151.9l.5 1.1-.2.6.8 1.9h-1.5l-.6-1.1-1.8-.3 1.4-2.4z" class="rsm-geography" tabindex="0"/><path d="M601.9 190.8l.6-1v-2.1l-1.9-2.2-.3-2.4-1.7-2-1.5-.1-.4.8-1.2.1-.6-.4-2.1 1.4-.2-2.2.3-2.5-1.4-.2-.2-1.4-1-.8.4-.9 1.6-1.6.2.6h1.1l-.5-2.8 1-.3 1.4 2 1.1 2.2h2.5l1 2.1-1.3.7-.5.8 2.6 1.5 2 2.9 1.4 2.1 1.7 1.7.6 1.8-.2 2.4-2-1-.8 1.8zM456.6 143.4h-.5l-.2.5h-.7l.7-2.2.9-1.8h1l.3 1-1 1zM368 214.6h-.6l-2.1-1.1-1.9-1.8-1.8-1.4-1.4-1.5.5-.8.1-.7 1-1.3 1-1 .4-.1.5-.3 1 1.5-.2 1 .4.4h.6l.4-1 .6.2-.1.6.2 1.2-.5 1 .6.7.7.2.9 1v1l-.2.2zM414.5 169.8l-1.4.9-1.2-1.4-3.2-1-1-1.6-1.6-1.2-1 .5-.7-1.4v-1l-1.3-1.9.8-1-.2-1.6.2-1.4-.1-1.2.3-2-.1-1.2-.7-2.3 1-.6.2-1-.3-1.1 1.4-1 .6-.8 1-.8.1-2 2.4 1 .8-.3 1.7.4 2.8 1.2 1 2.3 1.8.5 2.9 1 2.2 1.3 1-.6 1-1.2-.6-2 .6-1.2 1.4-1.2 1.4-.4 2.8.5.7 1.2h.8l.6.4 2 .3.6.9-.7 1.2.3 1.1-.5 1.6.7 2 .2 9 .2 9.2.1 5h-2.3v1l-8.3-4.7-8.3-4.8zM553.9 207l-.3 2.5-.8.7-1.8.6-1-2-.5-3.4.9-3.9 1.4 1.4 1 1.6zM443.1 295.5l.7.8-.6 1.2-.4.9-1.2.4-.4.8-.7.2-1.5-2 1.2-1.5 1.1-1 1-.6zM427.9 84.8l-.2-.7.2-.9-.9-.4-2-.6-.6-2.5 2.2-1 3.2.2 1.9-.3.3.7 1 .2 2 1.4.2 1.4-1.5 1-.4 1.7-2 1.1h-1.9l-.5-1zM395.8 97.3l.4.6v1.3h-.6L395 99l.2-1.6z" class="rsm-geography" tabindex="0"/><path d="M424.4 79.7v-2.3l.9-2 1.7-1 1.6 2.3h1.6l.2-2.5 1.6-.5.9.4 1.7 1.1h1.6l1 .7.2 1.5.7 1.9-2 1.1L435 81l-2-1.4-1-.2-.3-.7-1.9.3-3.2-.2zM379.6 138.4l.8 1.7v1.6l.8 2.7.5.6-.4 1-2.6.4-1 1-1.1.2-.1 2-2.4 1-.8 1.2-1.7.7-2 .4-3.3 1.9v3H366v1.3l-1.3.1-.6.6h-1l-.7-.3-1.7.2-.7 2-.6.2-1 3.1-3 2.7-.7 3.4-.8 1.1-.3 1-4.6.1v-1.1l.9-.7.7-1.3-.2-.8.8-1.8 1.1-1.6.7-.4.6-1.4v-1.3l.8-1.6 1.4-1 1.3-2.5 1.1-1 2-.3 1.5-1.7 1-.7 1.8-2.1-.5-3.2.8-2.2.3-1.4 1.3-1.7 2-1.2 1.6-1.1 1.4-2.7.6-1.6h1.5l1.2 1.1 2-.2 2 .6zM436.3 102.8l.5-.5 1.3-.2 1.4.8.9.2.9.7-.1 1 .7.5.4 1.1.7.8-.1.4.4.3-.5.2-1.2-.1-.2-.4-.4.2.2.5-.5 1-.3.9-.5.3-.4-1.3.1-1.2-.1-1.2-1.2-1.7-.7-1.2-.7-.9zM486.7 254.8l.5 1 .5 1.7.3 2.9.5 1.1-.3 1.2-.4.7-.6-1.4-.4.7.3 1.8-.2 1-.6.6-.2 2-1 2.9-1 3.4-1.5 4.7-1 3.4-1 3-1.7.5-1.8 1-1.2-.6-1.6-.9-.5-1.3V282l-.7-2-.1-1.8.4-1.7 1-.5v-.8l1-1.9.3-1.5-.4-1.2-.4-1.5v-2.3l.7-1.3.3-1.6h1l1.2-.6.8-.4h.9l1.2-1.4 1.8-1.5.6-1.2-.2-1 .8.2 1.2-1.7V255l.8-1zM185 162.3l-1 2.2-.5 1.8-.5 3.3-.3 1.2.3 1.4.5 1.2.3 1.9 1.2 1.8.4 1.4.7 1.2 2.1.7.8 1 1.9-.7 1.6-.2 1.5-.5 1.4-.4 1.4-1 .5-1.4.4-2.1.4-.7 1.4-.7 2.2-.5h1.8l1.3-.2.5.6-.2 1.1-1.2 1.5-.6 1.5.4.4-.4 1-.6 2-.5-.6h-.9l-.8 1.5-.4-.3-.2.1v.4H196l-.1 1.4h-1l.7.8.8.5.2.6.3.1v.8h-2.7l-1.1 2 .2.5-.2.6-.1.7-2.2-2.7-1-.7-1.7-.7-1.2.2-1.7 1-1 .2-1.5-.7-1.5-.4-1.9-1.2-1.5-.3-2.3-1.1-1.6-1.2-.5-.7-1.1-.1-2-.8-.9-1-2-1.5-1-1.5-.4-1.2.7-.3-.1-.7.5-.6v-.9l-.5-1-.1-1-.6-1.3-1.6-2.5-1.8-2-.9-1.5-1.6-1-.3-.6.4-1.6-1-.6-1-1.2-.3-1.7-1-.3-1.1-1.3-.8-1.2v-.8l-.9-2-.4-1.9.1-1-1.3-1-.7.1-1-.7-.5 1 .1 1.3v1.9l.5 1 1.3 1.8.3.6.3.2.1.9h.4l.2 1.6.6.6.3.9 1.1 1.3.5 2.3.4 1.1.5 1.2v1.3h1l.7 1.2.6 1.1v.5l-1 .9h-.4l-.4-1.5-1.2-1.5-1.4-1.2-1-.6.3-1.8-.1-1.4-1-.8-1.2-1-.3.2-.5-.6-1.2-.6-1-1.5.2-.2.8.2.9-1 .2-1.1-1.3-1.9-1.2-.7-.5-1.5-.5-1.7-.7-2-.5-2.4 2.4-.2 2.6-.3-.3.5 2.9 1.3 4.4 1.8h5.7l.1-1h3.5l.6.8 1 .8 1 1.2.6 1.3.3 1.4 1 .8 1.6.7 1.5-2h1.7l1.3 1 .8 1.7.6 1.5 1 1.5.3 1.7.4 1.2 1.6.8 1.4.5zM425 120.5h.3l.1-.5 1.2-.4.4-.1.7-.2h1l1 .9.1 1.8h-.3l-.3.5H428l-.8.6-1.3.2-.8-.7-.3-1.1zM358.8 190l.7-.5.4-1.4h.6l1.5.6 1.1-.5.8.2.3-.5h8.3l.5-1.8-.3-.3-1-10.5-1-10.7h3.2l7 5.3 6.9 5.4.4 1.2 1.3.7 1 .4v1.6l2.3-.3v5.6l-1.1 1.7-.2 1.5-1.8.3-2.8.3-.8.8-1.3.1h-1.3l-.6-.4-1.1.3-2 1-.3.8-1.6 1-.3.7-.9.5-1-.4-.6.6-.3 1.7-1.6 2v.8l-.5 1v1.4l-.8.4-.5.3-.3-1-.6.2h-.3l-.4.7h-1.6l-.6-.4-.3.2-.6-.7.1-.7-.2-.3-.5.3.1-.8.4-.6-.8-1-.3-.7-.4-.6h-.4l-.5.3-.7.3-.6.6-.9-.2-.5-.6-.4-.1-.5.3h-.4v-1.6l-.1-1-.8-.6-.4-1.4zM588.5 201.3l-.2-1.8.5-1.9-.7-1.4v-2.6l-.9-1.3-.8-2.9-.6-3-1-2-1.3 1.2-2.2 1.7-1.2-.2-1.3-.6.5-3-.5-2.3-1.9-2.8.2-.9-1.2-.3-1.6-2-.3-2 .8.4-.1-1.8 1-.6-.4-1 .4-.9-.1-2.6 1.7.6.7-2V164l1-2-.3-1.5 2.5-1.7 1.5.4-.3-1.5.7-.5-.3-1 1.2-.2.8 1.5 1 .6.2 2 .2 2-1.8 2.1v3l2.2-.4.7 2.3 1.3.5-.4 2 1.6 1 1 .4 1.4-.7.1 1-1.6 1.6-.4 1-1.1.5-1.1 1-1.5.2-.7 2.6-.9.4 1.2 2.2 1.4 1.8 1 1.6-.7 2-.7.5.6 1.3 1.4 1.9.4 1.3v1.2l.9 2.2-1 2.2zM422.6 120.5l-.4-.2-.6-1-.8-.5.2-.4.2-1.5.6-.7.4-.2.6.4.3.4.6.3.8.6-.2.2-.3.6-.5.3-.2-.5-.8 1.3zM556 99.7l2-.5 3.3-2.5 2.7-1.4 1.9.9h2l1.6 1.4 2 .1 2.9.7 1.5-2-1-1.7 1.4-3 2.4 1.2 1.8.3 2.4.8.8 2.2 3 1.2 1.8-.6 2.4-.3 2 .3 2.2 1.4 1.5 1.5h1.8l2.6.4 1.6-.7 2.5-.4 2.5-2 1.2.2 1.2 1 2.3-.2-.5 2.1-.8 2.9.8 1.2 1-.4 2 .5 1.3-1.1 1.8 1 2.2 1.9v1l-1.6-.3-2.8.4-1.2.8-1.1 1.8-2.8 1.1-1.7 1.5-2.1-.6-1.2-.2-.7 1.8.8 1 .5 1-1.2.9-1.2 1.5-2.1 1h-3l-3 1-2.1 1.5-1-.9H590l-3.2-1.7-2-.4-2.6.4-4.2-.6h-2.2l-1.4-1.6-1.3-2.5-1.3-.3-2.7-1.8-2.7-.4-2.4-.4-1-1.3.3-3.2-1.7-2.3-3-1.1-1.9-1.5zM455.7 252.6l1.5-.2 2.5.6.6-.3h1.4l.8-.8h1.2l2.3-.8 1.7-1.4.3 1-.1 2.4.2 2.1v3.8l.3 1.2-.7 1.7-.8 1.7-1.4 1.5-1.9 1-2.3 1.2-2.4 2.6-.8.4-1.5 1.8-.9.5-.2 1.8 1 1.9.3 1.4v.7h.4l-.2 2.3-.3 1.2.4.4-.3 1-.9 1-1.7.8-2.5 1.3-1 1 .2 1 .5.2-.2 1.3h-1.6l-.1-1.1-.3-1.1-.1-1 .4-2.7-.4-1.8-1-3.5 2.3-2.8.6-1.8.3-.2.3-1.4-.3-.8.1-1.8.4-1.7.1-3-1-.9-1-.1-.5-.6-1-.6-1.6.1-.2-1-.1-1.6 6.3-2 1.2 1.1.5-.2.8.6.1 1-.4 1.1.1 1.7 1.3 1.5.7-1.7.9-.5-.1-3-.9-1.8-.7-.8h-.7l-.5-3.1z" class="rsm-geography" tabindex="0"/><path d="M358.8 190l-1.4-1.7-1.2-1.8-1.4-.6-1-.7h-1l-1.1.5-1-.2-.7.8-.2-1.3.6-1.2.3-2.3-.2-2.4-.3-1.3.2-1.2-.5-1.2-1-1 .4-.8h8L357 170l.5-1.3 2-.2v-6.4l6.7.1v-3.8l7.7 6.1h-3.1l.9 10.8 1 10.5.3.3-.5 1.7h-8.3l-.3.6-.8-.2-1.1.5-1.5-.7-.6.1-.4 1.4zM455.7 252.6l-.6 1.8.5 3.1h.7l.7.8.9 1.7v3.1l-.8.5-.7 1.7-1.3-1.5-.1-1.7.4-1.1v-1l-.9-.6-.5.2-1.2-1.1-1.1-.7.7-2.2.6-.8-.3-2 .4-2 .4-.6-.5-2-1-1.2 2 .5.4.7.7 1zM596.3 210.2l.5.2 1.2 1.4 1 1.6v1.6l-.1 1.1.2.8.1 1.4.8.7.8 2.1v.8l-1.5.2-2-1.8-2.5-1.9-.2-1.2-1.2-1.6-.4-2-.7-1.3.2-1.7-.5-1 .3-.4 1.8 1 .1 1.2 1.4-.3zm32.8 5l-1.8-.5h-2.4l-.7 2.7-.8.9-1 3.3-1.7.5-2-.7-1 .2-1.2 1.2-1.3-.1-1.3.5-1.5-1.4-.3-1.6 1.5.8 1.6-.4.4-2 .9-.5 2.5-.5 1.4-1.9 1-1.5 1 1.2.4-.8 1 .1.1-1.5V212l1.6-1.7 1-1.8h.9l1 1.2.2 1 1.4.7 1.7.7-.1 1h-1.4l.4 1.2zM417.4 294.6l-1.5-2-.8-1.8-.4-2.4-.5-1.9-.6-3.8v-3l-.3-1.3-.8-1-1-2-1-3-.5-1.6-1.6-2.4-.2-1.8 1-.5 1.3-.4h1.3l1.2 1.2.4-.2 8.3-.1 1.5 1.1 5 .4 3.8-1 1.7-.6 1.3.2.8.5v.2l-1.2.6H434l-1.3 1-.8-1-3.2.8h-1.5l-.2 8.8-2 .1-.2 7.3-.2 9.3-1.8 1.3-1.1.2-1.3-.5-1-.2-.2-1.1-.8-.7zM725.4 275.8l1.5 1.6 1 1-1 .7-1-.7-1.3-1.1-1.2-1.3-1.1-1.7-.2-.9h.9l1 .9.8.8zM388.5 196.4v-1.6l-2.4-.6v-1.1l-1.2-1.6-.3-1.1.2-1.2h1.3l.8-1 2.8-.2 1.8-.3.2-1.5 1.1-1.7V179l3-1 5.8-5 7-4.6 3.3 1 1.2 1.4 1.4-1 .6 4 .8.6v.7l.9.9-.5 1-.7 5v3.2l-2.7 2.3-.9 3.2.9.9v1.5h1.3l-.2 1.2-.5.2-.1.7H413l-1.4-2.6H411l-1.6 1.3-1.6-.7-1.1-.2-.6.4H405l-1.3 1h-1l-2.5-1.2-1 .5h-1l-.8-1-2.1-.8-2.3.3-.5.5-.3 1.4-.6 1-.1 2.1-1.6-1.4h-.7z" class="rsm-geography" tabindex="0"/><path d="M401.7 213.6l-2.2.9-.8-.1-.8.5h-1.6l-1.2-1.6-.6-1.7-1.5-1.6H389.6l.1-3.8v-1.5l.3-1.5.7-.8 1-1.4-.2-.7.4-1-.5-1.4v-.8l.2-2.1.6-1 .3-1.4.5-.5 2.3-.3 2 .9.8.9h1l1-.5 2.6 1.2h1l1.3-1h1.2l.6-.4 1 .2 1.7.7 1.6-1.4.5.1 1.4 2.7h.4l.8.9-.2.4-.1.8-1.7 1.9-.6 1.5-.3 1.3-.4.5-.4 1.7-1.1 1-.3 1.2-.5 1-.2 1-1.4.7-1.2-1-.8.1-1.2 1.4h-.6l-1 2.3zM206.2 198.5l-.7-.8-1-1-.3-.8-.9-.7-1-1.1.3-.4.3.4.2-.2h.6l.3-.6h.3V192l.5-.1h.4l.5-.6.6.5.2-.3.4-.3.8-.7v-.5h.2l.3-.6h.2l.4.3.4.2.4-.4h.6l.7-.3.3-.3h.7l-.2.3-.1.5.2 1-.5.7-.3 1-.1 1v1.7l-.3.3-.2 1 .1.7-.4.6v.7l.4.3-.6.6-.6-.2-.3-.5-.6-.2-.5.3-1.4-.6zM397.4 87.4l.3 1-.4 2.7-.5 1.1h-1.1l.3 3-1-.6-1.3-1.3-1.8.6-1.4-.2 1-.8 1.6-4.4 2.7-1.2zM440.6 35.3l-3 1.4-1.4.3.6-2.4-2.5-1.4-2.7 1.2-.7 2.6-1.7 1.5-2-.8-2.4.1-2.1-1.8-1 1h-1.2l-.1 2.4-3.5-.6-.4 2h-1.8l-1 2.4-1.8 3.8-2.7 4.7.7 1.1-.6 1.4h-1.8l-1.2 3 .3 4.3 1.2 1.7-.5 3.7-1.5 2.2-.8 1.8-1.3-2-3.7 3.7-2.6.8-2.6-1.6-.7-3.4-.7-7.4 1.7-2.1L400 56l3.6-3.4 3.3-4.7 4.2-6.6 3-2.6 4.8-4.4 3.9-1.6 3 .2 2.6-3 3.3.2 3.2-.7 5.8 2.6-2.3 1zM427 4.4L423.2 6l-3-1 1-1-1-1.2 3.5-.8.8 1.5zM415.4-3l5.9 3-4.3 1.6-.8 2.9-1.5.7-.7 3.3-2.1.1-3.9-2.4 1.6-1.3-2.7-1.2-3.5-3.3-1.4-3.2 4.6-1.4 1 1.4h2.5l.6-1.5h2.5zm12.2-2.8l3.5 1.4-2.4 2.2-5 .4-5.1-.6-.4-1.1-2.5-.1-2-1.9 5.3-1.1 2.5 1 1.7-1.3zM564 157.2v1.1l.4 1.6-.1 1h-1.7l-2.5-.5-1.6-.3-1.3-1.3-2.8-.3-2.8-1.4-2-1.3-2.1-1 .6-2.3 1.1-1.2.8-.6 1.7.8 2.2 1.7 1.2.3.8 1.3 1.7.5 1.7 1 2.4.7zM730 326.9v1.1l1.8-1 .3 1-.3 1.2-1.1 1.3-1.9 2-1.3 1.1.3 1.3h-1.5l-2 1.1-1 1.9-2 2.8-2 1.2-1.1.8h-1.8l-1-1-2.1-.1v-1l1.6-2.2 3.2-2.7 1.5-.5 1.7-1 2-1.5 1.7-1.4 1.4-2 1-.8.7-1.5 1.7-1.3zm6.3-12.7l.8 2.7.5-1.8.7.8-.2 2 1.5.8 1.3.2 1.4-1 .9.3-1 2.4-1.1 1.6h-1.5l-.8.7v1.2l-.5.5-1.2 1.5-1.5 1.8-1.8 1.1-.2-.7-.7-.4 1.8-2.2-.3-1.5-1.9-1.1.3-1 1.7-1 .9-2 .3-1.7-.4-1.8.2-.4-.7-1.1-1-2.4-.5-1.8.8-.2.8 1.4 1.4.7zM493.8 185l-.7-1.7-1.8-4 6-2.5 1.2-4.9-1-1.7v-1l.6-1v-1l.8-.6-.4-.3.1-1.7h1l1 1.7 1.3 1 1.5.3 1.2.4 1 1.4.6.9.8.3v.5l-.7 1.5-.3.7-.8.8-.7 1.7-1-.1-.3.5-.3 1.3.3 1.6-.1.3h-1l-1.3 1-.1 1.1-.5.5H499l-.8.6v1l-1 .7-1.1-.2-1.4.8zm5.5-22.3l-.4-.9.5-.9.3.3-.2 1zM535.4 133.3l1.6 1.2.8 2 3.4 1-1.7 2.3-2.2.4-3.1-.7-1 1.2 1 2.2.9 1.8 1.7 1.3-1.6 1.5.2 1.8-1.7 2.6-1 2.6-2 2.6-2.4-.2-2 2.7 1.4 1.1.3 2 1.3 1.2.5 2.2h-4.5l-1.3 1.6-1.5-.6-.7-1.8-1.7-2-3.8.6H513l-2.9.4.6-3 2.9-1.3-.3-1.1-1-.4-.2-2.3-2-1-1-1.6-1-1.3 3.5 1.2 2-.3 1.2.3.4-.6 1.5.3 2.5-1.1v-2.2l1-1.4h1.5l.1-.7 1.6-.4.7.3.8-.8-.3-1.5.7-1.6 1.3-.6-1-1.8 2 .1.4-1-.2-1 1-1-.4-1.3-.6-1.1 1-1.2 2.2-.6 2.3-.3 1-.4zM222.2 207.8l-.7-.7-.4-1.3.5-.7-.5-.1-.4-.8-1-.7-.9.2-.4.8-.9.6h-.4l-.3.6 1 1.3-.6.3-.3.3-1 .2-.3-1.5-.3.4-.6-.1-.4-1-.9-.1-.5-.3H212v.5l-.3-.3.1-.5.2-.5V204l.2-.3-.4-.4v-1l.9-.2.7.9v.5l.7.1.2-.2.6.6 1-.2 1-.6 1.2-.4.7-.8 1.2.2-.1.2 1.1.1 1 .4.6.7.8.7-.3.3.5 1.5-.4.7-.7-.2zM240.2 267.2l-.4 1.3-1 .6-2.2-1.4-.2-1-4.3-2.4-3.8-2.7-1.6-1.5-1-2 .3-.7-1.9-3.2-2.1-4.4-2.1-4.8-1-1-.6-1.8-1.7-1.6-1.5-1 .7-1-1-2.3.6-1.7 1.6-1.5.3 1-.6.6v.9l1-.2.8.2.8 1.2 1.2-1 .4-1.6 1.2-2 2.5-1 2.3-2.5.6-1.5-.3-1.8.6-.3 1.4 1.2.6 1 1 .7 1.2 2.5 1.6.3 1.1-.6.8.4 1.2-.2 1.6 1.1-1.3 2.4h.6l1 1.4-1.8-.2-.3.4-1.7.5-2.3 1.6-.2 1-.5 1 .3 1.2-1.3.7v1l-.5.5 1 2.1 1.1 1.5-.4 1 1.4.1.8 1.3h1.8l1.7-1.3v3.6l.9.3 1.2-.4 1.9 3.9-.4.8v3.7l-.8 1.2.4 1-.4.8 1 2zM646.4 205l.3 1.5.2 1.3-.6 2.2-.9-2.4-1 1.2.8 1.8-.6 1-2.4-1.3-.7-1.7.6-1.2-1.3-1.1-.7 1-1-.1-1.4 1.3-.4-.7.7-2 1.3-.7 1.1-.9.8 1.1 1.6-.6.2-1.1h1.5l-.2-2 1.7 1.2.3 1.2zm-5.1-4.6l-.7.8-.6 1.5-.6.8-1.4-1.7.4-.7.5-.6.2-1.5 1-.2-.2 1.7 1.5-2.4zm-11.3 2.3l-2.7 2.3 1-1.7 1.4-1.4 1.2-1.7 1-2.4.4 2-1.3 1.3zm6.7-6.1l1.3.7h1.3v1l-.9 1-1.2.7-.2-1 .1-1.3zm7.5-.7l.7 2.7-1.6-.7v.9l.7 1.4-1 .6-.2-1.7-.6-.1-.4-1.5 1.2.2v-1l-1.4-1.8 2 .1zm-8.4-2.2l-.4 2.1-1-1.2-1.1-1.8h1.7zm-1.4-13.2l1.4.7.5-.6.3.6-.3 1 .9 1.8-.4 2-1.2.8-.1 2 .5 1.9 1.2.2.9-.3 2.6 1.4v1.3l.6.6-.1 1.1-1.7-1.2-.8-1.3-.5 1-1.4-1.5-1.9.3-1-.5v-1l.6-.6-.7-.6-.2.9-1-1.4-.5-1-.2-2.4.9.8-.1-3.8.5-2.2zM707.9 241.3l-.6.2-.9-.9-.8-1.5-.4-1.8.3-.3.2.7.6.6 1 1.5 1 .8zm-8-3.2l-1 .2-.4.6-1.2.6-1 .6H695l-1.7-.7-1.1-.7.2-.7 1.8.3 1.2-.2.3-1.1h.3l.2 1.2 1.2-.2.6-.8 1.2-.9-.2-1.4h1.2l.4.4v1.3zm-23 8.7l.2-7.8.1-7.8 3.6 1.6 3.8 1.4 1.4 1.2 1.2 1.2.2 1.4 3.4 1.5.5 1.3-2 .2.5 1.6 1.8 1.6 1.2 2.5h1.2l-.2 1 1.6.4-.6.5 2.1 1-.2.7-1.4.2-.5-.7-1.8-.2-2-.4-1.6-1.5-1-1.3-1-2.1-2.7-1-1.8.6-1.3.8.2 1.8-1.7.8-1.1-.4zm25.5-11l-.7.6-.3-1.4-.5-1-1-.7-1.1-1-1.5-.8.6-.5 1.1.6.7.6.9.5.8 1 .8.8zM413.3 94.4l-.9-1.9.2-1L412 90l-.7-1 .5-.8-.5-1.5 1.3-1 3-1.3 2.4-1 2 .5.1.7h1.9l2.4.4h3.5l1 .3.5.9.2 1.3.6 1.2v1.1l-1.1.6.6 1.4.1 1.3 1.1 2.6-.2.8-1 .3-1.6 2.4.6 1.3-.5-.1-1.9-1.1-1.4.4-.9-.3-1.1.6-1-1-.9.4V99l-1-1.4-1.5-.2-.2-1-1.3-.2-.3.7-1-.6v-.8l-1.5-.2zM247.2 180.5l1 .2.4.5-.6.6h-2.7l-.1-1 .3-.3zM644.4 119l.4.6-.8-.2-.7 1-.4.8.4 2-.9.6-.2.5-.6.8-1.3.4-.7.7.1 1.2-.1.3.9.4 1.3 1.2-.2.7-.8.1-1.4.2-.5 1.2-1-.1v.2l-1.1-.5-.2.5-.5.2-.2-.5-.5-.2-.7-.4.4-1.2.4-.3-.3-.5.3-1.5-.2-.4-1.3-.3-1-.7 1.3-1.8 1.9-1.4 1-2 1 1h1.8l-.6-1.4 2.9-1.2.5-1.5zM366 120.5l.7-.7.8-.4.5 1.3h1.2l.3-.3h1.2l.5 1.4-.9.8v2l-.4.5v1.3l-1 .2.9 1.6-.6 1.8.7.7-.3.8-.8 1 .2.8-.8.7-1-.3-1.1.3.3-2.1-.2-1.7-.9-.2-.4-1 .2-1.8.8-1 .1-1 .5-1.7v-1.1l-.5-1zM255 278.7l.7-3v-1.3l.9-2.1 3.5-.8h2l2 1.3v.8l.7 1.4v3.3l2.2.5.8-.5 1.4.7.5.7.3 2.3.2 1h.8l.8-.3.7.4v1.4l-.1 1.5-.3 1.4-.2 2.2-1.8 2-1.6.4-2.3-.4-2.1-.7 1.8-3.8-.4-1.1-2.1-1-2.7-1.9-1.6-.3zM456.2 145.7v1.5L456 148l-1 .3v-.6l.6-.4-.5-.3.3-1.7zM488.2 165l-.2-1.8.5-1.3.5-.2.7.7.1 1.5-.4 1.5-.5.2zM428.7 103.7l.8-.6 1.2.3h1.3l1 .7.6-.4 1.4-.3.5-.6h.8l.6.2.7.9.7 1.2 1.2 1.7.1 1.2-.1 1.2.4 1.3.9.5.9-.4 1 .4v.8l-1 .6-.6-.3-.4 3.4-1.1-.3-1.5-1-2.3.6-1 .7-3-.1-1.5-.5-.7.2-.6-1.1-.4-.5.4-.5-.5-.3-.6.6-1.2-.8-.2-1.1-1.2-.7-.2-.9-1.1-1.1 1.5-.5 1.1-2 .9-1.9z" class="rsm-geography" tabindex="0"/><path d="M664.4 95.5l3.3 5-3.1-.9-.1 4.2 2.6 2.9.4 2-1.9-1.7-.7 2.2-1-2.4-.5-2.8-1-3v-2.2l-1-4-2-2.8-.9-4 1.4-1.5-1.2-1.3.8-.5 1 2 1.5 2.9.8 2.9zM427.9 84.8h-3.5l-2.4-.3.3-1.3 2.7-1 2 .6.9.4-.2.9zM59.5 28.3l.3-.1h1.6l2.1 1-.4.5-2.2.9-2.5.2 1.1-2.5zm650 2.5l-1.8.2-.9-1.2 1.7-1.5 1 2.5zm-69-8.7H638l-3.8-.4-.4-.2 1.2-1.4 2-.4 3.1 1.4zm10.1-7l-1.5 1.5-3-.3-3.8-1.5v-1.3l3.5.6zM640 13.3l-.3 2.8L633 16l-2.6.9-4.4-2.5v-2.6l2.1-.7 4.7.1zM488.1 31.2l-1 .3-6-.5-.7-1.6-3.4-1-.5-1.9 1.8-.8-.4-2 3.1-3.1-1.7-.5 3.8-3.3-.7-1.7 3.7-2 5.4-2.5 5.7-.7 2.8-1.4 3.3-.5 1.5 1.5-1 1.2-5.9 2-5 1.7-5 3.6-2.1 3.7-2.3 3.5.7 3zM55.5 37.4l3.3 2.7 3.3 3.4-1 2.1.9.9.6-2.5 4.8.5 2.3 3.2-2.4 1.5-3.2.3-1.4 3.3-1 .7-1.7-.1-1-1.2-2-1 .2-1.4-1.7-.6-2.3.5-.5-1.2 1-1.3L51 48l.2 1.6-1.7 1.5 5.9-13.7zm662.9 13.7l-1.8 1.4-2.5-.2 2.4 1.8 2.2 2.7 1.3.9.7 1.3V60l-3.9-.7-4.3 2.4L711 62l-2 2.3-2 2-.2 1.4-3.5-2.2-4 2.5-1.3-1.2-1.3 1.4-2.7-.5.1 2.1-1.2 3 .5 1.3 2.4.7 1.3 4.5-1.8.1v2.5l1.3 1.4-2.9 1.5.4 3.4-2.6.7.3 3-2 2.8-1.3-2-2.1-4.4-3.2-6.6-.4-4.3 1-1.8-.4-1.5 2.7-.7 2-4 2.2-3.2 2.5-2.5-.2-4.6-2.2.3-.1 2.6-3.5 3.6-3-4-4.5 1.1-2.9 5.4 2.3 2-4 .7-2.9.4-.6-2.3-3-.5-2 1.5-5.9-.5-6 1-4.3 6-5.4 7.2 3.2.4 1.5 1.9 2 .7.8-1.5 2.2.2 3.7 3.3.8 2.5-.7 3 .7 3.4.3 4.6-2 4.1-.1 2-2 3.3-1.9 3.2-.9 1.6-2.3 1.6h-1.2l-1.6-1.3-2.2 2-.1 1-.4-.5-.3-1.4 1-.1-.4-3.3-1-2.3 1.4-1 2.5.5.7-2.8v-3l.5-1.1.4-2.6-3 .9-1.5 1.1h-3l-1.4-2.7-2.8-2-3.6-1-1.4-2.8-1.1-1.8-1-1.3-2-3-2-1-3-1-2.6.1-2.3.6-1.3 1.4 1.3.8.4 1.6-.9 1-1 3 .2 1.3L615 99l-2.6-1-2.3.2-1.2-1-1.2-.3-2.5 2-2.5.5-1.6.7-2.6-.4h-1.8l-1.5-1.5-2.2-1.4-2-.3-2.4.3-1.8.6-3-1.2L583 94l-2.4-.8-1.8-.3-2.4-1.3-1.5 3 1.1 1.8-1.5 2-3-.7-2-.1-1.5-1.4h-2l-1.9-.9-2.7 1.4-3.3 2.5-2 .5-.8.2-1.3-1.8-2.4.4-1-1.2-1.5-.6-1.2-1.7-1.2-.5-2.7.8-3-1.7-.7 1.5-5.5-7.5-2.8-2.3.5-1-4.4 2.9-1.8.2-.1-1.7-2.6-1-2 .7-1-3.1-3.6-.7-1.5 1.3-4.7 1.1-.8.8-7.1 1-.8 1 1.7 2-1.8.8.5.9-1.7 1.4 3.3 2-.3 1.4-2.7-.1-.5.8-2.7-1.5h-3l-2 1.3-2.4-1.2-4.5-2h-3L479 96V98l-2.2-1.7-1.3 3.2.6.6-1 2.2 2 1.9h1.4l1.4 1.8v1.5l1 .4-.8 1.7-1.9.5-1.7 2.9 2 2.6v1.8l2.4 3.3-1.2 1-.3.8-.8-.2-1.5-1.7h-.6l-1.3-.7-.7-1.1-1.9-.6-1.2.4-.4-.5-2.8-1.3-3-.4-1.6-.5-.3.3-2.6-2.3-2.4-1-1.8-1.7 1.4-.5 1.5-2.3-1.2-1.1 2.9-1.2-.1-.6-1.8.4v-1.2l1-.8 1.9-.2.2-1-.5-1.6.6-1.5v-.8l-3-1h-1.1l-1.3-1.3-1.5.5-2.5-1v-.6l-.8-1.3-1.6-.1-.2-1 .4-.5-1.3-1.7-2 .3-.6-.2-.5.7-.7-.1-.6-2-.5-.9.4-.3 1.5.1.7-.6-.6-.8-1.3-.6V86l-.8-.5-1.3-2 .4-.8-.3-1.5-2-.7-1 .4-.2-.8-2.1-.7-.7-1.9L437 76l-1-.7.8-1-.7-2.9 1.2-1.8-.3-.5 2-1.8-2-1.5 3.8-4.1 1.6-1.9.6-1.6-3-2.3.6-2.2-1.8-2.4 1-3-2.4-3.8 1.5-2.6-3-2.3.2-2.5 1.4-.3 3-1.4 1.8-1.2 3.1 2.1 5.1.9L458 41l1.6 1.6.3 2.3-1.9 1.8-2.9 1-8.5-2.7-1.3.5 3.2 2.5.3 1.5.4 3.4 2.5 1 1.5 1v-1.7l-1.2-1.4 1.1-1.3 4.7 2 1.5-.7-1.5-2.5 4-3.3 1.7.2 1.9 1.2.8-2.4-1.8-2 .7-2-1.5-2.2 5.2 1.1 1.3 2-2.3.4.2 1.9 1.6 1.2 2.7-.8.2-2.2 3.7-1.6 6-3 1.4.2-1.5 2 2.3.4 1.1-1.2h3.5l2.5-1.5 2.4 2.1 1.7-2.3-2.2-2 .7-1.2 5.6 1 2.7 1.2 7.2 4 1-1.9-2.2-1.8-.2-.8-2.2-.3.3-1.7-1.4-2.8-.3-1.1 2.8-3.3.6-3.3 1.2-.8 4.9 1 .7 2-1.1 3 1.3 1.1 1 2.6.5 4.8 2.4 2.1-.4 2.4-2.7 4.8 2.2.5.5-1.2 1.9-.9.1-1.7 1.3-1.6-1.4-2 .5-2.3-2.1-.3-.8-2 .8-3.5-2.9-3 2.8-2.4-1-2.6h1l1.3 2V29l2 .6-1.3-2.6 2.7-1.4 3.7-.2 3.7 2-2.2-3-1-4 3-.7 4.3.2 3.7-.5-1.8-2L538 15l2-.1 3-2 4.6-.4.3-1 4.5-.4 1.7.8 3.4-2h3.3V8.3l1.2-1.7 3.7-1.6 3.4 1.3-2.2 1 4.2.5 1 2 1.3-1h5.2l4.5 2 1.8 1.4.2 2-1.7 1-4 2.2-1 1.1 2.3.5 3 1 1.3-.7 1.6 2.3.5-1 2.7-.5 6 .6.9 1.7 7.6.6-.8-2.8 4 .6h2.9l3.5 2 1.6 2.3-.6 1.5 3.2 2.9 3.3 1.4.5-3.7 3.4 1.6 2.8-1L632 29l1-1 3 .5-2.4-3.4 1.8-1.6 8.6 1 8.4 1.4L655 28l5.8 2.7 7-.6 3.8.6 2.1 1.4.8 2.6 2.7 1 2.1-.7h3.2l3.7.6 3.3-.4 4.5 3.2 1.8-1.2-2.4-2.2.1-1.6 6.2 1 3.7-.2 6 1.7 3.2 1.5 5.9 13.7zm-152-48.5L557 4.1l1.8-5.2 1.3-.4 1.3.2 5 2.3zm-94.9-9L469.3-6l-1.5.3-.1.7-2 .7-2-1 .9-1.3-3.9-.1 3.3-.7 2.6-.1.5 1.1.8-1 1.5-.6 2.7.9zM557 .3l-3.7.5-5-1.1-3.3-1.6-2-2.9-2.6-.8 3.7-2.8 3.5-1 3.8 2.2 5 4zM447.3 227.7l.8 1.3-.1 1.5-.6.3-1.1-.2-.7 1.4-1.2-.2.2-1.3.2-.2.1-1.4.6-.7.5.2zM366.3 157.8v.6l-.1 3.8h-6.7v6.3l-2 .2-.5 1.3.4 3.6h-8l-.5.8v-1h.1l4.6-.3.3-.9.8-1 .8-3.5 2.9-2.7 1-3.1.6-.2.7-2 1.7-.2.7.3h1l.6-.6h1.3v-1.4zM472.5 185.8l-.3-1-.7-.8-.2-1-1-.9-1.2-2-.7-2-1.4-1.7-1-.4-1.4-2.3-.3-1.8v-1.4l-1.2-2.8-1-1-1.2-.5-.7-1.4.1-.6-.6-1.3-.6-.5-.9-1.9-1.3-2-1.1-1.8h-1l.2-1.3v-1l.3-1 2.3.5.8-.8.5-1 1.5-.3.3-.9.7-.4-2.2-2.6 4-1.2.4-.4 2.5.7 3.1 1.8 6 5.1 3.8.2 1.8.3.6 1.2 1.5-.1.9 2.2 1 .6.4.8 1.5 1.1.1 1-.1.9.3.8.6.7.3.8.3.7.7.5.5-.2.5 1v.5l1 2.5 6.2 1.3.4-.5 1 1.7-1.1 5-6.1 2.4-6 1-1.8 1-1.4 2.6-1 .4-.5-.8-.8.1-2-.2-.4-.3H475l-.5.3-.9-.6-.5 1.2.2 1zM454.5 202.4h-.3V201l-.2-.8-1.1-1-.3-1.7.2-1.7-1-.2v.5l-1.3.2.5.7.2 1.4-1.1 1.3-1 1.8-1.1.2-1.8-1.4-.7.5-.2.7-1.1.5v.4H442l-.3-.4-1.5-.1-.8.4-.5-.2-1.1-1.4-.4-.7-1.5.3-.5 1.2-.6 2.1-.7.5-.6.2-.2-.1-.7-.7-.1-.7.3-1v-1l-1.2-1.5-.3-1v-.6l-.7-.7v-1.4l-.5-1-.7.2.2-1 .5-1-.3-1 .7-.7-.4-.5.5-1.5 1-1.8 1.7.2-.2-9.7v-1h2.3v-5h24.4l.7 2.4-.4.5.3 2.5.9 3 .8.5 1.1 1-1 1.3-1.5.4-.6.8-.2 1.6-.8 3.6.2 1-.3 2-.8 2.4-1.2 1.2-.9 1.8-.1 1-1 .7-.6 2.5z" class="rsm-geography" tabindex="0"/><path d="M454.5 202.4v1.9l-.3.7h-1l-.8 1.4 1.3.2 1.1 1.2.4 1 1 .5 1.2 2.6-1.4 1.5-1.3 1.5-1.3 1H452l-1.7.6-1.3-.5-.9.6-1.8-1.6-.5-1-1.2.5-1-.1-.5.4-1-.3-1.2-2-.3-.7-1.6-1-.5-1.4-.9-1-1.4-1.3v-.8l-1.2-1-1.4-.9.6-.2.7-.5.6-2.1.5-1.2 1.5-.3.4.7 1 1.4.6.2.8-.4h1.5l.3.5h2l.1-.4 1-.5.3-.7.7-.5 1.8 1.4 1-.2 1-1.8 1.2-1.3-.2-1.4-.5-.7 1.2-.2.2-.5 1 .2-.3 1.7.3 1.8 1 1 .3.7v1.2zM349.4 192.4l-.9-1.8-1-.9 1-.5 1-1.7.5-1.2.7-.8 1 .2 1-.5h1.2l1 .7 1.3.6 1.2 1.8 1.4 1.7v1.5l.5 1.4.8.6.1 1v.7l-.4.2-1-.2-.3.2h-.4l-1.5-.5h-1l-3.8-.1-.6.2h-.7l-1 .4-.4-1.9h1.9l.5-.3h.4l.7-.5 1 .5h.8l1-.5-.5-.7-.7.4h-.6l-.8-.6H352l-.5.6zM720.4 250l.5.9h-1.4l-.7-1.5 1.2.6zm-2.6-1.4H717l-1.2-.2-.4-.4.2-1 1.3.5.6.5zm1.8-.7l-.3.5-1.5-2.1-.3-1.4h.7l.6 1.9zm-3.6-3v.5l-1.5-1-1-.9-.8-.8.3-.2 1 .5 1.6 1.1zm-4.7-2.4l-.4.2-1-.6-.7-1v-.4l1.3 1zM360.2 208.8l-.5-.2-1.5-1-1-1.2-.5-.9-.2-1.8 1.1-1 .2-.7.4-.5h.6l.5-.5h1.6l.6.9.4 1v.7l.3.6v.9l.6-.2-1 1.1-1 1.3v.7zM202.1 193l-.2.5h-1.2l-.8-.2-.8-.5-1.2-.2-.5-.5v-.3l.8-.7.4-.2v-.3l.4-.2.6.2.4.5.6.4v.3l1-.3.4.2.3.3zM483.3 205.9h-1.8l-6.8-2.8-.8-.9-.8-1.1-.8-1.4.4-.8.8-1.3.7.4.4 1 1 1h1l2-.6 2.2-.3 1.8-.7 1-.2.7-.4h1.2v4.6l-.8 1.5z" class="rsm-geography" tabindex="0"/><path d="M470.5 229l-1.2-2v-8.6l1.7-2.7.6-.8h1.3l1.9-1.7 2.7-.1 5.8-7.2 1.4-2 .9-1.5v-3.7l-.1-1h.7l1-.4 1-.2 1-.9h.8v.7l-.1 1.4v1.3l-.4.8-.5 2.6-1 2.7-1.2 3-1.8 3.6-1.7 2.6-2.5 3.3-2 2-3.1 2.3-2 1.8-2.3 2.9-.4 1.2zM429 114l-.5.6.2 1 1 1.2-.7.9-.3.9.2.3-.3.4h-1l-.6.2v-.2l.2-.4.2-.6H427l-.4-.5-.3-.1-.3-.5-.4-.2-.3-.3-.4.1-.2 1-.5.1.2-.2-.8-.6-.6-.3-.3-.4-.6-.4.5-.2.2-1.3-1-1 .5-1.3h-.7l.7-1-.7-.8-.5-1 1.5-.8 1.3.1 1 1.1.3.9 1.2.7.2 1.1 1.2.8.6-.6.5.3-.4.5zM265.2 210.7l2.5.5.2-.4 1.7-.2 2.3.7-1.2 2 .2 1.7.8 1.4-.4 1-.2 1-.5 1-1.2-.4-1 .2-.8-.2-.2.7.3.5-.2.5-1-.2-1.3-2.1-.3-1.3h-.7l-.9-1.8.4-1.2-.1-.6 1.3-.6zM421 99v.3l.8-.4 1 1 1.2-.6 1 .3 1.3-.4 2 1-.6.8-.3 1.2-.4.3-2.2-.9-.6.2-.4.7-1 .3-.2-.2-.9.5h-.8l-.1.6-1.7.4-.7-.3-1-.8-.2-1 .1-.3.3-.7.8.1.7-.3v-.3l.4-.1.1-.7h.5l.2-.6zM411.3 107.6l1.6.2 1-.6h1.7l.4-.5h.3l.4 1-1.5.7-.2 1.1-.7.3v.8h-.7l-.7-.5-.4.5-1.4-.1.5-.3-.5-1.2zM405 71l.8-1.9 1.5-2.2.5-3.7-1.2-1.7-.3-4.3 1.2-3h1.8l.6-1.4-.7-1 2.7-4.8 1.7-3.8 1.1-2.5h1.8l.4-2 3.5.7.1-2.4h1.2l2.5 1.6 3 2.4.3 5.3.7 1.3-3.1 1-1.7 2.3.4 2-2.8 2.7-3.5 2.8-1.2 4.6 1.4 2.3 1.9 1.7-1.6 3.6-2 .7-.5 5.3-1 2.9-2.3-.3-1 2.4-2.3.1-.7-2.9-1.7-3.5zM449.6 289.9l-.4 1.1-1.2.3-1.2-1.4v-.8l.6-1 .2-.7.6-.2 1 .5.3 1zM462.6 143.1l-3.8 2.8-2.3-1 .2-.5v-1l.4-1.4 1-1-.4-1-.9-.2-.3-2 .5-1 .5-.7.5-.5V134l.7.5 2.2-.7 1.1.5h1.7l2.2-1h1.1l2.3-.4-1 1.7-1 .6.3 2-.6 3.1zM414 194.2l.2-1.1H413v-1.6l-.9-1 1-3.1 2.5-2.3.1-3.2.7-5 .5-1-.9-.9v-.7l-.8-.7-.6-3.8 2-1.4 8.4 4.8 8.3 4.7.2 9.7-1.8-.2-.9 1.8-.5 1.5.4.5-.7.8.3 1-.5 1-.2.9.7-.2.4 1v1.4l.8.7v.6l-1.3.4-1 1-1.5 2.6-2 1h-2l-.5.1.2.9-1.1.8-.9 1-2.6.9-.5-.6h-.4l-.3.6-1.8.2.4-.7-.7-1.6-.3-1-.9-.4-1.2-1.4.4-1.1 1 .2.5-.2h1.2L415 199v-1.6l-.1-1.6zM387.9 210.3l-1.7.6-.5-.9-.5-1.5-.2-1.2.5-2.1-.5-1-.2-1.8v-1.8l-.9-1.2.1-.7h1.9l-.3 1.3.6.7.8.8v1.2l.5.5-.1 5.5zM596.7 195.8l-2-1H593l.2-2-1.8.1v2.7l-1 3.5-.6 2 .2 1.8 1.3.1 1 2.2.4 2 1.2 1.4 1.3.3 1 1.3-.6 1-1.4.2-.1-1.2-1.8-1-.3.4-.9-1-.3-1.1-1.2-1.4-1-1.1-.3 1.4-.5-1.3.2-1.5.5-2.3 1-2.5 1-2.2-1-2.2v-1.2l-.3-1.3-1.4-2-.6-1.2.7-.4.6-2.1-1-1.6-1.3-1.8-1.2-2.2.9-.4.7-2.6 1.5-.2 1-1 1.2-.6 1 .8.2 1.4 1.4.2-.3 2.5.2 2.2 2-1.4.7.4h1.2l.4-1 1.5.2 1.7 2 .3 2.4 1.8 2.2v2l-.5 1.1-2-.3-2.6.4-1.3 2zM526.2 125l-.7.8-2.2-.5v1.6l2.1-.2 2.6.8 3.8-.4.7 2.5.7-.3 1.2.6v1l.5 1.6h-2l-1.4-.2-1.2 1.2-.8.2-.7.6-.9-.9v-2.2l-.6-.1.1-.8-1.1-.6-.8.9-.1 1-.3.4H524l-.5 1.2-.8-.5-1.3.8-.7-.3.9-2.7-.6-2-1.6-.6.4-1.2 1.7.1.8-1.4.5-1.8 2.6-.6-.3 1.2.4.8zM507.6 137.2l-.3-2.2-1.5-.1-2.6-2.4-1.6-.3-2.3-1.3-1.5-.3-.8.5h-1.4l-1.3 1.5-1.7.5-.5-1.9v-2.8l-1.6-.9.4-1.8-1.4-.2.3-2.3 2 .7 1.6-.9-1.6-1.6-.7-1.6-1.5.7v2l-.8-1.8.8-.9 2.2-.5 1.4.7 1.6 2.2 1-.2h2.3l-.5-1.4 1.6-1 1.6-1.5 2.8 1.4.4 2.2.8.6 2.2-.1.7.4 1.2 2.8 2.5 1.9 1.4 1.3 2.2 1.3 2.8 1.1.1 1.6h-.6l-1-.7-.2.9-1.7.5-.2 2.1-1 .8-1.6.4-.3 1.2-1.5.4zM643.5 246.2l.2-.5 1.9-.6h1.4l.7-.3.7.3-.7.6-2.3 1-1.7.7v-.7zM256 199.3l1.2-.3h.5l-.2 1.8-1.7.3-.4-.2.7-.7zM403.3 151l-.9-4.6-1.3-1v-.7l-1.7-1.5-.2-2 1.3-1.4.4-2.2-.3-2.5.4-1.3 2.1-1.1 1.5.3v1.3l1.6-1 .2.6-1 1.3v1.2l.7.6-.2 2.3-1.4 1.3.5 1.5h1l.5 1.2.8.4v2l-1 .8-.7.8-1.4 1 .3 1-.2 1.1z" class="rsm-geography" tabindex="0"/><path d="M467 121.4l2-.1 2.1 1.3.4 1-.1 1.3 1.5.7.9.8-1.3.7.8 3.1-.4.8 1.3 2.2-1 .4-.7-.7-2.4-.3-.8.4-2.3.4h-1l-2.3 1H462l-1-.5-2.3.7-.7-.5v1.5l-.5.5-.5.6-.8-1.2.7-1-1.2.3-1.7-.6-1.3 1.5-3 .3-1.8-1.4-2.2-.1-.4 1-1.4.4-2-1.4h-2.2l-1.3-2.6-1.5-1.5.9-2-1.3-1.4 2.1-2.6h3l.8-2.1 3.8.3 2.4-1.7 2.3-.8h3.2l3.6 1.9 3 1 2.3-.4 1.7.2zm-30.9 2l.5-.4.5-1.6-1-.8 2-.8 1.7.3.3 1 1.8 1-.3.6-2.4.2-.8.8-1.6 1.5-.7-1.3zM634 166l-.9 4-.6 2-1.3-2.1-.5-1.9 1-2.4 1.4-1.9 1 .8zM454.5 227.3l.4.2 7.5 4.9.1 1.4 3 2.4-1 2.9.1 1.4 1.3.8.1.6-.6 1.5.1.7-.1 1.2.7 1.5.8 2.3.8.6-1.7 1.4-2.3.9h-1.2l-.8.7h-1.4l-.6.3-2.5-.6-1.5.2-.6-3.3-.7-1.1-.4-.7-2-.5-1.2-.7-1.3-.4-.8-.4-.9-.6-1-3-1.3-1.3-.4-1.4.3-1.3-.4-2.2h.9l.7-1 .8-1.2.5-.5v-.8l-.4-.5-.1-1 .6-.2V229l-.7-1.3.7-.3h2.3z" class="rsm-geography" tabindex="0"/><path d="M447.3 227.7l-1.3.7-.5-.2v-1.8l.5-1 .1-1.8.5-1.1.8-1.3.8-.6.6-.9-.8-.3.1-2.8.9-.6 1.3.5 1.7-.5h1.4l1.3-1.1 1 1.6.2 1.2 1 2.8-.8 1.7-1 1.6-.6 1v2.5l-4.2.1H448zM445.8 91.5l.7.1.5-.7.6.2 2-.3 1.3 1.7-.4.6.2.9 1.6.1.8 1.3V96l2.5 1 1.5-.5 1.3 1.4h1.1l3 .9v.8l-.6 1.5.5 1.6-.2 1-2 .2-.9.8v1.2l-1.5.3-1.3.9-1.8.1-1.6 1 .2 1.8 1 .7 2-.2-.3 1-2.2.5-2.6 1.6-1.1-.5.4-1.3-2.3-.9.4-.5 1.8-1-.6-.6-3.1-.7-.2-1-1.8.3-.7 1.6-1.4 2-1-.4-.8.4-1-.5.6-.3.3-1 .5-.9-.2-.5.4-.2.2.4h1.2l.5-.1-.4-.3.1-.4-.7-.8-.4-1.1-.7-.5v-1l-.8-.7-.9-.2-1.4-.8-1.3.2-.5.5h-.8l-.5.6-1.4.3-.7.4-1-.7h-1.2l-1.2-.3-.8.6-.2-.7-1.1-.8.3-1.2.5-.7.5.1-.6-1.3 1.7-2.4 1-.3.1-.8-1-2.6h.8l1-.9h1.6l2 .2 2.2.7h1.5l.8.5.7-.5.5.6 1.8-.1.7.3v-1.5l.6-.6zM266.6 298.7l1.3-.2 2.2 2 .7-.1 2.2 1.6 1.7 1.4 1.3 1.8-.8 1.2.7 1.5-.8 1.6-2.2 1.5-1.5-.5-1 .3-2-1.2-1.4.1-1.3-1.4v-1.7l.4-.6-.2-2.6.3-2.6zM63 179l-.3.5-.4-.4.1-.6-.2-1 .1-.2.4-.4v-.7H63l.8.4.3.3.3.3.4.8v.2l-1 .5zm-.6-3.7l-.7.1-.3-.5-.2-.2v-.1l.2-.3.7.3.5.4zm-1.2-1.4l-.1.3H60l.2-.4zm-1.8-.3l-.1.1H59l-.7-.1-.2-.6.6-.4.1.2zM56 172l-.3.2-.6-.5.1-.1.4-.3h.5zm195-60.5l.2.9-2.3 1.3-2.2 1-2.1.8-1.3 1.7-.4.6-.2 1.4.5 1.5h.8v-1l.5.7-.3.7-1.4.5h-1l-1.4.4-1 .1-1.1.2-1.8.8 3-.5.6.5-3 .8H236v-.3l-.6.7.6.1-.7 2-1.7 2v-.7H233l-.5-.8.2 1.5.5.5-.1 1-.8 1-1.3 2.1h-.2l.8-1.9-1-1 .1-2.2-.5 1.1.2 1.7-1.3-.4 1.3.9-.1 2.5.5.2.1.9v2.6l-1.4 2-2.2.8-1.5 1.5-1 .2-1.2 1-.3.8-2.4 1.7-1.3 1.2-1.1 1.5-.5 1.8.2 1.8.5 2.2.7 1.8v1.1l.7 3-.2 1.6-.2 1-.6 1.5-.7.3-1-.3-.2-1-.7-.6-1-2.2-.7-2-.2-1 .5-1.6-.4-1.4-1.4-2.1-.8-.4-2.1 1.1H210l-.8-1.3-1.3-.6-2.3.3-1.8-.3-1.6.2-.8.4.3.7-.2 1 .4.5-.4.4-.7-.4-.8.5-1.5-.1-1.4-1.4-1.8.4-1.4-.6-1.3.1-1.8.6-2 2-2.2 1-1.2 1.2-.6 1.2-.2 1.7v1.2l.3.9h-.8l-1.4-.5-1.6-.8-.4-1.2-.3-1.7-1-1.5-.6-1.5-.8-1.7-1.3-1H175l-1.5 2-1.6-.7-1-.8-.3-1.4-.5-1.3-1.1-1.2-1-.8-.6-.9H164l-.1 1h-5.7l-4.4-1.7-2.9-1.3.3-.5-2.6.3-2.4.2-.1-1.3-1.1-1.5-1-.3v-.8l-1.1-.1-.7-.7-1.8-.3-.5-.4v-1.4l-1.5-2.7-1-3.7.1-.6-.7-.9-1.2-2.2.2-2.2-.8-1.5.8-2.2.4-2.3-.2-2.1 1.3-2.6.8-2.6.7-2.5.5-3.8-.1-2.4-.3-1.3.4-.6 2.6 1 .5 2.7.6-.8.2-2.3-.1-2.4h54.2l.3-1 .6-.1.1 1.6.5.5 1.4.1 1.9.5 1.7.9 1.7-.4 2.3.8h.7l1.8-.9 1.7 1 1.8 1.2 1.4 1 1.4.8.1.8.4.2-.1.3.5.1.4-.3v.7l.3.4h.6l.2.4-.3.5 1.9 1.3v2.5l.1 2.4-.8 1.7-1.1 1.5-.6 1v.2l.1.4.6.4h.5l2.5-1.4 2.2-.5 2.7-1.3.1-.3v-.8l-.3-.6 1-.4h3.7l.8-1.1.3-.2 2.3-2 1-.5h6.6l.3-.7.7-.2.9-.4.8-1.3.9-2.2 1.7-2.1.6.7 1.4-.5.8.9-.5 3.8zM91 76.3L89 77.5 88 76.7l.2-1.4 2.1-1.1 1.2-.5 1.2.2.5 1zm-20.9-8.7L68.9 68l-1-.6-.9-.9 2-.5 1.5.3zM63.4 55l.9.7 1.3-.4 1.1 1 1.7.3-.3.4-1.7.7-1.1-.7-.5-.6-1.7.2-.3-.3zm64.2-20.2l-4.4 12.8-6 18.7 1.8.1 1.6.9.9 1.4 1 2L125 69l2.2-1 .6 1.6.9 1.3 1.3 1.4.6 2.3 1 3.5 2.7 2-.5 1.9-1.4 1.4-.8-1.1-1.4-1 .2-2.7-1.8-2.5-.2-2.9-1.8-.2h-3l-2-1-3-3.2-1.6-.6-3-1.2-2.6.3-3.3-1.5-1.8-1.3-2.3.7-.4 2.2-1 .2-2.5.6-2 1.1-2.3.7L96 68l2-3.1 2.3-1-.3-.8-3 1.8-2 2.1-3.5 2.3.9 1.5-2.5 2.2-2.5 1.3-2.3 1-.9 1.4-3.5 1.5-1 1.5L77 81l-1.3-.2-2 .8-2.4 1-1.9 1-3.6 1-.1-.6 2.6-1.4 2.2-1 2.6-1.6 2.5-.4 1.3-1.2 3.3-1.9.6-.6 1.8-1 1.1-2.4 1.6-1.9-2.5 1-.4-.6-1.5 1.2-.7-1.6-.9 1.1-.1-1.6-2.4 1.3h-1.1l.5-1.9.7-1.1-.8-1.2-2.7.6-1-1.4-1-.8.6-1.8-1-1.4 1.5-1.9 2.2-1.8 1.3-1.7 1.6-.2 1 .5 2.2-1.6 1.2.3 1.8-1 .2-1.5-.8-.6 1.9-1.3h-1.2l-2.2.8-.9.7-1.2-.7-2.7.3-2.5-.8-.2-1.3-1.6-2 3.2-1.4 4.7-1.6h1.6l-1 1.7 4-.2-.7-2-1.8-1.4-.6-1.7-1.1-1.5-2.1-1 1.7-2h3.3l3-1.6 1.1-1.7 2.5-1.7 2-.4 4-1.6 1.6.2 3.5-2 2.5.8.7 1.7 1-.7 3 .2-.4.8 2.5.6 2-.3 3.4 1 3.4.4 1.2.5 2.6-.6 2.4 1zM518 132.6l-.2-1.6-2.8-1.1-2.2-1.3-1.4-1.3-2.5-1.9-1.2-2.8-.7-.4h-2.2l-.8-.5-.4-2.2-2.8-1.4-1.6 1.6-1.6 1 .5 1.3h-2.3l-1-10.1 5-1.7.3.3 3.3 2 1.7 1 2.2 2.5 2.3-.4 3.4-.2 2.6 2 .1 2.8h1l.6 2.2 2.6.1.6 1.3h.8l.7-2 2.4-1.9 1-.5.7.3-1.5 1.8 1.6 1 1.3-.7 2.6 1.4-2.4 2-1.5-.3h-.8l-.4-.7.3-1.2-2.6.6-.5 1.8-.8 1.4h-1.7l-.4 1.1 1.6.6.6 2-.9 2.7-1.6-.5zM236 196.8v.6l-1.2.3.6 1v1.3l-1 1.4.7 2 1-.2.5-1.8-.7-.8v-1.8l2.6-1-.3-1.1.8-.8.7 1.7h1.4l1.3 1.4.1.8h1.9l2.2-.3 1.2 1.1 1.5.3 1.2-.7v-.6l2.6-.2h2.5l-1.8.7.7 1.1 1.7.2 1.5 1.2.3 2 1-.1.9.5-1.7 1.4-.2.9.7.9-.5.4-1.3.4v1.1l-.5.7 1.4 1.8.2.7-.8.9-2.3.9-1.5.3-.6.6-1.6-.6-1.6-.3-.4.2 1 .6-.1 1.6.2 1.5 1.8.3.1.5-1.5.6-.2 1-.9.4-1.5.6-.4.7-1.7.2-1-1.3-.7-2.4-.6-.8-.7-.5 1-1.2v-.5l-.6-.8-.4-1.5.2-1.8.5-.8.4-1.2-.8-.5-1.2.3-1.5-.1-.8.2-1.4-2-1.2-.3-2.7.2-.5-.8-.5-.2v-.5l.2-1-.1-.9-.5-.5-.2-1.1-1-.2.5-1.4.3-1.7.7-.9.8-.7.5-1.2zM606.4 173l-2.5 2.1-1.6 2.3-.3 1.7 1.8 2.6 2.1 3.2 2 1.5 1.4 2 1.2 4.5v4.2l-1.7 1.6-2.3 1.5-1.6 2-2.5 2.3-.8-1.6.5-1.6-1.6-1.4 1.7-1 2.2-.1-1-1.5 3.4-1.8.1-3-.5-1.5.2-2.4-.6-1.8-1.7-1.7-1.5-2.1-1.9-2.9-2.6-1.5.5-.8 1.3-.7-1-2.1h-2.5l-1.1-2.3-1.4-2 1-.6h1.7l2-.2 1.6-1.3 1.1.9 2 .4-.3 1.5 1 1zM731 264.5l-.7.3-.6-1 .2-.7zm-1.1-3.7l.1 2-.5-.3H729l-.2-.6.1-1.8zM493.8 185l-1.5.7-.4 1v.9l-2 1-3.3 1.1-1.8 1.8h-1.5l-1.2 1-1.3.4-1.8.1-.5.2-.4.6-.6.2-.3.6h-1l-.6.3-1.5-.1-.5-1.5V192l-.4-.7-.4-1.8-.6-1 .4-.1-.3-1.1.3-.5-.1-1 .8-.8-.2-1 .5-1.2.9.6.5-.2h2.4l.4.2 2 .2.8-.1.5.8 1-.4 1.4-2.6 1.9-1 5.9-1 1.8 4zM417.4 294.6l1-1.3.8.7.3 1 .9.3 1.3.5 1-.2 2-1.3.1-9.3.6.3 1.1 2.4-.2 1.6.4.8 1.5-.2 1-1.1 1-.8.6-1.2 1-.6.9.3 1 .7 1.6.2 1.3-.6.2-.8.4-1.2 1.1-.2.7-1 .7-1.6 1.9-1.9 3-1.8h.8l1 .5.7-.3 1 .2 1 3.5.4 1.8-.4 2.8.1.9-1-.5-.6.2-.2.7-.6 1v.8l1.2 1.4 1.2-.3.4-1.1h1.6l-.6 1.9-.3 2-.6 1.2-1.4 1.3-.4.4-1 1.3-.5 1.3-1.3 1.8-2.3 2.7-1.5 1.5-1.6 1.2-2.2 1-1 .1-.3.8-1.2-.4-1 .5-2.2-.5-1.2.3-.9-.1-2 1-1.8.4-1.3 1h-1l-.8-.9h-.6l-.9-1.2v.4l-.3-.7v-1.6l-.6-1.7.6-.5v-2l-1.2-2.4-1-2.1zm25.7 1l-.8-.9-1 .6-1.1 1-1.2 1.6 1.5 2 .7-.3.4-.8 1.2-.4.4-.9.6-1.2zM452 247l1 1.1.5 2-.4.7-.4 2 .3 2-.6.8-.7 2.2 1 .7-6.2 2 .1 1.7-1.5.3-1.2 1-.3.8-.7.2-1.9 2-1.1 1.6h-.7l-.7-.2-2.3-.3-.4-.2v-.2l-.8-.5-1.3-.2-1.7.6-1.4-1.5-1.3-2 .2-7.7h4.3l-.2-.8.3-1-.3-1 .2-1.2-.2-.8h.7l.1.8h1l1.3.2.7 1 1.7.4 1.2-.7.5 1.2 1.6.4.7 1 .9 1.3h1.5l-.1-2.6-.6.5-1.4-1-.6-.4.3-2.4.4-2.8-.4-1.1.6-1.5.5-.3 2.8-.4.8.2.9.6.8.4 1.3.4z" class="rsm-geography" tabindex="0"/><path d="M448.2 278.7l-1.1-0.2-0.7 0.3-1-0.5h-0.8l-1.3-1.1-1.6-0.4-0.6-1.5v-1l-0.8-0.2-2.3-2.7-0.6-1.4-0.5-0.4-0.7-2 2.3 0.3 0.7 0.3h0.7l1.1-1.7 1.9-2 0.7-0.2 0.3-0.8 1.2-1 1.5-0.3 0.2 0.9h1.7l1 0.5 0.4 0.6 1 0.1 1 0.8v3.1l-0.5 1.7-0.1 1.8 0.3 0.8-0.3 1.4-0.3 0.2-0.6 1.8z" class="rsm-geography" tabindex="0"/></g><g class="rsm-markers"><circle r="6" transform="translate(138.794 131.677)" tabindex="0"/><circle r="6" transform="translate(229.193 128.326)" tabindex="0"/><circle r="6" transform="translate(185.08 150.438)" tabindex="0"/><circle r="6" transform="translate(143.072 128.518)" tabindex="0"/><circle r="6" transform="translate(675.675 318.614)" tabindex="0"/><circle r="6" transform="translate(234.752 124.576)" tabindex="0"/><circle r="6" transform="translate(198.894 113.844)" tabindex="0"/><circle r="6" transform="translate(155.212 133.475)" tabindex="0"/><circle r="6" transform="translate(208.94 120.753)" tabindex="0"/><circle r="6" transform="translate(217.14 121.02)" tabindex="0"/><circle r="6" transform="translate(228.084 130.164)" tabindex="0"/><circle r="6" transform="translate(145.504 142.687)" tabindex="0"/><circle r="6" transform="translate(228.11 132.124)" tabindex="0"/><circle r="6" transform="translate(209.09 120.22)" tabindex="0"/><circle r="6" transform="translate(236.366 122.77)" tabindex="0"/><circle r="6" transform="translate(237.766 122.165)" tabindex="0"/><circle r="6" transform="translate(59.3 173.672)" tabindex="0"/><circle r="6" transform="translate(138.758 131.835)" tabindex="0"/><circle r="6" transform="translate(236.375 123.642)" tabindex="0"/><circle r="6" transform="translate(179.259 178.412)" tabindex="0"/><circle r="6" transform="translate(214.53 127.67)" tabindex="0"/><circle r="6" transform="translate(236.016 123.605)" tabindex="0"/><circle r="6" transform="translate(219.374 162.59)" tabindex="0"/><circle r="6" transform="translate(214.806 127.778)" tabindex="0"/><circle r="6" transform="translate(137.812 132.197)" tabindex="0"/><circle r="6" transform="translate(158.785 145.888)" tabindex="0"/><circle r="6" transform="translate(138.021 132.407)" tabindex="0"/><circle r="6" transform="translate(152.84 108.102)" tabindex="0"/><circle r="6" transform="translate(138.698 130.282)" tabindex="0"/><circle r="6" transform="translate(184.848 151.114)" tabindex="0"/><circle r="6" transform="translate(618.97 171.319)" tabindex="0"/><circle r="6" transform="translate(236.73 123.445)" tabindex="0"/><circle r="6" transform="translate(144.445 141.662)" tabindex="0"/><circle r="6" transform="translate(225.63 115.485)" tabindex="0"/><circle r="6" transform="translate(218.202 118.499)" tabindex="0"/><circle r="6" transform="translate(233.688 125.247)" tabindex="0"/><circle r="6" transform="translate(233.01 125.363)" tabindex="0"/><circle r="6" transform="translate(233.688 125.247)" tabindex="0"/><circle r="6" transform="translate(138.113 132.548)" tabindex="0"/><circle r="6" transform="translate(690.349 307.963)" tabindex="0"/><circle r="6" transform="translate(142.474 105.297)" tabindex="0"/><circle r="6" transform="translate(144.705 141.427)" tabindex="0"/><circle r="6" transform="translate(230.362 128.069)" tabindex="0"/><circle r="6" transform="translate(187.222 144.158)" tabindex="0"/><circle r="6" transform="translate(209.1 120.514)" tabindex="0"/><circle r="6" transform="translate(138.005 132.352)" tabindex="0"/><circle r="6" transform="translate(431.161 68.911)" tabindex="0"/><circle r="6" transform="translate(138.24 131.703)" tabindex="0"/><circle r="6" transform="translate(146.56 145.076)" tabindex="0"/><circle r="6" transform="translate(187.43 144.226)" tabindex="0"/><circle r="6" transform="translate(153.785 104.2)" tabindex="0"/><circle r="6" transform="translate(209.291 135.452)" tabindex="0"/><circle r="6" transform="translate(137.732 131.54)" tabindex="0"/><circle r="6" transform="translate(144.444 141.39)" tabindex="0"/><circle r="6" transform="translate(235.493 123.403)" tabindex="0"/><circle r="6" transform="translate(225.203 136.79)" tabindex="0"/><circle r="6" transform="translate(208.86 136.369)" tabindex="0"/><circle r="6" transform="translate(144.436 141.338)" tabindex="0"/><circle r="6" transform="translate(208.705 120.312)" tabindex="0"/><circle r="6" transform="translate(208.76 117.217)" tabindex="0"/><circle r="6" transform="translate(138.036 131.576)" tabindex="0"/><circle r="6" transform="translate(140.586 128.995)" tabindex="0"/><circle r="6" transform="translate(144.11 141.501)" tabindex="0"/><circle r="6" transform="translate(225.54 116.063)" tabindex="0"/><circle r="6" transform="translate(138.102 131.549)" tabindex="0"/><circle r="6" transform="translate(144.715 141.993)" tabindex="0"/><circle r="6" transform="translate(541.336 155.623)" tabindex="0"/><circle r="6" transform="translate(138.58 132.164)" tabindex="0"/><circle r="6" transform="translate(236.086 123.402)" tabindex="0"/><circle r="6" transform="translate(138.197 132.629)" tabindex="0"/><circle r="6" transform="translate(137.643 131.693)" tabindex="0"/><circle r="6" transform="translate(144.6 141.396)" tabindex="0"/><circle r="6" transform="translate(173.429 125.306)" tabindex="0"/><circle r="6" transform="translate(535.157 147.834)" tabindex="0"/><circle r="6" transform="translate(186.973 144.969)" tabindex="0"/><circle r="6" transform="translate(241.618 118.087)" tabindex="0"/><circle r="6" transform="translate(215.967 156.843)" tabindex="0"/><circle r="6" transform="translate(217.623 118.882)" tabindex="0"/><circle r="6" transform="translate(237.23 123.39)" tabindex="0"/><circle r="6" transform="translate(451.363 270.519)" tabindex="0"/><circle r="6" transform="translate(164.045 87.251)" tabindex="0"/><circle r="6" transform="translate(138.502 132.74)" tabindex="0"/><circle r="6" transform="translate(219.79 161.344)" tabindex="0"/><circle r="6" transform="translate(235.102 124.417)" tabindex="0"/><circle r="6" transform="translate(137.665 131.508)" tabindex="0"/><circle r="6" transform="translate(144.534 141.54)" tabindex="0"/><circle r="6" transform="translate(208.521 119.409)" tabindex="0"/><circle r="6" transform="translate(235.078 123.208)" tabindex="0"/><circle r="6" transform="translate(146.216 143.43)" tabindex="0"/><circle r="6" transform="translate(235.182 124.222)" tabindex="0"/><circle r="6" transform="translate(233.424 125.722)" tabindex="0"/><circle r="6" transform="translate(144.612 141.433)" tabindex="0"/><circle r="6" transform="translate(235.544 123.843)" tabindex="0"/><circle r="6" transform="translate(144.73 141.653)" tabindex="0"/><circle r="6" transform="translate(144.348 141.5)" tabindex="0"/><circle r="6" transform="translate(218.146 118.59)" tabindex="0"/><circle r="6" transform="translate(236.253 123.21)" tabindex="0"/><circle r="6" transform="translate(236.103 123.392)" tabindex="0"/><circle r="6" transform="translate(144.143 141.69)" tabindex="0"/><circle r="6" transform="translate(138.503 131.043)" tabindex="0"/><circle r="6" transform="translate(233.8 125.92)" tabindex="0"/><circle r="6" transform="translate(144.466 141.294)" tabindex="0"/><circle r="6" transform="translate(144.52 141.354)" tabindex="0"/><circle r="6" transform="translate(137.799 132.077)" tabindex="0"/><circle r="6" transform="translate(138.652 132.986)" tabindex="0"/><circle r="6" transform="translate(234.752 124.576)" tabindex="0"/><circle r="6" transform="translate(541.536 155.469)" tabindex="0"/><circle r="6" transform="translate(237.23 123.39)" tabindex="0"/><circle r="6" transform="translate(236.349 123.597)" tabindex="0"/><circle r="6" transform="translate(199.648 111.968)" tabindex="0"/><circle r="6" transform="translate(144.17 141.898)" tabindex="0"/><circle r="6" transform="translate(138.23 132.774)" tabindex="0"/><circle r="6" transform="translate(224.644 137.041)" tabindex="0"/><circle r="6" transform="translate(208.367 119.891)" tabindex="0"/><circle r="6" transform="translate(217.92 118.6)" tabindex="0"/><circle r="6" transform="translate(232.337 125.562)" tabindex="0"/><circle r="6" transform="translate(382.841 112.345)" tabindex="0"/><circle r="6" transform="translate(138.259 132.714)" tabindex="0"/><circle r="6" transform="translate(138.256 130.505)" tabindex="0"/><circle r="6" transform="translate(242.004 119.558)" tabindex="0"/><circle r="6" transform="translate(208.735 120.62)" tabindex="0"/><circle r="6" transform="translate(156.836 142.782)" tabindex="0"/><circle r="6" transform="translate(210.213 134.26)" tabindex="0"/><circle r="6" transform="translate(233.533 126.281)" tabindex="0"/><circle r="6" transform="translate(199.447 111.827)" tabindex="0"/><circle r="6" transform="translate(138.053 131.303)" tabindex="0"/><circle r="6" transform="translate(213.121 141.33)" tabindex="0"/><circle r="6" transform="translate(639.772 132.322)" tabindex="0"/><circle r="6" transform="translate(138.23 132.774)" tabindex="0"/><circle r="6" transform="translate(137.574 131.624)" tabindex="0"/><circle r="6" transform="translate(398.634 213.447)" tabindex="0"/><circle r="6" transform="translate(138.327 132.762)" tabindex="0"/><circle r="6" transform="translate(188.342 131.762)" tabindex="0"/><circle r="6" transform="translate(184.77 150.798)" tabindex="0"/><circle r="6" transform="translate(218.295 118.243)" tabindex="0"/><circle r="6" transform="translate(618.905 171.206)" tabindex="0"/><circle r="6" transform="translate(236.069 123.782)" tabindex="0"/><circle r="6" transform="translate(138.52 132.938)" tabindex="0"/><circle r="6" transform="translate(213.74 141.616)" tabindex="0"/><circle r="6" transform="translate(233.158 125.549)" tabindex="0"/><circle r="6" transform="translate(218.221 134.92)" tabindex="0"/><circle r="6" transform="translate(138.462 132.142)" tabindex="0"/><circle r="6" transform="translate(542.623 200.701)" tabindex="0"/><circle r="6" transform="translate(214.425 136.915)" tabindex="0"/><circle r="6" transform="translate(146.182 144.454)" tabindex="0"/><circle r="6" transform="translate(212.744 143.111)" tabindex="0"/><circle r="6" transform="translate(140.226 129.407)" tabindex="0"/><circle r="6" transform="translate(209.505 115.42)" tabindex="0"/><circle r="6" transform="translate(209.105 120.275)" tabindex="0"/><circle r="6" transform="translate(144.051 140.342)" tabindex="0"/><circle r="6" transform="translate(201.397 120.69)" tabindex="0"/><circle r="6" transform="translate(209.215 120.867)" tabindex="0"/><circle r="6" transform="translate(173.13 125.548)" tabindex="0"/><circle r="6" transform="translate(221.222 121.564)" tabindex="0"/><circle r="6" transform="translate(218.3 118.72)" tabindex="0"/><circle r="6" transform="translate(219.288 162.76)" tabindex="0"/><circle r="6" transform="translate(237.604 122.46)" tabindex="0"/><circle r="6" transform="translate(212.474 142.13)" tabindex="0"/><circle r="6" transform="translate(140.845 129.135)" tabindex="0"/><circle r="6" transform="translate(202.257 138.57)" tabindex="0"/><circle r="6" transform="translate(138.062 133.714)" tabindex="0"/><circle r="6" transform="translate(245.448 181.171)" tabindex="0"/><circle r="6" transform="translate(138.549 132.954)" tabindex="0"/><circle r="6" transform="translate(138.24 131.575)" tabindex="0"/><circle r="6" transform="translate(138.679 132.94)" tabindex="0"/><circle r="6" transform="translate(209.112 120.988)" tabindex="0"/><circle r="6" transform="translate(214.522 152.746)" tabindex="0"/><circle r="6" transform="translate(216.364 160.542)" tabindex="0"/><circle r="6" transform="translate(229.597 128.43)" tabindex="0"/><circle r="6" transform="translate(217.814 155.409)" tabindex="0"/><circle r="6" transform="translate(207.103 126.137)" tabindex="0"/><circle r="6" transform="translate(137.545 131.834)" tabindex="0"/><circle r="6" transform="translate(216.194 153.971)" tabindex="0"/><circle r="6" transform="translate(218.07 155.933)" tabindex="0"/><circle r="6" transform="translate(138.373 131.9)" tabindex="0"/><circle r="6" transform="translate(163.237 145.777)" tabindex="0"/><circle r="6" transform="translate(139.837 129.6)" tabindex="0"/><circle r="6" transform="translate(139.457 114.536)" tabindex="0"/><circle r="6" transform="translate(199.367 112.576)" tabindex="0"/><circle r="6" transform="translate(235.336 125.962)" tabindex="0"/><circle r="6" transform="translate(189.624 128.192)" tabindex="0"/><circle r="6" transform="translate(146.18 144.202)" tabindex="0"/><circle r="6" transform="translate(219.807 160.993)" tabindex="0"/><circle r="6" transform="translate(214.903 127.335)" tabindex="0"/><circle r="6" transform="translate(217.405 160.057)" tabindex="0"/><circle r="6" transform="translate(173.609 126.417)" tabindex="0"/><circle r="6" transform="translate(189.438 151.318)" tabindex="0"/><circle r="6" transform="translate(222.491 136.35)" tabindex="0"/><circle r="6" transform="translate(228.294 123.473)" tabindex="0"/><circle r="6" transform="translate(217.14 155.426)" tabindex="0"/><circle r="6" transform="translate(214.261 112.543)" tabindex="0"/><circle r="6" transform="translate(213.127 141.605)" tabindex="0"/><circle r="6" transform="translate(235.342 124.486)" tabindex="0"/><circle r="6" transform="translate(211.573 119.871)" tabindex="0"/><circle r="6" transform="translate(142.796 134.06)" tabindex="0"/><circle r="6" transform="translate(193.878 128.574)" tabindex="0"/><circle r="6" transform="translate(211.537 119.857)" tabindex="0"/><circle r="6" transform="translate(240.46 121.88)" tabindex="0"/><circle r="6" transform="translate(229.27 128.313)" tabindex="0"/><circle r="6" transform="translate(137.547 130.712)" tabindex="0"/><circle r="6" transform="translate(143.173 136.851)" tabindex="0"/><circle r="6" transform="translate(144.993 142.112)" tabindex="0"/><circle r="6" transform="translate(145.101 142.394)" tabindex="0"/><circle r="6" transform="translate(218.07 155.933)" tabindex="0"/><circle r="6" transform="translate(194.263 139.875)" tabindex="0"/><circle r="6" transform="translate(144.903 141.27)" tabindex="0"/><circle r="6" transform="translate(544.865 193.842)" tabindex="0"/><circle r="6" transform="translate(228.6 128.598)" tabindex="0"/><circle r="6" transform="translate(138.392 130.944)" tabindex="0"/><circle r="6" transform="translate(206.338 127.93)" tabindex="0"/><circle r="6" transform="translate(214.18 130.773)" tabindex="0"/><circle r="6" transform="translate(142.161 131.317)" tabindex="0"/><circle r="6" transform="translate(617.152 125.781)" tabindex="0"/><circle r="6" transform="translate(229.036 128.555)" tabindex="0"/><circle r="6" transform="translate(208.258 120.077)" tabindex="0"/><circle r="6" transform="translate(137.849 132.265)" tabindex="0"/><circle r="6" transform="translate(138.109 131.421)" tabindex="0"/><circle r="6" transform="translate(237.264 123.395)" tabindex="0"/><circle r="6" transform="translate(138.067 131.398)" tabindex="0"/><circle r="6" transform="translate(195.747 138.121)" tabindex="0"/><circle r="6" transform="translate(460.8 130.064)" tabindex="0"/><circle r="6" transform="translate(210.454 128.592)" tabindex="0"/><circle r="6" transform="translate(229.838 127.716)" tabindex="0"/><circle r="6" transform="translate(138.207 133.646)" tabindex="0"/><circle r="6" transform="translate(140.06 131.117)" tabindex="0"/><circle r="6" transform="translate(138.674 132.876)" tabindex="0"/><circle r="6" transform="translate(229.434 128.228)" tabindex="0"/><circle r="6" transform="translate(193.667 128.574)" tabindex="0"/><circle r="6" transform="translate(208.207 117.094)" tabindex="0"/><circle r="6" transform="translate(616.918 125.862)" tabindex="0"/><circle r="6" transform="translate(137.674 131.588)" tabindex="0"/><circle r="6" transform="translate(212.894 141.599)" tabindex="0"/><circle r="6" transform="translate(207.595 119.708)" tabindex="0"/><circle r="6" transform="translate(209.111 120.026)" tabindex="0"/><circle r="6" transform="translate(146.037 144.526)" tabindex="0"/><circle r="6" transform="translate(216.82 142.864)" tabindex="0"/><circle r="6" transform="translate(236.349 123.597)" tabindex="0"/><circle r="6" transform="translate(180.22 102.89)" tabindex="0"/><circle r="6" transform="translate(202.72 114.722)" tabindex="0"/><circle r="6" transform="translate(212.417 116.803)" tabindex="0"/><circle r="6" transform="translate(206.246 104.088)" tabindex="0"/><circle r="6" transform="translate(236.475 122.976)" tabindex="0"/><circle r="6" transform="translate(285.971 269.976)" tabindex="0"/><circle r="6" transform="translate(438.438 129.897)" tabindex="0"/><circle r="6" transform="translate(202.152 129.288)" tabindex="0"/><circle r="6" transform="translate(228.23 131.845)" tabindex="0"/><circle r="6" transform="translate(209.036 120.203)" tabindex="0"/><circle r="6" transform="translate(138.682 132.544)" tabindex="0"/><circle r="6" transform="translate(220.584 138.182)" tabindex="0"/><circle r="6" transform="translate(220.584 138.182)" tabindex="0"/><circle r="6" transform="translate(206.24 117.21)" tabindex="0"/><circle r="6" transform="translate(236.724 122.846)" tabindex="0"/><circle r="6" transform="translate(218.243 118.083)" tabindex="0"/><circle r="6" transform="translate(144.729 140.99)" tabindex="0"/><circle r="6" transform="translate(138.792 132.753)" tabindex="0"/><circle r="6" transform="translate(179.38 178.466)" tabindex="0"/><circle r="6" transform="translate(156.829 142.91)" tabindex="0"/><circle r="6" transform="translate(218.158 129.94)" tabindex="0"/><circle r="6" transform="translate(138.085 132.453)" tabindex="0"/><circle r="6" transform="translate(631.326 148.636)" tabindex="0"/><circle r="6" transform="translate(167.677 147.274)" tabindex="0"/><circle r="6" transform="translate(138.394 132.638)" tabindex="0"/><circle r="6" transform="translate(242.325 121.146)" tabindex="0"/><circle r="6" transform="translate(184.945 151.104)" tabindex="0"/><circle r="6" transform="translate(146.488 144.73)" tabindex="0"/><circle r="6" transform="translate(56.226 171.68)" tabindex="0"/><circle r="6" transform="translate(220.664 137.777)" tabindex="0"/><circle r="6" transform="translate(241.578 117.98)" tabindex="0"/><circle r="6" transform="translate(208.926 120.676)" tabindex="0"/><circle r="6" transform="translate(138.746 131.565)" tabindex="0"/><circle r="6" transform="translate(237.897 123.106)" tabindex="0"/><circle r="6" transform="translate(155.983 142.808)" tabindex="0"/><circle r="6" transform="translate(145.416 142.186)" tabindex="0"/><circle r="6" transform="translate(199.848 112.576)" tabindex="0"/><circle r="6" transform="translate(221.87 137.998)" tabindex="0"/><circle r="6" transform="translate(215.198 127.326)" tabindex="0"/><circle r="6" transform="translate(213.053 141.047)" tabindex="0"/><circle r="6" transform="translate(138.23 132.774)" tabindex="0"/><circle r="6" transform="translate(141.353 109.839)" tabindex="0"/><circle r="6" transform="translate(141.353 109.839)" tabindex="0"/><circle r="6" transform="translate(218.138 118.597)" tabindex="0"/><circle r="6" transform="translate(146.773 144.44)" tabindex="0"/><circle r="6" transform="translate(138.052 131.05)" tabindex="0"/><circle r="6" transform="translate(209.151 120.421)" tabindex="0"/><circle r="6" transform="translate(227.783 129.126)" tabindex="0"/><circle r="6" transform="translate(235.24 123.917)" tabindex="0"/><circle r="6" transform="translate(145.326 141.436)" tabindex="0"/><circle r="6" transform="translate(215.45 156.39)" tabindex="0"/><circle r="6" transform="translate(236.28 123.078)" tabindex="0"/><circle r="6" transform="translate(228.241 126.187)" tabindex="0"/><circle r="6" transform="translate(224.55 253.908)" tabindex="0"/><circle r="6" transform="translate(207.86 120.862)" tabindex="0"/><circle r="6" transform="translate(202.69 129.273)" tabindex="0"/><circle r="6" transform="translate(183.408 161.547)" tabindex="0"/><circle r="6" transform="translate(218.039 119.22)" tabindex="0"/><circle r="6" transform="translate(221.828 123.119)" tabindex="0"/><circle r="6" transform="translate(232.916 125.569)" tabindex="0"/><circle r="6" transform="translate(232.588 128.466)" tabindex="0"/><circle r="6" transform="translate(244.178 108.467)" tabindex="0"/><circle r="6" transform="translate(206.086 124.145)" tabindex="0"/><circle r="6" transform="translate(214.95 117.76)" tabindex="0"/><circle r="6" transform="translate(156.782 142.228)" tabindex="0"/><circle r="6" transform="translate(195.574 132.775)" tabindex="0"/><circle r="6" transform="translate(236.357 123.152)" tabindex="0"/><circle r="6" transform="translate(145.114 141.427)" tabindex="0"/><circle r="6" transform="translate(218.079 119.633)" tabindex="0"/><circle r="6" transform="translate(157.5 143.246)" tabindex="0"/><circle r="6" transform="translate(208.775 121.097)" tabindex="0"/><circle r="6" transform="translate(239.644 121.31)" tabindex="0"/><circle r="6" transform="translate(542.492 201.052)" tabindex="0"/><circle r="6" transform="translate(208.61 120.508)" tabindex="0"/><circle r="6" transform="translate(137.515 132.03)" tabindex="0"/><circle r="6" transform="translate(625.15 146.15)" tabindex="0"/><circle r="6" transform="translate(164.303 87.458)" tabindex="0"/><circle r="6" transform="translate(198.69 112.115)" tabindex="0"/><circle r="6" transform="translate(237.459 122.463)" tabindex="0"/><circle r="6" transform="translate(235.906 123.65)" tabindex="0"/><circle r="6" transform="translate(225.076 130.51)" tabindex="0"/><circle r="6" transform="translate(236.038 123.488)" tabindex="0"/><circle r="6" transform="translate(540.593 196.82)" tabindex="0"/><circle r="6" transform="translate(213.378 141.296)" tabindex="0"/><circle r="6" transform="translate(216.765 119.27)" tabindex="0"/><circle r="6" transform="translate(229.893 127.724)" tabindex="0"/><circle r="6" transform="translate(241.795 119.552)" tabindex="0"/><circle r="6" transform="translate(446.956 148.959)" tabindex="0"/><circle r="6" transform="translate(140.87 110.388)" tabindex="0"/><circle r="6" transform="translate(208.598 102.276)" tabindex="0"/><circle r="6" transform="translate(225.65 115.97)" tabindex="0"/><circle r="6" transform="translate(233.927 124.064)" tabindex="0"/><circle r="6" transform="translate(611.55 466.07)" tabindex="0"/><circle r="6" transform="translate(229.197 128.544)" tabindex="0"/><circle r="6" transform="translate(559.31 168.522)" tabindex="0"/><circle r="6" transform="translate(413.25 136.533)" tabindex="0"/><circle r="6" transform="translate(542.61 200.676)" tabindex="0"/><circle r="6" transform="translate(138.117 131.376)" tabindex="0"/><circle r="6" transform="translate(140.94 128.45)" tabindex="0"/><circle r="6" transform="translate(140.94 128.45)" tabindex="0"/><circle r="6" transform="translate(143.424 103.675)" tabindex="0"/><circle r="6" transform="translate(542.952 201.036)" tabindex="0"/><circle r="6" transform="translate(542.61 200.676)" tabindex="0"/><circle r="6" transform="translate(539.685 174.357)" tabindex="0"/><circle r="6" transform="translate(216.628 118.962)" tabindex="0"/><circle r="6" transform="translate(219.374 162.59)" tabindex="0"/><circle r="6" transform="translate(611.55 466.07)" tabindex="0"/><circle r="6" transform="translate(225.835 115.588)" tabindex="0"/><circle r="6" transform="translate(216.628 118.962)" tabindex="0"/><circle r="6" transform="translate(214.345 127.215)" tabindex="0"/><circle r="6" transform="translate(222.215 125.4)" tabindex="0"/><circle r="6" transform="translate(223.502 123.334)" tabindex="0"/><circle r="6" transform="translate(137.27 129.504)" tabindex="0"/><circle r="6" transform="translate(137.575 131.117)" tabindex="0"/><circle r="6" transform="translate(376.822 123.9)" tabindex="0"/><circle r="6" transform="translate(138.053 131.303)" tabindex="0"/><circle r="6" transform="translate(533.23 169.215)" tabindex="0"/><circle r="6" transform="translate(178.47 162.815)" tabindex="0"/><circle r="6" transform="translate(209.086 120.485)" tabindex="0"/><circle r="6" transform="translate(214.064 142.134)" tabindex="0"/><circle r="6" transform="translate(218.24 118.731)" tabindex="0"/><circle r="6" transform="translate(211.713 120.252)" tabindex="0"/><circle r="6" transform="translate(238.392 118.332)" tabindex="0"/><circle r="6" transform="translate(147.939 141.967)" tabindex="0"/><circle r="6" transform="translate(542.38 201.102)" tabindex="0"/><circle r="6" transform="translate(544.803 200.538)" tabindex="0"/><circle r="6" transform="translate(151.451 135.49)" tabindex="0"/><circle r="6" transform="translate(208.467 119.79)" tabindex="0"/><circle r="6" transform="translate(138.157 132.583)" tabindex="0"/><circle r="6" transform="translate(183.364 153.067)" tabindex="0"/><circle r="6" transform="translate(141.754 102.099)" tabindex="0"/><circle r="6" transform="translate(213.107 127.357)" tabindex="0"/><circle r="6" transform="translate(219.462 161.907)" tabindex="0"/><circle r="6" transform="translate(201.194 151.12)" tabindex="0"/><circle r="6" transform="translate(138.195 131.485)" tabindex="0"/><circle r="6" transform="translate(184.97 150.664)" tabindex="0"/><circle r="6" transform="translate(142.82 104.428)" tabindex="0"/><circle r="6" transform="translate(229.307 128.455)" tabindex="0"/><circle r="6" transform="translate(219.38 162.588)" tabindex="0"/><circle r="6" transform="translate(145.459 142.552)" tabindex="0"/><circle r="6" transform="translate(137.562 131.669)" tabindex="0"/><circle r="6" transform="translate(144.32 141.699)" tabindex="0"/><circle r="6" transform="translate(384 225)" tabindex="0"/><circle r="6" transform="translate(210.06 124.407)" tabindex="0"/><circle r="6" transform="translate(208.878 119.425)" tabindex="0"/><circle r="6" transform="translate(138.525 132.77)" tabindex="0"/><circle r="6" transform="translate(138.606 132.413)" tabindex="0"/><circle r="6" transform="translate(218.366 152.832)" tabindex="0"/><circle r="6" transform="translate(138.606 132.413)" tabindex="0"/><circle r="6" transform="translate(224.546 124.005)" tabindex="0"/><circle r="6" transform="translate(233.757 124.668)" tabindex="0"/><circle r="6" transform="translate(219.844 137.041)" tabindex="0"/><circle r="6" transform="translate(142.812 99.72)" tabindex="0"/><circle r="6" transform="translate(189.497 152.565)" tabindex="0"/><circle r="6" transform="translate(143.558 141.101)" tabindex="0"/><circle r="6" transform="translate(208.058 120.289)" tabindex="0"/><circle r="6" transform="translate(214.477 127.729)" tabindex="0"/><circle r="6" transform="translate(236.213 121.508)" tabindex="0"/><circle r="6" transform="translate(220.716 138.464)" tabindex="0"/><circle r="6" transform="translate(600.138 221.887)" tabindex="0"/><circle r="6" transform="translate(229.33 128.376)" tabindex="0"/><circle r="6" transform="translate(145.416 142.186)" tabindex="0"/><circle r="6" transform="translate(208.829 119.849)" tabindex="0"/><circle r="6" transform="translate(173.636 126.573)" tabindex="0"/><circle r="6" transform="translate(261.922 306.772)" tabindex="0"/><circle r="6" transform="translate(220.224 121.495)" tabindex="0"/><circle r="6" transform="translate(218.332 118.685)" tabindex="0"/><circle r="6" transform="translate(225.226 116.065)" tabindex="0"/><circle r="6" transform="translate(145.333 141.54)" tabindex="0"/><circle r="6" transform="translate(381.44 94.549)" tabindex="0"/><circle r="6" transform="translate(225.572 115.374)" tabindex="0"/><circle r="6" transform="translate(225.51 115.566)" tabindex="0"/><circle r="6" transform="translate(229.107 128.07)" tabindex="0"/><circle r="6" transform="translate(219.835 161.868)" tabindex="0"/><circle r="6" transform="translate(230.494 127.233)" tabindex="0"/></g></g></svg>