<svg width="256" height="256" fill="none" xmlns="http://www.w3.org/2000/svg"><g clip-path="url(#clip0)"><mask id="a" maskUnits="userSpaceOnUse" x="0" y="0" width="256" height="256"><path fill-rule="evenodd" clip-rule="evenodd" d="M128 256c102.4 0 128-25.6 128-128S230.4 0 128 0 0 25.6 0 128s25.6 128 128 128z" fill="#000"/></mask><g mask="url(#a)"><path fill-rule="evenodd" clip-rule="evenodd" d="M256 0H0v256h256V0zM80 52.96L115.103 47v57.923c7.631-6.877 18.162-9.934 28.999-9.934 23.046 0 31.898 15.131 31.898 38.667v74.429h-35.256v-69.386c0-10.392-1.984-17.27-8.852-17.27-7.631 0-16.789 10.698-16.789 27.968v58.688H80V52.96z" fill="#fff"/></g></g><defs><clipPath id="clip0"><path transform="rotate(90 256 0)" fill="#fff" d="M256 0h256v256H256z"/></clipPath></defs></svg>