<svg width="186" height="32" fill="none" xmlns="http://www.w3.org/2000/svg"><path fill="none" d="M0 0h186v32H0z"/><path fill="none" d="M38.414 3.2H186v24.696H38.414z"/><path fill-rule="evenodd" clip-rule="evenodd" d="M41.444 18.14c.035.515.249.975.639 1.383.389.407.974.612 1.755.612.585 0 1.019-.129 1.304-.386.282-.256.425-.563.425-.917 0-.302-.107-.563-.32-.785-.213-.221-.577-.385-1.09-.492l-1.728-.4c-1.277-.282-2.208-.774-2.793-1.475a3.682 3.682 0 0 1-.878-2.432c0-.586.123-1.138.372-1.662a4.15 4.15 0 0 1 1.025-1.356 5.12 5.12 0 0 1 1.543-.917 5.377 5.377 0 0 1 1.954-.345c.922 0 1.702.129 2.34.386.638.257 1.157.58 1.556.97s.695.802.89 1.236c.194.435.31.829.346 1.184l-2.951.663a3.32 3.32 0 0 0-.173-.598 1.676 1.676 0 0 0-.385-.572 1.98 1.98 0 0 0-.652-.425c-.257-.106-.571-.16-.944-.16-.46 0-.855.125-1.184.372-.327.25-.492.56-.492.93 0 .32.11.577.333.772.221.195.51.327.865.398l1.86.399c1.294.266 2.265.762 2.913 1.489.647.727.97 1.568.97 2.525 0 .533-.103 1.054-.305 1.568a3.91 3.91 0 0 1-.944 1.383c-.425.408-.958.736-1.596.983-.638.247-1.382.372-2.233.372-.993 0-1.825-.142-2.5-.425-.674-.283-1.223-.63-1.649-1.037a4.067 4.067 0 0 1-.944-1.315c-.204-.47-.324-.89-.359-1.263l3.03-.662zM57.08 8.968c.975 0 1.884.172 2.726.518a6.596 6.596 0 0 1 2.181 1.435 6.553 6.553 0 0 1 1.436 2.193c.346.85.52 1.781.52 2.791 0 1.011-.174 1.936-.52 2.779a6.712 6.712 0 0 1-1.436 2.192 6.463 6.463 0 0 1-2.18 1.45 7.107 7.107 0 0 1-2.727.518 7.098 7.098 0 0 1-2.725-.519 6.475 6.475 0 0 1-2.18-1.448 6.7 6.7 0 0 1-1.438-2.193c-.345-.843-.518-1.768-.518-2.779 0-1.009.173-1.94.518-2.791a6.53 6.53 0 0 1 1.438-2.193 6.582 6.582 0 0 1 2.18-1.435 7.126 7.126 0 0 1 2.725-.518zm0 10.66c.427 0 .843-.079 1.25-.24a2.972 2.972 0 0 0 1.065-.703c.3-.31.544-.696.731-1.157.187-.46.28-1 .28-1.621 0-.62-.093-1.16-.28-1.622a3.57 3.57 0 0 0-.731-1.156 2.994 2.994 0 0 0-1.065-.705 3.399 3.399 0 0 0-2.5 0c-.407.16-.76.395-1.062.705a3.55 3.55 0 0 0-.731 1.156c-.187.461-.28 1.001-.28 1.622 0 .62.095 1.16.28 1.621.186.461.429.847.73 1.157.302.31.656.544 1.064.704.408.16.824.239 1.25.239zM74.713 22.447a3.53 3.53 0 0 1-.08-.612 11.441 11.441 0 0 1-.026-.798 3.054 3.054 0 0 1-1.556 1.344 5.505 5.505 0 0 1-2.06.412c-.798 0-1.502-.14-2.115-.412a4.733 4.733 0 0 1-1.555-1.104 4.653 4.653 0 0 1-.97-1.635 6.001 6.001 0 0 1-.333-2.007V9.368h3.536v7.55c0 .744.19 1.368.573 1.873.38.504.988.757 1.822.757.797 0 1.41-.238 1.835-.717.425-.479.638-1.099.638-1.861V9.368h3.537V20.08c0 .515.013.98.04 1.397.027.416.058.74.093.97h-3.38zM89.177 12.876a5.394 5.394 0 0 0-1.064-.107c-.46 0-.895.063-1.303.187a2.664 2.664 0 0 0-1.063.61c-.302.285-.546.661-.73 1.13-.187.47-.28 1.06-.28 1.768v5.982H81.2V9.368h3.431v1.94c.195-.426.448-.775.758-1.05.31-.274.638-.482.984-.625a4.554 4.554 0 0 1 1.036-.292c.346-.053.661-.08.944-.08a5.916 5.916 0 0 1 .824.054v3.561zM96.889 12.238c-.461 0-.891.08-1.29.24-.4.16-.75.394-1.05.704a3.37 3.37 0 0 0-.718 1.156c-.178.462-.266.984-.266 1.569 0 .584.088 1.108.266 1.568.177.462.42.85.73 1.17.31.32.666.558 1.064.717.4.16.829.239 1.29.239.443 0 .838-.065 1.183-.199.345-.133.643-.306.892-.518.248-.213.448-.452.598-.718.15-.265.261-.522.333-.77l3.11 1.036a5.764 5.764 0 0 1-1.968 3.018 6.38 6.38 0 0 1-1.808 1.008c-.691.257-1.472.386-2.34.386a7.036 7.036 0 0 1-2.7-.519 6.627 6.627 0 0 1-3.654-3.641c-.356-.842-.534-1.768-.534-2.778s.173-1.941.52-2.792a6.53 6.53 0 0 1 1.436-2.193 6.659 6.659 0 0 1 2.153-1.435 6.86 6.86 0 0 1 2.673-.518c.887 0 1.68.129 2.38.386s1.307.589 1.822.997c.514.408.93.877 1.249 1.409.319.532.55 1.072.692 1.622l-3.164 1.063c-.16-.549-.467-1.054-.918-1.515-.452-.461-1.113-.692-1.981-.692zM116.701 18.698a5.564 5.564 0 0 1-2.021 2.922 6.08 6.08 0 0 1-1.741.89 6.874 6.874 0 0 1-2.193.333 7.202 7.202 0 0 1-2.58-.465 6.248 6.248 0 0 1-2.153-1.369 6.54 6.54 0 0 1-1.476-2.208c-.364-.866-.545-1.851-.545-2.95 0-1.045.176-1.994.532-2.844a6.61 6.61 0 0 1 1.423-2.166 6.359 6.359 0 0 1 2.062-1.382 6.174 6.174 0 0 1 2.419-.493c2.038 0 3.624.603 4.76 1.808 1.135 1.205 1.701 2.862 1.701 4.971 0 .25-.008.483-.026.705-.018.221-.026.35-.026.385h-9.36c.017.425.12.82.306 1.182.186.364.425.68.718.945.292.265.634.474 1.024.624.39.15.806.226 1.25.226.832 0 1.483-.188 1.953-.56.471-.37.812-.85 1.023-1.435l2.95.881zm-3.296-4.28a3.186 3.186 0 0 0-.198-.944 2.255 2.255 0 0 0-.531-.823 2.747 2.747 0 0 0-.905-.585c-.365-.15-.794-.226-1.291-.226a2.95 2.95 0 0 0-2.126.851 2.698 2.698 0 0 0-.797 1.728h5.848v-.001zM121.41 22.313a2.93 2.93 0 0 0 .983 1.781c.533.46 1.224.69 2.075.69 1.116 0 1.976-.287 2.58-.863.603-.577.904-1.503.904-2.778v-.958c-.267.426-.702.812-1.305 1.158-.601.344-1.381.517-2.337.517a6.058 6.058 0 0 1-2.421-.478 5.729 5.729 0 0 1-1.928-1.33 6.253 6.253 0 0 1-1.277-2.006c-.312-.77-.466-1.617-.466-2.538 0-.869.15-1.688.452-2.46a6.505 6.505 0 0 1 1.25-2.034 5.783 5.783 0 0 1 1.914-1.382c.746-.336 1.57-.505 2.475-.505 1.045 0 1.869.186 2.47.558.603.371 1.021.78 1.251 1.222v-1.54h3.404v11.67c0 .905-.129 1.768-.384 2.592a6.002 6.002 0 0 1-1.211 2.18c-.55.63-1.261 1.134-2.126 1.515-.869.38-1.916.572-3.139.572-.905 0-1.725-.128-2.461-.385a6.578 6.578 0 0 1-1.928-1.037 5.41 5.41 0 0 1-1.329-1.515 4.89 4.89 0 0 1-.639-1.794l3.193-.852zm3.508-3.482c.903 0 1.645-.302 2.219-.904.578-.602.865-1.41.865-2.42s-.302-1.812-.905-2.405a2.994 2.994 0 0 0-2.179-.891c-.445 0-.857.076-1.236.226-.382.15-.716.372-1 .665a3.14 3.14 0 0 0-.664 1.05c-.158.408-.239.86-.239 1.355 0 1.03.292 1.84.877 2.433.585.594 1.339.891 2.262.891zM142.469 12.876a5.394 5.394 0 0 0-1.064-.107c-.46 0-.894.063-1.303.187a2.657 2.657 0 0 0-1.063.61c-.302.285-.545.661-.732 1.13-.185.47-.278 1.06-.278 1.768v5.982h-3.539V9.368h3.43v1.94c.197-.426.449-.775.76-1.05a3.51 3.51 0 0 1 .983-.625 4.558 4.558 0 0 1 1.037-.292c.346-.053.66-.08.943-.08a5.913 5.913 0 0 1 .824.054v3.561h.002zM143.719 18.883c0-.584.103-1.103.305-1.555.203-.453.483-.846.836-1.183a4.031 4.031 0 0 1 1.237-.796c.47-.195.981-.337 1.529-.426l3.219-.479c.372-.052.629-.163.77-.33a.893.893 0 0 0 .213-.6c0-.46-.181-.859-.545-1.196-.364-.337-.917-.506-1.662-.506-.78 0-1.377.213-1.795.638a2.395 2.395 0 0 0-.704 1.49l-3.139-.665a4.309 4.309 0 0 1 .479-1.543 4.762 4.762 0 0 1 1.09-1.382c.462-.407 1.029-.74 1.703-.997.673-.257 1.453-.386 2.339-.386 1.028 0 1.907.137 2.634.412.726.275 1.315.638 1.768 1.09.452.451.78.98.983 1.581a5.82 5.82 0 0 1 .308 1.887v6.433c0 .355.016.732.052 1.13a15 15 0 0 0 .107.945h-3.244a6.91 6.91 0 0 1-.093-.732c-.026-.31-.04-.588-.04-.838-.338.515-.821.967-1.449 1.357-.629.39-1.432.584-2.407.584-.692 0-1.317-.11-1.874-.333a4.472 4.472 0 0 1-1.423-.877 3.686 3.686 0 0 1-1.197-2.723zm5.239 1.303c.37 0 .73-.049 1.076-.146.346-.098.652-.266.919-.504.266-.24.477-.55.637-.932.159-.38.239-.864.239-1.447v-.585l-2.951.45c-.46.072-.848.237-1.156.494-.312.257-.466.643-.466 1.155 0 .391.141.742.426 1.05.283.31.707.465 1.276.465zM158.316 27.497V9.367h3.432v1.595c.302-.514.796-.957 1.488-1.329.691-.372 1.533-.558 2.527-.558.957 0 1.807.172 2.553.518a5.57 5.57 0 0 1 1.902 1.436c.523.612.917 1.33 1.181 2.154.266.824.399 1.723.399 2.698 0 .993-.145 1.909-.439 2.751a6.428 6.428 0 0 1-1.248 2.18 5.729 5.729 0 0 1-1.956 1.435c-.762.346-1.605.52-2.525.52-.905 0-1.681-.156-2.328-.465-.646-.311-1.131-.688-1.45-1.13v6.326h-3.536v-.001zm9.999-11.59c0-1.17-.316-2.074-.945-2.713-.629-.638-1.395-.957-2.3-.957-.462 0-.886.085-1.276.253-.39.17-.736.408-1.038.719-.301.31-.535.69-.704 1.142-.169.451-.253.97-.253 1.556 0 .584.084 1.104.253 1.553.169.452.403.838.704 1.158.302.32.648.563 1.038.73.39.17.814.253 1.276.253.905 0 1.671-.322 2.3-.97.63-.646.945-1.555.945-2.724zM177.595 22.447h-3.536V3.2h3.536v7.257c.427-.514.967-.88 1.623-1.103a5.945 5.945 0 0 1 1.913-.332c.835 0 1.557.137 2.167.411a4.272 4.272 0 0 1 1.516 1.104 4.45 4.45 0 0 1 .891 1.649c.194.638.293 1.31.293 2.02v8.24h-3.537v-7.629c0-.745-.191-1.364-.573-1.861-.38-.496-.998-.744-1.848-.744-.744 0-1.329.242-1.755.73-.424.488-.656 1.095-.692 1.822v7.683h.002z" fill="#F2F4F8"/><path fill="none" d="M0 0h32v32H0z"/><path fill="none" d="M3.201 3.325h24.974V28.8H3.201z"/><path fill-rule="evenodd" clip-rule="evenodd" d="M10.435 6.57l5.558 20.34a2.564 2.564 0 0 0 3.148 1.799 2.568 2.568 0 0 0 1.795-3.154l-5.559-20.34a2.563 2.563 0 1 0-4.942 1.355z" fill="#F96216"/><path fill-rule="evenodd" clip-rule="evenodd" d="M20.73 6.493L6.812 22.226a2.57 2.57 0 0 0 .22 3.624c1.059.94 2.678.842 3.616-.22L24.566 9.898a2.57 2.57 0 0 0-.22-3.623 2.559 2.559 0 0 0-3.616.219z" fill="#B200F8"/><path fill-rule="evenodd" clip-rule="evenodd" d="M4.96 15.212l19.848 6.573a2.565 2.565 0 0 0 1.61-4.872l-19.85-6.575a2.568 2.568 0 0 0-1.608 4.875z" fill="#00B4F2"/></svg>