<svg width="2860" height="1161" viewBox="0 0 2860 1161" fill="none" xmlns="http://www.w3.org/2000/svg">
<g clip-path="url(#clip0)">
<path d="M2860 1161V0C2860 0 2573.77 375.301 2323 530C1916.53 780.748 1525.52 579.514 1120 750C935.481 827.574 917.211 880.218 664.5 985C416.52 1087.82 0 1161 0 1161H2860Z" fill="#2D9EE4" fill-opacity="0.75"/>
<path d="M2860 1161L2323 958.5C2323 958.5 2119.12 840.734 1976 798.5C1650.32 702.395 1513.02 670.014 1107.5 840.5C922.981 918.074 917.211 880.218 664.5 985C416.52 1087.82 0 1161 0 1161H2860Z" fill="#2D9EE4" fill-opacity="0.75"/>
<path d="M2431 1161L2323 958.5C2323 958.5 2120 837.65 1976 798.5C1823.71 757.096 1772.68 741.639 1639.5 743C1388.52 745.565 1248.55 893.579 1034 958.5C640.161 1077.67 0 1161 0 1161H2431Z" fill="#2D9EE4" fill-opacity="0.75"/>
<path d="M2860 1161V567.5C2860 567.5 2599.27 509.801 2348.5 664.5C1942.03 915.248 2031.5 922 1758 1021.5C1484.5 1121 1506 1161 1506 1161H2860Z" fill="#2D9EE4" fill-opacity="0.75"/>
<path d="M2523.5 1316C2619.06 1187.25 2591 911 2591 911H2628C2628 911 2741.57 1074.67 2749 1195C2760.59 1382.7 2677.07 1511.94 2523.5 1620.5C2186.6 1858.65 2301.37 1028.1 1907.5 911C1696.45 848.255 1233.38 1066.84 1002.5 1132.5C750.38 1204.2 400.5 1106.5 400.5 1106.5C400.5 1106.5 728.296 1160.79 981.5 1074C1216.54 993.44 1669.96 763.633 1907.5 815.5C2254.74 891.318 2313.87 1598.43 2523.5 1316Z" fill="#C5DEEE" fill-opacity="0.75"/>
</g>
<defs>
<clipPath id="clip0">
<rect width="2860" height="1161" fill="white"/>
</clipPath>
</defs>
</svg>
