<svg xmlns="http://www.w3.org/2000/svg" width="380" height="144"><rect x="0" y="0" width="100%" height="100%" fill="rgb(249,0,240)"></rect><path d="M0 90 C 66.5 0, 123.5 0, 190 90 S 313.5 180, 380 90 S 503.5 0, 570, 90" fill="none" stroke="#ddd" opacity="0.14133333333333334" stroke-width="4px" transform="translate(-95,-135)"></path><path d="M0 90 C 66.5 0, 123.5 0, 190 90 S 313.5 180, 380 90 S 503.5 0, 570, 90" fill="none" stroke="#ddd" opacity="0.14133333333333334" stroke-width="4px" transform="translate(-95,9)"></path><path d="M0 90 C 66.5 0, 123.5 0, 190 90 S 313.5 180, 380 90 S 503.5 0, 570, 90" fill="none" stroke="#222" opacity="0.13266666666666665" stroke-width="4px" transform="translate(-95,-131)"></path><path d="M0 90 C 66.5 0, 123.5 0, 190 90 S 313.5 180, 380 90 S 503.5 0, 570, 90" fill="none" stroke="#222" opacity="0.13266666666666665" stroke-width="4px" transform="translate(-95,13)"></path><path d="M0 90 C 66.5 0, 123.5 0, 190 90 S 313.5 180, 380 90 S 503.5 0, 570, 90" fill="none" stroke="#222" opacity="0.028666666666666667" stroke-width="4px" transform="translate(-95,-127)"></path><path d="M0 90 C 66.5 0, 123.5 0, 190 90 S 313.5 180, 380 90 S 503.5 0, 570, 90" fill="none" stroke="#222" opacity="0.028666666666666667" stroke-width="4px" transform="translate(-95,17)"></path><path d="M0 90 C 66.5 0, 123.5 0, 190 90 S 313.5 180, 380 90 S 503.5 0, 570, 90" fill="none" stroke="#ddd" opacity="0.10666666666666667" stroke-width="4px" transform="translate(-95,-123)"></path><path d="M0 90 C 66.5 0, 123.5 0, 190 90 S 313.5 180, 380 90 S 503.5 0, 570, 90" fill="none" stroke="#ddd" opacity="0.10666666666666667" stroke-width="4px" transform="translate(-95,21)"></path><path d="M0 90 C 66.5 0, 123.5 0, 190 90 S 313.5 180, 380 90 S 503.5 0, 570, 90" fill="none" stroke="#ddd" opacity="0.03733333333333333" stroke-width="4px" transform="translate(-95,-119)"></path><path d="M0 90 C 66.5 0, 123.5 0, 190 90 S 313.5 180, 380 90 S 503.5 0, 570, 90" fill="none" stroke="#ddd" opacity="0.03733333333333333" stroke-width="4px" transform="translate(-95,25)"></path><path d="M0 90 C 66.5 0, 123.5 0, 190 90 S 313.5 180, 380 90 S 503.5 0, 570, 90" fill="none" stroke="#222" opacity="0.11533333333333334" stroke-width="4px" transform="translate(-95,-115)"></path><path d="M0 90 C 66.5 0, 123.5 0, 190 90 S 313.5 180, 380 90 S 503.5 0, 570, 90" fill="none" stroke="#222" opacity="0.11533333333333334" stroke-width="4px" transform="translate(-95,29)"></path><path d="M0 90 C 66.5 0, 123.5 0, 190 90 S 313.5 180, 380 90 S 503.5 0, 570, 90" fill="none" stroke="#222" opacity="0.028666666666666667" stroke-width="4px" transform="translate(-95,-111)"></path><path d="M0 90 C 66.5 0, 123.5 0, 190 90 S 313.5 180, 380 90 S 503.5 0, 570, 90" fill="none" stroke="#222" opacity="0.028666666666666667" stroke-width="4px" transform="translate(-95,33)"></path><path d="M0 90 C 66.5 0, 123.5 0, 190 90 S 313.5 180, 380 90 S 503.5 0, 570, 90" fill="none" stroke="#ddd" opacity="0.10666666666666667" stroke-width="4px" transform="translate(-95,-107)"></path><path d="M0 90 C 66.5 0, 123.5 0, 190 90 S 313.5 180, 380 90 S 503.5 0, 570, 90" fill="none" stroke="#ddd" opacity="0.10666666666666667" stroke-width="4px" transform="translate(-95,37)"></path><path d="M0 90 C 66.5 0, 123.5 0, 190 90 S 313.5 180, 380 90 S 503.5 0, 570, 90" fill="none" stroke="#222" opacity="0.08066666666666666" stroke-width="4px" transform="translate(-95,-103)"></path><path d="M0 90 C 66.5 0, 123.5 0, 190 90 S 313.5 180, 380 90 S 503.5 0, 570, 90" fill="none" stroke="#222" opacity="0.08066666666666666" stroke-width="4px" transform="translate(-95,41)"></path><path d="M0 90 C 66.5 0, 123.5 0, 190 90 S 313.5 180, 380 90 S 503.5 0, 570, 90" fill="none" stroke="#222" opacity="0.15" stroke-width="4px" transform="translate(-95,-99)"></path><path d="M0 90 C 66.5 0, 123.5 0, 190 90 S 313.5 180, 380 90 S 503.5 0, 570, 90" fill="none" stroke="#222" opacity="0.15" stroke-width="4px" transform="translate(-95,45)"></path><path d="M0 90 C 66.5 0, 123.5 0, 190 90 S 313.5 180, 380 90 S 503.5 0, 570, 90" fill="none" stroke="#ddd" opacity="0.05466666666666667" stroke-width="4px" transform="translate(-95,-95)"></path><path d="M0 90 C 66.5 0, 123.5 0, 190 90 S 313.5 180, 380 90 S 503.5 0, 570, 90" fill="none" stroke="#ddd" opacity="0.05466666666666667" stroke-width="4px" transform="translate(-95,49)"></path><path d="M0 90 C 66.5 0, 123.5 0, 190 90 S 313.5 180, 380 90 S 503.5 0, 570, 90" fill="none" stroke="#ddd" opacity="0.12400000000000001" stroke-width="4px" transform="translate(-95,-91)"></path><path d="M0 90 C 66.5 0, 123.5 0, 190 90 S 313.5 180, 380 90 S 503.5 0, 570, 90" fill="none" stroke="#ddd" opacity="0.12400000000000001" stroke-width="4px" transform="translate(-95,53)"></path><path d="M0 90 C 66.5 0, 123.5 0, 190 90 S 313.5 180, 380 90 S 503.5 0, 570, 90" fill="none" stroke="#222" opacity="0.098" stroke-width="4px" transform="translate(-95,-87)"></path><path d="M0 90 C 66.5 0, 123.5 0, 190 90 S 313.5 180, 380 90 S 503.5 0, 570, 90" fill="none" stroke="#222" opacity="0.098" stroke-width="4px" transform="translate(-95,57)"></path><path d="M0 90 C 66.5 0, 123.5 0, 190 90 S 313.5 180, 380 90 S 503.5 0, 570, 90" fill="none" stroke="#222" opacity="0.08066666666666666" stroke-width="4px" transform="translate(-95,-83)"></path><path d="M0 90 C 66.5 0, 123.5 0, 190 90 S 313.5 180, 380 90 S 503.5 0, 570, 90" fill="none" stroke="#222" opacity="0.08066666666666666" stroke-width="4px" transform="translate(-95,61)"></path><path d="M0 90 C 66.5 0, 123.5 0, 190 90 S 313.5 180, 380 90 S 503.5 0, 570, 90" fill="none" stroke="#222" opacity="0.15" stroke-width="4px" transform="translate(-95,-79)"></path><path d="M0 90 C 66.5 0, 123.5 0, 190 90 S 313.5 180, 380 90 S 503.5 0, 570, 90" fill="none" stroke="#222" opacity="0.15" stroke-width="4px" transform="translate(-95,65)"></path><path d="M0 90 C 66.5 0, 123.5 0, 190 90 S 313.5 180, 380 90 S 503.5 0, 570, 90" fill="none" stroke="#ddd" opacity="0.08933333333333333" stroke-width="4px" transform="translate(-95,-75)"></path><path d="M0 90 C 66.5 0, 123.5 0, 190 90 S 313.5 180, 380 90 S 503.5 0, 570, 90" fill="none" stroke="#ddd" opacity="0.08933333333333333" stroke-width="4px" transform="translate(-95,69)"></path><path d="M0 90 C 66.5 0, 123.5 0, 190 90 S 313.5 180, 380 90 S 503.5 0, 570, 90" fill="none" stroke="#222" opacity="0.15" stroke-width="4px" transform="translate(-95,-71)"></path><path d="M0 90 C 66.5 0, 123.5 0, 190 90 S 313.5 180, 380 90 S 503.5 0, 570, 90" fill="none" stroke="#222" opacity="0.15" stroke-width="4px" transform="translate(-95,73)"></path><path d="M0 90 C 66.5 0, 123.5 0, 190 90 S 313.5 180, 380 90 S 503.5 0, 570, 90" fill="none" stroke="#ddd" opacity="0.08933333333333333" stroke-width="4px" transform="translate(-95,-67)"></path><path d="M0 90 C 66.5 0, 123.5 0, 190 90 S 313.5 180, 380 90 S 503.5 0, 570, 90" fill="none" stroke="#ddd" opacity="0.08933333333333333" stroke-width="4px" transform="translate(-95,77)"></path><path d="M0 90 C 66.5 0, 123.5 0, 190 90 S 313.5 180, 380 90 S 503.5 0, 570, 90" fill="none" stroke="#ddd" opacity="0.07200000000000001" stroke-width="4px" transform="translate(-95,-63)"></path><path d="M0 90 C 66.5 0, 123.5 0, 190 90 S 313.5 180, 380 90 S 503.5 0, 570, 90" fill="none" stroke="#ddd" opacity="0.07200000000000001" stroke-width="4px" transform="translate(-95,81)"></path><path d="M0 90 C 66.5 0, 123.5 0, 190 90 S 313.5 180, 380 90 S 503.5 0, 570, 90" fill="none" stroke="#ddd" opacity="0.10666666666666667" stroke-width="4px" transform="translate(-95,-59)"></path><path d="M0 90 C 66.5 0, 123.5 0, 190 90 S 313.5 180, 380 90 S 503.5 0, 570, 90" fill="none" stroke="#ddd" opacity="0.10666666666666667" stroke-width="4px" transform="translate(-95,85)"></path><path d="M0 90 C 66.5 0, 123.5 0, 190 90 S 313.5 180, 380 90 S 503.5 0, 570, 90" fill="none" stroke="#ddd" opacity="0.05466666666666667" stroke-width="4px" transform="translate(-95,-55)"></path><path d="M0 90 C 66.5 0, 123.5 0, 190 90 S 313.5 180, 380 90 S 503.5 0, 570, 90" fill="none" stroke="#ddd" opacity="0.05466666666666667" stroke-width="4px" transform="translate(-95,89)"></path><path d="M0 90 C 66.5 0, 123.5 0, 190 90 S 313.5 180, 380 90 S 503.5 0, 570, 90" fill="none" stroke="#ddd" opacity="0.05466666666666667" stroke-width="4px" transform="translate(-95,-51)"></path><path d="M0 90 C 66.5 0, 123.5 0, 190 90 S 313.5 180, 380 90 S 503.5 0, 570, 90" fill="none" stroke="#ddd" opacity="0.05466666666666667" stroke-width="4px" transform="translate(-95,93)"></path><path d="M0 90 C 66.5 0, 123.5 0, 190 90 S 313.5 180, 380 90 S 503.5 0, 570, 90" fill="none" stroke="#222" opacity="0.028666666666666667" stroke-width="4px" transform="translate(-95,-47)"></path><path d="M0 90 C 66.5 0, 123.5 0, 190 90 S 313.5 180, 380 90 S 503.5 0, 570, 90" fill="none" stroke="#222" opacity="0.028666666666666667" stroke-width="4px" transform="translate(-95,97)"></path><path d="M0 90 C 66.5 0, 123.5 0, 190 90 S 313.5 180, 380 90 S 503.5 0, 570, 90" fill="none" stroke="#ddd" opacity="0.02" stroke-width="4px" transform="translate(-95,-43)"></path><path d="M0 90 C 66.5 0, 123.5 0, 190 90 S 313.5 180, 380 90 S 503.5 0, 570, 90" fill="none" stroke="#ddd" opacity="0.02" stroke-width="4px" transform="translate(-95,101)"></path><path d="M0 90 C 66.5 0, 123.5 0, 190 90 S 313.5 180, 380 90 S 503.5 0, 570, 90" fill="none" stroke="#222" opacity="0.15" stroke-width="4px" transform="translate(-95,-39)"></path><path d="M0 90 C 66.5 0, 123.5 0, 190 90 S 313.5 180, 380 90 S 503.5 0, 570, 90" fill="none" stroke="#222" opacity="0.15" stroke-width="4px" transform="translate(-95,105)"></path><path d="M0 90 C 66.5 0, 123.5 0, 190 90 S 313.5 180, 380 90 S 503.5 0, 570, 90" fill="none" stroke="#ddd" opacity="0.07200000000000001" stroke-width="4px" transform="translate(-95,-35)"></path><path d="M0 90 C 66.5 0, 123.5 0, 190 90 S 313.5 180, 380 90 S 503.5 0, 570, 90" fill="none" stroke="#ddd" opacity="0.07200000000000001" stroke-width="4px" transform="translate(-95,109)"></path><path d="M0 90 C 66.5 0, 123.5 0, 190 90 S 313.5 180, 380 90 S 503.5 0, 570, 90" fill="none" stroke="#222" opacity="0.046" stroke-width="4px" transform="translate(-95,-31)"></path><path d="M0 90 C 66.5 0, 123.5 0, 190 90 S 313.5 180, 380 90 S 503.5 0, 570, 90" fill="none" stroke="#222" opacity="0.046" stroke-width="4px" transform="translate(-95,113)"></path><path d="M0 90 C 66.5 0, 123.5 0, 190 90 S 313.5 180, 380 90 S 503.5 0, 570, 90" fill="none" stroke="#ddd" opacity="0.10666666666666667" stroke-width="4px" transform="translate(-95,-27)"></path><path d="M0 90 C 66.5 0, 123.5 0, 190 90 S 313.5 180, 380 90 S 503.5 0, 570, 90" fill="none" stroke="#ddd" opacity="0.10666666666666667" stroke-width="4px" transform="translate(-95,117)"></path><path d="M0 90 C 66.5 0, 123.5 0, 190 90 S 313.5 180, 380 90 S 503.5 0, 570, 90" fill="none" stroke="#ddd" opacity="0.08933333333333333" stroke-width="4px" transform="translate(-95,-23)"></path><path d="M0 90 C 66.5 0, 123.5 0, 190 90 S 313.5 180, 380 90 S 503.5 0, 570, 90" fill="none" stroke="#ddd" opacity="0.08933333333333333" stroke-width="4px" transform="translate(-95,121)"></path><path d="M0 90 C 66.5 0, 123.5 0, 190 90 S 313.5 180, 380 90 S 503.5 0, 570, 90" fill="none" stroke="#222" opacity="0.08066666666666666" stroke-width="4px" transform="translate(-95,-19)"></path><path d="M0 90 C 66.5 0, 123.5 0, 190 90 S 313.5 180, 380 90 S 503.5 0, 570, 90" fill="none" stroke="#222" opacity="0.08066666666666666" stroke-width="4px" transform="translate(-95,125)"></path><path d="M0 90 C 66.5 0, 123.5 0, 190 90 S 313.5 180, 380 90 S 503.5 0, 570, 90" fill="none" stroke="#222" opacity="0.028666666666666667" stroke-width="4px" transform="translate(-95,-15)"></path><path d="M0 90 C 66.5 0, 123.5 0, 190 90 S 313.5 180, 380 90 S 503.5 0, 570, 90" fill="none" stroke="#222" opacity="0.028666666666666667" stroke-width="4px" transform="translate(-95,129)"></path><path d="M0 90 C 66.5 0, 123.5 0, 190 90 S 313.5 180, 380 90 S 503.5 0, 570, 90" fill="none" stroke="#ddd" opacity="0.02" stroke-width="4px" transform="translate(-95,-11)"></path><path d="M0 90 C 66.5 0, 123.5 0, 190 90 S 313.5 180, 380 90 S 503.5 0, 570, 90" fill="none" stroke="#ddd" opacity="0.02" stroke-width="4px" transform="translate(-95,133)"></path><path d="M0 90 C 66.5 0, 123.5 0, 190 90 S 313.5 180, 380 90 S 503.5 0, 570, 90" fill="none" stroke="#ddd" opacity="0.10666666666666667" stroke-width="4px" transform="translate(-95,-7)"></path><path d="M0 90 C 66.5 0, 123.5 0, 190 90 S 313.5 180, 380 90 S 503.5 0, 570, 90" fill="none" stroke="#ddd" opacity="0.10666666666666667" stroke-width="4px" transform="translate(-95,137)"></path><path d="M0 90 C 66.5 0, 123.5 0, 190 90 S 313.5 180, 380 90 S 503.5 0, 570, 90" fill="none" stroke="#ddd" opacity="0.05466666666666667" stroke-width="4px" transform="translate(-95,-3)"></path><path d="M0 90 C 66.5 0, 123.5 0, 190 90 S 313.5 180, 380 90 S 503.5 0, 570, 90" fill="none" stroke="#ddd" opacity="0.05466666666666667" stroke-width="4px" transform="translate(-95,141)"></path><path d="M0 90 C 66.5 0, 123.5 0, 190 90 S 313.5 180, 380 90 S 503.5 0, 570, 90" fill="none" stroke="#222" opacity="0.15" stroke-width="4px" transform="translate(-95,1)"></path><path d="M0 90 C 66.5 0, 123.5 0, 190 90 S 313.5 180, 380 90 S 503.5 0, 570, 90" fill="none" stroke="#222" opacity="0.15" stroke-width="4px" transform="translate(-95,145)"></path><path d="M0 90 C 66.5 0, 123.5 0, 190 90 S 313.5 180, 380 90 S 503.5 0, 570, 90" fill="none" stroke="#ddd" opacity="0.03733333333333333" stroke-width="4px" transform="translate(-95,5)"></path><path d="M0 90 C 66.5 0, 123.5 0, 190 90 S 313.5 180, 380 90 S 503.5 0, 570, 90" fill="none" stroke="#ddd" opacity="0.03733333333333333" stroke-width="4px" transform="translate(-95,149)"></path></svg>