<svg xmlns="http://www.w3.org/2000/svg" width="23" height="27"><rect x="0" y="0" width="100%" height="100%" fill="rgb(50,197,112)"></rect><rect x="-2.5" y="-2.5" width="5" height="5" stroke="#000" stroke-opacity="0.02" fill="#ddd" fill-opacity="0.02" stroke-width="1"></rect><rect x="21.160254037844386" y="-2.5" width="5" height="5" stroke="#000" stroke-opacity="0.02" fill="#ddd" fill-opacity="0.02" stroke-width="1"></rect><rect x="-2.5" y="24.82050807568877" width="5" height="5" stroke="#000" stroke-opacity="0.02" fill="#ddd" fill-opacity="0.02" stroke-width="1"></rect><rect x="21.160254037844386" y="24.82050807568877" width="5" height="5" stroke="#000" stroke-opacity="0.02" fill="#ddd" fill-opacity="0.02" stroke-width="1"></rect><rect x="9.330127018922193" y="4.330127018922193" width="5" height="5" stroke="#000" stroke-opacity="0.02" fill="#222" fill-opacity="0.098" stroke-width="1"></rect><rect x="-2.5" y="11.160254037844386" width="5" height="5" stroke="#000" stroke-opacity="0.02" fill="#ddd" fill-opacity="0.03733333333333333" stroke-width="1"></rect><rect x="21.160254037844386" y="11.160254037844386" width="5" height="5" stroke="#000" stroke-opacity="0.02" fill="#ddd" fill-opacity="0.03733333333333333" stroke-width="1"></rect><rect x="9.330127018922193" y="17.99038105676658" width="5" height="5" stroke="#000" stroke-opacity="0.02" fill="#222" fill-opacity="0.11533333333333334" stroke-width="1"></rect><polyline points="0,0,4.330127018922193,2.5,0,5,0,0" stroke="#000" stroke-opacity="0.02" fill="#ddd" fill-opacity="0.05466666666666667" stroke-width="1" transform="translate(2.5,-2.5) rotate(0,2.5,2.1650635094610964)"></polyline><polyline points="0,0,4.330127018922193,2.5,0,5,0,0" stroke="#000" stroke-opacity="0.02" fill="#ddd" fill-opacity="0.05466666666666667" stroke-width="1" transform="translate(2.5,29.82050807568877) rotate(0,2.5,2.1650635094610964) scale(1,-1)"></polyline><polyline points="0,0,4.330127018922193,2.5,0,5,0,0" stroke="#000" stroke-opacity="0.02" fill="#ddd" fill-opacity="0.05466666666666667" stroke-width="1" transform="translate(21.160254037844386,-2.5) rotate(0,2.5,2.1650635094610964) scale(-1,1)"></polyline><polyline points="0,0,4.330127018922193,2.5,0,5,0,0" stroke="#000" stroke-opacity="0.02" fill="#ddd" fill-opacity="0.05466666666666667" stroke-width="1" transform="translate(21.160254037844386,29.82050807568877) rotate(0,2.5,2.1650635094610964) scale(-1,-1)"></polyline><polyline points="0,0,4.330127018922193,2.5,0,5,0,0" stroke="#000" stroke-opacity="0.02" fill="#222" fill-opacity="0.046" stroke-width="1" transform="translate(14.330127018922193,4.330127018922193)"></polyline><polyline points="0,0,4.330127018922193,2.5,0,5,0,0" stroke="#000" stroke-opacity="0.02" fill="#222" fill-opacity="0.098" stroke-width="1" transform="translate(9.330127018922193,4.330127018922193) scale(-1,1)"></polyline><polyline points="0,0,4.330127018922193,2.5,0,5,0,0" stroke="#000" stroke-opacity="0.02" fill="#222" fill-opacity="0.15" stroke-width="1" transform="translate(14.330127018922193,22.99038105676658) scale(1,-1)"></polyline><polyline points="0,0,4.330127018922193,2.5,0,5,0,0" stroke="#000" stroke-opacity="0.02" fill="#ddd" fill-opacity="0.05466666666666667" stroke-width="1" transform="translate(9.330127018922193,22.99038105676658) scale(-1,-1)"></polyline><polyline points="0,0,4.330127018922193,2.5,0,5,0,0" stroke="#000" stroke-opacity="0.02" fill="#222" fill-opacity="0.046" stroke-width="1" transform="translate(2.5,11.160254037844386)"></polyline><polyline points="0,0,4.330127018922193,2.5,0,5,0,0" stroke="#000" stroke-opacity="0.02" fill="#222" fill-opacity="0.098" stroke-width="1" transform="translate(21.160254037844386,11.160254037844386) scale(-1,1)"></polyline><rect x="0" y="0" width="5" height="5" stroke="#000" stroke-opacity="0.02" fill="#222" fill-opacity="0.028666666666666667" stroke-width="1" transform="translate(2.5,2.5) rotate(-30,0,0)"></rect><rect x="0" y="0" width="5" height="5" stroke="#000" stroke-opacity="0.02" fill="#222" fill-opacity="0.15" stroke-width="1" transform="scale(-1,1) translate(-21.160254037844386,2.5) rotate(-30,0,0)"></rect><rect x="0" y="0" width="5" height="5" stroke="#000" stroke-opacity="0.02" fill="#ddd" fill-opacity="0.03733333333333333" stroke-width="1" transform="translate(2.5,6.1602540378443855) rotate(30,0,5)"></rect><rect x="0" y="0" width="5" height="5" stroke="#000" stroke-opacity="0.02" fill="#222" fill-opacity="0.098" stroke-width="1" transform="scale(-1,1) translate(-21.160254037844386,6.1602540378443855) rotate(30,0,5)"></rect><rect x="0" y="0" width="5" height="5" stroke="#000" stroke-opacity="0.02" fill="#222" fill-opacity="0.046" stroke-width="1" transform="scale(1,-1) translate(2.5,-21.160254037844386) rotate(30,0,5)"></rect><rect x="0" y="0" width="5" height="5" stroke="#000" stroke-opacity="0.02" fill="#222" fill-opacity="0.08066666666666666" stroke-width="1" transform="scale(-1,-1) translate(-21.160254037844386,-21.160254037844386) rotate(30,0,5)"></rect><rect x="0" y="0" width="5" height="5" stroke="#000" stroke-opacity="0.02" fill="#222" fill-opacity="0.11533333333333334" stroke-width="1" transform="scale(1,-1) translate(2.5,-24.82050807568877) rotate(-30,0,0)"></rect><rect x="0" y="0" width="5" height="5" stroke="#000" stroke-opacity="0.02" fill="#222" fill-opacity="0.098" stroke-width="1" transform="scale(-1,-1) translate(-21.160254037844386,-24.82050807568877) rotate(-30,0,0)"></rect></svg>