<svg xmlns="http://www.w3.org/2000/svg" width="300" height="300"><rect x="0" y="0" width="100%" height="100%" fill="rgb(0,249,243)"></rect><g fill="#222" stroke="#000" stroke-opacity="0.02" fill-opacity="0.15" transform="translate(-25,-37.5)"><rect x="25" y="0" width="25" height="75"></rect><rect x="0" y="25" width="75" height="25"></rect></g><g fill="#222" stroke="#000" stroke-opacity="0.02" fill-opacity="0.15" transform="translate(275,-37.5)"><rect x="25" y="0" width="25" height="75"></rect><rect x="0" y="25" width="75" height="25"></rect></g><g fill="#222" stroke="#000" stroke-opacity="0.02" fill-opacity="0.15" transform="translate(-25,262.5)"><rect x="25" y="0" width="25" height="75"></rect><rect x="0" y="25" width="75" height="25"></rect></g><g fill="#222" stroke="#000" stroke-opacity="0.02" fill-opacity="0.15" transform="translate(275,262.5)"><rect x="25" y="0" width="25" height="75"></rect><rect x="0" y="25" width="75" height="25"></rect></g><g fill="#222" stroke="#000" stroke-opacity="0.02" fill-opacity="0.098" transform="translate(25,-37.5)"><rect x="25" y="0" width="25" height="75"></rect><rect x="0" y="25" width="75" height="25"></rect></g><g fill="#222" stroke="#000" stroke-opacity="0.02" fill-opacity="0.098" transform="translate(25,262.5)"><rect x="25" y="0" width="25" height="75"></rect><rect x="0" y="25" width="75" height="25"></rect></g><g fill="#ddd" stroke="#000" stroke-opacity="0.02" fill-opacity="0.02" transform="translate(75,-37.5)"><rect x="25" y="0" width="25" height="75"></rect><rect x="0" y="25" width="75" height="25"></rect></g><g fill="#ddd" stroke="#000" stroke-opacity="0.02" fill-opacity="0.02" transform="translate(75,262.5)"><rect x="25" y="0" width="25" height="75"></rect><rect x="0" y="25" width="75" height="25"></rect></g><g fill="#ddd" stroke="#000" stroke-opacity="0.02" fill-opacity="0.05466666666666667" transform="translate(125,-37.5)"><rect x="25" y="0" width="25" height="75"></rect><rect x="0" y="25" width="75" height="25"></rect></g><g fill="#ddd" stroke="#000" stroke-opacity="0.02" fill-opacity="0.05466666666666667" transform="translate(125,262.5)"><rect x="25" y="0" width="25" height="75"></rect><rect x="0" y="25" width="75" height="25"></rect></g><g fill="#222" stroke="#000" stroke-opacity="0.02" fill-opacity="0.06333333333333334" transform="translate(175,-37.5)"><rect x="25" y="0" width="25" height="75"></rect><rect x="0" y="25" width="75" height="25"></rect></g><g fill="#222" stroke="#000" stroke-opacity="0.02" fill-opacity="0.06333333333333334" transform="translate(175,262.5)"><rect x="25" y="0" width="25" height="75"></rect><rect x="0" y="25" width="75" height="25"></rect></g><g fill="#222" stroke="#000" stroke-opacity="0.02" fill-opacity="0.046" transform="translate(225,-37.5)"><rect x="25" y="0" width="25" height="75"></rect><rect x="0" y="25" width="75" height="25"></rect></g><g fill="#222" stroke="#000" stroke-opacity="0.02" fill-opacity="0.046" transform="translate(225,262.5)"><rect x="25" y="0" width="25" height="75"></rect><rect x="0" y="25" width="75" height="25"></rect></g><g fill="#ddd" stroke="#000" stroke-opacity="0.02" fill-opacity="0.14133333333333334" transform="translate(0,12.5)"><rect x="25" y="0" width="25" height="75"></rect><rect x="0" y="25" width="75" height="25"></rect></g><g fill="#ddd" stroke="#000" stroke-opacity="0.02" fill-opacity="0.14133333333333334" transform="translate(300,12.5)"><rect x="25" y="0" width="25" height="75"></rect><rect x="0" y="25" width="75" height="25"></rect></g><g fill="#ddd" stroke="#000" stroke-opacity="0.02" fill-opacity="0.12400000000000001" transform="translate(50,12.5)"><rect x="25" y="0" width="25" height="75"></rect><rect x="0" y="25" width="75" height="25"></rect></g><g fill="#222" stroke="#000" stroke-opacity="0.02" fill-opacity="0.08066666666666666" transform="translate(100,12.5)"><rect x="25" y="0" width="25" height="75"></rect><rect x="0" y="25" width="75" height="25"></rect></g><g fill="#222" stroke="#000" stroke-opacity="0.02" fill-opacity="0.028666666666666667" transform="translate(150,12.5)"><rect x="25" y="0" width="25" height="75"></rect><rect x="0" y="25" width="75" height="25"></rect></g><g fill="#ddd" stroke="#000" stroke-opacity="0.02" fill-opacity="0.03733333333333333" transform="translate(200,12.5)"><rect x="25" y="0" width="25" height="75"></rect><rect x="0" y="25" width="75" height="25"></rect></g><g fill="#ddd" stroke="#000" stroke-opacity="0.02" fill-opacity="0.12400000000000001" transform="translate(250,12.5)"><rect x="25" y="0" width="25" height="75"></rect><rect x="0" y="25" width="75" height="25"></rect></g><g fill="#ddd" stroke="#000" stroke-opacity="0.02" fill-opacity="0.14133333333333334" transform="translate(-25,62.5)"><rect x="25" y="0" width="25" height="75"></rect><rect x="0" y="25" width="75" height="25"></rect></g><g fill="#ddd" stroke="#000" stroke-opacity="0.02" fill-opacity="0.14133333333333334" transform="translate(275,62.5)"><rect x="25" y="0" width="25" height="75"></rect><rect x="0" y="25" width="75" height="25"></rect></g><g fill="#ddd" stroke="#000" stroke-opacity="0.02" fill-opacity="0.05466666666666667" transform="translate(25,62.5)"><rect x="25" y="0" width="25" height="75"></rect><rect x="0" y="25" width="75" height="25"></rect></g><g fill="#222" stroke="#000" stroke-opacity="0.02" fill-opacity="0.06333333333333334" transform="translate(75,62.5)"><rect x="25" y="0" width="25" height="75"></rect><rect x="0" y="25" width="75" height="25"></rect></g><g fill="#ddd" stroke="#000" stroke-opacity="0.02" fill-opacity="0.02" transform="translate(125,62.5)"><rect x="25" y="0" width="25" height="75"></rect><rect x="0" y="25" width="75" height="25"></rect></g><g fill="#222" stroke="#000" stroke-opacity="0.02" fill-opacity="0.06333333333333334" transform="translate(175,62.5)"><rect x="25" y="0" width="25" height="75"></rect><rect x="0" y="25" width="75" height="25"></rect></g><g fill="#ddd" stroke="#000" stroke-opacity="0.02" fill-opacity="0.12400000000000001" transform="translate(225,62.5)"><rect x="25" y="0" width="25" height="75"></rect><rect x="0" y="25" width="75" height="25"></rect></g><g fill="#ddd" stroke="#000" stroke-opacity="0.02" fill-opacity="0.12400000000000001" transform="translate(0,112.5)"><rect x="25" y="0" width="25" height="75"></rect><rect x="0" y="25" width="75" height="25"></rect></g><g fill="#ddd" stroke="#000" stroke-opacity="0.02" fill-opacity="0.12400000000000001" transform="translate(300,112.5)"><rect x="25" y="0" width="25" height="75"></rect><rect x="0" y="25" width="75" height="25"></rect></g><g fill="#ddd" stroke="#000" stroke-opacity="0.02" fill-opacity="0.05466666666666667" transform="translate(50,112.5)"><rect x="25" y="0" width="25" height="75"></rect><rect x="0" y="25" width="75" height="25"></rect></g><g fill="#ddd" stroke="#000" stroke-opacity="0.02" fill-opacity="0.03733333333333333" transform="translate(100,112.5)"><rect x="25" y="0" width="25" height="75"></rect><rect x="0" y="25" width="75" height="25"></rect></g><g fill="#222" stroke="#000" stroke-opacity="0.02" fill-opacity="0.06333333333333334" transform="translate(150,112.5)"><rect x="25" y="0" width="25" height="75"></rect><rect x="0" y="25" width="75" height="25"></rect></g><g fill="#ddd" stroke="#000" stroke-opacity="0.02" fill-opacity="0.14133333333333334" transform="translate(200,112.5)"><rect x="25" y="0" width="25" height="75"></rect><rect x="0" y="25" width="75" height="25"></rect></g><g fill="#222" stroke="#000" stroke-opacity="0.02" fill-opacity="0.08066666666666666" transform="translate(250,112.5)"><rect x="25" y="0" width="25" height="75"></rect><rect x="0" y="25" width="75" height="25"></rect></g><g fill="#ddd" stroke="#000" stroke-opacity="0.02" fill-opacity="0.14133333333333334" transform="translate(-25,162.5)"><rect x="25" y="0" width="25" height="75"></rect><rect x="0" y="25" width="75" height="25"></rect></g><g fill="#ddd" stroke="#000" stroke-opacity="0.02" fill-opacity="0.14133333333333334" transform="translate(275,162.5)"><rect x="25" y="0" width="25" height="75"></rect><rect x="0" y="25" width="75" height="25"></rect></g><g fill="#ddd" stroke="#000" stroke-opacity="0.02" fill-opacity="0.08933333333333333" transform="translate(25,162.5)"><rect x="25" y="0" width="25" height="75"></rect><rect x="0" y="25" width="75" height="25"></rect></g><g fill="#ddd" stroke="#000" stroke-opacity="0.02" fill-opacity="0.08933333333333333" transform="translate(75,162.5)"><rect x="25" y="0" width="25" height="75"></rect><rect x="0" y="25" width="75" height="25"></rect></g><g fill="#222" stroke="#000" stroke-opacity="0.02" fill-opacity="0.028666666666666667" transform="translate(125,162.5)"><rect x="25" y="0" width="25" height="75"></rect><rect x="0" y="25" width="75" height="25"></rect></g><g fill="#ddd" stroke="#000" stroke-opacity="0.02" fill-opacity="0.14133333333333334" transform="translate(175,162.5)"><rect x="25" y="0" width="25" height="75"></rect><rect x="0" y="25" width="75" height="25"></rect></g><g fill="#222" stroke="#000" stroke-opacity="0.02" fill-opacity="0.028666666666666667" transform="translate(225,162.5)"><rect x="25" y="0" width="25" height="75"></rect><rect x="0" y="25" width="75" height="25"></rect></g><g fill="#222" stroke="#000" stroke-opacity="0.02" fill-opacity="0.13266666666666665" transform="translate(0,212.5)"><rect x="25" y="0" width="25" height="75"></rect><rect x="0" y="25" width="75" height="25"></rect></g><g fill="#222" stroke="#000" stroke-opacity="0.02" fill-opacity="0.13266666666666665" transform="translate(300,212.5)"><rect x="25" y="0" width="25" height="75"></rect><rect x="0" y="25" width="75" height="25"></rect></g><g fill="#222" stroke="#000" stroke-opacity="0.02" fill-opacity="0.06333333333333334" transform="translate(50,212.5)"><rect x="25" y="0" width="25" height="75"></rect><rect x="0" y="25" width="75" height="25"></rect></g><g fill="#ddd" stroke="#000" stroke-opacity="0.02" fill-opacity="0.08933333333333333" transform="translate(100,212.5)"><rect x="25" y="0" width="25" height="75"></rect><rect x="0" y="25" width="75" height="25"></rect></g><g fill="#ddd" stroke="#000" stroke-opacity="0.02" fill-opacity="0.14133333333333334" transform="translate(150,212.5)"><rect x="25" y="0" width="25" height="75"></rect><rect x="0" y="25" width="75" height="25"></rect></g><g fill="#ddd" stroke="#000" stroke-opacity="0.02" fill-opacity="0.10666666666666667" transform="translate(200,212.5)"><rect x="25" y="0" width="25" height="75"></rect><rect x="0" y="25" width="75" height="25"></rect></g><g fill="#ddd" stroke="#000" stroke-opacity="0.02" fill-opacity="0.03733333333333333" transform="translate(250,212.5)"><rect x="25" y="0" width="25" height="75"></rect><rect x="0" y="25" width="75" height="25"></rect></g></svg>