<svg xmlns="http://www.w3.org/2000/svg" width="479" height="479"><rect x="0" y="0" width="100%" height="100%" fill="rgb(81,136,217)"></rect><rect x="0" y="14" width="100%" height="17" opacity="0.12400000000000001" fill="#ddd"></rect><rect x="0" y="42" width="100%" height="13" opacity="0.08933333333333333" fill="#ddd"></rect><rect x="0" y="72" width="100%" height="11" opacity="0.07200000000000001" fill="#ddd"></rect><rect x="0" y="101" width="100%" height="6" opacity="0.028666666666666667" fill="#222"></rect><rect x="0" y="127" width="100%" height="8" opacity="0.046" fill="#222"></rect><rect x="0" y="141" width="100%" height="14" opacity="0.098" fill="#222"></rect><rect x="0" y="175" width="100%" height="8" opacity="0.046" fill="#222"></rect><rect x="0" y="203" width="100%" height="12" opacity="0.08066666666666666" fill="#222"></rect><rect x="0" y="232" width="100%" height="18" opacity="0.13266666666666665" fill="#222"></rect><rect x="0" y="267" width="100%" height="14" opacity="0.098" fill="#222"></rect><rect x="0" y="293" width="100%" height="9" opacity="0.05466666666666667" fill="#ddd"></rect><rect x="0" y="307" width="100%" height="20" opacity="0.15" fill="#222"></rect><rect x="0" y="332" width="100%" height="19" opacity="0.14133333333333334" fill="#ddd"></rect><rect x="0" y="358" width="100%" height="18" opacity="0.13266666666666665" fill="#222"></rect><rect x="0" y="389" width="100%" height="14" opacity="0.098" fill="#222"></rect><rect x="0" y="416" width="100%" height="18" opacity="0.13266666666666665" fill="#222"></rect><rect x="0" y="445" width="100%" height="19" opacity="0.14133333333333334" fill="#ddd"></rect><rect x="0" y="473" width="100%" height="6" opacity="0.028666666666666667" fill="#222"></rect><rect x="14" y="0" width="17" height="100%" opacity="0.12400000000000001" fill="#ddd"></rect><rect x="42" y="0" width="13" height="100%" opacity="0.08933333333333333" fill="#ddd"></rect><rect x="72" y="0" width="11" height="100%" opacity="0.07200000000000001" fill="#ddd"></rect><rect x="101" y="0" width="6" height="100%" opacity="0.028666666666666667" fill="#222"></rect><rect x="127" y="0" width="8" height="100%" opacity="0.046" fill="#222"></rect><rect x="141" y="0" width="14" height="100%" opacity="0.098" fill="#222"></rect><rect x="175" y="0" width="8" height="100%" opacity="0.046" fill="#222"></rect><rect x="203" y="0" width="12" height="100%" opacity="0.08066666666666666" fill="#222"></rect><rect x="232" y="0" width="18" height="100%" opacity="0.13266666666666665" fill="#222"></rect><rect x="267" y="0" width="14" height="100%" opacity="0.098" fill="#222"></rect><rect x="293" y="0" width="9" height="100%" opacity="0.05466666666666667" fill="#ddd"></rect><rect x="307" y="0" width="20" height="100%" opacity="0.15" fill="#222"></rect><rect x="332" y="0" width="19" height="100%" opacity="0.14133333333333334" fill="#ddd"></rect><rect x="358" y="0" width="18" height="100%" opacity="0.13266666666666665" fill="#222"></rect><rect x="389" y="0" width="14" height="100%" opacity="0.098" fill="#222"></rect><rect x="416" y="0" width="18" height="100%" opacity="0.13266666666666665" fill="#222"></rect><rect x="445" y="0" width="19" height="100%" opacity="0.14133333333333334" fill="#ddd"></rect><rect x="473" y="0" width="6" height="100%" opacity="0.028666666666666667" fill="#222"></rect></svg>