<svg xmlns="http://www.w3.org/2000/svg" width="415" height="479"><rect x="0" y="0" width="100%" height="100%" fill="rgb(14,81,235)"></rect><polyline points="0,39.9526386279221,23.066666666666666,0,69.2,0,92.26666666666667,39.9526386279221,69.2,79.9052772558442,23.066666666666666,79.9052772558442,0,39.9526386279221" fill="#222" fill-opacity="0.11533333333333334" stroke="#000" stroke-opacity="0.02" transform="translate(-46.13333333333333,-39.9526386279221)"></polyline><polyline points="0,39.9526386279221,23.066666666666666,0,69.2,0,92.26666666666667,39.9526386279221,69.2,79.9052772558442,23.066666666666666,79.9052772558442,0,39.9526386279221" fill="#222" fill-opacity="0.11533333333333334" stroke="#000" stroke-opacity="0.02" transform="translate(369.0666666666667,-39.9526386279221)"></polyline><polyline points="0,39.9526386279221,23.066666666666666,0,69.2,0,92.26666666666667,39.9526386279221,69.2,79.9052772558442,23.066666666666666,79.9052772558442,0,39.9526386279221" fill="#222" fill-opacity="0.11533333333333334" stroke="#000" stroke-opacity="0.02" transform="translate(-46.13333333333333,439.47902490714307)"></polyline><polyline points="0,39.9526386279221,23.066666666666666,0,69.2,0,92.26666666666667,39.9526386279221,69.2,79.9052772558442,23.066666666666666,79.9052772558442,0,39.9526386279221" fill="#222" fill-opacity="0.11533333333333334" stroke="#000" stroke-opacity="0.02" transform="translate(369.0666666666667,439.4790249071431)"></polyline><polyline points="0,39.9526386279221,23.066666666666666,0,69.2,0,92.26666666666667,39.9526386279221,69.2,79.9052772558442,23.066666666666666,79.9052772558442,0,39.9526386279221" fill="#222" fill-opacity="0.06333333333333334" stroke="#000" stroke-opacity="0.02" transform="translate(23.06666666666667,0)"></polyline><polyline points="0,39.9526386279221,23.066666666666666,0,69.2,0,92.26666666666667,39.9526386279221,69.2,79.9052772558442,23.066666666666666,79.9052772558442,0,39.9526386279221" fill="#222" fill-opacity="0.06333333333333334" stroke="#000" stroke-opacity="0.02" transform="translate(23.06666666666667,479.4316635350652)"></polyline><polyline points="0,39.9526386279221,23.066666666666666,0,69.2,0,92.26666666666667,39.9526386279221,69.2,79.9052772558442,23.066666666666666,79.9052772558442,0,39.9526386279221" fill="#ddd" fill-opacity="0.02" stroke="#000" stroke-opacity="0.02" transform="translate(92.26666666666668,-39.9526386279221)"></polyline><polyline points="0,39.9526386279221,23.066666666666666,0,69.2,0,92.26666666666667,39.9526386279221,69.2,79.9052772558442,23.066666666666666,79.9052772558442,0,39.9526386279221" fill="#ddd" fill-opacity="0.02" stroke="#000" stroke-opacity="0.02" transform="translate(92.26666666666668,439.47902490714307)"></polyline><polyline points="0,39.9526386279221,23.066666666666666,0,69.2,0,92.26666666666667,39.9526386279221,69.2,79.9052772558442,23.066666666666666,79.9052772558442,0,39.9526386279221" fill="#222" fill-opacity="0.13266666666666665" stroke="#000" stroke-opacity="0.02" transform="translate(161.4666666666667,0)"></polyline><polyline points="0,39.9526386279221,23.066666666666666,0,69.2,0,92.26666666666667,39.9526386279221,69.2,79.9052772558442,23.066666666666666,79.9052772558442,0,39.9526386279221" fill="#222" fill-opacity="0.13266666666666665" stroke="#000" stroke-opacity="0.02" transform="translate(161.4666666666667,479.4316635350652)"></polyline><polyline points="0,39.9526386279221,23.066666666666666,0,69.2,0,92.26666666666667,39.9526386279221,69.2,79.9052772558442,23.066666666666666,79.9052772558442,0,39.9526386279221" fill="#222" fill-opacity="0.13266666666666665" stroke="#000" stroke-opacity="0.02" transform="translate(230.66666666666669,-39.9526386279221)"></polyline><polyline points="0,39.9526386279221,23.066666666666666,0,69.2,0,92.26666666666667,39.9526386279221,69.2,79.9052772558442,23.066666666666666,79.9052772558442,0,39.9526386279221" fill="#222" fill-opacity="0.13266666666666665" stroke="#000" stroke-opacity="0.02" transform="translate(230.66666666666669,439.47902490714307)"></polyline><polyline points="0,39.9526386279221,23.066666666666666,0,69.2,0,92.26666666666667,39.9526386279221,69.2,79.9052772558442,23.066666666666666,79.9052772558442,0,39.9526386279221" fill="#ddd" fill-opacity="0.10666666666666667" stroke="#000" stroke-opacity="0.02" transform="translate(299.8666666666667,0)"></polyline><polyline points="0,39.9526386279221,23.066666666666666,0,69.2,0,92.26666666666667,39.9526386279221,69.2,79.9052772558442,23.066666666666666,79.9052772558442,0,39.9526386279221" fill="#ddd" fill-opacity="0.10666666666666667" stroke="#000" stroke-opacity="0.02" transform="translate(299.8666666666667,479.4316635350652)"></polyline><polyline points="0,39.9526386279221,23.066666666666666,0,69.2,0,92.26666666666667,39.9526386279221,69.2,79.9052772558442,23.066666666666666,79.9052772558442,0,39.9526386279221" fill="#ddd" fill-opacity="0.05466666666666667" stroke="#000" stroke-opacity="0.02" transform="translate(-46.13333333333333,39.9526386279221)"></polyline><polyline points="0,39.9526386279221,23.066666666666666,0,69.2,0,92.26666666666667,39.9526386279221,69.2,79.9052772558442,23.066666666666666,79.9052772558442,0,39.9526386279221" fill="#ddd" fill-opacity="0.05466666666666667" stroke="#000" stroke-opacity="0.02" transform="translate(369.0666666666667,39.9526386279221)"></polyline><polyline points="0,39.9526386279221,23.066666666666666,0,69.2,0,92.26666666666667,39.9526386279221,69.2,79.9052772558442,23.066666666666666,79.9052772558442,0,39.9526386279221" fill="#ddd" fill-opacity="0.10666666666666667" stroke="#000" stroke-opacity="0.02" transform="translate(23.06666666666667,79.9052772558442)"></polyline><polyline points="0,39.9526386279221,23.066666666666666,0,69.2,0,92.26666666666667,39.9526386279221,69.2,79.9052772558442,23.066666666666666,79.9052772558442,0,39.9526386279221" fill="#ddd" fill-opacity="0.05466666666666667" stroke="#000" stroke-opacity="0.02" transform="translate(92.26666666666668,39.9526386279221)"></polyline><polyline points="0,39.9526386279221,23.066666666666666,0,69.2,0,92.26666666666667,39.9526386279221,69.2,79.9052772558442,23.066666666666666,79.9052772558442,0,39.9526386279221" fill="#ddd" fill-opacity="0.05466666666666667" stroke="#000" stroke-opacity="0.02" transform="translate(161.4666666666667,79.9052772558442)"></polyline><polyline points="0,39.9526386279221,23.066666666666666,0,69.2,0,92.26666666666667,39.9526386279221,69.2,79.9052772558442,23.066666666666666,79.9052772558442,0,39.9526386279221" fill="#ddd" fill-opacity="0.03733333333333333" stroke="#000" stroke-opacity="0.02" transform="translate(230.66666666666669,39.9526386279221)"></polyline><polyline points="0,39.9526386279221,23.066666666666666,0,69.2,0,92.26666666666667,39.9526386279221,69.2,79.9052772558442,23.066666666666666,79.9052772558442,0,39.9526386279221" fill="#ddd" fill-opacity="0.10666666666666667" stroke="#000" stroke-opacity="0.02" transform="translate(299.8666666666667,79.9052772558442)"></polyline><polyline points="0,39.9526386279221,23.066666666666666,0,69.2,0,92.26666666666667,39.9526386279221,69.2,79.9052772558442,23.066666666666666,79.9052772558442,0,39.9526386279221" fill="#ddd" fill-opacity="0.07200000000000001" stroke="#000" stroke-opacity="0.02" transform="translate(-46.13333333333333,119.8579158837663)"></polyline><polyline points="0,39.9526386279221,23.066666666666666,0,69.2,0,92.26666666666667,39.9526386279221,69.2,79.9052772558442,23.066666666666666,79.9052772558442,0,39.9526386279221" fill="#ddd" fill-opacity="0.07200000000000001" stroke="#000" stroke-opacity="0.02" transform="translate(369.0666666666667,119.8579158837663)"></polyline><polyline points="0,39.9526386279221,23.066666666666666,0,69.2,0,92.26666666666667,39.9526386279221,69.2,79.9052772558442,23.066666666666666,79.9052772558442,0,39.9526386279221" fill="#222" fill-opacity="0.11533333333333334" stroke="#000" stroke-opacity="0.02" transform="translate(23.06666666666667,159.8105545116884)"></polyline><polyline points="0,39.9526386279221,23.066666666666666,0,69.2,0,92.26666666666667,39.9526386279221,69.2,79.9052772558442,23.066666666666666,79.9052772558442,0,39.9526386279221" fill="#222" fill-opacity="0.046" stroke="#000" stroke-opacity="0.02" transform="translate(92.26666666666668,119.8579158837663)"></polyline><polyline points="0,39.9526386279221,23.066666666666666,0,69.2,0,92.26666666666667,39.9526386279221,69.2,79.9052772558442,23.066666666666666,79.9052772558442,0,39.9526386279221" fill="#222" fill-opacity="0.028666666666666667" stroke="#000" stroke-opacity="0.02" transform="translate(161.4666666666667,159.8105545116884)"></polyline><polyline points="0,39.9526386279221,23.066666666666666,0,69.2,0,92.26666666666667,39.9526386279221,69.2,79.9052772558442,23.066666666666666,79.9052772558442,0,39.9526386279221" fill="#222" fill-opacity="0.098" stroke="#000" stroke-opacity="0.02" transform="translate(230.66666666666669,119.8579158837663)"></polyline><polyline points="0,39.9526386279221,23.066666666666666,0,69.2,0,92.26666666666667,39.9526386279221,69.2,79.9052772558442,23.066666666666666,79.9052772558442,0,39.9526386279221" fill="#222" fill-opacity="0.11533333333333334" stroke="#000" stroke-opacity="0.02" transform="translate(299.8666666666667,159.8105545116884)"></polyline><polyline points="0,39.9526386279221,23.066666666666666,0,69.2,0,92.26666666666667,39.9526386279221,69.2,79.9052772558442,23.066666666666666,79.9052772558442,0,39.9526386279221" fill="#222" fill-opacity="0.13266666666666665" stroke="#000" stroke-opacity="0.02" transform="translate(-46.13333333333333,199.7631931396105)"></polyline><polyline points="0,39.9526386279221,23.066666666666666,0,69.2,0,92.26666666666667,39.9526386279221,69.2,79.9052772558442,23.066666666666666,79.9052772558442,0,39.9526386279221" fill="#222" fill-opacity="0.13266666666666665" stroke="#000" stroke-opacity="0.02" transform="translate(369.0666666666667,199.7631931396105)"></polyline><polyline points="0,39.9526386279221,23.066666666666666,0,69.2,0,92.26666666666667,39.9526386279221,69.2,79.9052772558442,23.066666666666666,79.9052772558442,0,39.9526386279221" fill="#ddd" fill-opacity="0.14133333333333334" stroke="#000" stroke-opacity="0.02" transform="translate(23.06666666666667,239.71583176753256)"></polyline><polyline points="0,39.9526386279221,23.066666666666666,0,69.2,0,92.26666666666667,39.9526386279221,69.2,79.9052772558442,23.066666666666666,79.9052772558442,0,39.9526386279221" fill="#222" fill-opacity="0.06333333333333334" stroke="#000" stroke-opacity="0.02" transform="translate(92.26666666666668,199.7631931396105)"></polyline><polyline points="0,39.9526386279221,23.066666666666666,0,69.2,0,92.26666666666667,39.9526386279221,69.2,79.9052772558442,23.066666666666666,79.9052772558442,0,39.9526386279221" fill="#ddd" fill-opacity="0.08933333333333333" stroke="#000" stroke-opacity="0.02" transform="translate(161.4666666666667,239.71583176753256)"></polyline><polyline points="0,39.9526386279221,23.066666666666666,0,69.2,0,92.26666666666667,39.9526386279221,69.2,79.9052772558442,23.066666666666666,79.9052772558442,0,39.9526386279221" fill="#ddd" fill-opacity="0.14133333333333334" stroke="#000" stroke-opacity="0.02" transform="translate(230.66666666666669,199.7631931396105)"></polyline><polyline points="0,39.9526386279221,23.066666666666666,0,69.2,0,92.26666666666667,39.9526386279221,69.2,79.9052772558442,23.066666666666666,79.9052772558442,0,39.9526386279221" fill="#ddd" fill-opacity="0.08933333333333333" stroke="#000" stroke-opacity="0.02" transform="translate(299.8666666666667,239.71583176753256)"></polyline><polyline points="0,39.9526386279221,23.066666666666666,0,69.2,0,92.26666666666667,39.9526386279221,69.2,79.9052772558442,23.066666666666666,79.9052772558442,0,39.9526386279221" fill="#222" fill-opacity="0.046" stroke="#000" stroke-opacity="0.02" transform="translate(-46.13333333333333,279.6684703954547)"></polyline><polyline points="0,39.9526386279221,23.066666666666666,0,69.2,0,92.26666666666667,39.9526386279221,69.2,79.9052772558442,23.066666666666666,79.9052772558442,0,39.9526386279221" fill="#222" fill-opacity="0.046" stroke="#000" stroke-opacity="0.02" transform="translate(369.0666666666667,279.6684703954547)"></polyline><polyline points="0,39.9526386279221,23.066666666666666,0,69.2,0,92.26666666666667,39.9526386279221,69.2,79.9052772558442,23.066666666666666,79.9052772558442,0,39.9526386279221" fill="#222" fill-opacity="0.08066666666666666" stroke="#000" stroke-opacity="0.02" transform="translate(23.06666666666667,319.6211090233768)"></polyline><polyline points="0,39.9526386279221,23.066666666666666,0,69.2,0,92.26666666666667,39.9526386279221,69.2,79.9052772558442,23.066666666666666,79.9052772558442,0,39.9526386279221" fill="#222" fill-opacity="0.098" stroke="#000" stroke-opacity="0.02" transform="translate(92.26666666666668,279.6684703954547)"></polyline><polyline points="0,39.9526386279221,23.066666666666666,0,69.2,0,92.26666666666667,39.9526386279221,69.2,79.9052772558442,23.066666666666666,79.9052772558442,0,39.9526386279221" fill="#ddd" fill-opacity="0.08933333333333333" stroke="#000" stroke-opacity="0.02" transform="translate(161.4666666666667,319.6211090233768)"></polyline><polyline points="0,39.9526386279221,23.066666666666666,0,69.2,0,92.26666666666667,39.9526386279221,69.2,79.9052772558442,23.066666666666666,79.9052772558442,0,39.9526386279221" fill="#222" fill-opacity="0.11533333333333334" stroke="#000" stroke-opacity="0.02" transform="translate(230.66666666666669,279.6684703954547)"></polyline><polyline points="0,39.9526386279221,23.066666666666666,0,69.2,0,92.26666666666667,39.9526386279221,69.2,79.9052772558442,23.066666666666666,79.9052772558442,0,39.9526386279221" fill="#ddd" fill-opacity="0.05466666666666667" stroke="#000" stroke-opacity="0.02" transform="translate(299.8666666666667,319.6211090233768)"></polyline><polyline points="0,39.9526386279221,23.066666666666666,0,69.2,0,92.26666666666667,39.9526386279221,69.2,79.9052772558442,23.066666666666666,79.9052772558442,0,39.9526386279221" fill="#222" fill-opacity="0.028666666666666667" stroke="#000" stroke-opacity="0.02" transform="translate(-46.13333333333333,359.5737476512989)"></polyline><polyline points="0,39.9526386279221,23.066666666666666,0,69.2,0,92.26666666666667,39.9526386279221,69.2,79.9052772558442,23.066666666666666,79.9052772558442,0,39.9526386279221" fill="#222" fill-opacity="0.028666666666666667" stroke="#000" stroke-opacity="0.02" transform="translate(369.0666666666667,359.5737476512989)"></polyline><polyline points="0,39.9526386279221,23.066666666666666,0,69.2,0,92.26666666666667,39.9526386279221,69.2,79.9052772558442,23.066666666666666,79.9052772558442,0,39.9526386279221" fill="#222" fill-opacity="0.098" stroke="#000" stroke-opacity="0.02" transform="translate(23.06666666666667,399.526386279221)"></polyline><polyline points="0,39.9526386279221,23.066666666666666,0,69.2,0,92.26666666666667,39.9526386279221,69.2,79.9052772558442,23.066666666666666,79.9052772558442,0,39.9526386279221" fill="#222" fill-opacity="0.06333333333333334" stroke="#000" stroke-opacity="0.02" transform="translate(92.26666666666668,359.5737476512989)"></polyline><polyline points="0,39.9526386279221,23.066666666666666,0,69.2,0,92.26666666666667,39.9526386279221,69.2,79.9052772558442,23.066666666666666,79.9052772558442,0,39.9526386279221" fill="#ddd" fill-opacity="0.07200000000000001" stroke="#000" stroke-opacity="0.02" transform="translate(161.4666666666667,399.526386279221)"></polyline><polyline points="0,39.9526386279221,23.066666666666666,0,69.2,0,92.26666666666667,39.9526386279221,69.2,79.9052772558442,23.066666666666666,79.9052772558442,0,39.9526386279221" fill="#222" fill-opacity="0.13266666666666665" stroke="#000" stroke-opacity="0.02" transform="translate(230.66666666666669,359.5737476512989)"></polyline><polyline points="0,39.9526386279221,23.066666666666666,0,69.2,0,92.26666666666667,39.9526386279221,69.2,79.9052772558442,23.066666666666666,79.9052772558442,0,39.9526386279221" fill="#222" fill-opacity="0.11533333333333334" stroke="#000" stroke-opacity="0.02" transform="translate(299.8666666666667,399.526386279221)"></polyline></svg>