<svg xmlns="http://www.w3.org/2000/svg" width="259" height="299"><rect x="0" y="0" width="100%" height="100%" fill="rgb(215,54,244)"></rect><polyline points="0,24.941531628991832,14.4,0,43.2,0,57.6,24.941531628991832,43.2,49.883063257983665,14.4,49.883063257983665,0,24.941531628991832" fill="#ddd" fill-opacity="0.07200000000000001" stroke="#000" stroke-opacity="0.02" transform="translate(-28.8,-24.941531628991832)"></polyline><polyline points="0,24.941531628991832,14.4,0,43.2,0,57.6,24.941531628991832,43.2,49.883063257983665,14.4,49.883063257983665,0,24.941531628991832" fill="#ddd" fill-opacity="0.07200000000000001" stroke="#000" stroke-opacity="0.02" transform="translate(230.40000000000003,-24.941531628991832)"></polyline><polyline points="0,24.941531628991832,14.4,0,43.2,0,57.6,24.941531628991832,43.2,49.883063257983665,14.4,49.883063257983665,0,24.941531628991832" fill="#ddd" fill-opacity="0.07200000000000001" stroke="#000" stroke-opacity="0.02" transform="translate(-28.8,274.35684791891015)"></polyline><polyline points="0,24.941531628991832,14.4,0,43.2,0,57.6,24.941531628991832,43.2,49.883063257983665,14.4,49.883063257983665,0,24.941531628991832" fill="#ddd" fill-opacity="0.07200000000000001" stroke="#000" stroke-opacity="0.02" transform="translate(230.40000000000003,274.35684791891015)"></polyline><polyline points="0,24.941531628991832,14.4,0,43.2,0,57.6,24.941531628991832,43.2,49.883063257983665,14.4,49.883063257983665,0,24.941531628991832" fill="#222" fill-opacity="0.15" stroke="#000" stroke-opacity="0.02" transform="translate(14.400000000000002,0)"></polyline><polyline points="0,24.941531628991832,14.4,0,43.2,0,57.6,24.941531628991832,43.2,49.883063257983665,14.4,49.883063257983665,0,24.941531628991832" fill="#222" fill-opacity="0.15" stroke="#000" stroke-opacity="0.02" transform="translate(14.400000000000002,299.29837954790196)"></polyline><polyline points="0,24.941531628991832,14.4,0,43.2,0,57.6,24.941531628991832,43.2,49.883063257983665,14.4,49.883063257983665,0,24.941531628991832" fill="#222" fill-opacity="0.15" stroke="#000" stroke-opacity="0.02" transform="translate(57.60000000000001,-24.941531628991832)"></polyline><polyline points="0,24.941531628991832,14.4,0,43.2,0,57.6,24.941531628991832,43.2,49.883063257983665,14.4,49.883063257983665,0,24.941531628991832" fill="#222" fill-opacity="0.15" stroke="#000" stroke-opacity="0.02" transform="translate(57.60000000000001,274.35684791891015)"></polyline><polyline points="0,24.941531628991832,14.4,0,43.2,0,57.6,24.941531628991832,43.2,49.883063257983665,14.4,49.883063257983665,0,24.941531628991832" fill="#222" fill-opacity="0.08066666666666666" stroke="#000" stroke-opacity="0.02" transform="translate(100.80000000000003,0)"></polyline><polyline points="0,24.941531628991832,14.4,0,43.2,0,57.6,24.941531628991832,43.2,49.883063257983665,14.4,49.883063257983665,0,24.941531628991832" fill="#222" fill-opacity="0.08066666666666666" stroke="#000" stroke-opacity="0.02" transform="translate(100.80000000000003,299.29837954790196)"></polyline><polyline points="0,24.941531628991832,14.4,0,43.2,0,57.6,24.941531628991832,43.2,49.883063257983665,14.4,49.883063257983665,0,24.941531628991832" fill="#222" fill-opacity="0.08066666666666666" stroke="#000" stroke-opacity="0.02" transform="translate(144,-24.941531628991832)"></polyline><polyline points="0,24.941531628991832,14.4,0,43.2,0,57.6,24.941531628991832,43.2,49.883063257983665,14.4,49.883063257983665,0,24.941531628991832" fill="#222" fill-opacity="0.08066666666666666" stroke="#000" stroke-opacity="0.02" transform="translate(144,274.35684791891015)"></polyline><polyline points="0,24.941531628991832,14.4,0,43.2,0,57.6,24.941531628991832,43.2,49.883063257983665,14.4,49.883063257983665,0,24.941531628991832" fill="#222" fill-opacity="0.11533333333333334" stroke="#000" stroke-opacity="0.02" transform="translate(187.2,0)"></polyline><polyline points="0,24.941531628991832,14.4,0,43.2,0,57.6,24.941531628991832,43.2,49.883063257983665,14.4,49.883063257983665,0,24.941531628991832" fill="#222" fill-opacity="0.11533333333333334" stroke="#000" stroke-opacity="0.02" transform="translate(187.2,299.29837954790196)"></polyline><polyline points="0,24.941531628991832,14.4,0,43.2,0,57.6,24.941531628991832,43.2,49.883063257983665,14.4,49.883063257983665,0,24.941531628991832" fill="#222" fill-opacity="0.13266666666666665" stroke="#000" stroke-opacity="0.02" transform="translate(-28.8,24.941531628991832)"></polyline><polyline points="0,24.941531628991832,14.4,0,43.2,0,57.6,24.941531628991832,43.2,49.883063257983665,14.4,49.883063257983665,0,24.941531628991832" fill="#222" fill-opacity="0.13266666666666665" stroke="#000" stroke-opacity="0.02" transform="translate(230.40000000000003,24.941531628991832)"></polyline><polyline points="0,24.941531628991832,14.4,0,43.2,0,57.6,24.941531628991832,43.2,49.883063257983665,14.4,49.883063257983665,0,24.941531628991832" fill="#222" fill-opacity="0.06333333333333334" stroke="#000" stroke-opacity="0.02" transform="translate(14.400000000000002,49.88306325798366)"></polyline><polyline points="0,24.941531628991832,14.4,0,43.2,0,57.6,24.941531628991832,43.2,49.883063257983665,14.4,49.883063257983665,0,24.941531628991832" fill="#222" fill-opacity="0.06333333333333334" stroke="#000" stroke-opacity="0.02" transform="translate(57.60000000000001,24.941531628991832)"></polyline><polyline points="0,24.941531628991832,14.4,0,43.2,0,57.6,24.941531628991832,43.2,49.883063257983665,14.4,49.883063257983665,0,24.941531628991832" fill="#222" fill-opacity="0.11533333333333334" stroke="#000" stroke-opacity="0.02" transform="translate(100.80000000000003,49.88306325798366)"></polyline><polyline points="0,24.941531628991832,14.4,0,43.2,0,57.6,24.941531628991832,43.2,49.883063257983665,14.4,49.883063257983665,0,24.941531628991832" fill="#222" fill-opacity="0.13266666666666665" stroke="#000" stroke-opacity="0.02" transform="translate(144,24.941531628991832)"></polyline><polyline points="0,24.941531628991832,14.4,0,43.2,0,57.6,24.941531628991832,43.2,49.883063257983665,14.4,49.883063257983665,0,24.941531628991832" fill="#222" fill-opacity="0.046" stroke="#000" stroke-opacity="0.02" transform="translate(187.2,49.88306325798366)"></polyline><polyline points="0,24.941531628991832,14.4,0,43.2,0,57.6,24.941531628991832,43.2,49.883063257983665,14.4,49.883063257983665,0,24.941531628991832" fill="#ddd" fill-opacity="0.05466666666666667" stroke="#000" stroke-opacity="0.02" transform="translate(-28.8,74.82459488697549)"></polyline><polyline points="0,24.941531628991832,14.4,0,43.2,0,57.6,24.941531628991832,43.2,49.883063257983665,14.4,49.883063257983665,0,24.941531628991832" fill="#ddd" fill-opacity="0.05466666666666667" stroke="#000" stroke-opacity="0.02" transform="translate(230.40000000000003,74.82459488697549)"></polyline><polyline points="0,24.941531628991832,14.4,0,43.2,0,57.6,24.941531628991832,43.2,49.883063257983665,14.4,49.883063257983665,0,24.941531628991832" fill="#222" fill-opacity="0.06333333333333334" stroke="#000" stroke-opacity="0.02" transform="translate(14.400000000000002,99.76612651596733)"></polyline><polyline points="0,24.941531628991832,14.4,0,43.2,0,57.6,24.941531628991832,43.2,49.883063257983665,14.4,49.883063257983665,0,24.941531628991832" fill="#ddd" fill-opacity="0.12400000000000001" stroke="#000" stroke-opacity="0.02" transform="translate(57.60000000000001,74.82459488697549)"></polyline><polyline points="0,24.941531628991832,14.4,0,43.2,0,57.6,24.941531628991832,43.2,49.883063257983665,14.4,49.883063257983665,0,24.941531628991832" fill="#ddd" fill-opacity="0.03733333333333333" stroke="#000" stroke-opacity="0.02" transform="translate(100.80000000000003,99.76612651596733)"></polyline><polyline points="0,24.941531628991832,14.4,0,43.2,0,57.6,24.941531628991832,43.2,49.883063257983665,14.4,49.883063257983665,0,24.941531628991832" fill="#ddd" fill-opacity="0.03733333333333333" stroke="#000" stroke-opacity="0.02" transform="translate(144,74.82459488697549)"></polyline><polyline points="0,24.941531628991832,14.4,0,43.2,0,57.6,24.941531628991832,43.2,49.883063257983665,14.4,49.883063257983665,0,24.941531628991832" fill="#ddd" fill-opacity="0.12400000000000001" stroke="#000" stroke-opacity="0.02" transform="translate(187.2,99.76612651596733)"></polyline><polyline points="0,24.941531628991832,14.4,0,43.2,0,57.6,24.941531628991832,43.2,49.883063257983665,14.4,49.883063257983665,0,24.941531628991832" fill="#ddd" fill-opacity="0.05466666666666667" stroke="#000" stroke-opacity="0.02" transform="translate(-28.8,124.70765814495914)"></polyline><polyline points="0,24.941531628991832,14.4,0,43.2,0,57.6,24.941531628991832,43.2,49.883063257983665,14.4,49.883063257983665,0,24.941531628991832" fill="#ddd" fill-opacity="0.05466666666666667" stroke="#000" stroke-opacity="0.02" transform="translate(230.40000000000003,124.70765814495914)"></polyline><polyline points="0,24.941531628991832,14.4,0,43.2,0,57.6,24.941531628991832,43.2,49.883063257983665,14.4,49.883063257983665,0,24.941531628991832" fill="#222" fill-opacity="0.15" stroke="#000" stroke-opacity="0.02" transform="translate(14.400000000000002,149.64918977395098)"></polyline><polyline points="0,24.941531628991832,14.4,0,43.2,0,57.6,24.941531628991832,43.2,49.883063257983665,14.4,49.883063257983665,0,24.941531628991832" fill="#222" fill-opacity="0.06333333333333334" stroke="#000" stroke-opacity="0.02" transform="translate(57.60000000000001,124.70765814495914)"></polyline><polyline points="0,24.941531628991832,14.4,0,43.2,0,57.6,24.941531628991832,43.2,49.883063257983665,14.4,49.883063257983665,0,24.941531628991832" fill="#222" fill-opacity="0.08066666666666666" stroke="#000" stroke-opacity="0.02" transform="translate(100.80000000000003,149.64918977395098)"></polyline><polyline points="0,24.941531628991832,14.4,0,43.2,0,57.6,24.941531628991832,43.2,49.883063257983665,14.4,49.883063257983665,0,24.941531628991832" fill="#222" fill-opacity="0.08066666666666666" stroke="#000" stroke-opacity="0.02" transform="translate(144,124.70765814495914)"></polyline><polyline points="0,24.941531628991832,14.4,0,43.2,0,57.6,24.941531628991832,43.2,49.883063257983665,14.4,49.883063257983665,0,24.941531628991832" fill="#ddd" fill-opacity="0.12400000000000001" stroke="#000" stroke-opacity="0.02" transform="translate(187.2,149.64918977395098)"></polyline><polyline points="0,24.941531628991832,14.4,0,43.2,0,57.6,24.941531628991832,43.2,49.883063257983665,14.4,49.883063257983665,0,24.941531628991832" fill="#ddd" fill-opacity="0.05466666666666667" stroke="#000" stroke-opacity="0.02" transform="translate(-28.8,174.59072140294282)"></polyline><polyline points="0,24.941531628991832,14.4,0,43.2,0,57.6,24.941531628991832,43.2,49.883063257983665,14.4,49.883063257983665,0,24.941531628991832" fill="#ddd" fill-opacity="0.05466666666666667" stroke="#000" stroke-opacity="0.02" transform="translate(230.40000000000003,174.59072140294282)"></polyline><polyline points="0,24.941531628991832,14.4,0,43.2,0,57.6,24.941531628991832,43.2,49.883063257983665,14.4,49.883063257983665,0,24.941531628991832" fill="#ddd" fill-opacity="0.08933333333333333" stroke="#000" stroke-opacity="0.02" transform="translate(14.400000000000002,199.53225303193466)"></polyline><polyline points="0,24.941531628991832,14.4,0,43.2,0,57.6,24.941531628991832,43.2,49.883063257983665,14.4,49.883063257983665,0,24.941531628991832" fill="#ddd" fill-opacity="0.07200000000000001" stroke="#000" stroke-opacity="0.02" transform="translate(57.60000000000001,174.59072140294282)"></polyline><polyline points="0,24.941531628991832,14.4,0,43.2,0,57.6,24.941531628991832,43.2,49.883063257983665,14.4,49.883063257983665,0,24.941531628991832" fill="#222" fill-opacity="0.11533333333333334" stroke="#000" stroke-opacity="0.02" transform="translate(100.80000000000003,199.53225303193466)"></polyline><polyline points="0,24.941531628991832,14.4,0,43.2,0,57.6,24.941531628991832,43.2,49.883063257983665,14.4,49.883063257983665,0,24.941531628991832" fill="#ddd" fill-opacity="0.05466666666666667" stroke="#000" stroke-opacity="0.02" transform="translate(144,174.59072140294282)"></polyline><polyline points="0,24.941531628991832,14.4,0,43.2,0,57.6,24.941531628991832,43.2,49.883063257983665,14.4,49.883063257983665,0,24.941531628991832" fill="#222" fill-opacity="0.11533333333333334" stroke="#000" stroke-opacity="0.02" transform="translate(187.2,199.53225303193466)"></polyline><polyline points="0,24.941531628991832,14.4,0,43.2,0,57.6,24.941531628991832,43.2,49.883063257983665,14.4,49.883063257983665,0,24.941531628991832" fill="#ddd" fill-opacity="0.08933333333333333" stroke="#000" stroke-opacity="0.02" transform="translate(-28.8,224.4737846609265)"></polyline><polyline points="0,24.941531628991832,14.4,0,43.2,0,57.6,24.941531628991832,43.2,49.883063257983665,14.4,49.883063257983665,0,24.941531628991832" fill="#ddd" fill-opacity="0.08933333333333333" stroke="#000" stroke-opacity="0.02" transform="translate(230.40000000000003,224.4737846609265)"></polyline><polyline points="0,24.941531628991832,14.4,0,43.2,0,57.6,24.941531628991832,43.2,49.883063257983665,14.4,49.883063257983665,0,24.941531628991832" fill="#ddd" fill-opacity="0.14133333333333334" stroke="#000" stroke-opacity="0.02" transform="translate(14.400000000000002,249.4153162899183)"></polyline><polyline points="0,24.941531628991832,14.4,0,43.2,0,57.6,24.941531628991832,43.2,49.883063257983665,14.4,49.883063257983665,0,24.941531628991832" fill="#222" fill-opacity="0.028666666666666667" stroke="#000" stroke-opacity="0.02" transform="translate(57.60000000000001,224.4737846609265)"></polyline><polyline points="0,24.941531628991832,14.4,0,43.2,0,57.6,24.941531628991832,43.2,49.883063257983665,14.4,49.883063257983665,0,24.941531628991832" fill="#222" fill-opacity="0.15" stroke="#000" stroke-opacity="0.02" transform="translate(100.80000000000003,249.4153162899183)"></polyline><polyline points="0,24.941531628991832,14.4,0,43.2,0,57.6,24.941531628991832,43.2,49.883063257983665,14.4,49.883063257983665,0,24.941531628991832" fill="#ddd" fill-opacity="0.08933333333333333" stroke="#000" stroke-opacity="0.02" transform="translate(144,224.4737846609265)"></polyline><polyline points="0,24.941531628991832,14.4,0,43.2,0,57.6,24.941531628991832,43.2,49.883063257983665,14.4,49.883063257983665,0,24.941531628991832" fill="#222" fill-opacity="0.098" stroke="#000" stroke-opacity="0.02" transform="translate(187.2,249.4153162899183)"></polyline></svg>