<svg xmlns="http://www.w3.org/2000/svg" width="501" height="501"><rect x="0" y="0" width="100%" height="100%" fill="rgb(91,56,242)"></rect><rect x="0" y="19" width="100%" height="13" opacity="0.08933333333333333" fill="#ddd"></rect><rect x="0" y="47" width="100%" height="11" opacity="0.07200000000000001" fill="#ddd"></rect><rect x="0" y="78" width="100%" height="19" opacity="0.14133333333333334" fill="#ddd"></rect><rect x="0" y="107" width="100%" height="20" opacity="0.15" fill="#222"></rect><rect x="0" y="143" width="100%" height="12" opacity="0.08066666666666666" fill="#222"></rect><rect x="0" y="168" width="100%" height="8" opacity="0.046" fill="#222"></rect><rect x="0" y="187" width="100%" height="7" opacity="0.03733333333333333" fill="#ddd"></rect><rect x="0" y="212" width="100%" height="19" opacity="0.14133333333333334" fill="#ddd"></rect><rect x="0" y="242" width="100%" height="15" opacity="0.10666666666666667" fill="#ddd"></rect><rect x="0" y="262" width="100%" height="7" opacity="0.03733333333333333" fill="#ddd"></rect><rect x="0" y="281" width="100%" height="18" opacity="0.13266666666666665" fill="#222"></rect><rect x="0" y="315" width="100%" height="20" opacity="0.15" fill="#222"></rect><rect x="0" y="341" width="100%" height="20" opacity="0.15" fill="#222"></rect><rect x="0" y="381" width="100%" height="18" opacity="0.13266666666666665" fill="#222"></rect><rect x="0" y="409" width="100%" height="19" opacity="0.14133333333333334" fill="#ddd"></rect><rect x="0" y="436" width="100%" height="7" opacity="0.03733333333333333" fill="#ddd"></rect><rect x="0" y="448" width="100%" height="17" opacity="0.12400000000000001" fill="#ddd"></rect><rect x="0" y="485" width="100%" height="16" opacity="0.11533333333333334" fill="#222"></rect><rect x="19" y="0" width="13" height="100%" opacity="0.08933333333333333" fill="#ddd"></rect><rect x="47" y="0" width="11" height="100%" opacity="0.07200000000000001" fill="#ddd"></rect><rect x="78" y="0" width="19" height="100%" opacity="0.14133333333333334" fill="#ddd"></rect><rect x="107" y="0" width="20" height="100%" opacity="0.15" fill="#222"></rect><rect x="143" y="0" width="12" height="100%" opacity="0.08066666666666666" fill="#222"></rect><rect x="168" y="0" width="8" height="100%" opacity="0.046" fill="#222"></rect><rect x="187" y="0" width="7" height="100%" opacity="0.03733333333333333" fill="#ddd"></rect><rect x="212" y="0" width="19" height="100%" opacity="0.14133333333333334" fill="#ddd"></rect><rect x="242" y="0" width="15" height="100%" opacity="0.10666666666666667" fill="#ddd"></rect><rect x="262" y="0" width="7" height="100%" opacity="0.03733333333333333" fill="#ddd"></rect><rect x="281" y="0" width="18" height="100%" opacity="0.13266666666666665" fill="#222"></rect><rect x="315" y="0" width="20" height="100%" opacity="0.15" fill="#222"></rect><rect x="341" y="0" width="20" height="100%" opacity="0.15" fill="#222"></rect><rect x="381" y="0" width="18" height="100%" opacity="0.13266666666666665" fill="#222"></rect><rect x="409" y="0" width="19" height="100%" opacity="0.14133333333333334" fill="#ddd"></rect><rect x="436" y="0" width="7" height="100%" opacity="0.03733333333333333" fill="#ddd"></rect><rect x="448" y="0" width="17" height="100%" opacity="0.12400000000000001" fill="#ddd"></rect><rect x="485" y="0" width="16" height="100%" opacity="0.11533333333333334" fill="#222"></rect></svg>