<svg xmlns="http://www.w3.org/2000/svg" width="268" height="110"><rect x="0" y="0" width="100%" height="100%" fill="rgb(39,196,208)"></rect><polyline points="22.333333333333332,0,44.666666666666664,18.333333333333336,22.333333333333332,36.66666666666667,0,18.333333333333336" fill="#222" fill-opacity="0.13266666666666665" stroke="#000" stroke-opacity="0.02" transform="translate(-22.333333333333332,-18.333333333333336)"></polyline><polyline points="22.333333333333332,0,44.666666666666664,18.333333333333336,22.333333333333332,36.66666666666667,0,18.333333333333336" fill="#222" fill-opacity="0.13266666666666665" stroke="#000" stroke-opacity="0.02" transform="translate(245.66666666666666,-18.333333333333336)"></polyline><polyline points="22.333333333333332,0,44.666666666666664,18.333333333333336,22.333333333333332,36.66666666666667,0,18.333333333333336" fill="#222" fill-opacity="0.13266666666666665" stroke="#000" stroke-opacity="0.02" transform="translate(-22.333333333333332,91.66666666666669)"></polyline><polyline points="22.333333333333332,0,44.666666666666664,18.333333333333336,22.333333333333332,36.66666666666667,0,18.333333333333336" fill="#222" fill-opacity="0.13266666666666665" stroke="#000" stroke-opacity="0.02" transform="translate(245.66666666666666,91.66666666666669)"></polyline><polyline points="22.333333333333332,0,44.666666666666664,18.333333333333336,22.333333333333332,36.66666666666667,0,18.333333333333336" fill="#ddd" fill-opacity="0.10666666666666667" stroke="#000" stroke-opacity="0.02" transform="translate(22.333333333333332,-18.333333333333336)"></polyline><polyline points="22.333333333333332,0,44.666666666666664,18.333333333333336,22.333333333333332,36.66666666666667,0,18.333333333333336" fill="#ddd" fill-opacity="0.10666666666666667" stroke="#000" stroke-opacity="0.02" transform="translate(22.333333333333332,91.66666666666669)"></polyline><polyline points="22.333333333333332,0,44.666666666666664,18.333333333333336,22.333333333333332,36.66666666666667,0,18.333333333333336" fill="#222" fill-opacity="0.046" stroke="#000" stroke-opacity="0.02" transform="translate(67,-18.333333333333336)"></polyline><polyline points="22.333333333333332,0,44.666666666666664,18.333333333333336,22.333333333333332,36.66666666666667,0,18.333333333333336" fill="#222" fill-opacity="0.046" stroke="#000" stroke-opacity="0.02" transform="translate(67,91.66666666666669)"></polyline><polyline points="22.333333333333332,0,44.666666666666664,18.333333333333336,22.333333333333332,36.66666666666667,0,18.333333333333336" fill="#222" fill-opacity="0.098" stroke="#000" stroke-opacity="0.02" transform="translate(111.66666666666667,-18.333333333333336)"></polyline><polyline points="22.333333333333332,0,44.666666666666664,18.333333333333336,22.333333333333332,36.66666666666667,0,18.333333333333336" fill="#222" fill-opacity="0.098" stroke="#000" stroke-opacity="0.02" transform="translate(111.66666666666667,91.66666666666669)"></polyline><polyline points="22.333333333333332,0,44.666666666666664,18.333333333333336,22.333333333333332,36.66666666666667,0,18.333333333333336" fill="#ddd" fill-opacity="0.10666666666666667" stroke="#000" stroke-opacity="0.02" transform="translate(156.33333333333331,-18.333333333333336)"></polyline><polyline points="22.333333333333332,0,44.666666666666664,18.333333333333336,22.333333333333332,36.66666666666667,0,18.333333333333336" fill="#ddd" fill-opacity="0.10666666666666667" stroke="#000" stroke-opacity="0.02" transform="translate(156.33333333333331,91.66666666666669)"></polyline><polyline points="22.333333333333332,0,44.666666666666664,18.333333333333336,22.333333333333332,36.66666666666667,0,18.333333333333336" fill="#222" fill-opacity="0.046" stroke="#000" stroke-opacity="0.02" transform="translate(200.99999999999997,-18.333333333333336)"></polyline><polyline points="22.333333333333332,0,44.666666666666664,18.333333333333336,22.333333333333332,36.66666666666667,0,18.333333333333336" fill="#222" fill-opacity="0.046" stroke="#000" stroke-opacity="0.02" transform="translate(200.99999999999997,91.66666666666669)"></polyline><polyline points="22.333333333333332,0,44.666666666666664,18.333333333333336,22.333333333333332,36.66666666666667,0,18.333333333333336" fill="#ddd" fill-opacity="0.14133333333333334" stroke="#000" stroke-opacity="0.02" transform="translate(0,0)"></polyline><polyline points="22.333333333333332,0,44.666666666666664,18.333333333333336,22.333333333333332,36.66666666666667,0,18.333333333333336" fill="#ddd" fill-opacity="0.14133333333333334" stroke="#000" stroke-opacity="0.02" transform="translate(268,0)"></polyline><polyline points="22.333333333333332,0,44.666666666666664,18.333333333333336,22.333333333333332,36.66666666666667,0,18.333333333333336" fill="#ddd" fill-opacity="0.14133333333333334" stroke="#000" stroke-opacity="0.02" transform="translate(44.666666666666664,0)"></polyline><polyline points="22.333333333333332,0,44.666666666666664,18.333333333333336,22.333333333333332,36.66666666666667,0,18.333333333333336" fill="#222" fill-opacity="0.06333333333333334" stroke="#000" stroke-opacity="0.02" transform="translate(89.33333333333333,0)"></polyline><polyline points="22.333333333333332,0,44.666666666666664,18.333333333333336,22.333333333333332,36.66666666666667,0,18.333333333333336" fill="#ddd" fill-opacity="0.14133333333333334" stroke="#000" stroke-opacity="0.02" transform="translate(134,0)"></polyline><polyline points="22.333333333333332,0,44.666666666666664,18.333333333333336,22.333333333333332,36.66666666666667,0,18.333333333333336" fill="#ddd" fill-opacity="0.07200000000000001" stroke="#000" stroke-opacity="0.02" transform="translate(178.66666666666666,0)"></polyline><polyline points="22.333333333333332,0,44.666666666666664,18.333333333333336,22.333333333333332,36.66666666666667,0,18.333333333333336" fill="#222" fill-opacity="0.11533333333333334" stroke="#000" stroke-opacity="0.02" transform="translate(223.33333333333331,0)"></polyline><polyline points="22.333333333333332,0,44.666666666666664,18.333333333333336,22.333333333333332,36.66666666666667,0,18.333333333333336" fill="#ddd" fill-opacity="0.05466666666666667" stroke="#000" stroke-opacity="0.02" transform="translate(-22.333333333333332,18.333333333333336)"></polyline><polyline points="22.333333333333332,0,44.666666666666664,18.333333333333336,22.333333333333332,36.66666666666667,0,18.333333333333336" fill="#ddd" fill-opacity="0.05466666666666667" stroke="#000" stroke-opacity="0.02" transform="translate(245.66666666666666,18.333333333333336)"></polyline><polyline points="22.333333333333332,0,44.666666666666664,18.333333333333336,22.333333333333332,36.66666666666667,0,18.333333333333336" fill="#222" fill-opacity="0.11533333333333334" stroke="#000" stroke-opacity="0.02" transform="translate(22.333333333333332,18.333333333333336)"></polyline><polyline points="22.333333333333332,0,44.666666666666664,18.333333333333336,22.333333333333332,36.66666666666667,0,18.333333333333336" fill="#ddd" fill-opacity="0.02" stroke="#000" stroke-opacity="0.02" transform="translate(67,18.333333333333336)"></polyline><polyline points="22.333333333333332,0,44.666666666666664,18.333333333333336,22.333333333333332,36.66666666666667,0,18.333333333333336" fill="#222" fill-opacity="0.13266666666666665" stroke="#000" stroke-opacity="0.02" transform="translate(111.66666666666667,18.333333333333336)"></polyline><polyline points="22.333333333333332,0,44.666666666666664,18.333333333333336,22.333333333333332,36.66666666666667,0,18.333333333333336" fill="#222" fill-opacity="0.046" stroke="#000" stroke-opacity="0.02" transform="translate(156.33333333333331,18.333333333333336)"></polyline><polyline points="22.333333333333332,0,44.666666666666664,18.333333333333336,22.333333333333332,36.66666666666667,0,18.333333333333336" fill="#ddd" fill-opacity="0.03733333333333333" stroke="#000" stroke-opacity="0.02" transform="translate(200.99999999999997,18.333333333333336)"></polyline><polyline points="22.333333333333332,0,44.666666666666664,18.333333333333336,22.333333333333332,36.66666666666667,0,18.333333333333336" fill="#222" fill-opacity="0.06333333333333334" stroke="#000" stroke-opacity="0.02" transform="translate(0,36.66666666666667)"></polyline><polyline points="22.333333333333332,0,44.666666666666664,18.333333333333336,22.333333333333332,36.66666666666667,0,18.333333333333336" fill="#222" fill-opacity="0.06333333333333334" stroke="#000" stroke-opacity="0.02" transform="translate(268,36.66666666666667)"></polyline><polyline points="22.333333333333332,0,44.666666666666664,18.333333333333336,22.333333333333332,36.66666666666667,0,18.333333333333336" fill="#222" fill-opacity="0.06333333333333334" stroke="#000" stroke-opacity="0.02" transform="translate(44.666666666666664,36.66666666666667)"></polyline><polyline points="22.333333333333332,0,44.666666666666664,18.333333333333336,22.333333333333332,36.66666666666667,0,18.333333333333336" fill="#222" fill-opacity="0.11533333333333334" stroke="#000" stroke-opacity="0.02" transform="translate(89.33333333333333,36.66666666666667)"></polyline><polyline points="22.333333333333332,0,44.666666666666664,18.333333333333336,22.333333333333332,36.66666666666667,0,18.333333333333336" fill="#222" fill-opacity="0.15" stroke="#000" stroke-opacity="0.02" transform="translate(134,36.66666666666667)"></polyline><polyline points="22.333333333333332,0,44.666666666666664,18.333333333333336,22.333333333333332,36.66666666666667,0,18.333333333333336" fill="#ddd" fill-opacity="0.14133333333333334" stroke="#000" stroke-opacity="0.02" transform="translate(178.66666666666666,36.66666666666667)"></polyline><polyline points="22.333333333333332,0,44.666666666666664,18.333333333333336,22.333333333333332,36.66666666666667,0,18.333333333333336" fill="#222" fill-opacity="0.15" stroke="#000" stroke-opacity="0.02" transform="translate(223.33333333333331,36.66666666666667)"></polyline><polyline points="22.333333333333332,0,44.666666666666664,18.333333333333336,22.333333333333332,36.66666666666667,0,18.333333333333336" fill="#222" fill-opacity="0.098" stroke="#000" stroke-opacity="0.02" transform="translate(-22.333333333333332,55.00000000000001)"></polyline><polyline points="22.333333333333332,0,44.666666666666664,18.333333333333336,22.333333333333332,36.66666666666667,0,18.333333333333336" fill="#222" fill-opacity="0.098" stroke="#000" stroke-opacity="0.02" transform="translate(245.66666666666666,55.00000000000001)"></polyline><polyline points="22.333333333333332,0,44.666666666666664,18.333333333333336,22.333333333333332,36.66666666666667,0,18.333333333333336" fill="#222" fill-opacity="0.06333333333333334" stroke="#000" stroke-opacity="0.02" transform="translate(22.333333333333332,55.00000000000001)"></polyline><polyline points="22.333333333333332,0,44.666666666666664,18.333333333333336,22.333333333333332,36.66666666666667,0,18.333333333333336" fill="#ddd" fill-opacity="0.07200000000000001" stroke="#000" stroke-opacity="0.02" transform="translate(67,55.00000000000001)"></polyline><polyline points="22.333333333333332,0,44.666666666666664,18.333333333333336,22.333333333333332,36.66666666666667,0,18.333333333333336" fill="#ddd" fill-opacity="0.02" stroke="#000" stroke-opacity="0.02" transform="translate(111.66666666666667,55.00000000000001)"></polyline><polyline points="22.333333333333332,0,44.666666666666664,18.333333333333336,22.333333333333332,36.66666666666667,0,18.333333333333336" fill="#222" fill-opacity="0.028666666666666667" stroke="#000" stroke-opacity="0.02" transform="translate(156.33333333333331,55.00000000000001)"></polyline><polyline points="22.333333333333332,0,44.666666666666664,18.333333333333336,22.333333333333332,36.66666666666667,0,18.333333333333336" fill="#ddd" fill-opacity="0.08933333333333333" stroke="#000" stroke-opacity="0.02" transform="translate(200.99999999999997,55.00000000000001)"></polyline><polyline points="22.333333333333332,0,44.666666666666664,18.333333333333336,22.333333333333332,36.66666666666667,0,18.333333333333336" fill="#222" fill-opacity="0.098" stroke="#000" stroke-opacity="0.02" transform="translate(0,73.33333333333334)"></polyline><polyline points="22.333333333333332,0,44.666666666666664,18.333333333333336,22.333333333333332,36.66666666666667,0,18.333333333333336" fill="#222" fill-opacity="0.098" stroke="#000" stroke-opacity="0.02" transform="translate(268,73.33333333333334)"></polyline><polyline points="22.333333333333332,0,44.666666666666664,18.333333333333336,22.333333333333332,36.66666666666667,0,18.333333333333336" fill="#ddd" fill-opacity="0.02" stroke="#000" stroke-opacity="0.02" transform="translate(44.666666666666664,73.33333333333334)"></polyline><polyline points="22.333333333333332,0,44.666666666666664,18.333333333333336,22.333333333333332,36.66666666666667,0,18.333333333333336" fill="#ddd" fill-opacity="0.10666666666666667" stroke="#000" stroke-opacity="0.02" transform="translate(89.33333333333333,73.33333333333334)"></polyline><polyline points="22.333333333333332,0,44.666666666666664,18.333333333333336,22.333333333333332,36.66666666666667,0,18.333333333333336" fill="#222" fill-opacity="0.15" stroke="#000" stroke-opacity="0.02" transform="translate(134,73.33333333333334)"></polyline><polyline points="22.333333333333332,0,44.666666666666664,18.333333333333336,22.333333333333332,36.66666666666667,0,18.333333333333336" fill="#222" fill-opacity="0.13266666666666665" stroke="#000" stroke-opacity="0.02" transform="translate(178.66666666666666,73.33333333333334)"></polyline><polyline points="22.333333333333332,0,44.666666666666664,18.333333333333336,22.333333333333332,36.66666666666667,0,18.333333333333336" fill="#ddd" fill-opacity="0.08933333333333333" stroke="#000" stroke-opacity="0.02" transform="translate(223.33333333333331,73.33333333333334)"></polyline></svg>