<svg xmlns="http://www.w3.org/2000/svg" width="145" height="167"><rect x="0" y="0" width="100%" height="100%" fill="rgb(195,145,52)"></rect><rect x="-15.333333333333334" y="-15.333333333333334" width="30.666666666666668" height="30.666666666666668" stroke="#000" stroke-opacity="0.02" fill="#222" fill-opacity="0.11533333333333334" stroke-width="1"></rect><rect x="129.78289143211222" y="-15.333333333333334" width="30.666666666666668" height="30.666666666666668" stroke="#000" stroke-opacity="0.02" fill="#222" fill-opacity="0.11533333333333334" stroke-width="1"></rect><rect x="-15.333333333333334" y="152.23244953089113" width="30.666666666666668" height="30.666666666666668" stroke="#000" stroke-opacity="0.02" fill="#222" fill-opacity="0.11533333333333334" stroke-width="1"></rect><rect x="129.78289143211222" y="152.23244953089113" width="30.666666666666668" height="30.666666666666668" stroke="#000" stroke-opacity="0.02" fill="#222" fill-opacity="0.11533333333333334" stroke-width="1"></rect><rect x="57.224779049389454" y="26.558112382722786" width="30.666666666666668" height="30.666666666666668" stroke="#000" stroke-opacity="0.02" fill="#ddd" fill-opacity="0.03733333333333333" stroke-width="1"></rect><rect x="-15.333333333333334" y="68.44955809877891" width="30.666666666666668" height="30.666666666666668" stroke="#000" stroke-opacity="0.02" fill="#222" fill-opacity="0.098" stroke-width="1"></rect><rect x="129.78289143211222" y="68.44955809877891" width="30.666666666666668" height="30.666666666666668" stroke="#000" stroke-opacity="0.02" fill="#222" fill-opacity="0.098" stroke-width="1"></rect><rect x="57.224779049389454" y="110.34100381483503" width="30.666666666666668" height="30.666666666666668" stroke="#000" stroke-opacity="0.02" fill="#ddd" fill-opacity="0.12400000000000001" stroke-width="1"></rect><polyline points="0,0,26.558112382722786,15.333333333333334,0,30.666666666666668,0,0" stroke="#000" stroke-opacity="0.02" fill="#222" fill-opacity="0.046" stroke-width="1" transform="translate(15.333333333333334,-15.333333333333334) rotate(0,15.333333333333334,13.279056191361393)"></polyline><polyline points="0,0,26.558112382722786,15.333333333333334,0,30.666666666666668,0,0" stroke="#000" stroke-opacity="0.02" fill="#222" fill-opacity="0.046" stroke-width="1" transform="translate(15.333333333333334,182.89911619755782) rotate(0,15.333333333333334,13.279056191361393) scale(1,-1)"></polyline><polyline points="0,0,26.558112382722786,15.333333333333334,0,30.666666666666668,0,0" stroke="#000" stroke-opacity="0.02" fill="#222" fill-opacity="0.11533333333333334" stroke-width="1" transform="translate(129.78289143211222,-15.333333333333334) rotate(0,15.333333333333334,13.279056191361393) scale(-1,1)"></polyline><polyline points="0,0,26.558112382722786,15.333333333333334,0,30.666666666666668,0,0" stroke="#000" stroke-opacity="0.02" fill="#222" fill-opacity="0.11533333333333334" stroke-width="1" transform="translate(129.78289143211222,182.89911619755782) rotate(0,15.333333333333334,13.279056191361393) scale(-1,-1)"></polyline><polyline points="0,0,26.558112382722786,15.333333333333334,0,30.666666666666668,0,0" stroke="#000" stroke-opacity="0.02" fill="#ddd" fill-opacity="0.14133333333333334" stroke-width="1" transform="translate(87.89144571605611,26.558112382722786)"></polyline><polyline points="0,0,26.558112382722786,15.333333333333334,0,30.666666666666668,0,0" stroke="#000" stroke-opacity="0.02" fill="#222" fill-opacity="0.046" stroke-width="1" transform="translate(57.22477904938945,26.558112382722786) scale(-1,1)"></polyline><polyline points="0,0,26.558112382722786,15.333333333333334,0,30.666666666666668,0,0" stroke="#000" stroke-opacity="0.02" fill="#ddd" fill-opacity="0.10666666666666667" stroke-width="1" transform="translate(87.89144571605611,141.0076704815017) scale(1,-1)"></polyline><polyline points="0,0,26.558112382722786,15.333333333333334,0,30.666666666666668,0,0" stroke="#000" stroke-opacity="0.02" fill="#ddd" fill-opacity="0.10666666666666667" stroke-width="1" transform="translate(57.22477904938945,141.0076704815017) scale(-1,-1)"></polyline><polyline points="0,0,26.558112382722786,15.333333333333334,0,30.666666666666668,0,0" stroke="#000" stroke-opacity="0.02" fill="#ddd" fill-opacity="0.07200000000000001" stroke-width="1" transform="translate(15.333333333333334,68.44955809877891)"></polyline><polyline points="0,0,26.558112382722786,15.333333333333334,0,30.666666666666668,0,0" stroke="#000" stroke-opacity="0.02" fill="#ddd" fill-opacity="0.12400000000000001" stroke-width="1" transform="translate(129.78289143211222,68.44955809877891) scale(-1,1)"></polyline><rect x="0" y="0" width="30.666666666666668" height="30.666666666666668" stroke="#000" stroke-opacity="0.02" fill="#ddd" fill-opacity="0.08933333333333333" stroke-width="1" transform="translate(15.333333333333334,15.333333333333334) rotate(-30,0,0)"></rect><rect x="0" y="0" width="30.666666666666668" height="30.666666666666668" stroke="#000" stroke-opacity="0.02" fill="#ddd" fill-opacity="0.08933333333333333" stroke-width="1" transform="scale(-1,1) translate(-129.78289143211222,15.333333333333334) rotate(-30,0,0)"></rect><rect x="0" y="0" width="30.666666666666668" height="30.666666666666668" stroke="#000" stroke-opacity="0.02" fill="#222" fill-opacity="0.08066666666666666" stroke-width="1" transform="translate(15.333333333333334,37.78289143211224) rotate(30,0,30.666666666666668)"></rect><rect x="0" y="0" width="30.666666666666668" height="30.666666666666668" stroke="#000" stroke-opacity="0.02" fill="#ddd" fill-opacity="0.05466666666666667" stroke-width="1" transform="scale(-1,1) translate(-129.78289143211222,37.78289143211224) rotate(30,0,30.666666666666668)"></rect><rect x="0" y="0" width="30.666666666666668" height="30.666666666666668" stroke="#000" stroke-opacity="0.02" fill="#222" fill-opacity="0.11533333333333334" stroke-width="1" transform="scale(1,-1) translate(15.333333333333334,-129.78289143211222) rotate(30,0,30.666666666666668)"></rect><rect x="0" y="0" width="30.666666666666668" height="30.666666666666668" stroke="#000" stroke-opacity="0.02" fill="#222" fill-opacity="0.098" stroke-width="1" transform="scale(-1,-1) translate(-129.78289143211222,-129.78289143211222) rotate(30,0,30.666666666666668)"></rect><rect x="0" y="0" width="30.666666666666668" height="30.666666666666668" stroke="#000" stroke-opacity="0.02" fill="#222" fill-opacity="0.15" stroke-width="1" transform="scale(1,-1) translate(15.333333333333334,-152.23244953089113) rotate(-30,0,0)"></rect><rect x="0" y="0" width="30.666666666666668" height="30.666666666666668" stroke="#000" stroke-opacity="0.02" fill="#ddd" fill-opacity="0.14133333333333334" stroke-width="1" transform="scale(-1,-1) translate(-129.78289143211222,-152.23244953089113) rotate(-30,0,0)"></rect></svg>