<svg xmlns="http://www.w3.org/2000/svg" width="178" height="178"><rect x="0" y="0" width="100%" height="100%" fill="rgb(190,57,60)"></rect><g fill="#222" opacity="0.11533333333333334" transform="translate(-29.7045,-29.7045) rotate(45,29.7045,29.7045)"><rect x="21" y="0" width="21" height="63"></rect><rect x="0" y="21" width="63" height="21"></rect></g><g fill="#222" opacity="0.11533333333333334" transform="translate(148.5225,-29.7045) rotate(45,29.7045,29.7045)"><rect x="21" y="0" width="21" height="63"></rect><rect x="0" y="21" width="63" height="21"></rect></g><g fill="#222" opacity="0.11533333333333334" transform="translate(-29.7045,148.5225) rotate(45,29.7045,29.7045)"><rect x="21" y="0" width="21" height="63"></rect><rect x="0" y="21" width="63" height="21"></rect></g><g fill="#222" opacity="0.11533333333333334" transform="translate(148.5225,148.5225) rotate(45,29.7045,29.7045)"><rect x="21" y="0" width="21" height="63"></rect><rect x="0" y="21" width="63" height="21"></rect></g><g fill="#ddd" opacity="0.12400000000000001" transform="translate(0,-14.85225) rotate(45,29.7045,29.7045)"><rect x="21" y="0" width="21" height="63"></rect><rect x="0" y="21" width="63" height="21"></rect></g><g fill="#ddd" opacity="0.12400000000000001" transform="translate(0,163.37475000000003) rotate(45,29.7045,29.7045)"><rect x="21" y="0" width="21" height="63"></rect><rect x="0" y="21" width="63" height="21"></rect></g><g fill="#ddd" opacity="0.12400000000000001" transform="translate(29.7045,-29.7045) rotate(45,29.7045,29.7045)"><rect x="21" y="0" width="21" height="63"></rect><rect x="0" y="21" width="63" height="21"></rect></g><g fill="#ddd" opacity="0.12400000000000001" transform="translate(29.7045,148.5225) rotate(45,29.7045,29.7045)"><rect x="21" y="0" width="21" height="63"></rect><rect x="0" y="21" width="63" height="21"></rect></g><g fill="#ddd" opacity="0.05466666666666667" transform="translate(59.409000000000006,-14.85225) rotate(45,29.7045,29.7045)"><rect x="21" y="0" width="21" height="63"></rect><rect x="0" y="21" width="63" height="21"></rect></g><g fill="#ddd" opacity="0.05466666666666667" transform="translate(59.409000000000006,163.37475000000003) rotate(45,29.7045,29.7045)"><rect x="21" y="0" width="21" height="63"></rect><rect x="0" y="21" width="63" height="21"></rect></g><g fill="#222" opacity="0.13266666666666665" transform="translate(89.1135,-29.7045) rotate(45,29.7045,29.7045)"><rect x="21" y="0" width="21" height="63"></rect><rect x="0" y="21" width="63" height="21"></rect></g><g fill="#222" opacity="0.13266666666666665" transform="translate(89.1135,148.5225) rotate(45,29.7045,29.7045)"><rect x="21" y="0" width="21" height="63"></rect><rect x="0" y="21" width="63" height="21"></rect></g><g fill="#ddd" opacity="0.05466666666666667" transform="translate(118.81800000000001,-14.85225) rotate(45,29.7045,29.7045)"><rect x="21" y="0" width="21" height="63"></rect><rect x="0" y="21" width="63" height="21"></rect></g><g fill="#ddd" opacity="0.05466666666666667" transform="translate(118.81800000000001,163.37475000000003) rotate(45,29.7045,29.7045)"><rect x="21" y="0" width="21" height="63"></rect><rect x="0" y="21" width="63" height="21"></rect></g><g fill="#222" opacity="0.15" transform="translate(-29.7045,0) rotate(45,29.7045,29.7045)"><rect x="21" y="0" width="21" height="63"></rect><rect x="0" y="21" width="63" height="21"></rect></g><g fill="#222" opacity="0.15" transform="translate(148.5225,0) rotate(45,29.7045,29.7045)"><rect x="21" y="0" width="21" height="63"></rect><rect x="0" y="21" width="63" height="21"></rect></g><g fill="#ddd" opacity="0.02" transform="translate(0,14.852250000000002) rotate(45,29.7045,29.7045)"><rect x="21" y="0" width="21" height="63"></rect><rect x="0" y="21" width="63" height="21"></rect></g><g fill="#222" opacity="0.046" transform="translate(29.7045,0) rotate(45,29.7045,29.7045)"><rect x="21" y="0" width="21" height="63"></rect><rect x="0" y="21" width="63" height="21"></rect></g><g fill="#ddd" opacity="0.08933333333333333" transform="translate(59.409000000000006,14.852250000000002) rotate(45,29.7045,29.7045)"><rect x="21" y="0" width="21" height="63"></rect><rect x="0" y="21" width="63" height="21"></rect></g><g fill="#222" opacity="0.028666666666666667" transform="translate(89.1135,0) rotate(45,29.7045,29.7045)"><rect x="21" y="0" width="21" height="63"></rect><rect x="0" y="21" width="63" height="21"></rect></g><g fill="#ddd" opacity="0.12400000000000001" transform="translate(118.81800000000001,14.852250000000002) rotate(45,29.7045,29.7045)"><rect x="21" y="0" width="21" height="63"></rect><rect x="0" y="21" width="63" height="21"></rect></g><g fill="#222" opacity="0.08066666666666666" transform="translate(-29.7045,29.704500000000003) rotate(45,29.7045,29.7045)"><rect x="21" y="0" width="21" height="63"></rect><rect x="0" y="21" width="63" height="21"></rect></g><g fill="#222" opacity="0.08066666666666666" transform="translate(148.5225,29.704500000000003) rotate(45,29.7045,29.7045)"><rect x="21" y="0" width="21" height="63"></rect><rect x="0" y="21" width="63" height="21"></rect></g><g fill="#ddd" opacity="0.05466666666666667" transform="translate(0,44.55675) rotate(45,29.7045,29.7045)"><rect x="21" y="0" width="21" height="63"></rect><rect x="0" y="21" width="63" height="21"></rect></g><g fill="#222" opacity="0.098" transform="translate(29.7045,29.704500000000003) rotate(45,29.7045,29.7045)"><rect x="21" y="0" width="21" height="63"></rect><rect x="0" y="21" width="63" height="21"></rect></g><g fill="#222" opacity="0.028666666666666667" transform="translate(59.409000000000006,44.55675) rotate(45,29.7045,29.7045)"><rect x="21" y="0" width="21" height="63"></rect><rect x="0" y="21" width="63" height="21"></rect></g><g fill="#222" opacity="0.098" transform="translate(89.1135,29.704500000000003) rotate(45,29.7045,29.7045)"><rect x="21" y="0" width="21" height="63"></rect><rect x="0" y="21" width="63" height="21"></rect></g><g fill="#222" opacity="0.13266666666666665" transform="translate(118.81800000000001,44.55675) rotate(45,29.7045,29.7045)"><rect x="21" y="0" width="21" height="63"></rect><rect x="0" y="21" width="63" height="21"></rect></g><g fill="#222" opacity="0.11533333333333334" transform="translate(-29.7045,59.409000000000006) rotate(45,29.7045,29.7045)"><rect x="21" y="0" width="21" height="63"></rect><rect x="0" y="21" width="63" height="21"></rect></g><g fill="#222" opacity="0.11533333333333334" transform="translate(148.5225,59.409000000000006) rotate(45,29.7045,29.7045)"><rect x="21" y="0" width="21" height="63"></rect><rect x="0" y="21" width="63" height="21"></rect></g><g fill="#222" opacity="0.046" transform="translate(0,74.26125) rotate(45,29.7045,29.7045)"><rect x="21" y="0" width="21" height="63"></rect><rect x="0" y="21" width="63" height="21"></rect></g><g fill="#222" opacity="0.046" transform="translate(29.7045,59.409000000000006) rotate(45,29.7045,29.7045)"><rect x="21" y="0" width="21" height="63"></rect><rect x="0" y="21" width="63" height="21"></rect></g><g fill="#222" opacity="0.06333333333333334" transform="translate(59.409000000000006,74.26125) rotate(45,29.7045,29.7045)"><rect x="21" y="0" width="21" height="63"></rect><rect x="0" y="21" width="63" height="21"></rect></g><g fill="#ddd" opacity="0.07200000000000001" transform="translate(89.1135,59.409000000000006) rotate(45,29.7045,29.7045)"><rect x="21" y="0" width="21" height="63"></rect><rect x="0" y="21" width="63" height="21"></rect></g><g fill="#ddd" opacity="0.05466666666666667" transform="translate(118.81800000000001,74.26125) rotate(45,29.7045,29.7045)"><rect x="21" y="0" width="21" height="63"></rect><rect x="0" y="21" width="63" height="21"></rect></g><g fill="#222" opacity="0.028666666666666667" transform="translate(-29.7045,89.1135) rotate(45,29.7045,29.7045)"><rect x="21" y="0" width="21" height="63"></rect><rect x="0" y="21" width="63" height="21"></rect></g><g fill="#222" opacity="0.028666666666666667" transform="translate(148.5225,89.1135) rotate(45,29.7045,29.7045)"><rect x="21" y="0" width="21" height="63"></rect><rect x="0" y="21" width="63" height="21"></rect></g><g fill="#222" opacity="0.13266666666666665" transform="translate(0,103.96575) rotate(45,29.7045,29.7045)"><rect x="21" y="0" width="21" height="63"></rect><rect x="0" y="21" width="63" height="21"></rect></g><g fill="#ddd" opacity="0.12400000000000001" transform="translate(29.7045,89.1135) rotate(45,29.7045,29.7045)"><rect x="21" y="0" width="21" height="63"></rect><rect x="0" y="21" width="63" height="21"></rect></g><g fill="#222" opacity="0.028666666666666667" transform="translate(59.409000000000006,103.96575) rotate(45,29.7045,29.7045)"><rect x="21" y="0" width="21" height="63"></rect><rect x="0" y="21" width="63" height="21"></rect></g><g fill="#222" opacity="0.046" transform="translate(89.1135,89.1135) rotate(45,29.7045,29.7045)"><rect x="21" y="0" width="21" height="63"></rect><rect x="0" y="21" width="63" height="21"></rect></g><g fill="#222" opacity="0.11533333333333334" transform="translate(118.81800000000001,103.96575) rotate(45,29.7045,29.7045)"><rect x="21" y="0" width="21" height="63"></rect><rect x="0" y="21" width="63" height="21"></rect></g><g fill="#ddd" opacity="0.02" transform="translate(-29.7045,118.81800000000001) rotate(45,29.7045,29.7045)"><rect x="21" y="0" width="21" height="63"></rect><rect x="0" y="21" width="63" height="21"></rect></g><g fill="#ddd" opacity="0.02" transform="translate(148.5225,118.81800000000001) rotate(45,29.7045,29.7045)"><rect x="21" y="0" width="21" height="63"></rect><rect x="0" y="21" width="63" height="21"></rect></g><g fill="#ddd" opacity="0.02" transform="translate(-29.7045,-59.40899999999999) rotate(45,29.7045,29.7045)"><rect x="21" y="0" width="21" height="63"></rect><rect x="0" y="21" width="63" height="21"></rect></g><g fill="#ddd" opacity="0.08933333333333333" transform="translate(0,133.67025000000004) rotate(45,29.7045,29.7045)"><rect x="21" y="0" width="21" height="63"></rect><rect x="0" y="21" width="63" height="21"></rect></g><g fill="#ddd" opacity="0.08933333333333333" transform="translate(0,-44.556749999999965) rotate(45,29.7045,29.7045)"><rect x="21" y="0" width="21" height="63"></rect><rect x="0" y="21" width="63" height="21"></rect></g><g fill="#222" opacity="0.06333333333333334" transform="translate(29.7045,118.81800000000001) rotate(45,29.7045,29.7045)"><rect x="21" y="0" width="21" height="63"></rect><rect x="0" y="21" width="63" height="21"></rect></g><g fill="#222" opacity="0.06333333333333334" transform="translate(29.7045,-59.40899999999999) rotate(45,29.7045,29.7045)"><rect x="21" y="0" width="21" height="63"></rect><rect x="0" y="21" width="63" height="21"></rect></g><g fill="#222" opacity="0.11533333333333334" transform="translate(59.409000000000006,133.67025000000004) rotate(45,29.7045,29.7045)"><rect x="21" y="0" width="21" height="63"></rect><rect x="0" y="21" width="63" height="21"></rect></g><g fill="#222" opacity="0.11533333333333334" transform="translate(59.409000000000006,-44.556749999999965) rotate(45,29.7045,29.7045)"><rect x="21" y="0" width="21" height="63"></rect><rect x="0" y="21" width="63" height="21"></rect></g><g fill="#222" opacity="0.15" transform="translate(89.1135,118.81800000000001) rotate(45,29.7045,29.7045)"><rect x="21" y="0" width="21" height="63"></rect><rect x="0" y="21" width="63" height="21"></rect></g><g fill="#222" opacity="0.15" transform="translate(89.1135,-59.40899999999999) rotate(45,29.7045,29.7045)"><rect x="21" y="0" width="21" height="63"></rect><rect x="0" y="21" width="63" height="21"></rect></g><g fill="#222" opacity="0.028666666666666667" transform="translate(118.81800000000001,133.67025000000004) rotate(45,29.7045,29.7045)"><rect x="21" y="0" width="21" height="63"></rect><rect x="0" y="21" width="63" height="21"></rect></g><g fill="#222" opacity="0.028666666666666667" transform="translate(118.81800000000001,-44.556749999999965) rotate(45,29.7045,29.7045)"><rect x="21" y="0" width="21" height="63"></rect><rect x="0" y="21" width="63" height="21"></rect></g></svg>