<svg xmlns="http://www.w3.org/2000/svg" width="78" height="91"><rect x="0" y="0" width="100%" height="100%" fill="rgb(56,242,177)"></rect><rect x="-8.333333333333332" y="-8.333333333333332" width="16.666666666666664" height="16.666666666666664" stroke="#000" stroke-opacity="0.02" fill="#222" fill-opacity="0.06333333333333334" stroke-width="1"></rect><rect x="70.53418012614794" y="-8.333333333333332" width="16.666666666666664" height="16.666666666666664" stroke="#000" stroke-opacity="0.02" fill="#222" fill-opacity="0.06333333333333334" stroke-width="1"></rect><rect x="-8.333333333333332" y="82.73502691896256" width="16.666666666666664" height="16.666666666666664" stroke="#000" stroke-opacity="0.02" fill="#222" fill-opacity="0.06333333333333334" stroke-width="1"></rect><rect x="70.53418012614794" y="82.73502691896256" width="16.666666666666664" height="16.666666666666664" stroke="#000" stroke-opacity="0.02" fill="#222" fill-opacity="0.06333333333333334" stroke-width="1"></rect><rect x="31.100423396407308" y="14.433756729740642" width="16.666666666666664" height="16.666666666666664" stroke="#000" stroke-opacity="0.02" fill="#222" fill-opacity="0.15" stroke-width="1"></rect><rect x="-8.333333333333332" y="37.200846792814616" width="16.666666666666664" height="16.666666666666664" stroke="#000" stroke-opacity="0.02" fill="#222" fill-opacity="0.028666666666666667" stroke-width="1"></rect><rect x="70.53418012614794" y="37.200846792814616" width="16.666666666666664" height="16.666666666666664" stroke="#000" stroke-opacity="0.02" fill="#222" fill-opacity="0.028666666666666667" stroke-width="1"></rect><rect x="31.100423396407308" y="59.96793685588859" width="16.666666666666664" height="16.666666666666664" stroke="#000" stroke-opacity="0.02" fill="#ddd" fill-opacity="0.10666666666666667" stroke-width="1"></rect><polyline points="0,0,14.433756729740642,8.333333333333332,0,16.666666666666664,0,0" stroke="#000" stroke-opacity="0.02" fill="#ddd" fill-opacity="0.02" stroke-width="1" transform="translate(8.333333333333332,-8.333333333333332) rotate(0,8.333333333333332,7.216878364870321)"></polyline><polyline points="0,0,14.433756729740642,8.333333333333332,0,16.666666666666664,0,0" stroke="#000" stroke-opacity="0.02" fill="#ddd" fill-opacity="0.02" stroke-width="1" transform="translate(8.333333333333332,99.40169358562922) rotate(0,8.333333333333332,7.216878364870321) scale(1,-1)"></polyline><polyline points="0,0,14.433756729740642,8.333333333333332,0,16.666666666666664,0,0" stroke="#000" stroke-opacity="0.02" fill="#ddd" fill-opacity="0.05466666666666667" stroke-width="1" transform="translate(70.53418012614794,-8.333333333333332) rotate(0,8.333333333333332,7.216878364870321) scale(-1,1)"></polyline><polyline points="0,0,14.433756729740642,8.333333333333332,0,16.666666666666664,0,0" stroke="#000" stroke-opacity="0.02" fill="#ddd" fill-opacity="0.05466666666666667" stroke-width="1" transform="translate(70.53418012614794,99.40169358562922) rotate(0,8.333333333333332,7.216878364870321) scale(-1,-1)"></polyline><polyline points="0,0,14.433756729740642,8.333333333333332,0,16.666666666666664,0,0" stroke="#000" stroke-opacity="0.02" fill="#222" fill-opacity="0.028666666666666667" stroke-width="1" transform="translate(47.767090063073965,14.433756729740642)"></polyline><polyline points="0,0,14.433756729740642,8.333333333333332,0,16.666666666666664,0,0" stroke="#000" stroke-opacity="0.02" fill="#ddd" fill-opacity="0.10666666666666667" stroke-width="1" transform="translate(31.100423396407304,14.433756729740642) scale(-1,1)"></polyline><polyline points="0,0,14.433756729740642,8.333333333333332,0,16.666666666666664,0,0" stroke="#000" stroke-opacity="0.02" fill="#222" fill-opacity="0.028666666666666667" stroke-width="1" transform="translate(47.767090063073965,76.63460352255525) scale(1,-1)"></polyline><polyline points="0,0,14.433756729740642,8.333333333333332,0,16.666666666666664,0,0" stroke="#000" stroke-opacity="0.02" fill="#222" fill-opacity="0.08066666666666666" stroke-width="1" transform="translate(31.100423396407304,76.63460352255525) scale(-1,-1)"></polyline><polyline points="0,0,14.433756729740642,8.333333333333332,0,16.666666666666664,0,0" stroke="#000" stroke-opacity="0.02" fill="#222" fill-opacity="0.046" stroke-width="1" transform="translate(8.333333333333332,37.200846792814616)"></polyline><polyline points="0,0,14.433756729740642,8.333333333333332,0,16.666666666666664,0,0" stroke="#000" stroke-opacity="0.02" fill="#ddd" fill-opacity="0.14133333333333334" stroke-width="1" transform="translate(70.53418012614794,37.200846792814616) scale(-1,1)"></polyline><rect x="0" y="0" width="16.666666666666664" height="16.666666666666664" stroke="#000" stroke-opacity="0.02" fill="#222" fill-opacity="0.11533333333333334" stroke-width="1" transform="translate(8.333333333333332,8.333333333333332) rotate(-30,0,0)"></rect><rect x="0" y="0" width="16.666666666666664" height="16.666666666666664" stroke="#000" stroke-opacity="0.02" fill="#ddd" fill-opacity="0.02" stroke-width="1" transform="scale(-1,1) translate(-70.53418012614794,8.333333333333332) rotate(-30,0,0)"></rect><rect x="0" y="0" width="16.666666666666664" height="16.666666666666664" stroke="#000" stroke-opacity="0.02" fill="#222" fill-opacity="0.028666666666666667" stroke-width="1" transform="translate(8.333333333333332,20.53418012614795) rotate(30,0,16.666666666666664)"></rect><rect x="0" y="0" width="16.666666666666664" height="16.666666666666664" stroke="#000" stroke-opacity="0.02" fill="#222" fill-opacity="0.15" stroke-width="1" transform="scale(-1,1) translate(-70.53418012614794,20.53418012614795) rotate(30,0,16.666666666666664)"></rect><rect x="0" y="0" width="16.666666666666664" height="16.666666666666664" stroke="#000" stroke-opacity="0.02" fill="#ddd" fill-opacity="0.05466666666666667" stroke-width="1" transform="scale(1,-1) translate(8.333333333333332,-70.53418012614793) rotate(30,0,16.666666666666664)"></rect><rect x="0" y="0" width="16.666666666666664" height="16.666666666666664" stroke="#000" stroke-opacity="0.02" fill="#ddd" fill-opacity="0.10666666666666667" stroke-width="1" transform="scale(-1,-1) translate(-70.53418012614794,-70.53418012614793) rotate(30,0,16.666666666666664)"></rect><rect x="0" y="0" width="16.666666666666664" height="16.666666666666664" stroke="#000" stroke-opacity="0.02" fill="#222" fill-opacity="0.13266666666666665" stroke-width="1" transform="scale(1,-1) translate(8.333333333333332,-82.73502691896256) rotate(-30,0,0)"></rect><rect x="0" y="0" width="16.666666666666664" height="16.666666666666664" stroke="#000" stroke-opacity="0.02" fill="#ddd" fill-opacity="0.05466666666666667" stroke-width="1" transform="scale(-1,-1) translate(-70.53418012614794,-82.73502691896256) rotate(-30,0,0)"></rect></svg>