<svg xmlns="http://www.w3.org/2000/svg" width="72" height="83"><rect x="0" y="0" width="100%" height="100%" fill="rgb(243,164,6)"></rect><polyline points="0,6.928203230275509,4,0,12,0,16,6.928203230275509,12,13.856406460551018,4,13.856406460551018,0,6.928203230275509" fill="#ddd" fill-opacity="0.02" stroke="#000" stroke-opacity="0.02" transform="translate(-8,-6.928203230275509)"></polyline><polyline points="0,6.928203230275509,4,0,12,0,16,6.928203230275509,12,13.856406460551018,4,13.856406460551018,0,6.928203230275509" fill="#ddd" fill-opacity="0.02" stroke="#000" stroke-opacity="0.02" transform="translate(64,-6.928203230275509)"></polyline><polyline points="0,6.928203230275509,4,0,12,0,16,6.928203230275509,12,13.856406460551018,4,13.856406460551018,0,6.928203230275509" fill="#ddd" fill-opacity="0.02" stroke="#000" stroke-opacity="0.02" transform="translate(-8,76.2102355330306)"></polyline><polyline points="0,6.928203230275509,4,0,12,0,16,6.928203230275509,12,13.856406460551018,4,13.856406460551018,0,6.928203230275509" fill="#ddd" fill-opacity="0.02" stroke="#000" stroke-opacity="0.02" transform="translate(64,76.2102355330306)"></polyline><polyline points="0,6.928203230275509,4,0,12,0,16,6.928203230275509,12,13.856406460551018,4,13.856406460551018,0,6.928203230275509" fill="#ddd" fill-opacity="0.02" stroke="#000" stroke-opacity="0.02" transform="translate(4,0)"></polyline><polyline points="0,6.928203230275509,4,0,12,0,16,6.928203230275509,12,13.856406460551018,4,13.856406460551018,0,6.928203230275509" fill="#ddd" fill-opacity="0.02" stroke="#000" stroke-opacity="0.02" transform="translate(4,83.13843876330611)"></polyline><polyline points="0,6.928203230275509,4,0,12,0,16,6.928203230275509,12,13.856406460551018,4,13.856406460551018,0,6.928203230275509" fill="#222" fill-opacity="0.028666666666666667" stroke="#000" stroke-opacity="0.02" transform="translate(16,-6.928203230275509)"></polyline><polyline points="0,6.928203230275509,4,0,12,0,16,6.928203230275509,12,13.856406460551018,4,13.856406460551018,0,6.928203230275509" fill="#222" fill-opacity="0.028666666666666667" stroke="#000" stroke-opacity="0.02" transform="translate(16,76.2102355330306)"></polyline><polyline points="0,6.928203230275509,4,0,12,0,16,6.928203230275509,12,13.856406460551018,4,13.856406460551018,0,6.928203230275509" fill="#ddd" fill-opacity="0.02" stroke="#000" stroke-opacity="0.02" transform="translate(28,0)"></polyline><polyline points="0,6.928203230275509,4,0,12,0,16,6.928203230275509,12,13.856406460551018,4,13.856406460551018,0,6.928203230275509" fill="#ddd" fill-opacity="0.02" stroke="#000" stroke-opacity="0.02" transform="translate(28,83.13843876330611)"></polyline><polyline points="0,6.928203230275509,4,0,12,0,16,6.928203230275509,12,13.856406460551018,4,13.856406460551018,0,6.928203230275509" fill="#222" fill-opacity="0.06333333333333334" stroke="#000" stroke-opacity="0.02" transform="translate(40,-6.928203230275509)"></polyline><polyline points="0,6.928203230275509,4,0,12,0,16,6.928203230275509,12,13.856406460551018,4,13.856406460551018,0,6.928203230275509" fill="#222" fill-opacity="0.06333333333333334" stroke="#000" stroke-opacity="0.02" transform="translate(40,76.2102355330306)"></polyline><polyline points="0,6.928203230275509,4,0,12,0,16,6.928203230275509,12,13.856406460551018,4,13.856406460551018,0,6.928203230275509" fill="#222" fill-opacity="0.046" stroke="#000" stroke-opacity="0.02" transform="translate(52,0)"></polyline><polyline points="0,6.928203230275509,4,0,12,0,16,6.928203230275509,12,13.856406460551018,4,13.856406460551018,0,6.928203230275509" fill="#222" fill-opacity="0.046" stroke="#000" stroke-opacity="0.02" transform="translate(52,83.13843876330611)"></polyline><polyline points="0,6.928203230275509,4,0,12,0,16,6.928203230275509,12,13.856406460551018,4,13.856406460551018,0,6.928203230275509" fill="#ddd" fill-opacity="0.05466666666666667" stroke="#000" stroke-opacity="0.02" transform="translate(-8,6.928203230275509)"></polyline><polyline points="0,6.928203230275509,4,0,12,0,16,6.928203230275509,12,13.856406460551018,4,13.856406460551018,0,6.928203230275509" fill="#ddd" fill-opacity="0.05466666666666667" stroke="#000" stroke-opacity="0.02" transform="translate(64,6.928203230275509)"></polyline><polyline points="0,6.928203230275509,4,0,12,0,16,6.928203230275509,12,13.856406460551018,4,13.856406460551018,0,6.928203230275509" fill="#ddd" fill-opacity="0.14133333333333334" stroke="#000" stroke-opacity="0.02" transform="translate(4,13.85640646055102)"></polyline><polyline points="0,6.928203230275509,4,0,12,0,16,6.928203230275509,12,13.856406460551018,4,13.856406460551018,0,6.928203230275509" fill="#222" fill-opacity="0.11533333333333334" stroke="#000" stroke-opacity="0.02" transform="translate(16,6.928203230275509)"></polyline><polyline points="0,6.928203230275509,4,0,12,0,16,6.928203230275509,12,13.856406460551018,4,13.856406460551018,0,6.928203230275509" fill="#222" fill-opacity="0.028666666666666667" stroke="#000" stroke-opacity="0.02" transform="translate(28,13.85640646055102)"></polyline><polyline points="0,6.928203230275509,4,0,12,0,16,6.928203230275509,12,13.856406460551018,4,13.856406460551018,0,6.928203230275509" fill="#ddd" fill-opacity="0.10666666666666667" stroke="#000" stroke-opacity="0.02" transform="translate(40,6.928203230275509)"></polyline><polyline points="0,6.928203230275509,4,0,12,0,16,6.928203230275509,12,13.856406460551018,4,13.856406460551018,0,6.928203230275509" fill="#ddd" fill-opacity="0.14133333333333334" stroke="#000" stroke-opacity="0.02" transform="translate(52,13.85640646055102)"></polyline><polyline points="0,6.928203230275509,4,0,12,0,16,6.928203230275509,12,13.856406460551018,4,13.856406460551018,0,6.928203230275509" fill="#222" fill-opacity="0.028666666666666667" stroke="#000" stroke-opacity="0.02" transform="translate(-8,20.784609690826528)"></polyline><polyline points="0,6.928203230275509,4,0,12,0,16,6.928203230275509,12,13.856406460551018,4,13.856406460551018,0,6.928203230275509" fill="#222" fill-opacity="0.028666666666666667" stroke="#000" stroke-opacity="0.02" transform="translate(64,20.784609690826528)"></polyline><polyline points="0,6.928203230275509,4,0,12,0,16,6.928203230275509,12,13.856406460551018,4,13.856406460551018,0,6.928203230275509" fill="#ddd" fill-opacity="0.12400000000000001" stroke="#000" stroke-opacity="0.02" transform="translate(4,27.712812921102035)"></polyline><polyline points="0,6.928203230275509,4,0,12,0,16,6.928203230275509,12,13.856406460551018,4,13.856406460551018,0,6.928203230275509" fill="#222" fill-opacity="0.11533333333333334" stroke="#000" stroke-opacity="0.02" transform="translate(16,20.784609690826528)"></polyline><polyline points="0,6.928203230275509,4,0,12,0,16,6.928203230275509,12,13.856406460551018,4,13.856406460551018,0,6.928203230275509" fill="#222" fill-opacity="0.046" stroke="#000" stroke-opacity="0.02" transform="translate(28,27.712812921102035)"></polyline><polyline points="0,6.928203230275509,4,0,12,0,16,6.928203230275509,12,13.856406460551018,4,13.856406460551018,0,6.928203230275509" fill="#ddd" fill-opacity="0.03733333333333333" stroke="#000" stroke-opacity="0.02" transform="translate(40,20.784609690826528)"></polyline><polyline points="0,6.928203230275509,4,0,12,0,16,6.928203230275509,12,13.856406460551018,4,13.856406460551018,0,6.928203230275509" fill="#222" fill-opacity="0.06333333333333334" stroke="#000" stroke-opacity="0.02" transform="translate(52,27.712812921102035)"></polyline><polyline points="0,6.928203230275509,4,0,12,0,16,6.928203230275509,12,13.856406460551018,4,13.856406460551018,0,6.928203230275509" fill="#ddd" fill-opacity="0.12400000000000001" stroke="#000" stroke-opacity="0.02" transform="translate(-8,34.64101615137755)"></polyline><polyline points="0,6.928203230275509,4,0,12,0,16,6.928203230275509,12,13.856406460551018,4,13.856406460551018,0,6.928203230275509" fill="#ddd" fill-opacity="0.12400000000000001" stroke="#000" stroke-opacity="0.02" transform="translate(64,34.64101615137755)"></polyline><polyline points="0,6.928203230275509,4,0,12,0,16,6.928203230275509,12,13.856406460551018,4,13.856406460551018,0,6.928203230275509" fill="#ddd" fill-opacity="0.12400000000000001" stroke="#000" stroke-opacity="0.02" transform="translate(4,41.569219381653056)"></polyline><polyline points="0,6.928203230275509,4,0,12,0,16,6.928203230275509,12,13.856406460551018,4,13.856406460551018,0,6.928203230275509" fill="#222" fill-opacity="0.06333333333333334" stroke="#000" stroke-opacity="0.02" transform="translate(16,34.64101615137755)"></polyline><polyline points="0,6.928203230275509,4,0,12,0,16,6.928203230275509,12,13.856406460551018,4,13.856406460551018,0,6.928203230275509" fill="#222" fill-opacity="0.08066666666666666" stroke="#000" stroke-opacity="0.02" transform="translate(28,41.569219381653056)"></polyline><polyline points="0,6.928203230275509,4,0,12,0,16,6.928203230275509,12,13.856406460551018,4,13.856406460551018,0,6.928203230275509" fill="#222" fill-opacity="0.098" stroke="#000" stroke-opacity="0.02" transform="translate(40,34.64101615137755)"></polyline><polyline points="0,6.928203230275509,4,0,12,0,16,6.928203230275509,12,13.856406460551018,4,13.856406460551018,0,6.928203230275509" fill="#222" fill-opacity="0.098" stroke="#000" stroke-opacity="0.02" transform="translate(52,41.569219381653056)"></polyline><polyline points="0,6.928203230275509,4,0,12,0,16,6.928203230275509,12,13.856406460551018,4,13.856406460551018,0,6.928203230275509" fill="#ddd" fill-opacity="0.07200000000000001" stroke="#000" stroke-opacity="0.02" transform="translate(-8,48.49742261192856)"></polyline><polyline points="0,6.928203230275509,4,0,12,0,16,6.928203230275509,12,13.856406460551018,4,13.856406460551018,0,6.928203230275509" fill="#ddd" fill-opacity="0.07200000000000001" stroke="#000" stroke-opacity="0.02" transform="translate(64,48.49742261192856)"></polyline><polyline points="0,6.928203230275509,4,0,12,0,16,6.928203230275509,12,13.856406460551018,4,13.856406460551018,0,6.928203230275509" fill="#222" fill-opacity="0.098" stroke="#000" stroke-opacity="0.02" transform="translate(4,55.42562584220407)"></polyline><polyline points="0,6.928203230275509,4,0,12,0,16,6.928203230275509,12,13.856406460551018,4,13.856406460551018,0,6.928203230275509" fill="#222" fill-opacity="0.13266666666666665" stroke="#000" stroke-opacity="0.02" transform="translate(16,48.49742261192856)"></polyline><polyline points="0,6.928203230275509,4,0,12,0,16,6.928203230275509,12,13.856406460551018,4,13.856406460551018,0,6.928203230275509" fill="#222" fill-opacity="0.06333333333333334" stroke="#000" stroke-opacity="0.02" transform="translate(28,55.42562584220407)"></polyline><polyline points="0,6.928203230275509,4,0,12,0,16,6.928203230275509,12,13.856406460551018,4,13.856406460551018,0,6.928203230275509" fill="#ddd" fill-opacity="0.02" stroke="#000" stroke-opacity="0.02" transform="translate(40,48.49742261192856)"></polyline><polyline points="0,6.928203230275509,4,0,12,0,16,6.928203230275509,12,13.856406460551018,4,13.856406460551018,0,6.928203230275509" fill="#222" fill-opacity="0.06333333333333334" stroke="#000" stroke-opacity="0.02" transform="translate(52,55.42562584220407)"></polyline><polyline points="0,6.928203230275509,4,0,12,0,16,6.928203230275509,12,13.856406460551018,4,13.856406460551018,0,6.928203230275509" fill="#ddd" fill-opacity="0.12400000000000001" stroke="#000" stroke-opacity="0.02" transform="translate(-8,62.35382907247958)"></polyline><polyline points="0,6.928203230275509,4,0,12,0,16,6.928203230275509,12,13.856406460551018,4,13.856406460551018,0,6.928203230275509" fill="#ddd" fill-opacity="0.12400000000000001" stroke="#000" stroke-opacity="0.02" transform="translate(64,62.35382907247958)"></polyline><polyline points="0,6.928203230275509,4,0,12,0,16,6.928203230275509,12,13.856406460551018,4,13.856406460551018,0,6.928203230275509" fill="#222" fill-opacity="0.06333333333333334" stroke="#000" stroke-opacity="0.02" transform="translate(4,69.28203230275508)"></polyline><polyline points="0,6.928203230275509,4,0,12,0,16,6.928203230275509,12,13.856406460551018,4,13.856406460551018,0,6.928203230275509" fill="#222" fill-opacity="0.098" stroke="#000" stroke-opacity="0.02" transform="translate(16,62.35382907247958)"></polyline><polyline points="0,6.928203230275509,4,0,12,0,16,6.928203230275509,12,13.856406460551018,4,13.856406460551018,0,6.928203230275509" fill="#ddd" fill-opacity="0.05466666666666667" stroke="#000" stroke-opacity="0.02" transform="translate(28,69.28203230275508)"></polyline><polyline points="0,6.928203230275509,4,0,12,0,16,6.928203230275509,12,13.856406460551018,4,13.856406460551018,0,6.928203230275509" fill="#ddd" fill-opacity="0.03733333333333333" stroke="#000" stroke-opacity="0.02" transform="translate(40,62.35382907247958)"></polyline><polyline points="0,6.928203230275509,4,0,12,0,16,6.928203230275509,12,13.856406460551018,4,13.856406460551018,0,6.928203230275509" fill="#ddd" fill-opacity="0.12400000000000001" stroke="#000" stroke-opacity="0.02" transform="translate(52,69.28203230275508)"></polyline></svg>