<svg xmlns="http://www.w3.org/2000/svg" width="84" height="84"><rect x="0" y="0" width="100%" height="100%" fill="rgb(0,249,224)"></rect><g fill="#ddd" opacity="0.02" transform="translate(-14.145,-14.145) rotate(45,14.145,14.145)"><rect x="10" y="0" width="10" height="30"></rect><rect x="0" y="10" width="30" height="10"></rect></g><g fill="#ddd" opacity="0.02" transform="translate(70.72500000000001,-14.145) rotate(45,14.145,14.145)"><rect x="10" y="0" width="10" height="30"></rect><rect x="0" y="10" width="30" height="10"></rect></g><g fill="#ddd" opacity="0.02" transform="translate(-14.145,70.725) rotate(45,14.145,14.145)"><rect x="10" y="0" width="10" height="30"></rect><rect x="0" y="10" width="30" height="10"></rect></g><g fill="#ddd" opacity="0.02" transform="translate(70.72500000000001,70.725) rotate(45,14.145,14.145)"><rect x="10" y="0" width="10" height="30"></rect><rect x="0" y="10" width="30" height="10"></rect></g><g fill="#222" opacity="0.15" transform="translate(0,-7.0725) rotate(45,14.145,14.145)"><rect x="10" y="0" width="10" height="30"></rect><rect x="0" y="10" width="30" height="10"></rect></g><g fill="#222" opacity="0.15" transform="translate(0,77.79749999999999) rotate(45,14.145,14.145)"><rect x="10" y="0" width="10" height="30"></rect><rect x="0" y="10" width="30" height="10"></rect></g><g fill="#222" opacity="0.15" transform="translate(14.145,-14.145) rotate(45,14.145,14.145)"><rect x="10" y="0" width="10" height="30"></rect><rect x="0" y="10" width="30" height="10"></rect></g><g fill="#222" opacity="0.15" transform="translate(14.145,70.725) rotate(45,14.145,14.145)"><rect x="10" y="0" width="10" height="30"></rect><rect x="0" y="10" width="30" height="10"></rect></g><g fill="#ddd" opacity="0.14133333333333334" transform="translate(28.290000000000003,-7.0725) rotate(45,14.145,14.145)"><rect x="10" y="0" width="10" height="30"></rect><rect x="0" y="10" width="30" height="10"></rect></g><g fill="#ddd" opacity="0.14133333333333334" transform="translate(28.290000000000003,77.79749999999999) rotate(45,14.145,14.145)"><rect x="10" y="0" width="10" height="30"></rect><rect x="0" y="10" width="30" height="10"></rect></g><g fill="#ddd" opacity="0.07200000000000001" transform="translate(42.435,-14.145) rotate(45,14.145,14.145)"><rect x="10" y="0" width="10" height="30"></rect><rect x="0" y="10" width="30" height="10"></rect></g><g fill="#ddd" opacity="0.07200000000000001" transform="translate(42.435,70.725) rotate(45,14.145,14.145)"><rect x="10" y="0" width="10" height="30"></rect><rect x="0" y="10" width="30" height="10"></rect></g><g fill="#ddd" opacity="0.12400000000000001" transform="translate(56.58,-7.0725) rotate(45,14.145,14.145)"><rect x="10" y="0" width="10" height="30"></rect><rect x="0" y="10" width="30" height="10"></rect></g><g fill="#ddd" opacity="0.12400000000000001" transform="translate(56.58,77.79749999999999) rotate(45,14.145,14.145)"><rect x="10" y="0" width="10" height="30"></rect><rect x="0" y="10" width="30" height="10"></rect></g><g fill="#222" opacity="0.046" transform="translate(-14.145,0) rotate(45,14.145,14.145)"><rect x="10" y="0" width="10" height="30"></rect><rect x="0" y="10" width="30" height="10"></rect></g><g fill="#222" opacity="0.046" transform="translate(70.72500000000001,0) rotate(45,14.145,14.145)"><rect x="10" y="0" width="10" height="30"></rect><rect x="0" y="10" width="30" height="10"></rect></g><g fill="#ddd" opacity="0.14133333333333334" transform="translate(0,7.072500000000002) rotate(45,14.145,14.145)"><rect x="10" y="0" width="10" height="30"></rect><rect x="0" y="10" width="30" height="10"></rect></g><g fill="#222" opacity="0.028666666666666667" transform="translate(14.145,0) rotate(45,14.145,14.145)"><rect x="10" y="0" width="10" height="30"></rect><rect x="0" y="10" width="30" height="10"></rect></g><g fill="#222" opacity="0.15" transform="translate(28.290000000000003,7.072500000000002) rotate(45,14.145,14.145)"><rect x="10" y="0" width="10" height="30"></rect><rect x="0" y="10" width="30" height="10"></rect></g><g fill="#ddd" opacity="0.05466666666666667" transform="translate(42.435,0) rotate(45,14.145,14.145)"><rect x="10" y="0" width="10" height="30"></rect><rect x="0" y="10" width="30" height="10"></rect></g><g fill="#222" opacity="0.046" transform="translate(56.58,7.072500000000002) rotate(45,14.145,14.145)"><rect x="10" y="0" width="10" height="30"></rect><rect x="0" y="10" width="30" height="10"></rect></g><g fill="#222" opacity="0.15" transform="translate(-14.145,14.145000000000003) rotate(45,14.145,14.145)"><rect x="10" y="0" width="10" height="30"></rect><rect x="0" y="10" width="30" height="10"></rect></g><g fill="#222" opacity="0.15" transform="translate(70.72500000000001,14.145000000000003) rotate(45,14.145,14.145)"><rect x="10" y="0" width="10" height="30"></rect><rect x="0" y="10" width="30" height="10"></rect></g><g fill="#222" opacity="0.098" transform="translate(0,21.2175) rotate(45,14.145,14.145)"><rect x="10" y="0" width="10" height="30"></rect><rect x="0" y="10" width="30" height="10"></rect></g><g fill="#222" opacity="0.06333333333333334" transform="translate(14.145,14.145000000000003) rotate(45,14.145,14.145)"><rect x="10" y="0" width="10" height="30"></rect><rect x="0" y="10" width="30" height="10"></rect></g><g fill="#222" opacity="0.046" transform="translate(28.290000000000003,21.2175) rotate(45,14.145,14.145)"><rect x="10" y="0" width="10" height="30"></rect><rect x="0" y="10" width="30" height="10"></rect></g><g fill="#222" opacity="0.11533333333333334" transform="translate(42.435,14.145000000000003) rotate(45,14.145,14.145)"><rect x="10" y="0" width="10" height="30"></rect><rect x="0" y="10" width="30" height="10"></rect></g><g fill="#ddd" opacity="0.12400000000000001" transform="translate(56.58,21.2175) rotate(45,14.145,14.145)"><rect x="10" y="0" width="10" height="30"></rect><rect x="0" y="10" width="30" height="10"></rect></g><g fill="#222" opacity="0.15" transform="translate(-14.145,28.290000000000006) rotate(45,14.145,14.145)"><rect x="10" y="0" width="10" height="30"></rect><rect x="0" y="10" width="30" height="10"></rect></g><g fill="#222" opacity="0.15" transform="translate(70.72500000000001,28.290000000000006) rotate(45,14.145,14.145)"><rect x="10" y="0" width="10" height="30"></rect><rect x="0" y="10" width="30" height="10"></rect></g><g fill="#ddd" opacity="0.14133333333333334" transform="translate(0,35.36250000000001) rotate(45,14.145,14.145)"><rect x="10" y="0" width="10" height="30"></rect><rect x="0" y="10" width="30" height="10"></rect></g><g fill="#222" opacity="0.046" transform="translate(14.145,28.290000000000006) rotate(45,14.145,14.145)"><rect x="10" y="0" width="10" height="30"></rect><rect x="0" y="10" width="30" height="10"></rect></g><g fill="#ddd" opacity="0.10666666666666667" transform="translate(28.290000000000003,35.36250000000001) rotate(45,14.145,14.145)"><rect x="10" y="0" width="10" height="30"></rect><rect x="0" y="10" width="30" height="10"></rect></g><g fill="#222" opacity="0.06333333333333334" transform="translate(42.435,28.290000000000006) rotate(45,14.145,14.145)"><rect x="10" y="0" width="10" height="30"></rect><rect x="0" y="10" width="30" height="10"></rect></g><g fill="#ddd" opacity="0.10666666666666667" transform="translate(56.58,35.36250000000001) rotate(45,14.145,14.145)"><rect x="10" y="0" width="10" height="30"></rect><rect x="0" y="10" width="30" height="10"></rect></g><g fill="#222" opacity="0.13266666666666665" transform="translate(-14.145,42.435) rotate(45,14.145,14.145)"><rect x="10" y="0" width="10" height="30"></rect><rect x="0" y="10" width="30" height="10"></rect></g><g fill="#222" opacity="0.13266666666666665" transform="translate(70.72500000000001,42.435) rotate(45,14.145,14.145)"><rect x="10" y="0" width="10" height="30"></rect><rect x="0" y="10" width="30" height="10"></rect></g><g fill="#222" opacity="0.11533333333333334" transform="translate(0,49.50750000000001) rotate(45,14.145,14.145)"><rect x="10" y="0" width="10" height="30"></rect><rect x="0" y="10" width="30" height="10"></rect></g><g fill="#222" opacity="0.06333333333333334" transform="translate(14.145,42.435) rotate(45,14.145,14.145)"><rect x="10" y="0" width="10" height="30"></rect><rect x="0" y="10" width="30" height="10"></rect></g><g fill="#ddd" opacity="0.02" transform="translate(28.290000000000003,49.50750000000001) rotate(45,14.145,14.145)"><rect x="10" y="0" width="10" height="30"></rect><rect x="0" y="10" width="30" height="10"></rect></g><g fill="#222" opacity="0.08066666666666666" transform="translate(42.435,42.435) rotate(45,14.145,14.145)"><rect x="10" y="0" width="10" height="30"></rect><rect x="0" y="10" width="30" height="10"></rect></g><g fill="#222" opacity="0.06333333333333334" transform="translate(56.58,49.50750000000001) rotate(45,14.145,14.145)"><rect x="10" y="0" width="10" height="30"></rect><rect x="0" y="10" width="30" height="10"></rect></g><g fill="#222" opacity="0.098" transform="translate(-14.145,56.58) rotate(45,14.145,14.145)"><rect x="10" y="0" width="10" height="30"></rect><rect x="0" y="10" width="30" height="10"></rect></g><g fill="#222" opacity="0.098" transform="translate(70.72500000000001,56.58) rotate(45,14.145,14.145)"><rect x="10" y="0" width="10" height="30"></rect><rect x="0" y="10" width="30" height="10"></rect></g><g fill="#222" opacity="0.098" transform="translate(-14.145,-28.290000000000006) rotate(45,14.145,14.145)"><rect x="10" y="0" width="10" height="30"></rect><rect x="0" y="10" width="30" height="10"></rect></g><g fill="#222" opacity="0.11533333333333334" transform="translate(0,63.6525) rotate(45,14.145,14.145)"><rect x="10" y="0" width="10" height="30"></rect><rect x="0" y="10" width="30" height="10"></rect></g><g fill="#222" opacity="0.11533333333333334" transform="translate(0,-21.2175) rotate(45,14.145,14.145)"><rect x="10" y="0" width="10" height="30"></rect><rect x="0" y="10" width="30" height="10"></rect></g><g fill="#222" opacity="0.06333333333333334" transform="translate(14.145,56.58) rotate(45,14.145,14.145)"><rect x="10" y="0" width="10" height="30"></rect><rect x="0" y="10" width="30" height="10"></rect></g><g fill="#222" opacity="0.06333333333333334" transform="translate(14.145,-28.290000000000006) rotate(45,14.145,14.145)"><rect x="10" y="0" width="10" height="30"></rect><rect x="0" y="10" width="30" height="10"></rect></g><g fill="#222" opacity="0.098" transform="translate(28.290000000000003,63.6525) rotate(45,14.145,14.145)"><rect x="10" y="0" width="10" height="30"></rect><rect x="0" y="10" width="30" height="10"></rect></g><g fill="#222" opacity="0.098" transform="translate(28.290000000000003,-21.2175) rotate(45,14.145,14.145)"><rect x="10" y="0" width="10" height="30"></rect><rect x="0" y="10" width="30" height="10"></rect></g><g fill="#222" opacity="0.046" transform="translate(42.435,56.58) rotate(45,14.145,14.145)"><rect x="10" y="0" width="10" height="30"></rect><rect x="0" y="10" width="30" height="10"></rect></g><g fill="#222" opacity="0.046" transform="translate(42.435,-28.290000000000006) rotate(45,14.145,14.145)"><rect x="10" y="0" width="10" height="30"></rect><rect x="0" y="10" width="30" height="10"></rect></g><g fill="#ddd" opacity="0.08933333333333333" transform="translate(56.58,63.6525) rotate(45,14.145,14.145)"><rect x="10" y="0" width="10" height="30"></rect><rect x="0" y="10" width="30" height="10"></rect></g><g fill="#ddd" opacity="0.08933333333333333" transform="translate(56.58,-21.2175) rotate(45,14.145,14.145)"><rect x="10" y="0" width="10" height="30"></rect><rect x="0" y="10" width="30" height="10"></rect></g></svg>