<svg xmlns="http://www.w3.org/2000/svg" width="213" height="213"><rect x="0" y="0" width="100%" height="100%" fill="rgb(47,200,128)"></rect><polyline points="0,0,26.666666666666664,26.666666666666664,0,26.666666666666664,0,0" stroke="#000" stroke-opacity="0.02" fill-opacity="0.06333333333333334" fill="#222" transform="translate(0,26.666666666666664) scale(1,-1)"></polyline><polyline points="0,0,26.666666666666664,26.666666666666664,0,26.666666666666664,0,0" stroke="#000" stroke-opacity="0.02" fill-opacity="0.06333333333333334" fill="#222" transform="translate(53.33333333333333,26.666666666666664) scale(-1,-1)"></polyline><polyline points="0,0,26.666666666666664,26.666666666666664,0,26.666666666666664,0,0" stroke="#000" stroke-opacity="0.02" fill-opacity="0.06333333333333334" fill="#222" transform="translate(0,26.666666666666664) scale(1,1)"></polyline><polyline points="0,0,26.666666666666664,26.666666666666664,0,26.666666666666664,0,0" stroke="#000" stroke-opacity="0.02" fill-opacity="0.06333333333333334" fill="#222" transform="translate(53.33333333333333,26.666666666666664) scale(-1,1)"></polyline><polyline points="0,0,26.666666666666664,26.666666666666664,0,26.666666666666664,0,0" stroke="#000" stroke-opacity="0.02" fill-opacity="0.12400000000000001" fill="#ddd" transform="translate(80,0) scale(-1,1)"></polyline><polyline points="0,0,26.666666666666664,26.666666666666664,0,26.666666666666664,0,0" stroke="#000" stroke-opacity="0.02" fill-opacity="0.12400000000000001" fill="#ddd" transform="translate(80,53.33333333333333) scale(1,-1)"></polyline><polyline points="0,0,26.666666666666664,26.666666666666664,0,26.666666666666664,0,0" stroke="#000" stroke-opacity="0.02" fill-opacity="0.028666666666666667" fill="#222" transform="translate(80,53.33333333333333) scale(-1,-1)"></polyline><polyline points="0,0,26.666666666666664,26.666666666666664,0,26.666666666666664,0,0" stroke="#000" stroke-opacity="0.02" fill-opacity="0.028666666666666667" fill="#222" transform="translate(80,0) scale(1,1)"></polyline><polyline points="0,0,26.666666666666664,26.666666666666664,0,26.666666666666664,0,0" stroke="#000" stroke-opacity="0.02" fill-opacity="0.028666666666666667" fill="#222" transform="translate(106.66666666666666,26.666666666666664) scale(1,-1)"></polyline><polyline points="0,0,26.666666666666664,26.666666666666664,0,26.666666666666664,0,0" stroke="#000" stroke-opacity="0.02" fill-opacity="0.028666666666666667" fill="#222" transform="translate(160,26.666666666666664) scale(-1,-1)"></polyline><polyline points="0,0,26.666666666666664,26.666666666666664,0,26.666666666666664,0,0" stroke="#000" stroke-opacity="0.02" fill-opacity="0.028666666666666667" fill="#222" transform="translate(106.66666666666666,26.666666666666664) scale(1,1)"></polyline><polyline points="0,0,26.666666666666664,26.666666666666664,0,26.666666666666664,0,0" stroke="#000" stroke-opacity="0.02" fill-opacity="0.028666666666666667" fill="#222" transform="translate(160,26.666666666666664) scale(-1,1)"></polyline><polyline points="0,0,26.666666666666664,26.666666666666664,0,26.666666666666664,0,0" stroke="#000" stroke-opacity="0.02" fill-opacity="0.08066666666666666" fill="#222" transform="translate(186.66666666666666,0) scale(-1,1)"></polyline><polyline points="0,0,26.666666666666664,26.666666666666664,0,26.666666666666664,0,0" stroke="#000" stroke-opacity="0.02" fill-opacity="0.08066666666666666" fill="#222" transform="translate(186.66666666666666,53.33333333333333) scale(1,-1)"></polyline><polyline points="0,0,26.666666666666664,26.666666666666664,0,26.666666666666664,0,0" stroke="#000" stroke-opacity="0.02" fill-opacity="0.15" fill="#222" transform="translate(186.66666666666666,53.33333333333333) scale(-1,-1)"></polyline><polyline points="0,0,26.666666666666664,26.666666666666664,0,26.666666666666664,0,0" stroke="#000" stroke-opacity="0.02" fill-opacity="0.15" fill="#222" transform="translate(186.66666666666666,0) scale(1,1)"></polyline><polyline points="0,0,26.666666666666664,26.666666666666664,0,26.666666666666664,0,0" stroke="#000" stroke-opacity="0.02" fill-opacity="0.15" fill="#222" transform="translate(26.666666666666664,53.33333333333333) scale(-1,1)"></polyline><polyline points="0,0,26.666666666666664,26.666666666666664,0,26.666666666666664,0,0" stroke="#000" stroke-opacity="0.02" fill-opacity="0.15" fill="#222" transform="translate(26.666666666666664,106.66666666666666) scale(1,-1)"></polyline><polyline points="0,0,26.666666666666664,26.666666666666664,0,26.666666666666664,0,0" stroke="#000" stroke-opacity="0.02" fill-opacity="0.10666666666666667" fill="#ddd" transform="translate(26.666666666666664,106.66666666666666) scale(-1,-1)"></polyline><polyline points="0,0,26.666666666666664,26.666666666666664,0,26.666666666666664,0,0" stroke="#000" stroke-opacity="0.02" fill-opacity="0.10666666666666667" fill="#ddd" transform="translate(26.666666666666664,53.33333333333333) scale(1,1)"></polyline><polyline points="0,0,26.666666666666664,26.666666666666664,0,26.666666666666664,0,0" stroke="#000" stroke-opacity="0.02" fill-opacity="0.10666666666666667" fill="#ddd" transform="translate(53.33333333333333,80) scale(1,-1)"></polyline><polyline points="0,0,26.666666666666664,26.666666666666664,0,26.666666666666664,0,0" stroke="#000" stroke-opacity="0.02" fill-opacity="0.10666666666666667" fill="#ddd" transform="translate(106.66666666666666,80) scale(-1,-1)"></polyline><polyline points="0,0,26.666666666666664,26.666666666666664,0,26.666666666666664,0,0" stroke="#000" stroke-opacity="0.02" fill-opacity="0.10666666666666667" fill="#ddd" transform="translate(53.33333333333333,80) scale(1,1)"></polyline><polyline points="0,0,26.666666666666664,26.666666666666664,0,26.666666666666664,0,0" stroke="#000" stroke-opacity="0.02" fill-opacity="0.10666666666666667" fill="#ddd" transform="translate(106.66666666666666,80) scale(-1,1)"></polyline><polyline points="0,0,26.666666666666664,26.666666666666664,0,26.666666666666664,0,0" stroke="#000" stroke-opacity="0.02" fill-opacity="0.02" fill="#ddd" transform="translate(133.33333333333331,53.33333333333333) scale(-1,1)"></polyline><polyline points="0,0,26.666666666666664,26.666666666666664,0,26.666666666666664,0,0" stroke="#000" stroke-opacity="0.02" fill-opacity="0.02" fill="#ddd" transform="translate(133.33333333333331,106.66666666666666) scale(1,-1)"></polyline><polyline points="0,0,26.666666666666664,26.666666666666664,0,26.666666666666664,0,0" stroke="#000" stroke-opacity="0.02" fill-opacity="0.046" fill="#222" transform="translate(133.33333333333331,106.66666666666666) scale(-1,-1)"></polyline><polyline points="0,0,26.666666666666664,26.666666666666664,0,26.666666666666664,0,0" stroke="#000" stroke-opacity="0.02" fill-opacity="0.046" fill="#222" transform="translate(133.33333333333331,53.33333333333333) scale(1,1)"></polyline><polyline points="0,0,26.666666666666664,26.666666666666664,0,26.666666666666664,0,0" stroke="#000" stroke-opacity="0.02" fill-opacity="0.046" fill="#222" transform="translate(160,80) scale(1,-1)"></polyline><polyline points="0,0,26.666666666666664,26.666666666666664,0,26.666666666666664,0,0" stroke="#000" stroke-opacity="0.02" fill-opacity="0.046" fill="#222" transform="translate(213.33333333333331,80) scale(-1,-1)"></polyline><polyline points="0,0,26.666666666666664,26.666666666666664,0,26.666666666666664,0,0" stroke="#000" stroke-opacity="0.02" fill-opacity="0.046" fill="#222" transform="translate(160,80) scale(1,1)"></polyline><polyline points="0,0,26.666666666666664,26.666666666666664,0,26.666666666666664,0,0" stroke="#000" stroke-opacity="0.02" fill-opacity="0.046" fill="#222" transform="translate(213.33333333333331,80) scale(-1,1)"></polyline><polyline points="0,0,26.666666666666664,26.666666666666664,0,26.666666666666664,0,0" stroke="#000" stroke-opacity="0.02" fill-opacity="0.14133333333333334" fill="#ddd" transform="translate(0,133.33333333333331) scale(1,-1)"></polyline><polyline points="0,0,26.666666666666664,26.666666666666664,0,26.666666666666664,0,0" stroke="#000" stroke-opacity="0.02" fill-opacity="0.14133333333333334" fill="#ddd" transform="translate(53.33333333333333,133.33333333333331) scale(-1,-1)"></polyline><polyline points="0,0,26.666666666666664,26.666666666666664,0,26.666666666666664,0,0" stroke="#000" stroke-opacity="0.02" fill-opacity="0.14133333333333334" fill="#ddd" transform="translate(0,133.33333333333331) scale(1,1)"></polyline><polyline points="0,0,26.666666666666664,26.666666666666664,0,26.666666666666664,0,0" stroke="#000" stroke-opacity="0.02" fill-opacity="0.14133333333333334" fill="#ddd" transform="translate(53.33333333333333,133.33333333333331) scale(-1,1)"></polyline><polyline points="0,0,26.666666666666664,26.666666666666664,0,26.666666666666664,0,0" stroke="#000" stroke-opacity="0.02" fill-opacity="0.07200000000000001" fill="#ddd" transform="translate(80,106.66666666666666) scale(-1,1)"></polyline><polyline points="0,0,26.666666666666664,26.666666666666664,0,26.666666666666664,0,0" stroke="#000" stroke-opacity="0.02" fill-opacity="0.07200000000000001" fill="#ddd" transform="translate(80,160) scale(1,-1)"></polyline><polyline points="0,0,26.666666666666664,26.666666666666664,0,26.666666666666664,0,0" stroke="#000" stroke-opacity="0.02" fill-opacity="0.13266666666666665" fill="#222" transform="translate(80,160) scale(-1,-1)"></polyline><polyline points="0,0,26.666666666666664,26.666666666666664,0,26.666666666666664,0,0" stroke="#000" stroke-opacity="0.02" fill-opacity="0.13266666666666665" fill="#222" transform="translate(80,106.66666666666666) scale(1,1)"></polyline><polyline points="0,0,26.666666666666664,26.666666666666664,0,26.666666666666664,0,0" stroke="#000" stroke-opacity="0.02" fill-opacity="0.13266666666666665" fill="#222" transform="translate(106.66666666666666,133.33333333333331) scale(1,-1)"></polyline><polyline points="0,0,26.666666666666664,26.666666666666664,0,26.666666666666664,0,0" stroke="#000" stroke-opacity="0.02" fill-opacity="0.13266666666666665" fill="#222" transform="translate(160,133.33333333333331) scale(-1,-1)"></polyline><polyline points="0,0,26.666666666666664,26.666666666666664,0,26.666666666666664,0,0" stroke="#000" stroke-opacity="0.02" fill-opacity="0.13266666666666665" fill="#222" transform="translate(106.66666666666666,133.33333333333331) scale(1,1)"></polyline><polyline points="0,0,26.666666666666664,26.666666666666664,0,26.666666666666664,0,0" stroke="#000" stroke-opacity="0.02" fill-opacity="0.13266666666666665" fill="#222" transform="translate(160,133.33333333333331) scale(-1,1)"></polyline><polyline points="0,0,26.666666666666664,26.666666666666664,0,26.666666666666664,0,0" stroke="#000" stroke-opacity="0.02" fill-opacity="0.06333333333333334" fill="#222" transform="translate(186.66666666666666,106.66666666666666) scale(-1,1)"></polyline><polyline points="0,0,26.666666666666664,26.666666666666664,0,26.666666666666664,0,0" stroke="#000" stroke-opacity="0.02" fill-opacity="0.06333333333333334" fill="#222" transform="translate(186.66666666666666,160) scale(1,-1)"></polyline><polyline points="0,0,26.666666666666664,26.666666666666664,0,26.666666666666664,0,0" stroke="#000" stroke-opacity="0.02" fill-opacity="0.15" fill="#222" transform="translate(186.66666666666666,160) scale(-1,-1)"></polyline><polyline points="0,0,26.666666666666664,26.666666666666664,0,26.666666666666664,0,0" stroke="#000" stroke-opacity="0.02" fill-opacity="0.15" fill="#222" transform="translate(186.66666666666666,106.66666666666666) scale(1,1)"></polyline><polyline points="0,0,26.666666666666664,26.666666666666664,0,26.666666666666664,0,0" stroke="#000" stroke-opacity="0.02" fill-opacity="0.15" fill="#222" transform="translate(26.666666666666664,160) scale(-1,1)"></polyline><polyline points="0,0,26.666666666666664,26.666666666666664,0,26.666666666666664,0,0" stroke="#000" stroke-opacity="0.02" fill-opacity="0.15" fill="#222" transform="translate(26.666666666666664,213.33333333333331) scale(1,-1)"></polyline><polyline points="0,0,26.666666666666664,26.666666666666664,0,26.666666666666664,0,0" stroke="#000" stroke-opacity="0.02" fill-opacity="0.12400000000000001" fill="#ddd" transform="translate(26.666666666666664,213.33333333333331) scale(-1,-1)"></polyline><polyline points="0,0,26.666666666666664,26.666666666666664,0,26.666666666666664,0,0" stroke="#000" stroke-opacity="0.02" fill-opacity="0.12400000000000001" fill="#ddd" transform="translate(26.666666666666664,160) scale(1,1)"></polyline><polyline points="0,0,26.666666666666664,26.666666666666664,0,26.666666666666664,0,0" stroke="#000" stroke-opacity="0.02" fill-opacity="0.12400000000000001" fill="#ddd" transform="translate(53.33333333333333,186.66666666666666) scale(1,-1)"></polyline><polyline points="0,0,26.666666666666664,26.666666666666664,0,26.666666666666664,0,0" stroke="#000" stroke-opacity="0.02" fill-opacity="0.12400000000000001" fill="#ddd" transform="translate(106.66666666666666,186.66666666666666) scale(-1,-1)"></polyline><polyline points="0,0,26.666666666666664,26.666666666666664,0,26.666666666666664,0,0" stroke="#000" stroke-opacity="0.02" fill-opacity="0.12400000000000001" fill="#ddd" transform="translate(53.33333333333333,186.66666666666666) scale(1,1)"></polyline><polyline points="0,0,26.666666666666664,26.666666666666664,0,26.666666666666664,0,0" stroke="#000" stroke-opacity="0.02" fill-opacity="0.12400000000000001" fill="#ddd" transform="translate(106.66666666666666,186.66666666666666) scale(-1,1)"></polyline><polyline points="0,0,26.666666666666664,26.666666666666664,0,26.666666666666664,0,0" stroke="#000" stroke-opacity="0.02" fill-opacity="0.03733333333333333" fill="#ddd" transform="translate(133.33333333333331,160) scale(-1,1)"></polyline><polyline points="0,0,26.666666666666664,26.666666666666664,0,26.666666666666664,0,0" stroke="#000" stroke-opacity="0.02" fill-opacity="0.03733333333333333" fill="#ddd" transform="translate(133.33333333333331,213.33333333333331) scale(1,-1)"></polyline><polyline points="0,0,26.666666666666664,26.666666666666664,0,26.666666666666664,0,0" stroke="#000" stroke-opacity="0.02" fill-opacity="0.05466666666666667" fill="#ddd" transform="translate(133.33333333333331,213.33333333333331) scale(-1,-1)"></polyline><polyline points="0,0,26.666666666666664,26.666666666666664,0,26.666666666666664,0,0" stroke="#000" stroke-opacity="0.02" fill-opacity="0.05466666666666667" fill="#ddd" transform="translate(133.33333333333331,160) scale(1,1)"></polyline><polyline points="0,0,26.666666666666664,26.666666666666664,0,26.666666666666664,0,0" stroke="#000" stroke-opacity="0.02" fill-opacity="0.05466666666666667" fill="#ddd" transform="translate(160,186.66666666666666) scale(1,-1)"></polyline><polyline points="0,0,26.666666666666664,26.666666666666664,0,26.666666666666664,0,0" stroke="#000" stroke-opacity="0.02" fill-opacity="0.05466666666666667" fill="#ddd" transform="translate(213.33333333333331,186.66666666666666) scale(-1,-1)"></polyline><polyline points="0,0,26.666666666666664,26.666666666666664,0,26.666666666666664,0,0" stroke="#000" stroke-opacity="0.02" fill-opacity="0.05466666666666667" fill="#ddd" transform="translate(160,186.66666666666666) scale(1,1)"></polyline><polyline points="0,0,26.666666666666664,26.666666666666664,0,26.666666666666664,0,0" stroke="#000" stroke-opacity="0.02" fill-opacity="0.05466666666666667" fill="#ddd" transform="translate(213.33333333333331,186.66666666666666) scale(-1,1)"></polyline></svg>