<svg xmlns="http://www.w3.org/2000/svg" width="160" height="360"><rect x="0" y="0" width="100%" height="100%" fill="rgb(197,50,68)"></rect><path d="M0 76 C 28 0, 52 0, 80 76 S 132 152, 160 76 S 212 0, 240, 76" fill="none" stroke="#222" opacity="0.046" stroke-width="10px" transform="translate(-40,-114)"></path><path d="M0 76 C 28 0, 52 0, 80 76 S 132 152, 160 76 S 212 0, 240, 76" fill="none" stroke="#222" opacity="0.046" stroke-width="10px" transform="translate(-40,246)"></path><path d="M0 76 C 28 0, 52 0, 80 76 S 132 152, 160 76 S 212 0, 240, 76" fill="none" stroke="#ddd" opacity="0.10666666666666667" stroke-width="10px" transform="translate(-40,-104)"></path><path d="M0 76 C 28 0, 52 0, 80 76 S 132 152, 160 76 S 212 0, 240, 76" fill="none" stroke="#ddd" opacity="0.10666666666666667" stroke-width="10px" transform="translate(-40,256)"></path><path d="M0 76 C 28 0, 52 0, 80 76 S 132 152, 160 76 S 212 0, 240, 76" fill="none" stroke="#ddd" opacity="0.05466666666666667" stroke-width="10px" transform="translate(-40,-94)"></path><path d="M0 76 C 28 0, 52 0, 80 76 S 132 152, 160 76 S 212 0, 240, 76" fill="none" stroke="#ddd" opacity="0.05466666666666667" stroke-width="10px" transform="translate(-40,266)"></path><path d="M0 76 C 28 0, 52 0, 80 76 S 132 152, 160 76 S 212 0, 240, 76" fill="none" stroke="#ddd" opacity="0.02" stroke-width="10px" transform="translate(-40,-84)"></path><path d="M0 76 C 28 0, 52 0, 80 76 S 132 152, 160 76 S 212 0, 240, 76" fill="none" stroke="#ddd" opacity="0.02" stroke-width="10px" transform="translate(-40,276)"></path><path d="M0 76 C 28 0, 52 0, 80 76 S 132 152, 160 76 S 212 0, 240, 76" fill="none" stroke="#ddd" opacity="0.07200000000000001" stroke-width="10px" transform="translate(-40,-74)"></path><path d="M0 76 C 28 0, 52 0, 80 76 S 132 152, 160 76 S 212 0, 240, 76" fill="none" stroke="#ddd" opacity="0.07200000000000001" stroke-width="10px" transform="translate(-40,286)"></path><path d="M0 76 C 28 0, 52 0, 80 76 S 132 152, 160 76 S 212 0, 240, 76" fill="none" stroke="#222" opacity="0.11533333333333334" stroke-width="10px" transform="translate(-40,-64)"></path><path d="M0 76 C 28 0, 52 0, 80 76 S 132 152, 160 76 S 212 0, 240, 76" fill="none" stroke="#222" opacity="0.11533333333333334" stroke-width="10px" transform="translate(-40,296)"></path><path d="M0 76 C 28 0, 52 0, 80 76 S 132 152, 160 76 S 212 0, 240, 76" fill="none" stroke="#ddd" opacity="0.07200000000000001" stroke-width="10px" transform="translate(-40,-54)"></path><path d="M0 76 C 28 0, 52 0, 80 76 S 132 152, 160 76 S 212 0, 240, 76" fill="none" stroke="#ddd" opacity="0.07200000000000001" stroke-width="10px" transform="translate(-40,306)"></path><path d="M0 76 C 28 0, 52 0, 80 76 S 132 152, 160 76 S 212 0, 240, 76" fill="none" stroke="#222" opacity="0.028666666666666667" stroke-width="10px" transform="translate(-40,-44)"></path><path d="M0 76 C 28 0, 52 0, 80 76 S 132 152, 160 76 S 212 0, 240, 76" fill="none" stroke="#222" opacity="0.028666666666666667" stroke-width="10px" transform="translate(-40,316)"></path><path d="M0 76 C 28 0, 52 0, 80 76 S 132 152, 160 76 S 212 0, 240, 76" fill="none" stroke="#ddd" opacity="0.03733333333333333" stroke-width="10px" transform="translate(-40,-34)"></path><path d="M0 76 C 28 0, 52 0, 80 76 S 132 152, 160 76 S 212 0, 240, 76" fill="none" stroke="#ddd" opacity="0.03733333333333333" stroke-width="10px" transform="translate(-40,326)"></path><path d="M0 76 C 28 0, 52 0, 80 76 S 132 152, 160 76 S 212 0, 240, 76" fill="none" stroke="#ddd" opacity="0.07200000000000001" stroke-width="10px" transform="translate(-40,-24)"></path><path d="M0 76 C 28 0, 52 0, 80 76 S 132 152, 160 76 S 212 0, 240, 76" fill="none" stroke="#ddd" opacity="0.07200000000000001" stroke-width="10px" transform="translate(-40,336)"></path><path d="M0 76 C 28 0, 52 0, 80 76 S 132 152, 160 76 S 212 0, 240, 76" fill="none" stroke="#ddd" opacity="0.14133333333333334" stroke-width="10px" transform="translate(-40,-14)"></path><path d="M0 76 C 28 0, 52 0, 80 76 S 132 152, 160 76 S 212 0, 240, 76" fill="none" stroke="#ddd" opacity="0.14133333333333334" stroke-width="10px" transform="translate(-40,346)"></path><path d="M0 76 C 28 0, 52 0, 80 76 S 132 152, 160 76 S 212 0, 240, 76" fill="none" stroke="#ddd" opacity="0.07200000000000001" stroke-width="10px" transform="translate(-40,-4)"></path><path d="M0 76 C 28 0, 52 0, 80 76 S 132 152, 160 76 S 212 0, 240, 76" fill="none" stroke="#ddd" opacity="0.07200000000000001" stroke-width="10px" transform="translate(-40,356)"></path><path d="M0 76 C 28 0, 52 0, 80 76 S 132 152, 160 76 S 212 0, 240, 76" fill="none" stroke="#ddd" opacity="0.08933333333333333" stroke-width="10px" transform="translate(-40,6)"></path><path d="M0 76 C 28 0, 52 0, 80 76 S 132 152, 160 76 S 212 0, 240, 76" fill="none" stroke="#ddd" opacity="0.08933333333333333" stroke-width="10px" transform="translate(-40,366)"></path><path d="M0 76 C 28 0, 52 0, 80 76 S 132 152, 160 76 S 212 0, 240, 76" fill="none" stroke="#222" opacity="0.13266666666666665" stroke-width="10px" transform="translate(-40,16)"></path><path d="M0 76 C 28 0, 52 0, 80 76 S 132 152, 160 76 S 212 0, 240, 76" fill="none" stroke="#222" opacity="0.13266666666666665" stroke-width="10px" transform="translate(-40,376)"></path><path d="M0 76 C 28 0, 52 0, 80 76 S 132 152, 160 76 S 212 0, 240, 76" fill="none" stroke="#222" opacity="0.098" stroke-width="10px" transform="translate(-40,26)"></path><path d="M0 76 C 28 0, 52 0, 80 76 S 132 152, 160 76 S 212 0, 240, 76" fill="none" stroke="#222" opacity="0.098" stroke-width="10px" transform="translate(-40,386)"></path><path d="M0 76 C 28 0, 52 0, 80 76 S 132 152, 160 76 S 212 0, 240, 76" fill="none" stroke="#ddd" opacity="0.07200000000000001" stroke-width="10px" transform="translate(-40,36)"></path><path d="M0 76 C 28 0, 52 0, 80 76 S 132 152, 160 76 S 212 0, 240, 76" fill="none" stroke="#ddd" opacity="0.07200000000000001" stroke-width="10px" transform="translate(-40,396)"></path><path d="M0 76 C 28 0, 52 0, 80 76 S 132 152, 160 76 S 212 0, 240, 76" fill="none" stroke="#222" opacity="0.028666666666666667" stroke-width="10px" transform="translate(-40,46)"></path><path d="M0 76 C 28 0, 52 0, 80 76 S 132 152, 160 76 S 212 0, 240, 76" fill="none" stroke="#222" opacity="0.028666666666666667" stroke-width="10px" transform="translate(-40,406)"></path><path d="M0 76 C 28 0, 52 0, 80 76 S 132 152, 160 76 S 212 0, 240, 76" fill="none" stroke="#222" opacity="0.08066666666666666" stroke-width="10px" transform="translate(-40,56)"></path><path d="M0 76 C 28 0, 52 0, 80 76 S 132 152, 160 76 S 212 0, 240, 76" fill="none" stroke="#222" opacity="0.08066666666666666" stroke-width="10px" transform="translate(-40,416)"></path><path d="M0 76 C 28 0, 52 0, 80 76 S 132 152, 160 76 S 212 0, 240, 76" fill="none" stroke="#222" opacity="0.028666666666666667" stroke-width="10px" transform="translate(-40,66)"></path><path d="M0 76 C 28 0, 52 0, 80 76 S 132 152, 160 76 S 212 0, 240, 76" fill="none" stroke="#222" opacity="0.028666666666666667" stroke-width="10px" transform="translate(-40,426)"></path><path d="M0 76 C 28 0, 52 0, 80 76 S 132 152, 160 76 S 212 0, 240, 76" fill="none" stroke="#ddd" opacity="0.05466666666666667" stroke-width="10px" transform="translate(-40,76)"></path><path d="M0 76 C 28 0, 52 0, 80 76 S 132 152, 160 76 S 212 0, 240, 76" fill="none" stroke="#ddd" opacity="0.05466666666666667" stroke-width="10px" transform="translate(-40,436)"></path><path d="M0 76 C 28 0, 52 0, 80 76 S 132 152, 160 76 S 212 0, 240, 76" fill="none" stroke="#ddd" opacity="0.05466666666666667" stroke-width="10px" transform="translate(-40,86)"></path><path d="M0 76 C 28 0, 52 0, 80 76 S 132 152, 160 76 S 212 0, 240, 76" fill="none" stroke="#ddd" opacity="0.05466666666666667" stroke-width="10px" transform="translate(-40,446)"></path><path d="M0 76 C 28 0, 52 0, 80 76 S 132 152, 160 76 S 212 0, 240, 76" fill="none" stroke="#ddd" opacity="0.10666666666666667" stroke-width="10px" transform="translate(-40,96)"></path><path d="M0 76 C 28 0, 52 0, 80 76 S 132 152, 160 76 S 212 0, 240, 76" fill="none" stroke="#ddd" opacity="0.10666666666666667" stroke-width="10px" transform="translate(-40,456)"></path><path d="M0 76 C 28 0, 52 0, 80 76 S 132 152, 160 76 S 212 0, 240, 76" fill="none" stroke="#222" opacity="0.08066666666666666" stroke-width="10px" transform="translate(-40,106)"></path><path d="M0 76 C 28 0, 52 0, 80 76 S 132 152, 160 76 S 212 0, 240, 76" fill="none" stroke="#222" opacity="0.08066666666666666" stroke-width="10px" transform="translate(-40,466)"></path><path d="M0 76 C 28 0, 52 0, 80 76 S 132 152, 160 76 S 212 0, 240, 76" fill="none" stroke="#222" opacity="0.046" stroke-width="10px" transform="translate(-40,116)"></path><path d="M0 76 C 28 0, 52 0, 80 76 S 132 152, 160 76 S 212 0, 240, 76" fill="none" stroke="#222" opacity="0.046" stroke-width="10px" transform="translate(-40,476)"></path><path d="M0 76 C 28 0, 52 0, 80 76 S 132 152, 160 76 S 212 0, 240, 76" fill="none" stroke="#222" opacity="0.11533333333333334" stroke-width="10px" transform="translate(-40,126)"></path><path d="M0 76 C 28 0, 52 0, 80 76 S 132 152, 160 76 S 212 0, 240, 76" fill="none" stroke="#222" opacity="0.11533333333333334" stroke-width="10px" transform="translate(-40,486)"></path><path d="M0 76 C 28 0, 52 0, 80 76 S 132 152, 160 76 S 212 0, 240, 76" fill="none" stroke="#222" opacity="0.11533333333333334" stroke-width="10px" transform="translate(-40,136)"></path><path d="M0 76 C 28 0, 52 0, 80 76 S 132 152, 160 76 S 212 0, 240, 76" fill="none" stroke="#222" opacity="0.11533333333333334" stroke-width="10px" transform="translate(-40,496)"></path><path d="M0 76 C 28 0, 52 0, 80 76 S 132 152, 160 76 S 212 0, 240, 76" fill="none" stroke="#ddd" opacity="0.02" stroke-width="10px" transform="translate(-40,146)"></path><path d="M0 76 C 28 0, 52 0, 80 76 S 132 152, 160 76 S 212 0, 240, 76" fill="none" stroke="#ddd" opacity="0.02" stroke-width="10px" transform="translate(-40,506)"></path><path d="M0 76 C 28 0, 52 0, 80 76 S 132 152, 160 76 S 212 0, 240, 76" fill="none" stroke="#ddd" opacity="0.03733333333333333" stroke-width="10px" transform="translate(-40,156)"></path><path d="M0 76 C 28 0, 52 0, 80 76 S 132 152, 160 76 S 212 0, 240, 76" fill="none" stroke="#ddd" opacity="0.03733333333333333" stroke-width="10px" transform="translate(-40,516)"></path><path d="M0 76 C 28 0, 52 0, 80 76 S 132 152, 160 76 S 212 0, 240, 76" fill="none" stroke="#ddd" opacity="0.14133333333333334" stroke-width="10px" transform="translate(-40,166)"></path><path d="M0 76 C 28 0, 52 0, 80 76 S 132 152, 160 76 S 212 0, 240, 76" fill="none" stroke="#ddd" opacity="0.14133333333333334" stroke-width="10px" transform="translate(-40,526)"></path><path d="M0 76 C 28 0, 52 0, 80 76 S 132 152, 160 76 S 212 0, 240, 76" fill="none" stroke="#222" opacity="0.11533333333333334" stroke-width="10px" transform="translate(-40,176)"></path><path d="M0 76 C 28 0, 52 0, 80 76 S 132 152, 160 76 S 212 0, 240, 76" fill="none" stroke="#222" opacity="0.11533333333333334" stroke-width="10px" transform="translate(-40,536)"></path><path d="M0 76 C 28 0, 52 0, 80 76 S 132 152, 160 76 S 212 0, 240, 76" fill="none" stroke="#ddd" opacity="0.03733333333333333" stroke-width="10px" transform="translate(-40,186)"></path><path d="M0 76 C 28 0, 52 0, 80 76 S 132 152, 160 76 S 212 0, 240, 76" fill="none" stroke="#ddd" opacity="0.03733333333333333" stroke-width="10px" transform="translate(-40,546)"></path><path d="M0 76 C 28 0, 52 0, 80 76 S 132 152, 160 76 S 212 0, 240, 76" fill="none" stroke="#ddd" opacity="0.14133333333333334" stroke-width="10px" transform="translate(-40,196)"></path><path d="M0 76 C 28 0, 52 0, 80 76 S 132 152, 160 76 S 212 0, 240, 76" fill="none" stroke="#ddd" opacity="0.14133333333333334" stroke-width="10px" transform="translate(-40,556)"></path><path d="M0 76 C 28 0, 52 0, 80 76 S 132 152, 160 76 S 212 0, 240, 76" fill="none" stroke="#222" opacity="0.08066666666666666" stroke-width="10px" transform="translate(-40,206)"></path><path d="M0 76 C 28 0, 52 0, 80 76 S 132 152, 160 76 S 212 0, 240, 76" fill="none" stroke="#222" opacity="0.08066666666666666" stroke-width="10px" transform="translate(-40,566)"></path><path d="M0 76 C 28 0, 52 0, 80 76 S 132 152, 160 76 S 212 0, 240, 76" fill="none" stroke="#222" opacity="0.15" stroke-width="10px" transform="translate(-40,216)"></path><path d="M0 76 C 28 0, 52 0, 80 76 S 132 152, 160 76 S 212 0, 240, 76" fill="none" stroke="#222" opacity="0.15" stroke-width="10px" transform="translate(-40,576)"></path><path d="M0 76 C 28 0, 52 0, 80 76 S 132 152, 160 76 S 212 0, 240, 76" fill="none" stroke="#ddd" opacity="0.03733333333333333" stroke-width="10px" transform="translate(-40,226)"></path><path d="M0 76 C 28 0, 52 0, 80 76 S 132 152, 160 76 S 212 0, 240, 76" fill="none" stroke="#ddd" opacity="0.03733333333333333" stroke-width="10px" transform="translate(-40,586)"></path><path d="M0 76 C 28 0, 52 0, 80 76 S 132 152, 160 76 S 212 0, 240, 76" fill="none" stroke="#ddd" opacity="0.10666666666666667" stroke-width="10px" transform="translate(-40,236)"></path><path d="M0 76 C 28 0, 52 0, 80 76 S 132 152, 160 76 S 212 0, 240, 76" fill="none" stroke="#ddd" opacity="0.10666666666666667" stroke-width="10px" transform="translate(-40,596)"></path></svg>