<svg xmlns="http://www.w3.org/2000/svg" width="232" height="232"><rect x="0" y="0" width="100%" height="100%" fill="rgb(231,67,195)"></rect><polyline points="0,0,29,29,0,29,0,0" stroke="#000" stroke-opacity="0.02" fill-opacity="0.07200000000000001" fill="#ddd" transform="translate(0,29) scale(1,-1)"></polyline><polyline points="0,0,29,29,0,29,0,0" stroke="#000" stroke-opacity="0.02" fill-opacity="0.07200000000000001" fill="#ddd" transform="translate(58,29) scale(-1,-1)"></polyline><polyline points="0,0,29,29,0,29,0,0" stroke="#000" stroke-opacity="0.02" fill-opacity="0.07200000000000001" fill="#ddd" transform="translate(0,29) scale(1,1)"></polyline><polyline points="0,0,29,29,0,29,0,0" stroke="#000" stroke-opacity="0.02" fill-opacity="0.07200000000000001" fill="#ddd" transform="translate(58,29) scale(-1,1)"></polyline><polyline points="0,0,29,29,0,29,0,0" stroke="#000" stroke-opacity="0.02" fill-opacity="0.098" fill="#222" transform="translate(87,0) scale(-1,1)"></polyline><polyline points="0,0,29,29,0,29,0,0" stroke="#000" stroke-opacity="0.02" fill-opacity="0.098" fill="#222" transform="translate(87,58) scale(1,-1)"></polyline><polyline points="0,0,29,29,0,29,0,0" stroke="#000" stroke-opacity="0.02" fill-opacity="0.046" fill="#222" transform="translate(87,58) scale(-1,-1)"></polyline><polyline points="0,0,29,29,0,29,0,0" stroke="#000" stroke-opacity="0.02" fill-opacity="0.046" fill="#222" transform="translate(87,0) scale(1,1)"></polyline><polyline points="0,0,29,29,0,29,0,0" stroke="#000" stroke-opacity="0.02" fill-opacity="0.046" fill="#222" transform="translate(116,29) scale(1,-1)"></polyline><polyline points="0,0,29,29,0,29,0,0" stroke="#000" stroke-opacity="0.02" fill-opacity="0.046" fill="#222" transform="translate(174,29) scale(-1,-1)"></polyline><polyline points="0,0,29,29,0,29,0,0" stroke="#000" stroke-opacity="0.02" fill-opacity="0.046" fill="#222" transform="translate(116,29) scale(1,1)"></polyline><polyline points="0,0,29,29,0,29,0,0" stroke="#000" stroke-opacity="0.02" fill-opacity="0.046" fill="#222" transform="translate(174,29) scale(-1,1)"></polyline><polyline points="0,0,29,29,0,29,0,0" stroke="#000" stroke-opacity="0.02" fill-opacity="0.08933333333333333" fill="#ddd" transform="translate(203,0) scale(-1,1)"></polyline><polyline points="0,0,29,29,0,29,0,0" stroke="#000" stroke-opacity="0.02" fill-opacity="0.08933333333333333" fill="#ddd" transform="translate(203,58) scale(1,-1)"></polyline><polyline points="0,0,29,29,0,29,0,0" stroke="#000" stroke-opacity="0.02" fill-opacity="0.14133333333333334" fill="#ddd" transform="translate(203,58) scale(-1,-1)"></polyline><polyline points="0,0,29,29,0,29,0,0" stroke="#000" stroke-opacity="0.02" fill-opacity="0.14133333333333334" fill="#ddd" transform="translate(203,0) scale(1,1)"></polyline><polyline points="0,0,29,29,0,29,0,0" stroke="#000" stroke-opacity="0.02" fill-opacity="0.14133333333333334" fill="#ddd" transform="translate(29,58) scale(-1,1)"></polyline><polyline points="0,0,29,29,0,29,0,0" stroke="#000" stroke-opacity="0.02" fill-opacity="0.14133333333333334" fill="#ddd" transform="translate(29,116) scale(1,-1)"></polyline><polyline points="0,0,29,29,0,29,0,0" stroke="#000" stroke-opacity="0.02" fill-opacity="0.10666666666666667" fill="#ddd" transform="translate(29,116) scale(-1,-1)"></polyline><polyline points="0,0,29,29,0,29,0,0" stroke="#000" stroke-opacity="0.02" fill-opacity="0.10666666666666667" fill="#ddd" transform="translate(29,58) scale(1,1)"></polyline><polyline points="0,0,29,29,0,29,0,0" stroke="#000" stroke-opacity="0.02" fill-opacity="0.10666666666666667" fill="#ddd" transform="translate(58,87) scale(1,-1)"></polyline><polyline points="0,0,29,29,0,29,0,0" stroke="#000" stroke-opacity="0.02" fill-opacity="0.10666666666666667" fill="#ddd" transform="translate(116,87) scale(-1,-1)"></polyline><polyline points="0,0,29,29,0,29,0,0" stroke="#000" stroke-opacity="0.02" fill-opacity="0.10666666666666667" fill="#ddd" transform="translate(58,87) scale(1,1)"></polyline><polyline points="0,0,29,29,0,29,0,0" stroke="#000" stroke-opacity="0.02" fill-opacity="0.10666666666666667" fill="#ddd" transform="translate(116,87) scale(-1,1)"></polyline><polyline points="0,0,29,29,0,29,0,0" stroke="#000" stroke-opacity="0.02" fill-opacity="0.098" fill="#222" transform="translate(145,58) scale(-1,1)"></polyline><polyline points="0,0,29,29,0,29,0,0" stroke="#000" stroke-opacity="0.02" fill-opacity="0.098" fill="#222" transform="translate(145,116) scale(1,-1)"></polyline><polyline points="0,0,29,29,0,29,0,0" stroke="#000" stroke-opacity="0.02" fill-opacity="0.12400000000000001" fill="#ddd" transform="translate(145,116) scale(-1,-1)"></polyline><polyline points="0,0,29,29,0,29,0,0" stroke="#000" stroke-opacity="0.02" fill-opacity="0.12400000000000001" fill="#ddd" transform="translate(145,58) scale(1,1)"></polyline><polyline points="0,0,29,29,0,29,0,0" stroke="#000" stroke-opacity="0.02" fill-opacity="0.12400000000000001" fill="#ddd" transform="translate(174,87) scale(1,-1)"></polyline><polyline points="0,0,29,29,0,29,0,0" stroke="#000" stroke-opacity="0.02" fill-opacity="0.12400000000000001" fill="#ddd" transform="translate(232,87) scale(-1,-1)"></polyline><polyline points="0,0,29,29,0,29,0,0" stroke="#000" stroke-opacity="0.02" fill-opacity="0.12400000000000001" fill="#ddd" transform="translate(174,87) scale(1,1)"></polyline><polyline points="0,0,29,29,0,29,0,0" stroke="#000" stroke-opacity="0.02" fill-opacity="0.12400000000000001" fill="#ddd" transform="translate(232,87) scale(-1,1)"></polyline><polyline points="0,0,29,29,0,29,0,0" stroke="#000" stroke-opacity="0.02" fill-opacity="0.10666666666666667" fill="#ddd" transform="translate(0,145) scale(1,-1)"></polyline><polyline points="0,0,29,29,0,29,0,0" stroke="#000" stroke-opacity="0.02" fill-opacity="0.10666666666666667" fill="#ddd" transform="translate(58,145) scale(-1,-1)"></polyline><polyline points="0,0,29,29,0,29,0,0" stroke="#000" stroke-opacity="0.02" fill-opacity="0.10666666666666667" fill="#ddd" transform="translate(0,145) scale(1,1)"></polyline><polyline points="0,0,29,29,0,29,0,0" stroke="#000" stroke-opacity="0.02" fill-opacity="0.10666666666666667" fill="#ddd" transform="translate(58,145) scale(-1,1)"></polyline><polyline points="0,0,29,29,0,29,0,0" stroke="#000" stroke-opacity="0.02" fill-opacity="0.08933333333333333" fill="#ddd" transform="translate(87,116) scale(-1,1)"></polyline><polyline points="0,0,29,29,0,29,0,0" stroke="#000" stroke-opacity="0.02" fill-opacity="0.08933333333333333" fill="#ddd" transform="translate(87,174) scale(1,-1)"></polyline><polyline points="0,0,29,29,0,29,0,0" stroke="#000" stroke-opacity="0.02" fill-opacity="0.05466666666666667" fill="#ddd" transform="translate(87,174) scale(-1,-1)"></polyline><polyline points="0,0,29,29,0,29,0,0" stroke="#000" stroke-opacity="0.02" fill-opacity="0.05466666666666667" fill="#ddd" transform="translate(87,116) scale(1,1)"></polyline><polyline points="0,0,29,29,0,29,0,0" stroke="#000" stroke-opacity="0.02" fill-opacity="0.05466666666666667" fill="#ddd" transform="translate(116,145) scale(1,-1)"></polyline><polyline points="0,0,29,29,0,29,0,0" stroke="#000" stroke-opacity="0.02" fill-opacity="0.05466666666666667" fill="#ddd" transform="translate(174,145) scale(-1,-1)"></polyline><polyline points="0,0,29,29,0,29,0,0" stroke="#000" stroke-opacity="0.02" fill-opacity="0.05466666666666667" fill="#ddd" transform="translate(116,145) scale(1,1)"></polyline><polyline points="0,0,29,29,0,29,0,0" stroke="#000" stroke-opacity="0.02" fill-opacity="0.05466666666666667" fill="#ddd" transform="translate(174,145) scale(-1,1)"></polyline><polyline points="0,0,29,29,0,29,0,0" stroke="#000" stroke-opacity="0.02" fill-opacity="0.15" fill="#222" transform="translate(203,116) scale(-1,1)"></polyline><polyline points="0,0,29,29,0,29,0,0" stroke="#000" stroke-opacity="0.02" fill-opacity="0.15" fill="#222" transform="translate(203,174) scale(1,-1)"></polyline><polyline points="0,0,29,29,0,29,0,0" stroke="#000" stroke-opacity="0.02" fill-opacity="0.03733333333333333" fill="#ddd" transform="translate(203,174) scale(-1,-1)"></polyline><polyline points="0,0,29,29,0,29,0,0" stroke="#000" stroke-opacity="0.02" fill-opacity="0.03733333333333333" fill="#ddd" transform="translate(203,116) scale(1,1)"></polyline><polyline points="0,0,29,29,0,29,0,0" stroke="#000" stroke-opacity="0.02" fill-opacity="0.03733333333333333" fill="#ddd" transform="translate(29,174) scale(-1,1)"></polyline><polyline points="0,0,29,29,0,29,0,0" stroke="#000" stroke-opacity="0.02" fill-opacity="0.03733333333333333" fill="#ddd" transform="translate(29,232) scale(1,-1)"></polyline><polyline points="0,0,29,29,0,29,0,0" stroke="#000" stroke-opacity="0.02" fill-opacity="0.14133333333333334" fill="#ddd" transform="translate(29,232) scale(-1,-1)"></polyline><polyline points="0,0,29,29,0,29,0,0" stroke="#000" stroke-opacity="0.02" fill-opacity="0.14133333333333334" fill="#ddd" transform="translate(29,174) scale(1,1)"></polyline><polyline points="0,0,29,29,0,29,0,0" stroke="#000" stroke-opacity="0.02" fill-opacity="0.14133333333333334" fill="#ddd" transform="translate(58,203) scale(1,-1)"></polyline><polyline points="0,0,29,29,0,29,0,0" stroke="#000" stroke-opacity="0.02" fill-opacity="0.14133333333333334" fill="#ddd" transform="translate(116,203) scale(-1,-1)"></polyline><polyline points="0,0,29,29,0,29,0,0" stroke="#000" stroke-opacity="0.02" fill-opacity="0.14133333333333334" fill="#ddd" transform="translate(58,203) scale(1,1)"></polyline><polyline points="0,0,29,29,0,29,0,0" stroke="#000" stroke-opacity="0.02" fill-opacity="0.14133333333333334" fill="#ddd" transform="translate(116,203) scale(-1,1)"></polyline><polyline points="0,0,29,29,0,29,0,0" stroke="#000" stroke-opacity="0.02" fill-opacity="0.11533333333333334" fill="#222" transform="translate(145,174) scale(-1,1)"></polyline><polyline points="0,0,29,29,0,29,0,0" stroke="#000" stroke-opacity="0.02" fill-opacity="0.11533333333333334" fill="#222" transform="translate(145,232) scale(1,-1)"></polyline><polyline points="0,0,29,29,0,29,0,0" stroke="#000" stroke-opacity="0.02" fill-opacity="0.03733333333333333" fill="#ddd" transform="translate(145,232) scale(-1,-1)"></polyline><polyline points="0,0,29,29,0,29,0,0" stroke="#000" stroke-opacity="0.02" fill-opacity="0.03733333333333333" fill="#ddd" transform="translate(145,174) scale(1,1)"></polyline><polyline points="0,0,29,29,0,29,0,0" stroke="#000" stroke-opacity="0.02" fill-opacity="0.03733333333333333" fill="#ddd" transform="translate(174,203) scale(1,-1)"></polyline><polyline points="0,0,29,29,0,29,0,0" stroke="#000" stroke-opacity="0.02" fill-opacity="0.03733333333333333" fill="#ddd" transform="translate(232,203) scale(-1,-1)"></polyline><polyline points="0,0,29,29,0,29,0,0" stroke="#000" stroke-opacity="0.02" fill-opacity="0.03733333333333333" fill="#ddd" transform="translate(174,203) scale(1,1)"></polyline><polyline points="0,0,29,29,0,29,0,0" stroke="#000" stroke-opacity="0.02" fill-opacity="0.03733333333333333" fill="#ddd" transform="translate(232,203) scale(-1,1)"></polyline></svg>