<svg xmlns="http://www.w3.org/2000/svg" viewBox="0 0 16 16" width="32" height="32" fill="#fff" fill-rule="evenodd" clip-rule="evenodd" stroke-linejoin="round" stroke-miterlimit="1.414"><path fill-rule="nonzero" d="M6.586 7.33l.69 2.057 2.137-.716-.69-2.05-2.137.72zm5.964 2.04l-1.037.347.36 1.073a.831.831 0 0 1-.814 1.092.843.843 0 0 1-.77-.566l-.36-1.072-2.14.716.36 1.072a.833.833 0 0 1-.82 1.093.843.843 0 0 1-.77-.566l-.36-1.08-1.04.35a.846.846 0 0 1-1.06-.53c-.15-.44.09-.91.52-1.05l1.04-.35L5 7.84l-1.034.35a.829.829 0 0 1-1.045-.522.834.834 0 0 1 .53-1.05l1.04-.346-.36-1.07a.832.832 0 0 1 .53-1.05c.44-.147.91.09 1.05.522l.36 1.072L8.2 5.03l-.36-1.07c-.14-.43.09-.9.526-1.05a.833.833 0 0 1 1.05.528l.36 1.08 1.037-.34a.831.831 0 0 1 1.05.52.83.83 0 0 1-.523 1.05l-1.038.35.69 2.057 1.034-.344a.833.833 0 0 1 1.05.53c.146.44-.09.91-.52 1.05zm2.78-3.57C13.68.304 11.298-.98 5.8.67.304 2.32-.98 4.7.67 10.2c1.65 5.497 4.03 6.78 9.53 5.13 5.497-1.65 6.78-4.03 5.13-9.53z"/></svg>