<svg xmlns="http://www.w3.org/2000/svg" viewBox="0 0 16 16" width="16" height="16" fill-rule="evenodd" clip-rule="evenodd" stroke-linejoin="round" stroke-miterlimit="1.414"><path fill-rule="nonzero" d="M16 3.038a6.62 6.62 0 0 1-1.885.517 3.299 3.299 0 0 0 1.443-1.816c-.634.37-1.337.64-2.085.79a3.282 3.282 0 0 0-5.593 2.99 9.307 9.307 0 0 1-6.766-3.42A3.222 3.222 0 0 0 .67 3.75c0 1.14.58 2.143 1.46 2.732a3.278 3.278 0 0 1-1.487-.41v.04c0 1.59 1.13 2.918 2.633 3.22a3.336 3.336 0 0 1-1.475.056 3.29 3.29 0 0 0 3.07 2.28 6.578 6.578 0 0 1-4.85 1.359 9.332 9.332 0 0 0 5.04 1.474c6.04 0 9.34-5 9.34-9.33 0-.14 0-.28-.01-.42a6.63 6.63 0 0 0 1.64-1.7z" fill="#fff"/></svg>